<?xml version="1.0" encoding="utf-8"?>
<svg xmlns="http://www.w3.org/2000/svg" xmlns:xlink="http://www.w3.org/1999/xlink" width="1200" height="600" viewBox="0 0 4800 2400">
<defs>
  <clipPath id="clip510">
    <rect x="0" y="0" width="4800" height="2400"/>
  </clipPath>
</defs>
<path clip-path="url(#clip510)" d="
M0 2400 L4800 2400 L4800 0 L0 0  Z
  " fill="#ffffff" fill-rule="evenodd" fill-opacity="1"/>
<defs>
  <clipPath id="clip511">
    <rect x="960" y="0" width="3361" height="2400"/>
  </clipPath>
</defs>
<path clip-path="url(#clip510)" d="
M250.557 2172.71 L2271.82 2172.71 L2271.82 110.236 L250.557 110.236  Z
  " fill="#ffffff" fill-rule="evenodd" fill-opacity="1"/>
<defs>
  <clipPath id="clip512">
    <rect x="250" y="110" width="2022" height="2063"/>
  </clipPath>
</defs>
<polyline clip-path="url(#clip512)" style="stroke:#000000; stroke-linecap:round; stroke-linejoin:round; stroke-width:2; stroke-opacity:0.1; fill:none" points="
  442.536,2172.71 442.536,110.236 
  "/>
<polyline clip-path="url(#clip512)" style="stroke:#000000; stroke-linecap:round; stroke-linejoin:round; stroke-width:2; stroke-opacity:0.1; fill:none" points="
  824.924,2172.71 824.924,110.236 
  "/>
<polyline clip-path="url(#clip512)" style="stroke:#000000; stroke-linecap:round; stroke-linejoin:round; stroke-width:2; stroke-opacity:0.1; fill:none" points="
  1207.31,2172.71 1207.31,110.236 
  "/>
<polyline clip-path="url(#clip512)" style="stroke:#000000; stroke-linecap:round; stroke-linejoin:round; stroke-width:2; stroke-opacity:0.1; fill:none" points="
  1589.7,2172.71 1589.7,110.236 
  "/>
<polyline clip-path="url(#clip512)" style="stroke:#000000; stroke-linecap:round; stroke-linejoin:round; stroke-width:2; stroke-opacity:0.1; fill:none" points="
  1972.09,2172.71 1972.09,110.236 
  "/>
<polyline clip-path="url(#clip510)" style="stroke:#000000; stroke-linecap:round; stroke-linejoin:round; stroke-width:4; stroke-opacity:1; fill:none" points="
  250.557,2172.71 2271.82,2172.71 
  "/>
<polyline clip-path="url(#clip510)" style="stroke:#000000; stroke-linecap:round; stroke-linejoin:round; stroke-width:4; stroke-opacity:1; fill:none" points="
  442.536,2172.71 442.536,2153.81 
  "/>
<polyline clip-path="url(#clip510)" style="stroke:#000000; stroke-linecap:round; stroke-linejoin:round; stroke-width:4; stroke-opacity:1; fill:none" points="
  824.924,2172.71 824.924,2153.81 
  "/>
<polyline clip-path="url(#clip510)" style="stroke:#000000; stroke-linecap:round; stroke-linejoin:round; stroke-width:4; stroke-opacity:1; fill:none" points="
  1207.31,2172.71 1207.31,2153.81 
  "/>
<polyline clip-path="url(#clip510)" style="stroke:#000000; stroke-linecap:round; stroke-linejoin:round; stroke-width:4; stroke-opacity:1; fill:none" points="
  1589.7,2172.71 1589.7,2153.81 
  "/>
<polyline clip-path="url(#clip510)" style="stroke:#000000; stroke-linecap:round; stroke-linejoin:round; stroke-width:4; stroke-opacity:1; fill:none" points="
  1972.09,2172.71 1972.09,2153.81 
  "/>
<path clip-path="url(#clip510)" d="M405.337 2222.83 Q401.726 2222.83 399.898 2226.39 Q398.092 2229.93 398.092 2237.06 Q398.092 2244.17 399.898 2247.73 Q401.726 2251.28 405.337 2251.28 Q408.972 2251.28 410.777 2247.73 Q412.606 2244.17 412.606 2237.06 Q412.606 2229.93 410.777 2226.39 Q408.972 2222.83 405.337 2222.83 M405.337 2219.12 Q411.148 2219.12 414.203 2223.73 Q417.282 2228.31 417.282 2237.06 Q417.282 2245.79 414.203 2250.4 Q411.148 2254.98 405.337 2254.98 Q399.527 2254.98 396.449 2250.4 Q393.393 2245.79 393.393 2237.06 Q393.393 2228.31 396.449 2223.73 Q399.527 2219.12 405.337 2219.12 Z" fill="#000000" fill-rule="evenodd" fill-opacity="1" /><path clip-path="url(#clip510)" d="M425.499 2248.43 L430.384 2248.43 L430.384 2254.31 L425.499 2254.31 L425.499 2248.43 Z" fill="#000000" fill-rule="evenodd" fill-opacity="1" /><path clip-path="url(#clip510)" d="M439.388 2219.75 L461.61 2219.75 L461.61 2221.74 L449.064 2254.31 L444.18 2254.31 L455.985 2223.68 L439.388 2223.68 L439.388 2219.75 Z" fill="#000000" fill-rule="evenodd" fill-opacity="1" /><path clip-path="url(#clip510)" d="M470.777 2219.75 L489.133 2219.75 L489.133 2223.68 L475.059 2223.68 L475.059 2232.16 Q476.078 2231.81 477.096 2231.65 Q478.115 2231.46 479.133 2231.46 Q484.92 2231.46 488.3 2234.63 Q491.679 2237.8 491.679 2243.22 Q491.679 2248.8 488.207 2251.9 Q484.735 2254.98 478.416 2254.98 Q476.24 2254.98 473.971 2254.61 Q471.726 2254.24 469.318 2253.5 L469.318 2248.8 Q471.402 2249.93 473.624 2250.49 Q475.846 2251.04 478.323 2251.04 Q482.328 2251.04 484.666 2248.94 Q487.004 2246.83 487.004 2243.22 Q487.004 2239.61 484.666 2237.5 Q482.328 2235.4 478.323 2235.4 Q476.448 2235.4 474.573 2235.81 Q472.721 2236.23 470.777 2237.11 L470.777 2219.75 Z" fill="#000000" fill-rule="evenodd" fill-opacity="1" /><path clip-path="url(#clip510)" d="M776.996 2250.37 L784.634 2250.37 L784.634 2224.01 L776.324 2225.67 L776.324 2221.41 L784.588 2219.75 L789.264 2219.75 L789.264 2250.37 L796.903 2250.37 L796.903 2254.31 L776.996 2254.31 L776.996 2250.37 Z" fill="#000000" fill-rule="evenodd" fill-opacity="1" /><path clip-path="url(#clip510)" d="M806.347 2248.43 L811.232 2248.43 L811.232 2254.31 L806.347 2254.31 L806.347 2248.43 Z" fill="#000000" fill-rule="evenodd" fill-opacity="1" /><path clip-path="url(#clip510)" d="M831.417 2222.83 Q827.805 2222.83 825.977 2226.39 Q824.171 2229.93 824.171 2237.06 Q824.171 2244.17 825.977 2247.73 Q827.805 2251.28 831.417 2251.28 Q835.051 2251.28 836.856 2247.73 Q838.685 2244.17 838.685 2237.06 Q838.685 2229.93 836.856 2226.39 Q835.051 2222.83 831.417 2222.83 M831.417 2219.12 Q837.227 2219.12 840.282 2223.73 Q843.361 2228.31 843.361 2237.06 Q843.361 2245.79 840.282 2250.4 Q837.227 2254.98 831.417 2254.98 Q825.606 2254.98 822.528 2250.4 Q819.472 2245.79 819.472 2237.06 Q819.472 2228.31 822.528 2223.73 Q825.606 2219.12 831.417 2219.12 Z" fill="#000000" fill-rule="evenodd" fill-opacity="1" /><path clip-path="url(#clip510)" d="M861.578 2222.83 Q857.967 2222.83 856.139 2226.39 Q854.333 2229.93 854.333 2237.06 Q854.333 2244.17 856.139 2247.73 Q857.967 2251.28 861.578 2251.28 Q865.213 2251.28 867.018 2247.73 Q868.847 2244.17 868.847 2237.06 Q868.847 2229.93 867.018 2226.39 Q865.213 2222.83 861.578 2222.83 M861.578 2219.12 Q867.389 2219.12 870.444 2223.73 Q873.523 2228.31 873.523 2237.06 Q873.523 2245.79 870.444 2250.4 Q867.389 2254.98 861.578 2254.98 Q855.768 2254.98 852.69 2250.4 Q849.634 2245.79 849.634 2237.06 Q849.634 2228.31 852.69 2223.73 Q855.768 2219.12 861.578 2219.12 Z" fill="#000000" fill-rule="evenodd" fill-opacity="1" /><path clip-path="url(#clip510)" d="M1159.88 2250.37 L1167.52 2250.37 L1167.52 2224.01 L1159.21 2225.67 L1159.21 2221.41 L1167.47 2219.75 L1172.15 2219.75 L1172.15 2250.37 L1179.79 2250.37 L1179.79 2254.31 L1159.88 2254.31 L1159.88 2250.37 Z" fill="#000000" fill-rule="evenodd" fill-opacity="1" /><path clip-path="url(#clip510)" d="M1189.23 2248.43 L1194.12 2248.43 L1194.12 2254.31 L1189.23 2254.31 L1189.23 2248.43 Z" fill="#000000" fill-rule="evenodd" fill-opacity="1" /><path clip-path="url(#clip510)" d="M1208.33 2250.37 L1224.65 2250.37 L1224.65 2254.31 L1202.7 2254.31 L1202.7 2250.37 Q1205.37 2247.62 1209.95 2242.99 Q1214.56 2238.34 1215.74 2236.99 Q1217.98 2234.47 1218.86 2232.73 Q1219.76 2230.97 1219.76 2229.28 Q1219.76 2226.53 1217.82 2224.79 Q1215.9 2223.06 1212.8 2223.06 Q1210.6 2223.06 1208.14 2223.82 Q1205.71 2224.59 1202.94 2226.14 L1202.94 2221.41 Q1205.76 2220.28 1208.21 2219.7 Q1210.67 2219.12 1212.7 2219.12 Q1218.07 2219.12 1221.27 2221.81 Q1224.46 2224.49 1224.46 2228.98 Q1224.46 2231.11 1223.65 2233.03 Q1222.87 2234.93 1220.76 2237.53 Q1220.18 2238.2 1217.08 2241.41 Q1213.98 2244.61 1208.33 2250.37 Z" fill="#000000" fill-rule="evenodd" fill-opacity="1" /><path clip-path="url(#clip510)" d="M1234.51 2219.75 L1252.87 2219.75 L1252.87 2223.68 L1238.79 2223.68 L1238.79 2232.16 Q1239.81 2231.81 1240.83 2231.65 Q1241.85 2231.46 1242.87 2231.46 Q1248.65 2231.46 1252.03 2234.63 Q1255.41 2237.8 1255.41 2243.22 Q1255.41 2248.8 1251.94 2251.9 Q1248.47 2254.98 1242.15 2254.98 Q1239.97 2254.98 1237.7 2254.61 Q1235.46 2254.24 1233.05 2253.5 L1233.05 2248.8 Q1235.13 2249.93 1237.36 2250.49 Q1239.58 2251.04 1242.06 2251.04 Q1246.06 2251.04 1248.4 2248.94 Q1250.74 2246.83 1250.74 2243.22 Q1250.74 2239.61 1248.4 2237.5 Q1246.06 2235.4 1242.06 2235.4 Q1240.18 2235.4 1238.31 2235.81 Q1236.45 2236.23 1234.51 2237.11 L1234.51 2219.75 Z" fill="#000000" fill-rule="evenodd" fill-opacity="1" /><path clip-path="url(#clip510)" d="M1541.77 2250.37 L1549.41 2250.37 L1549.41 2224.01 L1541.1 2225.67 L1541.1 2221.41 L1549.36 2219.75 L1554.04 2219.75 L1554.04 2250.37 L1561.68 2250.37 L1561.68 2254.31 L1541.77 2254.31 L1541.77 2250.37 Z" fill="#000000" fill-rule="evenodd" fill-opacity="1" /><path clip-path="url(#clip510)" d="M1571.12 2248.43 L1576.01 2248.43 L1576.01 2254.31 L1571.12 2254.31 L1571.12 2248.43 Z" fill="#000000" fill-rule="evenodd" fill-opacity="1" /><path clip-path="url(#clip510)" d="M1586.24 2219.75 L1604.59 2219.75 L1604.59 2223.68 L1590.52 2223.68 L1590.52 2232.16 Q1591.54 2231.81 1592.56 2231.65 Q1593.58 2231.46 1594.59 2231.46 Q1600.38 2231.46 1603.76 2234.63 Q1607.14 2237.8 1607.14 2243.22 Q1607.14 2248.8 1603.67 2251.9 Q1600.2 2254.98 1593.88 2254.98 Q1591.7 2254.98 1589.43 2254.61 Q1587.19 2254.24 1584.78 2253.5 L1584.78 2248.8 Q1586.86 2249.93 1589.08 2250.49 Q1591.31 2251.04 1593.78 2251.04 Q1597.79 2251.04 1600.13 2248.94 Q1602.46 2246.83 1602.46 2243.22 Q1602.46 2239.61 1600.13 2237.5 Q1597.79 2235.4 1593.78 2235.4 Q1591.91 2235.4 1590.03 2235.81 Q1588.18 2236.23 1586.24 2237.11 L1586.24 2219.75 Z" fill="#000000" fill-rule="evenodd" fill-opacity="1" /><path clip-path="url(#clip510)" d="M1626.35 2222.83 Q1622.74 2222.83 1620.91 2226.39 Q1619.11 2229.93 1619.11 2237.06 Q1619.11 2244.17 1620.91 2247.73 Q1622.74 2251.28 1626.35 2251.28 Q1629.99 2251.28 1631.79 2247.73 Q1633.62 2244.17 1633.62 2237.06 Q1633.62 2229.93 1631.79 2226.39 Q1629.99 2222.83 1626.35 2222.83 M1626.35 2219.12 Q1632.16 2219.12 1635.22 2223.73 Q1638.3 2228.31 1638.3 2237.06 Q1638.3 2245.79 1635.22 2250.4 Q1632.16 2254.98 1626.35 2254.98 Q1620.54 2254.98 1617.46 2250.4 Q1614.41 2245.79 1614.41 2237.06 Q1614.41 2228.31 1617.46 2223.73 Q1620.54 2219.12 1626.35 2219.12 Z" fill="#000000" fill-rule="evenodd" fill-opacity="1" /><path clip-path="url(#clip510)" d="M1924.66 2250.37 L1932.29 2250.37 L1932.29 2224.01 L1923.98 2225.67 L1923.98 2221.41 L1932.25 2219.75 L1936.92 2219.75 L1936.92 2250.37 L1944.56 2250.37 L1944.56 2254.31 L1924.66 2254.31 L1924.66 2250.37 Z" fill="#000000" fill-rule="evenodd" fill-opacity="1" /><path clip-path="url(#clip510)" d="M1954.01 2248.43 L1958.89 2248.43 L1958.89 2254.31 L1954.01 2254.31 L1954.01 2248.43 Z" fill="#000000" fill-rule="evenodd" fill-opacity="1" /><path clip-path="url(#clip510)" d="M1967.9 2219.75 L1990.12 2219.75 L1990.12 2221.74 L1977.57 2254.31 L1972.69 2254.31 L1984.49 2223.68 L1967.9 2223.68 L1967.9 2219.75 Z" fill="#000000" fill-rule="evenodd" fill-opacity="1" /><path clip-path="url(#clip510)" d="M1999.28 2219.75 L2017.64 2219.75 L2017.64 2223.68 L2003.57 2223.68 L2003.57 2232.16 Q2004.59 2231.81 2005.6 2231.65 Q2006.62 2231.46 2007.64 2231.46 Q2013.43 2231.46 2016.81 2234.63 Q2020.19 2237.8 2020.19 2243.22 Q2020.19 2248.8 2016.71 2251.9 Q2013.24 2254.98 2006.92 2254.98 Q2004.75 2254.98 2002.48 2254.61 Q2000.23 2254.24 1997.83 2253.5 L1997.83 2248.8 Q1999.91 2249.93 2002.13 2250.49 Q2004.35 2251.04 2006.83 2251.04 Q2010.84 2251.04 2013.17 2248.94 Q2015.51 2246.83 2015.51 2243.22 Q2015.51 2239.61 2013.17 2237.5 Q2010.84 2235.4 2006.83 2235.4 Q2004.96 2235.4 2003.08 2235.81 Q2001.23 2236.23 1999.28 2237.11 L1999.28 2219.75 Z" fill="#000000" fill-rule="evenodd" fill-opacity="1" /><path clip-path="url(#clip510)" d="M712.117 2306.05 L721.697 2306.05 L733.824 2338.39 L746.014 2306.05 L755.594 2306.05 L755.594 2353.57 L749.324 2353.57 L749.324 2311.84 L737.07 2344.44 L730.609 2344.44 L718.355 2311.84 L718.355 2353.57 L712.117 2353.57 L712.117 2306.05 Z" fill="#000000" fill-rule="evenodd" fill-opacity="1" /><path clip-path="url(#clip510)" d="M798.595 2334.28 L798.595 2337.15 L771.668 2337.15 Q772.05 2343.2 775.296 2346.38 Q778.575 2349.53 784.399 2349.53 Q787.773 2349.53 790.924 2348.7 Q794.107 2347.87 797.226 2346.22 L797.226 2351.76 Q794.075 2353.09 790.765 2353.79 Q787.455 2354.49 784.049 2354.49 Q775.519 2354.49 770.522 2349.53 Q765.557 2344.56 765.557 2336.1 Q765.557 2327.35 770.267 2322.22 Q775.01 2317.06 783.031 2317.06 Q790.224 2317.06 794.393 2321.71 Q798.595 2326.33 798.595 2334.28 M792.738 2332.56 Q792.675 2327.76 790.033 2324.89 Q787.423 2322.03 783.094 2322.03 Q778.193 2322.03 775.233 2324.8 Q772.304 2327.57 771.859 2332.6 L792.738 2332.56 Z" fill="#000000" fill-rule="evenodd" fill-opacity="1" /><path clip-path="url(#clip510)" d="M824.408 2335.65 Q817.31 2335.65 814.573 2337.28 Q811.835 2338.9 811.835 2342.81 Q811.835 2345.93 813.872 2347.78 Q815.941 2349.59 819.474 2349.59 Q824.344 2349.59 827.272 2346.16 Q830.232 2342.69 830.232 2336.96 L830.232 2335.65 L824.408 2335.65 M836.089 2333.23 L836.089 2353.57 L830.232 2353.57 L830.232 2348.16 Q828.227 2351.41 825.235 2352.97 Q822.243 2354.49 817.915 2354.49 Q812.44 2354.49 809.194 2351.44 Q805.979 2348.35 805.979 2343.2 Q805.979 2337.18 809.989 2334.12 Q814.032 2331.07 822.021 2331.07 L830.232 2331.07 L830.232 2330.5 Q830.232 2326.45 827.559 2324.26 Q824.917 2322.03 820.111 2322.03 Q817.055 2322.03 814.159 2322.76 Q811.263 2323.49 808.589 2324.96 L808.589 2319.55 Q811.804 2318.31 814.827 2317.7 Q817.851 2317.06 820.716 2317.06 Q828.45 2317.06 832.269 2321.07 Q836.089 2325.09 836.089 2333.23 Z" fill="#000000" fill-rule="evenodd" fill-opacity="1" /><path clip-path="url(#clip510)" d="M877.784 2332.06 L877.784 2353.57 L871.928 2353.57 L871.928 2332.25 Q871.928 2327.19 869.954 2324.67 Q867.981 2322.16 864.034 2322.16 Q859.292 2322.16 856.555 2325.18 Q853.817 2328.2 853.817 2333.42 L853.817 2353.57 L847.929 2353.57 L847.929 2317.92 L853.817 2317.92 L853.817 2323.46 Q855.918 2320.25 858.751 2318.66 Q861.615 2317.06 865.339 2317.06 Q871.482 2317.06 874.633 2320.88 Q877.784 2324.67 877.784 2332.06 Z" fill="#000000" fill-rule="evenodd" fill-opacity="1" /><path clip-path="url(#clip510)" d="M933.643 2323.33 L933.643 2304.05 L939.5 2304.05 L939.5 2353.57 L933.643 2353.57 L933.643 2348.22 Q931.797 2351.41 928.964 2352.97 Q926.164 2354.49 922.217 2354.49 Q915.756 2354.49 911.682 2349.34 Q907.639 2344.18 907.639 2335.78 Q907.639 2327.38 911.682 2322.22 Q915.756 2317.06 922.217 2317.06 Q926.164 2317.06 928.964 2318.62 Q931.797 2320.15 933.643 2323.33 M913.687 2335.78 Q913.687 2342.24 916.329 2345.93 Q919.002 2349.59 923.649 2349.59 Q928.296 2349.59 930.97 2345.93 Q933.643 2342.24 933.643 2335.78 Q933.643 2329.32 930.97 2325.66 Q928.296 2321.97 923.649 2321.97 Q919.002 2321.97 916.329 2325.66 Q913.687 2329.32 913.687 2335.78 Z" fill="#000000" fill-rule="evenodd" fill-opacity="1" /><path clip-path="url(#clip510)" d="M951.563 2317.92 L957.419 2317.92 L957.419 2353.57 L951.563 2353.57 L951.563 2317.92 M951.563 2304.05 L957.419 2304.05 L957.419 2311.46 L951.563 2311.46 L951.563 2304.05 Z" fill="#000000" fill-rule="evenodd" fill-opacity="1" /><path clip-path="url(#clip510)" d="M992.399 2318.97 L992.399 2324.51 Q989.916 2323.24 987.243 2322.6 Q984.569 2321.97 981.704 2321.97 Q977.344 2321.97 975.148 2323.3 Q972.983 2324.64 972.983 2327.31 Q972.983 2329.35 974.543 2330.53 Q976.103 2331.67 980.813 2332.72 L982.818 2333.17 Q989.057 2334.51 991.667 2336.96 Q994.308 2339.38 994.308 2343.74 Q994.308 2348.7 990.362 2351.6 Q986.447 2354.49 979.572 2354.49 Q976.707 2354.49 973.588 2353.92 Q970.501 2353.38 967.063 2352.27 L967.063 2346.22 Q970.31 2347.91 973.461 2348.77 Q976.612 2349.59 979.699 2349.59 Q983.837 2349.59 986.065 2348.19 Q988.293 2346.76 988.293 2344.18 Q988.293 2341.8 986.67 2340.52 Q985.078 2339.25 979.635 2338.07 L977.598 2337.59 Q972.156 2336.45 969.737 2334.09 Q967.318 2331.71 967.318 2327.57 Q967.318 2322.54 970.883 2319.8 Q974.447 2317.06 981.004 2317.06 Q984.251 2317.06 987.115 2317.54 Q989.98 2318.02 992.399 2318.97 Z" fill="#000000" fill-rule="evenodd" fill-opacity="1" /><path clip-path="url(#clip510)" d="M1009.43 2307.8 L1009.43 2317.92 L1021.49 2317.92 L1021.49 2322.48 L1009.43 2322.48 L1009.43 2341.83 Q1009.43 2346.19 1010.6 2347.43 Q1011.81 2348.67 1015.47 2348.67 L1021.49 2348.67 L1021.49 2353.57 L1015.47 2353.57 Q1008.69 2353.57 1006.12 2351.06 Q1003.54 2348.51 1003.54 2341.83 L1003.54 2322.48 L999.242 2322.48 L999.242 2317.92 L1003.54 2317.92 L1003.54 2307.8 L1009.43 2307.8 Z" fill="#000000" fill-rule="evenodd" fill-opacity="1" /><path clip-path="url(#clip510)" d="M1045.39 2335.65 Q1038.3 2335.65 1035.56 2337.28 Q1032.82 2338.9 1032.82 2342.81 Q1032.82 2345.93 1034.86 2347.78 Q1036.93 2349.59 1040.46 2349.59 Q1045.33 2349.59 1048.26 2346.16 Q1051.22 2342.69 1051.22 2336.96 L1051.22 2335.65 L1045.39 2335.65 M1057.07 2333.23 L1057.07 2353.57 L1051.22 2353.57 L1051.22 2348.16 Q1049.21 2351.41 1046.22 2352.97 Q1043.23 2354.49 1038.9 2354.49 Q1033.43 2354.49 1030.18 2351.44 Q1026.96 2348.35 1026.96 2343.2 Q1026.96 2337.18 1030.97 2334.12 Q1035.02 2331.07 1043.01 2331.07 L1051.22 2331.07 L1051.22 2330.5 Q1051.22 2326.45 1048.54 2324.26 Q1045.9 2322.03 1041.1 2322.03 Q1038.04 2322.03 1035.14 2322.76 Q1032.25 2323.49 1029.57 2324.96 L1029.57 2319.55 Q1032.79 2318.31 1035.81 2317.7 Q1038.84 2317.06 1041.7 2317.06 Q1049.44 2317.06 1053.25 2321.07 Q1057.07 2325.09 1057.07 2333.23 Z" fill="#000000" fill-rule="evenodd" fill-opacity="1" /><path clip-path="url(#clip510)" d="M1098.77 2332.06 L1098.77 2353.57 L1092.91 2353.57 L1092.91 2332.25 Q1092.91 2327.19 1090.94 2324.67 Q1088.97 2322.16 1085.02 2322.16 Q1080.28 2322.16 1077.54 2325.18 Q1074.8 2328.2 1074.8 2333.42 L1074.8 2353.57 L1068.91 2353.57 L1068.91 2317.92 L1074.8 2317.92 L1074.8 2323.46 Q1076.9 2320.25 1079.74 2318.66 Q1082.6 2317.06 1086.32 2317.06 Q1092.47 2317.06 1095.62 2320.88 Q1098.77 2324.67 1098.77 2332.06 Z" fill="#000000" fill-rule="evenodd" fill-opacity="1" /><path clip-path="url(#clip510)" d="M1136.1 2319.29 L1136.1 2324.77 Q1133.62 2323.4 1131.11 2322.73 Q1128.62 2322.03 1126.08 2322.03 Q1120.38 2322.03 1117.23 2325.66 Q1114.08 2329.25 1114.08 2335.78 Q1114.08 2342.3 1117.23 2345.93 Q1120.38 2349.53 1126.08 2349.53 Q1128.62 2349.53 1131.11 2348.86 Q1133.62 2348.16 1136.1 2346.79 L1136.1 2352.2 Q1133.65 2353.35 1131.01 2353.92 Q1128.4 2354.49 1125.44 2354.49 Q1117.39 2354.49 1112.65 2349.43 Q1107.9 2344.37 1107.9 2335.78 Q1107.9 2327.06 1112.68 2322.06 Q1117.48 2317.06 1125.82 2317.06 Q1128.53 2317.06 1131.11 2317.64 Q1133.69 2318.18 1136.1 2319.29 Z" fill="#000000" fill-rule="evenodd" fill-opacity="1" /><path clip-path="url(#clip510)" d="M1176.78 2334.28 L1176.78 2337.15 L1149.85 2337.15 Q1150.24 2343.2 1153.48 2346.38 Q1156.76 2349.53 1162.59 2349.53 Q1165.96 2349.53 1169.11 2348.7 Q1172.29 2347.87 1175.41 2346.22 L1175.41 2351.76 Q1172.26 2353.09 1168.95 2353.79 Q1165.64 2354.49 1162.24 2354.49 Q1153.71 2354.49 1148.71 2349.53 Q1143.74 2344.56 1143.74 2336.1 Q1143.74 2327.35 1148.45 2322.22 Q1153.2 2317.06 1161.22 2317.06 Q1168.41 2317.06 1172.58 2321.71 Q1176.78 2326.33 1176.78 2334.28 M1170.92 2332.56 Q1170.86 2327.76 1168.22 2324.89 Q1165.61 2322.03 1161.28 2322.03 Q1156.38 2322.03 1153.42 2324.8 Q1150.49 2327.57 1150.05 2332.6 L1170.92 2332.56 Z" fill="#000000" fill-rule="evenodd" fill-opacity="1" /><path clip-path="url(#clip510)" d="M1212.91 2307.8 L1212.91 2317.92 L1224.97 2317.92 L1224.97 2322.48 L1212.91 2322.48 L1212.91 2341.83 Q1212.91 2346.19 1214.08 2347.43 Q1215.29 2348.67 1218.95 2348.67 L1224.97 2348.67 L1224.97 2353.57 L1218.95 2353.57 Q1212.17 2353.57 1209.6 2351.06 Q1207.02 2348.51 1207.02 2341.83 L1207.02 2322.48 L1202.72 2322.48 L1202.72 2317.92 L1207.02 2317.92 L1207.02 2307.8 L1212.91 2307.8 Z" fill="#000000" fill-rule="evenodd" fill-opacity="1" /><path clip-path="url(#clip510)" d="M1246.49 2322.03 Q1241.78 2322.03 1239.04 2325.72 Q1236.3 2329.38 1236.3 2335.78 Q1236.3 2342.18 1239.01 2345.87 Q1241.74 2349.53 1246.49 2349.53 Q1251.16 2349.53 1253.9 2345.84 Q1256.64 2342.15 1256.64 2335.78 Q1256.64 2329.45 1253.9 2325.75 Q1251.16 2322.03 1246.49 2322.03 M1246.49 2317.06 Q1254.12 2317.06 1258.49 2322.03 Q1262.85 2326.99 1262.85 2335.78 Q1262.85 2344.53 1258.49 2349.53 Q1254.12 2354.49 1246.49 2354.49 Q1238.82 2354.49 1234.45 2349.53 Q1230.13 2344.53 1230.13 2335.78 Q1230.13 2326.99 1234.45 2322.03 Q1238.82 2317.06 1246.49 2317.06 Z" fill="#000000" fill-rule="evenodd" fill-opacity="1" /><path clip-path="url(#clip510)" d="M1321.03 2324.77 Q1323.22 2320.82 1326.28 2318.94 Q1329.34 2317.06 1333.47 2317.06 Q1339.04 2317.06 1342.07 2320.98 Q1345.09 2324.86 1345.09 2332.06 L1345.09 2353.57 L1339.2 2353.57 L1339.2 2332.25 Q1339.2 2327.12 1337.39 2324.64 Q1335.57 2322.16 1331.85 2322.16 Q1327.3 2322.16 1324.66 2325.18 Q1322.02 2328.2 1322.02 2333.42 L1322.02 2353.57 L1316.13 2353.57 L1316.13 2332.25 Q1316.13 2327.09 1314.31 2324.64 Q1312.5 2322.16 1308.71 2322.16 Q1304.22 2322.16 1301.58 2325.21 Q1298.94 2328.24 1298.94 2333.42 L1298.94 2353.57 L1293.05 2353.57 L1293.05 2317.92 L1298.94 2317.92 L1298.94 2323.46 Q1300.94 2320.18 1303.75 2318.62 Q1306.55 2317.06 1310.4 2317.06 Q1314.28 2317.06 1316.99 2319.04 Q1319.72 2321.01 1321.03 2324.77 Z" fill="#000000" fill-rule="evenodd" fill-opacity="1" /><path clip-path="url(#clip510)" d="M1387.26 2334.28 L1387.26 2337.15 L1360.34 2337.15 Q1360.72 2343.2 1363.97 2346.38 Q1367.24 2349.53 1373.07 2349.53 Q1376.44 2349.53 1379.59 2348.7 Q1382.78 2347.87 1385.89 2346.22 L1385.89 2351.76 Q1382.74 2353.09 1379.43 2353.79 Q1376.12 2354.49 1372.72 2354.49 Q1364.19 2354.49 1359.19 2349.53 Q1354.23 2344.56 1354.23 2336.1 Q1354.23 2327.35 1358.94 2322.22 Q1363.68 2317.06 1371.7 2317.06 Q1378.89 2317.06 1383.06 2321.71 Q1387.26 2326.33 1387.26 2334.28 M1381.41 2332.56 Q1381.34 2327.76 1378.7 2324.89 Q1376.09 2322.03 1371.76 2322.03 Q1366.86 2322.03 1363.9 2324.8 Q1360.97 2327.57 1360.53 2332.6 L1381.41 2332.56 Z" fill="#000000" fill-rule="evenodd" fill-opacity="1" /><path clip-path="url(#clip510)" d="M1402.67 2307.8 L1402.67 2317.92 L1414.73 2317.92 L1414.73 2322.48 L1402.67 2322.48 L1402.67 2341.83 Q1402.67 2346.19 1403.85 2347.43 Q1405.06 2348.67 1408.72 2348.67 L1414.73 2348.67 L1414.73 2353.57 L1408.72 2353.57 Q1401.94 2353.57 1399.36 2351.06 Q1396.78 2348.51 1396.78 2341.83 L1396.78 2322.48 L1392.48 2322.48 L1392.48 2317.92 L1396.78 2317.92 L1396.78 2307.8 L1402.67 2307.8 Z" fill="#000000" fill-rule="evenodd" fill-opacity="1" /><path clip-path="url(#clip510)" d="M1443.09 2323.4 Q1442.1 2322.83 1440.93 2322.57 Q1439.78 2322.28 1438.38 2322.28 Q1433.41 2322.28 1430.74 2325.53 Q1428.1 2328.75 1428.1 2334.79 L1428.1 2353.57 L1422.21 2353.57 L1422.21 2317.92 L1428.1 2317.92 L1428.1 2323.46 Q1429.95 2320.22 1432.91 2318.66 Q1435.87 2317.06 1440.1 2317.06 Q1440.7 2317.06 1441.44 2317.16 Q1442.17 2317.22 1443.06 2317.38 L1443.09 2323.4 Z" fill="#000000" fill-rule="evenodd" fill-opacity="1" /><path clip-path="url(#clip510)" d="M1461.61 2322.03 Q1456.9 2322.03 1454.17 2325.72 Q1451.43 2329.38 1451.43 2335.78 Q1451.43 2342.18 1454.14 2345.87 Q1456.87 2349.53 1461.61 2349.53 Q1466.29 2349.53 1469.03 2345.84 Q1471.77 2342.15 1471.77 2335.78 Q1471.77 2329.45 1469.03 2325.75 Q1466.29 2322.03 1461.61 2322.03 M1461.61 2317.06 Q1469.25 2317.06 1473.61 2322.03 Q1477.97 2326.99 1477.97 2335.78 Q1477.97 2344.53 1473.61 2349.53 Q1469.25 2354.49 1461.61 2354.49 Q1453.94 2354.49 1449.58 2349.53 Q1445.26 2344.53 1445.26 2335.78 Q1445.26 2326.99 1449.58 2322.03 Q1453.94 2317.06 1461.61 2317.06 Z" fill="#000000" fill-rule="evenodd" fill-opacity="1" /><path clip-path="url(#clip510)" d="M1531.13 2318.97 L1531.13 2324.51 Q1528.65 2323.24 1525.97 2322.6 Q1523.3 2321.97 1520.43 2321.97 Q1516.07 2321.97 1513.88 2323.3 Q1511.71 2324.64 1511.71 2327.31 Q1511.71 2329.35 1513.27 2330.53 Q1514.83 2331.67 1519.54 2332.72 L1521.55 2333.17 Q1527.79 2334.51 1530.4 2336.96 Q1533.04 2339.38 1533.04 2343.74 Q1533.04 2348.7 1529.09 2351.6 Q1525.18 2354.49 1518.3 2354.49 Q1515.44 2354.49 1512.32 2353.92 Q1509.23 2353.38 1505.79 2352.27 L1505.79 2346.22 Q1509.04 2347.91 1512.19 2348.77 Q1515.34 2349.59 1518.43 2349.59 Q1522.57 2349.59 1524.79 2348.19 Q1527.02 2346.76 1527.02 2344.18 Q1527.02 2341.8 1525.4 2340.52 Q1523.81 2339.25 1518.37 2338.07 L1516.33 2337.59 Q1510.89 2336.45 1508.47 2334.09 Q1506.05 2331.71 1506.05 2327.57 Q1506.05 2322.54 1509.61 2319.8 Q1513.18 2317.06 1519.73 2317.06 Q1522.98 2317.06 1525.84 2317.54 Q1528.71 2318.02 1531.13 2318.97 Z" fill="#000000" fill-rule="evenodd" fill-opacity="1" /><path clip-path="url(#clip510)" d="M1548.16 2307.8 L1548.16 2317.92 L1560.22 2317.92 L1560.22 2322.48 L1548.16 2322.48 L1548.16 2341.83 Q1548.16 2346.19 1549.33 2347.43 Q1550.54 2348.67 1554.2 2348.67 L1560.22 2348.67 L1560.22 2353.57 L1554.2 2353.57 Q1547.42 2353.57 1544.85 2351.06 Q1542.27 2348.51 1542.27 2341.83 L1542.27 2322.48 L1537.97 2322.48 L1537.97 2317.92 L1542.27 2317.92 L1542.27 2307.8 L1548.16 2307.8 Z" fill="#000000" fill-rule="evenodd" fill-opacity="1" /><path clip-path="url(#clip510)" d="M1581.74 2322.03 Q1577.03 2322.03 1574.29 2325.72 Q1571.55 2329.38 1571.55 2335.78 Q1571.55 2342.18 1574.26 2345.87 Q1576.99 2349.53 1581.74 2349.53 Q1586.41 2349.53 1589.15 2345.84 Q1591.89 2342.15 1591.89 2335.78 Q1591.89 2329.45 1589.15 2325.75 Q1586.41 2322.03 1581.74 2322.03 M1581.74 2317.06 Q1589.37 2317.06 1593.74 2322.03 Q1598.1 2326.99 1598.1 2335.78 Q1598.1 2344.53 1593.74 2349.53 Q1589.37 2354.49 1581.74 2354.49 Q1574.07 2354.49 1569.7 2349.53 Q1565.38 2344.53 1565.38 2335.78 Q1565.38 2326.99 1569.7 2322.03 Q1574.07 2317.06 1581.74 2317.06 Z" fill="#000000" fill-rule="evenodd" fill-opacity="1" /><path clip-path="url(#clip510)" d="M1613.47 2348.22 L1613.47 2367.13 L1607.58 2367.13 L1607.58 2317.92 L1613.47 2317.92 L1613.47 2323.33 Q1615.31 2320.15 1618.12 2318.62 Q1620.95 2317.06 1624.86 2317.06 Q1631.36 2317.06 1635.4 2322.22 Q1639.47 2327.38 1639.47 2335.78 Q1639.47 2344.18 1635.4 2349.34 Q1631.36 2354.49 1624.86 2354.49 Q1620.95 2354.49 1618.12 2352.97 Q1615.31 2351.41 1613.47 2348.22 M1633.39 2335.78 Q1633.39 2329.32 1630.72 2325.66 Q1628.08 2321.97 1623.43 2321.97 Q1618.78 2321.97 1616.11 2325.66 Q1613.47 2329.32 1613.47 2335.78 Q1613.47 2342.24 1616.11 2345.93 Q1618.78 2349.59 1623.43 2349.59 Q1628.08 2349.59 1630.72 2345.93 Q1633.39 2342.24 1633.39 2335.78 Z" fill="#000000" fill-rule="evenodd" fill-opacity="1" /><path clip-path="url(#clip510)" d="M1683.97 2304.11 Q1679.7 2311.43 1677.64 2318.59 Q1675.57 2325.75 1675.57 2333.11 Q1675.57 2340.46 1677.64 2347.68 Q1679.74 2354.88 1683.97 2362.17 L1678.88 2362.17 Q1674.1 2354.69 1671.72 2347.46 Q1669.36 2340.24 1669.36 2333.11 Q1669.36 2326.01 1671.72 2318.81 Q1674.07 2311.62 1678.88 2304.11 L1683.97 2304.11 Z" fill="#000000" fill-rule="evenodd" fill-opacity="1" /><path clip-path="url(#clip510)" d="M1695.11 2304.05 L1701 2304.05 L1701 2333.3 L1718.47 2317.92 L1725.95 2317.92 L1707.04 2334.6 L1726.75 2353.57 L1719.11 2353.57 L1701 2336.16 L1701 2353.57 L1695.11 2353.57 L1695.11 2304.05 Z" fill="#000000" fill-rule="evenodd" fill-opacity="1" /><path clip-path="url(#clip510)" d="M1760.84 2324.77 Q1763.03 2320.82 1766.09 2318.94 Q1769.14 2317.06 1773.28 2317.06 Q1778.85 2317.06 1781.87 2320.98 Q1784.9 2324.86 1784.9 2332.06 L1784.9 2353.57 L1779.01 2353.57 L1779.01 2332.25 Q1779.01 2327.12 1777.19 2324.64 Q1775.38 2322.16 1771.66 2322.16 Q1767.11 2322.16 1764.46 2325.18 Q1761.82 2328.2 1761.82 2333.42 L1761.82 2353.57 L1755.93 2353.57 L1755.93 2332.25 Q1755.93 2327.09 1754.12 2324.64 Q1752.3 2322.16 1748.52 2322.16 Q1744.03 2322.16 1741.39 2325.21 Q1738.75 2328.24 1738.75 2333.42 L1738.75 2353.57 L1732.86 2353.57 L1732.86 2317.92 L1738.75 2317.92 L1738.75 2323.46 Q1740.75 2320.18 1743.55 2318.62 Q1746.35 2317.06 1750.2 2317.06 Q1754.09 2317.06 1756.79 2319.04 Q1759.53 2321.01 1760.84 2324.77 Z" fill="#000000" fill-rule="evenodd" fill-opacity="1" /><path clip-path="url(#clip510)" d="M1795.66 2304.11 L1800.75 2304.11 Q1805.52 2311.62 1807.88 2318.81 Q1810.26 2326.01 1810.26 2333.11 Q1810.26 2340.24 1807.88 2347.46 Q1805.52 2354.69 1800.75 2362.17 L1795.66 2362.17 Q1799.89 2354.88 1801.96 2347.68 Q1804.06 2340.46 1804.06 2333.11 Q1804.06 2325.75 1801.96 2318.59 Q1799.89 2311.43 1795.66 2304.11 Z" fill="#000000" fill-rule="evenodd" fill-opacity="1" /><polyline clip-path="url(#clip512)" style="stroke:#000000; stroke-linecap:round; stroke-linejoin:round; stroke-width:2; stroke-opacity:0.1; fill:none" points="
  250.557,2063.41 2271.82,2063.41 
  "/>
<polyline clip-path="url(#clip512)" style="stroke:#000000; stroke-linecap:round; stroke-linejoin:round; stroke-width:2; stroke-opacity:0.1; fill:none" points="
  250.557,1588.64 2271.82,1588.64 
  "/>
<polyline clip-path="url(#clip512)" style="stroke:#000000; stroke-linecap:round; stroke-linejoin:round; stroke-width:2; stroke-opacity:0.1; fill:none" points="
  250.557,1113.86 2271.82,1113.86 
  "/>
<polyline clip-path="url(#clip512)" style="stroke:#000000; stroke-linecap:round; stroke-linejoin:round; stroke-width:2; stroke-opacity:0.1; fill:none" points="
  250.557,639.079 2271.82,639.079 
  "/>
<polyline clip-path="url(#clip512)" style="stroke:#000000; stroke-linecap:round; stroke-linejoin:round; stroke-width:2; stroke-opacity:0.1; fill:none" points="
  250.557,164.3 2271.82,164.3 
  "/>
<polyline clip-path="url(#clip510)" style="stroke:#000000; stroke-linecap:round; stroke-linejoin:round; stroke-width:4; stroke-opacity:1; fill:none" points="
  250.557,2172.71 250.557,110.236 
  "/>
<polyline clip-path="url(#clip510)" style="stroke:#000000; stroke-linecap:round; stroke-linejoin:round; stroke-width:4; stroke-opacity:1; fill:none" points="
  250.557,2063.41 269.455,2063.41 
  "/>
<polyline clip-path="url(#clip510)" style="stroke:#000000; stroke-linecap:round; stroke-linejoin:round; stroke-width:4; stroke-opacity:1; fill:none" points="
  250.557,1588.64 269.455,1588.64 
  "/>
<polyline clip-path="url(#clip510)" style="stroke:#000000; stroke-linecap:round; stroke-linejoin:round; stroke-width:4; stroke-opacity:1; fill:none" points="
  250.557,1113.86 269.455,1113.86 
  "/>
<polyline clip-path="url(#clip510)" style="stroke:#000000; stroke-linecap:round; stroke-linejoin:round; stroke-width:4; stroke-opacity:1; fill:none" points="
  250.557,639.079 269.455,639.079 
  "/>
<polyline clip-path="url(#clip510)" style="stroke:#000000; stroke-linecap:round; stroke-linejoin:round; stroke-width:4; stroke-opacity:1; fill:none" points="
  250.557,164.3 269.455,164.3 
  "/>
<path clip-path="url(#clip510)" d="M158.65 2076.76 L166.289 2076.76 L166.289 2050.39 L157.979 2052.06 L157.979 2047.8 L166.243 2046.13 L170.918 2046.13 L170.918 2076.76 L178.557 2076.76 L178.557 2080.69 L158.65 2080.69 L158.65 2076.76 Z" fill="#000000" fill-rule="evenodd" fill-opacity="1" /><path clip-path="url(#clip510)" d="M162.238 1601.98 L178.557 1601.98 L178.557 1605.92 L156.613 1605.92 L156.613 1601.98 Q159.275 1599.23 163.858 1594.6 Q168.465 1589.94 169.645 1588.6 Q171.891 1586.08 172.77 1584.34 Q173.673 1582.58 173.673 1580.89 Q173.673 1578.14 171.729 1576.4 Q169.807 1574.67 166.706 1574.67 Q164.506 1574.67 162.053 1575.43 Q159.622 1576.19 156.844 1577.74 L156.844 1573.02 Q159.669 1571.89 162.122 1571.31 Q164.576 1570.73 166.613 1570.73 Q171.983 1570.73 175.178 1573.42 Q178.372 1576.1 178.372 1580.59 Q178.372 1582.72 177.562 1584.64 Q176.775 1586.54 174.668 1589.13 Q174.09 1589.8 170.988 1593.02 Q167.886 1596.22 162.238 1601.98 Z" fill="#000000" fill-rule="evenodd" fill-opacity="1" /><path clip-path="url(#clip510)" d="M171.428 1112.5 Q174.784 1113.22 176.659 1115.49 Q178.557 1117.76 178.557 1121.09 Q178.557 1126.21 175.039 1129.01 Q171.52 1131.81 165.039 1131.81 Q162.863 1131.81 160.548 1131.37 Q158.257 1130.95 155.803 1130.1 L155.803 1125.58 Q157.747 1126.72 160.062 1127.29 Q162.377 1127.87 164.9 1127.87 Q169.298 1127.87 171.59 1126.14 Q173.905 1124.4 173.905 1121.09 Q173.905 1118.04 171.752 1116.32 Q169.622 1114.59 165.803 1114.59 L161.775 1114.59 L161.775 1110.74 L165.988 1110.74 Q169.437 1110.74 171.266 1109.38 Q173.094 1107.99 173.094 1105.4 Q173.094 1102.73 171.196 1101.32 Q169.321 1099.89 165.803 1099.89 Q163.881 1099.89 161.682 1100.3 Q159.483 1100.72 156.844 1101.6 L156.844 1097.43 Q159.507 1096.69 161.821 1096.32 Q164.159 1095.95 166.219 1095.95 Q171.543 1095.95 174.645 1098.38 Q177.747 1100.79 177.747 1104.91 Q177.747 1107.78 176.104 1109.77 Q174.46 1111.74 171.428 1112.5 Z" fill="#000000" fill-rule="evenodd" fill-opacity="1" /><path clip-path="url(#clip510)" d="M168.974 625.873 L157.169 644.322 L168.974 644.322 L168.974 625.873 M167.747 621.799 L173.627 621.799 L173.627 644.322 L178.557 644.322 L178.557 648.211 L173.627 648.211 L173.627 656.359 L168.974 656.359 L168.974 648.211 L153.372 648.211 L153.372 643.697 L167.747 621.799 Z" fill="#000000" fill-rule="evenodd" fill-opacity="1" /><path clip-path="url(#clip510)" d="M157.655 147.02 L176.011 147.02 L176.011 150.956 L161.937 150.956 L161.937 159.428 Q162.956 159.08 163.974 158.918 Q164.993 158.733 166.011 158.733 Q171.798 158.733 175.178 161.905 Q178.557 165.076 178.557 170.492 Q178.557 176.071 175.085 179.173 Q171.613 182.252 165.294 182.252 Q163.118 182.252 160.849 181.881 Q158.604 181.511 156.196 180.77 L156.196 176.071 Q158.28 177.205 160.502 177.761 Q162.724 178.316 165.201 178.316 Q169.206 178.316 171.543 176.21 Q173.881 174.104 173.881 170.492 Q173.881 166.881 171.543 164.775 Q169.206 162.668 165.201 162.668 Q163.326 162.668 161.451 163.085 Q159.599 163.502 157.655 164.381 L157.655 147.02 Z" fill="#000000" fill-rule="evenodd" fill-opacity="1" /><path clip-path="url(#clip510)" d="M23.9568 1469.64 Q23.9568 1476.64 29.1767 1480.78 Q34.3966 1484.89 43.404 1484.89 Q52.3797 1484.89 57.5996 1480.78 Q62.8194 1476.64 62.8194 1469.64 Q62.8194 1462.64 57.5996 1458.56 Q52.3797 1454.46 43.404 1454.46 Q34.3966 1454.46 29.1767 1458.56 Q23.9568 1462.64 23.9568 1469.64 M18.7369 1469.64 Q18.7369 1459.65 25.4527 1453.66 Q32.1367 1447.68 43.404 1447.68 Q54.6395 1447.68 61.3553 1453.66 Q68.0393 1459.65 68.0393 1469.64 Q68.0393 1479.67 61.3553 1485.68 Q54.6713 1491.67 43.404 1491.67 Q32.1367 1491.67 25.4527 1485.68 Q18.7369 1479.67 18.7369 1469.64 Z" fill="#000000" fill-rule="evenodd" fill-opacity="1" /><path clip-path="url(#clip510)" d="M31.4683 1442.08 L31.4683 1435.87 L61.3871 1424.73 L31.4683 1413.59 L31.4683 1407.38 L67.1163 1420.75 L67.1163 1428.71 L31.4683 1442.08 Z" fill="#000000" fill-rule="evenodd" fill-opacity="1" /><path clip-path="url(#clip510)" d="M47.8282 1368.81 L50.6928 1368.81 L50.6928 1395.73 Q56.7402 1395.35 59.923 1392.11 Q63.0741 1388.83 63.0741 1383 Q63.0741 1379.63 62.2465 1376.48 Q61.419 1373.3 59.7639 1370.18 L65.3021 1370.18 Q66.6389 1373.33 67.3391 1376.64 Q68.0393 1379.95 68.0393 1383.35 Q68.0393 1391.88 63.0741 1396.88 Q58.1088 1401.85 49.6424 1401.85 Q40.8896 1401.85 35.7652 1397.13 Q30.609 1392.39 30.609 1384.37 Q30.609 1377.18 35.2559 1373.01 Q39.8711 1368.81 47.8282 1368.81 M46.1095 1374.66 Q41.3033 1374.73 38.4388 1377.37 Q35.5742 1379.98 35.5742 1384.31 Q35.5742 1389.21 38.3433 1392.17 Q41.1124 1395.1 46.1413 1395.54 L46.1095 1374.66 Z" fill="#000000" fill-rule="evenodd" fill-opacity="1" /><path clip-path="url(#clip510)" d="M36.9428 1338.54 Q36.3699 1339.53 36.1153 1340.7 Q35.8288 1341.85 35.8288 1343.25 Q35.8288 1348.21 39.0753 1350.89 Q42.29 1353.53 48.3374 1353.53 L67.1163 1353.53 L67.1163 1359.42 L31.4683 1359.42 L31.4683 1353.53 L37.0065 1353.53 Q33.76 1351.68 32.2004 1348.72 Q30.609 1345.76 30.609 1341.53 Q30.609 1340.93 30.7044 1340.19 Q30.7681 1339.46 30.9272 1338.57 L36.9428 1338.54 Z" fill="#000000" fill-rule="evenodd" fill-opacity="1" /><path clip-path="url(#clip510)" d="M32.5187 1309.67 L38.0568 1309.67 Q36.7837 1312.15 36.1471 1314.83 Q35.5106 1317.5 35.5106 1320.36 Q35.5106 1324.72 36.8473 1326.92 Q38.1841 1329.09 40.8577 1329.09 Q42.8948 1329.09 44.0724 1327.53 Q45.2183 1325.97 46.2686 1321.26 L46.7142 1319.25 Q48.051 1313.01 50.5018 1310.4 Q52.9208 1307.76 57.2813 1307.76 Q62.2465 1307.76 65.1429 1311.71 Q68.0393 1315.62 68.0393 1322.5 Q68.0393 1325.36 67.4664 1328.48 Q66.9253 1331.57 65.8113 1335.01 L59.7639 1335.01 Q61.4508 1331.76 62.3102 1328.61 Q63.1377 1325.46 63.1377 1322.37 Q63.1377 1318.23 61.7373 1316 Q60.305 1313.78 57.7269 1313.78 Q55.3397 1313.78 54.0666 1315.4 Q52.7934 1316.99 51.6158 1322.43 L51.1384 1324.47 Q49.9925 1329.91 47.6372 1332.33 Q45.2501 1334.75 41.1124 1334.75 Q36.0835 1334.75 33.3462 1331.19 Q30.609 1327.62 30.609 1321.06 Q30.609 1317.82 31.0864 1314.95 Q31.5638 1312.09 32.5187 1309.67 Z" fill="#000000" fill-rule="evenodd" fill-opacity="1" /><path clip-path="url(#clip510)" d="M53.0481 1299.04 L31.4683 1299.04 L31.4683 1293.18 L52.8253 1293.18 Q57.886 1293.18 60.4323 1291.21 Q62.9467 1289.24 62.9467 1285.29 Q62.9467 1280.55 59.923 1277.81 Q56.8993 1275.04 51.6794 1275.04 L31.4683 1275.04 L31.4683 1269.18 L67.1163 1269.18 L67.1163 1275.04 L61.6418 1275.04 Q64.8883 1277.17 66.4797 1280.01 Q68.0393 1282.81 68.0393 1286.53 Q68.0393 1292.67 64.2199 1295.86 Q60.4005 1299.04 53.0481 1299.04 M30.609 1284.3 L30.609 1284.3 Z" fill="#000000" fill-rule="evenodd" fill-opacity="1" /><path clip-path="url(#clip510)" d="M49.3241 1231.53 Q42.8629 1231.53 39.2027 1234.2 Q35.5106 1236.85 35.5106 1241.49 Q35.5106 1246.14 39.2027 1248.81 Q42.8629 1251.46 49.3241 1251.46 Q55.7853 1251.46 59.4774 1248.81 Q63.1377 1246.14 63.1377 1241.49 Q63.1377 1236.85 59.4774 1234.2 Q55.7853 1231.53 49.3241 1231.53 M36.8792 1251.46 Q33.6963 1249.61 32.1686 1246.81 Q30.609 1243.98 30.609 1240.06 Q30.609 1233.57 35.7652 1229.53 Q40.9214 1225.45 49.3241 1225.45 Q57.7269 1225.45 62.8831 1229.53 Q68.0393 1233.57 68.0393 1240.06 Q68.0393 1243.98 66.5115 1246.81 Q64.9519 1249.61 61.7691 1251.46 L67.1163 1251.46 L67.1163 1257.34 L17.5911 1257.34 L17.5911 1251.46 L36.8792 1251.46 Z" fill="#000000" fill-rule="evenodd" fill-opacity="1" /><path clip-path="url(#clip510)" d="M32.5187 1193.02 L38.0568 1193.02 Q36.7837 1195.5 36.1471 1198.17 Q35.5106 1200.85 35.5106 1203.71 Q35.5106 1208.07 36.8473 1210.27 Q38.1841 1212.43 40.8577 1212.43 Q42.8948 1212.43 44.0724 1210.87 Q45.2183 1209.31 46.2686 1204.6 L46.7142 1202.6 Q48.051 1196.36 50.5018 1193.75 Q52.9208 1191.11 57.2813 1191.11 Q62.2465 1191.11 65.1429 1195.06 Q68.0393 1198.97 68.0393 1205.85 Q68.0393 1208.71 67.4664 1211.83 Q66.9253 1214.92 65.8113 1218.35 L59.7639 1218.35 Q61.4508 1215.11 62.3102 1211.96 Q63.1377 1208.81 63.1377 1205.72 Q63.1377 1201.58 61.7373 1199.35 Q60.305 1197.12 57.7269 1197.12 Q55.3397 1197.12 54.0666 1198.75 Q52.7934 1200.34 51.6158 1205.78 L51.1384 1207.82 Q49.9925 1213.26 47.6372 1215.68 Q45.2501 1218.1 41.1124 1218.1 Q36.0835 1218.1 33.3462 1214.53 Q30.609 1210.97 30.609 1204.41 Q30.609 1201.17 31.0864 1198.3 Q31.5638 1195.44 32.5187 1193.02 Z" fill="#000000" fill-rule="evenodd" fill-opacity="1" /><path clip-path="url(#clip510)" d="M32.837 1156.13 L38.3115 1156.13 Q36.9428 1158.61 36.2744 1161.13 Q35.5742 1163.61 35.5742 1166.15 Q35.5742 1171.85 39.2027 1175 Q42.7993 1178.15 49.3241 1178.15 Q55.849 1178.15 59.4774 1175 Q63.0741 1171.85 63.0741 1166.15 Q63.0741 1163.61 62.4057 1161.13 Q61.7054 1158.61 60.3368 1156.13 L65.7477 1156.13 Q66.8935 1158.58 67.4664 1161.22 Q68.0393 1163.83 68.0393 1166.79 Q68.0393 1174.84 62.9786 1179.59 Q57.9178 1184.33 49.3241 1184.33 Q40.6031 1184.33 35.606 1179.55 Q30.609 1174.75 30.609 1166.41 Q30.609 1163.7 31.1819 1161.13 Q31.723 1158.55 32.837 1156.13 Z" fill="#000000" fill-rule="evenodd" fill-opacity="1" /><path clip-path="url(#clip510)" d="M36.9428 1125.29 Q36.3699 1126.27 36.1153 1127.45 Q35.8288 1128.6 35.8288 1130 Q35.8288 1134.96 39.0753 1137.64 Q42.29 1140.28 48.3374 1140.28 L67.1163 1140.28 L67.1163 1146.17 L31.4683 1146.17 L31.4683 1140.28 L37.0065 1140.28 Q33.76 1138.43 32.2004 1135.47 Q30.609 1132.51 30.609 1128.28 Q30.609 1127.67 30.7044 1126.94 Q30.7681 1126.21 30.9272 1125.32 L36.9428 1125.29 Z" fill="#000000" fill-rule="evenodd" fill-opacity="1" /><path clip-path="url(#clip510)" d="M31.4683 1119.14 L31.4683 1113.29 L67.1163 1113.29 L67.1163 1119.14 L31.4683 1119.14 M17.5911 1119.14 L17.5911 1113.29 L25.0071 1113.29 L25.0071 1119.14 L17.5911 1119.14 Z" fill="#000000" fill-rule="evenodd" fill-opacity="1" /><path clip-path="url(#clip510)" d="M61.7691 1095.37 L80.6752 1095.37 L80.6752 1101.26 L31.4683 1101.26 L31.4683 1095.37 L36.8792 1095.37 Q33.6963 1093.52 32.1686 1090.72 Q30.609 1087.89 30.609 1083.97 Q30.609 1077.48 35.7652 1073.44 Q40.9214 1069.36 49.3241 1069.36 Q57.7269 1069.36 62.8831 1073.44 Q68.0393 1077.48 68.0393 1083.97 Q68.0393 1087.89 66.5115 1090.72 Q64.9519 1093.52 61.7691 1095.37 M49.3241 1075.44 Q42.8629 1075.44 39.2027 1078.12 Q35.5106 1080.76 35.5106 1085.41 Q35.5106 1090.05 39.2027 1092.73 Q42.8629 1095.37 49.3241 1095.37 Q55.7853 1095.37 59.4774 1092.73 Q63.1377 1090.05 63.1377 1085.41 Q63.1377 1080.76 59.4774 1078.12 Q55.7853 1075.44 49.3241 1075.44 Z" fill="#000000" fill-rule="evenodd" fill-opacity="1" /><path clip-path="url(#clip510)" d="M21.3469 1053.86 L31.4683 1053.86 L31.4683 1041.8 L36.0198 1041.8 L36.0198 1053.86 L55.3716 1053.86 Q59.7321 1053.86 60.9734 1052.69 Q62.2147 1051.48 62.2147 1047.82 L62.2147 1041.8 L67.1163 1041.8 L67.1163 1047.82 Q67.1163 1054.6 64.6018 1057.17 Q62.0555 1059.75 55.3716 1059.75 L36.0198 1059.75 L36.0198 1064.05 L31.4683 1064.05 L31.4683 1059.75 L21.3469 1059.75 L21.3469 1053.86 Z" fill="#000000" fill-rule="evenodd" fill-opacity="1" /><path clip-path="url(#clip510)" d="M31.4683 1034.1 L31.4683 1028.24 L67.1163 1028.24 L67.1163 1034.1 L31.4683 1034.1 M17.5911 1034.1 L17.5911 1028.24 L25.0071 1028.24 L25.0071 1034.1 L17.5911 1034.1 Z" fill="#000000" fill-rule="evenodd" fill-opacity="1" /><path clip-path="url(#clip510)" d="M35.5742 1002.17 Q35.5742 1006.89 39.2663 1009.62 Q42.9266 1012.36 49.3241 1012.36 Q55.7217 1012.36 59.4138 1009.65 Q63.0741 1006.92 63.0741 1002.17 Q63.0741 997.496 59.3819 994.758 Q55.6898 992.021 49.3241 992.021 Q42.9903 992.021 39.2981 994.758 Q35.5742 997.496 35.5742 1002.17 M30.609 1002.17 Q30.609 994.536 35.5742 990.175 Q40.5395 985.815 49.3241 985.815 Q58.077 985.815 63.0741 990.175 Q68.0393 994.536 68.0393 1002.17 Q68.0393 1009.85 63.0741 1014.21 Q58.077 1018.53 49.3241 1018.53 Q40.5395 1018.53 35.5742 1014.21 Q30.609 1009.85 30.609 1002.17 Z" fill="#000000" fill-rule="evenodd" fill-opacity="1" /><path clip-path="url(#clip510)" d="M45.6002 946.474 L67.1163 946.474 L67.1163 952.331 L45.7912 952.331 Q40.7304 952.331 38.216 954.304 Q35.7015 956.278 35.7015 960.224 Q35.7015 964.967 38.7252 967.704 Q41.7489 970.441 46.9688 970.441 L67.1163 970.441 L67.1163 976.33 L31.4683 976.33 L31.4683 970.441 L37.0065 970.441 Q33.7918 968.341 32.2004 965.508 Q30.609 962.643 30.609 958.919 Q30.609 952.777 34.4284 949.625 Q38.216 946.474 45.6002 946.474 Z" fill="#000000" fill-rule="evenodd" fill-opacity="1" /><path clip-path="url(#clip510)" d="M36.9428 893.416 Q36.3699 894.403 36.1153 895.581 Q35.8288 896.726 35.8288 898.127 Q35.8288 903.092 39.0753 905.766 Q42.29 908.408 48.3374 908.408 L67.1163 908.408 L67.1163 914.296 L31.4683 914.296 L31.4683 908.408 L37.0065 908.408 Q33.76 906.561 32.2004 903.601 Q30.609 900.641 30.609 896.408 Q30.609 895.803 30.7044 895.071 Q30.7681 894.339 30.9272 893.448 L36.9428 893.416 Z" fill="#000000" fill-rule="evenodd" fill-opacity="1" /><path clip-path="url(#clip510)" d="M49.1968 871.073 Q49.1968 878.17 50.8201 880.908 Q52.4433 883.645 56.3582 883.645 Q59.4774 883.645 61.3235 881.608 Q63.1377 879.539 63.1377 876.006 Q63.1377 871.136 59.7002 868.208 Q56.2309 865.248 50.5018 865.248 L49.1968 865.248 L49.1968 871.073 M46.7779 859.392 L67.1163 859.392 L67.1163 865.248 L61.7054 865.248 Q64.9519 867.253 66.5115 870.245 Q68.0393 873.237 68.0393 877.566 Q68.0393 883.04 64.9838 886.287 Q61.8964 889.501 56.7402 889.501 Q50.7246 889.501 47.669 885.491 Q44.6135 881.449 44.6135 873.46 L44.6135 865.248 L44.0406 865.248 Q39.9984 865.248 37.8022 867.922 Q35.5742 870.563 35.5742 875.37 Q35.5742 878.425 36.3063 881.321 Q37.0383 884.218 38.5024 886.891 L33.0916 886.891 Q31.8503 883.677 31.2455 880.653 Q30.609 877.629 30.609 874.765 Q30.609 867.03 34.6194 863.211 Q38.6297 859.392 46.7779 859.392 Z" fill="#000000" fill-rule="evenodd" fill-opacity="1" /><path clip-path="url(#clip510)" d="M21.3469 841.536 L31.4683 841.536 L31.4683 829.473 L36.0198 829.473 L36.0198 841.536 L55.3716 841.536 Q59.7321 841.536 60.9734 840.358 Q62.2147 839.149 62.2147 835.488 L62.2147 829.473 L67.1163 829.473 L67.1163 835.488 Q67.1163 842.268 64.6018 844.846 Q62.0555 847.424 55.3716 847.424 L36.0198 847.424 L36.0198 851.721 L31.4683 851.721 L31.4683 847.424 L21.3469 847.424 L21.3469 841.536 Z" fill="#000000" fill-rule="evenodd" fill-opacity="1" /><path clip-path="url(#clip510)" d="M47.8282 791.279 L50.6928 791.279 L50.6928 818.205 Q56.7402 817.824 59.923 814.577 Q63.0741 811.299 63.0741 805.474 Q63.0741 802.1 62.2465 798.949 Q61.419 795.766 59.7639 792.647 L65.3021 792.647 Q66.6389 795.798 67.3391 799.108 Q68.0393 802.419 68.0393 805.824 Q68.0393 814.354 63.0741 819.351 Q58.1088 824.317 49.6424 824.317 Q40.8896 824.317 35.7652 819.606 Q30.609 814.863 30.609 806.843 Q30.609 799.649 35.2559 795.48 Q39.8711 791.279 47.8282 791.279 M46.1095 797.135 Q41.3033 797.199 38.4388 799.84 Q35.5742 802.45 35.5742 806.779 Q35.5742 811.681 38.3433 814.641 Q41.1124 817.569 46.1413 818.015 L46.1095 797.135 Z" fill="#000000" fill-rule="evenodd" fill-opacity="1" /><circle clip-path="url(#clip512)" cx="307.763" cy="690.443" r="14.4" fill="#009af9" fill-rule="evenodd" fill-opacity="1" stroke="#000000" stroke-opacity="1" stroke-width="4.8"/>
<circle clip-path="url(#clip512)" cx="393.049" cy="1596.1" r="14.4" fill="#009af9" fill-rule="evenodd" fill-opacity="1" stroke="#000000" stroke-opacity="1" stroke-width="4.8"/>
<circle clip-path="url(#clip512)" cx="474.297" cy="2114.34" r="14.4" fill="#009af9" fill-rule="evenodd" fill-opacity="1" stroke="#000000" stroke-opacity="1" stroke-width="4.8"/>
<circle clip-path="url(#clip512)" cx="739.92" cy="878.423" r="14.4" fill="#009af9" fill-rule="evenodd" fill-opacity="1" stroke="#000000" stroke-opacity="1" stroke-width="4.8"/>
<circle clip-path="url(#clip512)" cx="741.212" cy="848.601" r="14.4" fill="#009af9" fill-rule="evenodd" fill-opacity="1" stroke="#000000" stroke-opacity="1" stroke-width="4.8"/>
<circle clip-path="url(#clip512)" cx="747.972" cy="1490.7" r="14.4" fill="#009af9" fill-rule="evenodd" fill-opacity="1" stroke="#000000" stroke-opacity="1" stroke-width="4.8"/>
<circle clip-path="url(#clip512)" cx="773.167" cy="168.608" r="14.4" fill="#009af9" fill-rule="evenodd" fill-opacity="1" stroke="#000000" stroke-opacity="1" stroke-width="4.8"/>
<circle clip-path="url(#clip512)" cx="880.946" cy="1215.79" r="14.4" fill="#009af9" fill-rule="evenodd" fill-opacity="1" stroke="#000000" stroke-opacity="1" stroke-width="4.8"/>
<circle clip-path="url(#clip512)" cx="935.959" cy="1866.48" r="14.4" fill="#009af9" fill-rule="evenodd" fill-opacity="1" stroke="#000000" stroke-opacity="1" stroke-width="4.8"/>
<circle clip-path="url(#clip512)" cx="1003.93" cy="1939.25" r="14.4" fill="#009af9" fill-rule="evenodd" fill-opacity="1" stroke="#000000" stroke-opacity="1" stroke-width="4.8"/>
<circle clip-path="url(#clip512)" cx="1026.13" cy="1938.5" r="14.4" fill="#009af9" fill-rule="evenodd" fill-opacity="1" stroke="#000000" stroke-opacity="1" stroke-width="4.8"/>
<circle clip-path="url(#clip512)" cx="1094.7" cy="384.828" r="14.4" fill="#009af9" fill-rule="evenodd" fill-opacity="1" stroke="#000000" stroke-opacity="1" stroke-width="4.8"/>
<circle clip-path="url(#clip512)" cx="1119.65" cy="1900.99" r="14.4" fill="#009af9" fill-rule="evenodd" fill-opacity="1" stroke="#000000" stroke-opacity="1" stroke-width="4.8"/>
<circle clip-path="url(#clip512)" cx="1167.55" cy="326.985" r="14.4" fill="#009af9" fill-rule="evenodd" fill-opacity="1" stroke="#000000" stroke-opacity="1" stroke-width="4.8"/>
<circle clip-path="url(#clip512)" cx="1275.84" cy="1432.17" r="14.4" fill="#009af9" fill-rule="evenodd" fill-opacity="1" stroke="#000000" stroke-opacity="1" stroke-width="4.8"/>
<circle clip-path="url(#clip512)" cx="1303.37" cy="1733.43" r="14.4" fill="#009af9" fill-rule="evenodd" fill-opacity="1" stroke="#000000" stroke-opacity="1" stroke-width="4.8"/>
<circle clip-path="url(#clip512)" cx="1370" cy="1266.81" r="14.4" fill="#009af9" fill-rule="evenodd" fill-opacity="1" stroke="#000000" stroke-opacity="1" stroke-width="4.8"/>
<circle clip-path="url(#clip512)" cx="1513.82" cy="1075.11" r="14.4" fill="#009af9" fill-rule="evenodd" fill-opacity="1" stroke="#000000" stroke-opacity="1" stroke-width="4.8"/>
<circle clip-path="url(#clip512)" cx="1966.44" cy="1740.63" r="14.4" fill="#009af9" fill-rule="evenodd" fill-opacity="1" stroke="#000000" stroke-opacity="1" stroke-width="4.8"/>
<circle clip-path="url(#clip512)" cx="2214.62" cy="1690.21" r="14.4" fill="#009af9" fill-rule="evenodd" fill-opacity="1" stroke="#000000" stroke-opacity="1" stroke-width="4.8"/>
<polyline clip-path="url(#clip512)" style="stroke:#009af9; stroke-linecap:round; stroke-linejoin:round; stroke-width:4; stroke-opacity:1; fill:none" points="
  307.763,1146.33 2214.62,1577.99 
  "/>
<path clip-path="url(#clip510)" d="
M2668.5 2172.71 L4689.76 2172.71 L4689.76 110.236 L2668.5 110.236  Z
  " fill="#ffffff" fill-rule="evenodd" fill-opacity="1"/>
<defs>
  <clipPath id="clip513">
    <rect x="2668" y="110" width="2022" height="2063"/>
  </clipPath>
</defs>
<polyline clip-path="url(#clip513)" style="stroke:#000000; stroke-linecap:round; stroke-linejoin:round; stroke-width:2; stroke-opacity:0.1; fill:none" points="
  2762.42,2172.71 2762.42,110.236 
  "/>
<polyline clip-path="url(#clip513)" style="stroke:#000000; stroke-linecap:round; stroke-linejoin:round; stroke-width:2; stroke-opacity:0.1; fill:none" points="
  3301.48,2172.71 3301.48,110.236 
  "/>
<polyline clip-path="url(#clip513)" style="stroke:#000000; stroke-linecap:round; stroke-linejoin:round; stroke-width:2; stroke-opacity:0.1; fill:none" points="
  3840.54,2172.71 3840.54,110.236 
  "/>
<polyline clip-path="url(#clip513)" style="stroke:#000000; stroke-linecap:round; stroke-linejoin:round; stroke-width:2; stroke-opacity:0.1; fill:none" points="
  4379.6,2172.71 4379.6,110.236 
  "/>
<polyline clip-path="url(#clip510)" style="stroke:#000000; stroke-linecap:round; stroke-linejoin:round; stroke-width:4; stroke-opacity:1; fill:none" points="
  2668.5,2172.71 4689.76,2172.71 
  "/>
<polyline clip-path="url(#clip510)" style="stroke:#000000; stroke-linecap:round; stroke-linejoin:round; stroke-width:4; stroke-opacity:1; fill:none" points="
  2762.42,2172.71 2762.42,2153.81 
  "/>
<polyline clip-path="url(#clip510)" style="stroke:#000000; stroke-linecap:round; stroke-linejoin:round; stroke-width:4; stroke-opacity:1; fill:none" points="
  3301.48,2172.71 3301.48,2153.81 
  "/>
<polyline clip-path="url(#clip510)" style="stroke:#000000; stroke-linecap:round; stroke-linejoin:round; stroke-width:4; stroke-opacity:1; fill:none" points="
  3840.54,2172.71 3840.54,2153.81 
  "/>
<polyline clip-path="url(#clip510)" style="stroke:#000000; stroke-linecap:round; stroke-linejoin:round; stroke-width:4; stroke-opacity:1; fill:none" points="
  4379.6,2172.71 4379.6,2153.81 
  "/>
<path clip-path="url(#clip510)" d="M2708.94 2237.48 L2738.62 2237.48 L2738.62 2241.41 L2708.94 2241.41 L2708.94 2237.48 Z" fill="#000000" fill-rule="evenodd" fill-opacity="1" /><path clip-path="url(#clip510)" d="M2749.52 2250.37 L2757.16 2250.37 L2757.16 2224.01 L2748.85 2225.67 L2748.85 2221.41 L2757.12 2219.75 L2761.79 2219.75 L2761.79 2250.37 L2769.43 2250.37 L2769.43 2254.31 L2749.52 2254.31 L2749.52 2250.37 Z" fill="#000000" fill-rule="evenodd" fill-opacity="1" /><path clip-path="url(#clip510)" d="M2778.87 2248.43 L2783.76 2248.43 L2783.76 2254.31 L2778.87 2254.31 L2778.87 2248.43 Z" fill="#000000" fill-rule="evenodd" fill-opacity="1" /><path clip-path="url(#clip510)" d="M2803.94 2222.83 Q2800.33 2222.83 2798.5 2226.39 Q2796.7 2229.93 2796.7 2237.06 Q2796.7 2244.17 2798.5 2247.73 Q2800.33 2251.28 2803.94 2251.28 Q2807.58 2251.28 2809.38 2247.73 Q2811.21 2244.17 2811.21 2237.06 Q2811.21 2229.93 2809.38 2226.39 Q2807.58 2222.83 2803.94 2222.83 M2803.94 2219.12 Q2809.75 2219.12 2812.81 2223.73 Q2815.89 2228.31 2815.89 2237.06 Q2815.89 2245.79 2812.81 2250.4 Q2809.75 2254.98 2803.94 2254.98 Q2798.13 2254.98 2795.05 2250.4 Q2792 2245.79 2792 2237.06 Q2792 2228.31 2795.05 2223.73 Q2798.13 2219.12 2803.94 2219.12 Z" fill="#000000" fill-rule="evenodd" fill-opacity="1" /><path clip-path="url(#clip510)" d="M3248.5 2237.48 L3278.18 2237.48 L3278.18 2241.41 L3248.5 2241.41 L3248.5 2237.48 Z" fill="#000000" fill-rule="evenodd" fill-opacity="1" /><path clip-path="url(#clip510)" d="M3298.27 2222.83 Q3294.66 2222.83 3292.83 2226.39 Q3291.03 2229.93 3291.03 2237.06 Q3291.03 2244.17 3292.83 2247.73 Q3294.66 2251.28 3298.27 2251.28 Q3301.91 2251.28 3303.71 2247.73 Q3305.54 2244.17 3305.54 2237.06 Q3305.54 2229.93 3303.71 2226.39 Q3301.91 2222.83 3298.27 2222.83 M3298.27 2219.12 Q3304.08 2219.12 3307.14 2223.73 Q3310.22 2228.31 3310.22 2237.06 Q3310.22 2245.79 3307.14 2250.4 Q3304.08 2254.98 3298.27 2254.98 Q3292.46 2254.98 3289.38 2250.4 Q3286.33 2245.79 3286.33 2237.06 Q3286.33 2228.31 3289.38 2223.73 Q3292.46 2219.12 3298.27 2219.12 Z" fill="#000000" fill-rule="evenodd" fill-opacity="1" /><path clip-path="url(#clip510)" d="M3318.43 2248.43 L3323.32 2248.43 L3323.32 2254.31 L3318.43 2254.31 L3318.43 2248.43 Z" fill="#000000" fill-rule="evenodd" fill-opacity="1" /><path clip-path="url(#clip510)" d="M3333.55 2219.75 L3351.91 2219.75 L3351.91 2223.68 L3337.83 2223.68 L3337.83 2232.16 Q3338.85 2231.81 3339.87 2231.65 Q3340.89 2231.46 3341.91 2231.46 Q3347.69 2231.46 3351.07 2234.63 Q3354.45 2237.8 3354.45 2243.22 Q3354.45 2248.8 3350.98 2251.9 Q3347.51 2254.98 3341.19 2254.98 Q3339.01 2254.98 3336.74 2254.61 Q3334.5 2254.24 3332.09 2253.5 L3332.09 2248.8 Q3334.17 2249.93 3336.4 2250.49 Q3338.62 2251.04 3341.1 2251.04 Q3345.1 2251.04 3347.44 2248.94 Q3349.78 2246.83 3349.78 2243.22 Q3349.78 2239.61 3347.44 2237.5 Q3345.1 2235.4 3341.1 2235.4 Q3339.22 2235.4 3337.35 2235.81 Q3335.49 2236.23 3333.55 2237.11 L3333.55 2219.75 Z" fill="#000000" fill-rule="evenodd" fill-opacity="1" /><path clip-path="url(#clip510)" d="M3817.92 2222.83 Q3814.31 2222.83 3812.48 2226.39 Q3810.68 2229.93 3810.68 2237.06 Q3810.68 2244.17 3812.48 2247.73 Q3814.31 2251.28 3817.92 2251.28 Q3821.56 2251.28 3823.36 2247.73 Q3825.19 2244.17 3825.19 2237.06 Q3825.19 2229.93 3823.36 2226.39 Q3821.56 2222.83 3817.92 2222.83 M3817.92 2219.12 Q3823.73 2219.12 3826.79 2223.73 Q3829.87 2228.31 3829.87 2237.06 Q3829.87 2245.79 3826.79 2250.4 Q3823.73 2254.98 3817.92 2254.98 Q3812.11 2254.98 3809.03 2250.4 Q3805.98 2245.79 3805.98 2237.06 Q3805.98 2228.31 3809.03 2223.73 Q3812.11 2219.12 3817.92 2219.12 Z" fill="#000000" fill-rule="evenodd" fill-opacity="1" /><path clip-path="url(#clip510)" d="M3838.09 2248.43 L3842.97 2248.43 L3842.97 2254.31 L3838.09 2254.31 L3838.09 2248.43 Z" fill="#000000" fill-rule="evenodd" fill-opacity="1" /><path clip-path="url(#clip510)" d="M3863.15 2222.83 Q3859.54 2222.83 3857.72 2226.39 Q3855.91 2229.93 3855.91 2237.06 Q3855.91 2244.17 3857.72 2247.73 Q3859.54 2251.28 3863.15 2251.28 Q3866.79 2251.28 3868.59 2247.73 Q3870.42 2244.17 3870.42 2237.06 Q3870.42 2229.93 3868.59 2226.39 Q3866.79 2222.83 3863.15 2222.83 M3863.15 2219.12 Q3868.97 2219.12 3872.02 2223.73 Q3875.1 2228.31 3875.1 2237.06 Q3875.1 2245.79 3872.02 2250.4 Q3868.97 2254.98 3863.15 2254.98 Q3857.34 2254.98 3854.27 2250.4 Q3851.21 2245.79 3851.21 2237.06 Q3851.21 2228.31 3854.27 2223.73 Q3857.34 2219.12 3863.15 2219.12 Z" fill="#000000" fill-rule="evenodd" fill-opacity="1" /><path clip-path="url(#clip510)" d="M4357.48 2222.83 Q4353.87 2222.83 4352.04 2226.39 Q4350.24 2229.93 4350.24 2237.06 Q4350.24 2244.17 4352.04 2247.73 Q4353.87 2251.28 4357.48 2251.28 Q4361.12 2251.28 4362.92 2247.73 Q4364.75 2244.17 4364.75 2237.06 Q4364.75 2229.93 4362.92 2226.39 Q4361.12 2222.83 4357.48 2222.83 M4357.48 2219.12 Q4363.29 2219.12 4366.35 2223.73 Q4369.43 2228.31 4369.43 2237.06 Q4369.43 2245.79 4366.35 2250.4 Q4363.29 2254.98 4357.48 2254.98 Q4351.67 2254.98 4348.59 2250.4 Q4345.54 2245.79 4345.54 2237.06 Q4345.54 2228.31 4348.59 2223.73 Q4351.67 2219.12 4357.48 2219.12 Z" fill="#000000" fill-rule="evenodd" fill-opacity="1" /><path clip-path="url(#clip510)" d="M4377.64 2248.43 L4382.53 2248.43 L4382.53 2254.31 L4377.64 2254.31 L4377.64 2248.43 Z" fill="#000000" fill-rule="evenodd" fill-opacity="1" /><path clip-path="url(#clip510)" d="M4392.76 2219.75 L4411.12 2219.75 L4411.12 2223.68 L4397.04 2223.68 L4397.04 2232.16 Q4398.06 2231.81 4399.08 2231.65 Q4400.1 2231.46 4401.12 2231.46 Q4406.9 2231.46 4410.28 2234.63 Q4413.66 2237.8 4413.66 2243.22 Q4413.66 2248.8 4410.19 2251.9 Q4406.72 2254.98 4400.4 2254.98 Q4398.22 2254.98 4395.95 2254.61 Q4393.71 2254.24 4391.3 2253.5 L4391.3 2248.8 Q4393.39 2249.93 4395.61 2250.49 Q4397.83 2251.04 4400.31 2251.04 Q4404.31 2251.04 4406.65 2248.94 Q4408.99 2246.83 4408.99 2243.22 Q4408.99 2239.61 4406.65 2237.5 Q4404.31 2235.4 4400.31 2235.4 Q4398.43 2235.4 4396.56 2235.81 Q4394.7 2236.23 4392.76 2237.11 L4392.76 2219.75 Z" fill="#000000" fill-rule="evenodd" fill-opacity="1" /><path clip-path="url(#clip510)" d="M3116.23 2312.39 L3103.18 2348.22 L3129.31 2348.22 L3116.23 2312.39 M3094.46 2353.57 L3112.6 2306.05 L3119.89 2306.05 L3138 2353.57 L3094.46 2353.57 Z" fill="#000000" fill-rule="evenodd" fill-opacity="1" /><path clip-path="url(#clip510)" d="M3165.66 2306.05 L3175.24 2306.05 L3187.36 2338.39 L3199.55 2306.05 L3209.13 2306.05 L3209.13 2353.57 L3202.86 2353.57 L3202.86 2311.84 L3190.61 2344.44 L3184.15 2344.44 L3171.89 2311.84 L3171.89 2353.57 L3165.66 2353.57 L3165.66 2306.05 Z" fill="#000000" fill-rule="evenodd" fill-opacity="1" /><path clip-path="url(#clip510)" d="M3252.13 2334.28 L3252.13 2337.15 L3225.21 2337.15 Q3225.59 2343.2 3228.84 2346.38 Q3232.11 2349.53 3237.94 2349.53 Q3241.31 2349.53 3244.46 2348.7 Q3247.65 2347.87 3250.77 2346.22 L3250.77 2351.76 Q3247.62 2353.09 3244.3 2353.79 Q3240.99 2354.49 3237.59 2354.49 Q3229.06 2354.49 3224.06 2349.53 Q3219.1 2344.56 3219.1 2336.1 Q3219.1 2327.35 3223.81 2322.22 Q3228.55 2317.06 3236.57 2317.06 Q3243.76 2317.06 3247.93 2321.71 Q3252.13 2326.33 3252.13 2334.28 M3246.28 2332.56 Q3246.21 2327.76 3243.57 2324.89 Q3240.96 2322.03 3236.63 2322.03 Q3231.73 2322.03 3228.77 2324.8 Q3225.84 2327.57 3225.4 2332.6 L3246.28 2332.56 Z" fill="#000000" fill-rule="evenodd" fill-opacity="1" /><path clip-path="url(#clip510)" d="M3277.95 2335.65 Q3270.85 2335.65 3268.11 2337.28 Q3265.38 2338.9 3265.38 2342.81 Q3265.38 2345.93 3267.41 2347.78 Q3269.48 2349.59 3273.01 2349.59 Q3277.88 2349.59 3280.81 2346.16 Q3283.77 2342.69 3283.77 2336.96 L3283.77 2335.65 L3277.95 2335.65 M3289.63 2333.23 L3289.63 2353.57 L3283.77 2353.57 L3283.77 2348.16 Q3281.77 2351.41 3278.78 2352.97 Q3275.78 2354.49 3271.45 2354.49 Q3265.98 2354.49 3262.73 2351.44 Q3259.52 2348.35 3259.52 2343.2 Q3259.52 2337.18 3263.53 2334.12 Q3267.57 2331.07 3275.56 2331.07 L3283.77 2331.07 L3283.77 2330.5 Q3283.77 2326.45 3281.1 2324.26 Q3278.46 2322.03 3273.65 2322.03 Q3270.6 2322.03 3267.7 2322.76 Q3264.8 2323.49 3262.13 2324.96 L3262.13 2319.55 Q3265.34 2318.31 3268.37 2317.7 Q3271.39 2317.06 3274.26 2317.06 Q3281.99 2317.06 3285.81 2321.07 Q3289.63 2325.09 3289.63 2333.23 Z" fill="#000000" fill-rule="evenodd" fill-opacity="1" /><path clip-path="url(#clip510)" d="M3331.32 2332.06 L3331.32 2353.57 L3325.47 2353.57 L3325.47 2332.25 Q3325.47 2327.19 3323.49 2324.67 Q3321.52 2322.16 3317.57 2322.16 Q3312.83 2322.16 3310.09 2325.18 Q3307.36 2328.2 3307.36 2333.42 L3307.36 2353.57 L3301.47 2353.57 L3301.47 2317.92 L3307.36 2317.92 L3307.36 2323.46 Q3309.46 2320.25 3312.29 2318.66 Q3315.16 2317.06 3318.88 2317.06 Q3325.02 2317.06 3328.17 2320.88 Q3331.32 2324.67 3331.32 2332.06 Z" fill="#000000" fill-rule="evenodd" fill-opacity="1" /><path clip-path="url(#clip510)" d="M3387.18 2323.33 L3387.18 2304.05 L3393.04 2304.05 L3393.04 2353.57 L3387.18 2353.57 L3387.18 2348.22 Q3385.34 2351.41 3382.5 2352.97 Q3379.7 2354.49 3375.76 2354.49 Q3369.3 2354.49 3365.22 2349.34 Q3361.18 2344.18 3361.18 2335.78 Q3361.18 2327.38 3365.22 2322.22 Q3369.3 2317.06 3375.76 2317.06 Q3379.7 2317.06 3382.5 2318.62 Q3385.34 2320.15 3387.18 2323.33 M3367.23 2335.78 Q3367.23 2342.24 3369.87 2345.93 Q3372.54 2349.59 3377.19 2349.59 Q3381.84 2349.59 3384.51 2345.93 Q3387.18 2342.24 3387.18 2335.78 Q3387.18 2329.32 3384.51 2325.66 Q3381.84 2321.97 3377.19 2321.97 Q3372.54 2321.97 3369.87 2325.66 Q3367.23 2329.32 3367.23 2335.78 Z" fill="#000000" fill-rule="evenodd" fill-opacity="1" /><path clip-path="url(#clip510)" d="M3405.1 2317.92 L3410.96 2317.92 L3410.96 2353.57 L3405.1 2353.57 L3405.1 2317.92 M3405.1 2304.05 L3410.96 2304.05 L3410.96 2311.46 L3405.1 2311.46 L3405.1 2304.05 Z" fill="#000000" fill-rule="evenodd" fill-opacity="1" /><path clip-path="url(#clip510)" d="M3445.94 2318.97 L3445.94 2324.51 Q3443.46 2323.24 3440.78 2322.6 Q3438.11 2321.97 3435.24 2321.97 Q3430.88 2321.97 3428.69 2323.3 Q3426.52 2324.64 3426.52 2327.31 Q3426.52 2329.35 3428.08 2330.53 Q3429.64 2331.67 3434.35 2332.72 L3436.36 2333.17 Q3442.6 2334.51 3445.21 2336.96 Q3447.85 2339.38 3447.85 2343.74 Q3447.85 2348.7 3443.9 2351.6 Q3439.99 2354.49 3433.11 2354.49 Q3430.25 2354.49 3427.13 2353.92 Q3424.04 2353.38 3420.6 2352.27 L3420.6 2346.22 Q3423.85 2347.91 3427 2348.77 Q3430.15 2349.59 3433.24 2349.59 Q3437.38 2349.59 3439.6 2348.19 Q3441.83 2346.76 3441.83 2344.18 Q3441.83 2341.8 3440.21 2340.52 Q3438.62 2339.25 3433.18 2338.07 L3431.14 2337.59 Q3425.7 2336.45 3423.28 2334.09 Q3420.86 2331.71 3420.86 2327.57 Q3420.86 2322.54 3424.42 2319.8 Q3427.99 2317.06 3434.54 2317.06 Q3437.79 2317.06 3440.66 2317.54 Q3443.52 2318.02 3445.94 2318.97 Z" fill="#000000" fill-rule="evenodd" fill-opacity="1" /><path clip-path="url(#clip510)" d="M3462.97 2307.8 L3462.97 2317.92 L3475.03 2317.92 L3475.03 2322.48 L3462.97 2322.48 L3462.97 2341.83 Q3462.97 2346.19 3464.14 2347.43 Q3465.35 2348.67 3469.01 2348.67 L3475.03 2348.67 L3475.03 2353.57 L3469.01 2353.57 Q3462.23 2353.57 3459.66 2351.06 Q3457.08 2348.51 3457.08 2341.83 L3457.08 2322.48 L3452.78 2322.48 L3452.78 2317.92 L3457.08 2317.92 L3457.08 2307.8 L3462.97 2307.8 Z" fill="#000000" fill-rule="evenodd" fill-opacity="1" /><path clip-path="url(#clip510)" d="M3498.93 2335.65 Q3491.84 2335.65 3489.1 2337.28 Q3486.36 2338.9 3486.36 2342.81 Q3486.36 2345.93 3488.4 2347.78 Q3490.47 2349.59 3494 2349.59 Q3498.87 2349.59 3501.8 2346.16 Q3504.76 2342.69 3504.76 2336.96 L3504.76 2335.65 L3498.93 2335.65 M3510.61 2333.23 L3510.61 2353.57 L3504.76 2353.57 L3504.76 2348.16 Q3502.75 2351.41 3499.76 2352.97 Q3496.77 2354.49 3492.44 2354.49 Q3486.97 2354.49 3483.72 2351.44 Q3480.5 2348.35 3480.5 2343.2 Q3480.5 2337.18 3484.51 2334.12 Q3488.56 2331.07 3496.55 2331.07 L3504.76 2331.07 L3504.76 2330.5 Q3504.76 2326.45 3502.08 2324.26 Q3499.44 2322.03 3494.64 2322.03 Q3491.58 2322.03 3488.68 2322.76 Q3485.79 2323.49 3483.11 2324.96 L3483.11 2319.55 Q3486.33 2318.31 3489.35 2317.7 Q3492.38 2317.06 3495.24 2317.06 Q3502.98 2317.06 3506.79 2321.07 Q3510.61 2325.09 3510.61 2333.23 Z" fill="#000000" fill-rule="evenodd" fill-opacity="1" /><path clip-path="url(#clip510)" d="M3552.31 2332.06 L3552.31 2353.57 L3546.45 2353.57 L3546.45 2332.25 Q3546.45 2327.19 3544.48 2324.67 Q3542.51 2322.16 3538.56 2322.16 Q3533.82 2322.16 3531.08 2325.18 Q3528.34 2328.2 3528.34 2333.42 L3528.34 2353.57 L3522.45 2353.57 L3522.45 2317.92 L3528.34 2317.92 L3528.34 2323.46 Q3530.44 2320.25 3533.28 2318.66 Q3536.14 2317.06 3539.86 2317.06 Q3546.01 2317.06 3549.16 2320.88 Q3552.31 2324.67 3552.31 2332.06 Z" fill="#000000" fill-rule="evenodd" fill-opacity="1" /><path clip-path="url(#clip510)" d="M3589.64 2319.29 L3589.64 2324.77 Q3587.16 2323.4 3584.65 2322.73 Q3582.16 2322.03 3579.62 2322.03 Q3573.92 2322.03 3570.77 2325.66 Q3567.62 2329.25 3567.62 2335.78 Q3567.62 2342.3 3570.77 2345.93 Q3573.92 2349.53 3579.62 2349.53 Q3582.16 2349.53 3584.65 2348.86 Q3587.16 2348.16 3589.64 2346.79 L3589.64 2352.2 Q3587.19 2353.35 3584.55 2353.92 Q3581.94 2354.49 3578.98 2354.49 Q3570.93 2354.49 3566.19 2349.43 Q3561.44 2344.37 3561.44 2335.78 Q3561.44 2327.06 3566.22 2322.06 Q3571.02 2317.06 3579.36 2317.06 Q3582.07 2317.06 3584.65 2317.64 Q3587.23 2318.18 3589.64 2319.29 Z" fill="#000000" fill-rule="evenodd" fill-opacity="1" /><path clip-path="url(#clip510)" d="M3630.32 2334.28 L3630.32 2337.15 L3603.39 2337.15 Q3603.78 2343.2 3607.02 2346.38 Q3610.3 2349.53 3616.13 2349.53 Q3619.5 2349.53 3622.65 2348.7 Q3625.83 2347.87 3628.95 2346.22 L3628.95 2351.76 Q3625.8 2353.09 3622.49 2353.79 Q3619.18 2354.49 3615.78 2354.49 Q3607.25 2354.49 3602.25 2349.53 Q3597.28 2344.56 3597.28 2336.1 Q3597.28 2327.35 3601.99 2322.22 Q3606.74 2317.06 3614.76 2317.06 Q3621.95 2317.06 3626.12 2321.71 Q3630.32 2326.33 3630.32 2334.28 M3624.46 2332.56 Q3624.4 2327.76 3621.76 2324.89 Q3619.15 2322.03 3614.82 2322.03 Q3609.92 2322.03 3606.96 2324.8 Q3604.03 2327.57 3603.59 2332.6 L3624.46 2332.56 Z" fill="#000000" fill-rule="evenodd" fill-opacity="1" /><path clip-path="url(#clip510)" d="M3666.45 2307.8 L3666.45 2317.92 L3678.51 2317.92 L3678.51 2322.48 L3666.45 2322.48 L3666.45 2341.83 Q3666.45 2346.19 3667.62 2347.43 Q3668.83 2348.67 3672.49 2348.67 L3678.51 2348.67 L3678.51 2353.57 L3672.49 2353.57 Q3665.71 2353.57 3663.14 2351.06 Q3660.56 2348.51 3660.56 2341.83 L3660.56 2322.48 L3656.26 2322.48 L3656.26 2317.92 L3660.56 2317.92 L3660.56 2307.8 L3666.45 2307.8 Z" fill="#000000" fill-rule="evenodd" fill-opacity="1" /><path clip-path="url(#clip510)" d="M3700.03 2322.03 Q3695.32 2322.03 3692.58 2325.72 Q3689.84 2329.38 3689.84 2335.78 Q3689.84 2342.18 3692.55 2345.87 Q3695.28 2349.53 3700.03 2349.53 Q3704.7 2349.53 3707.44 2345.84 Q3710.18 2342.15 3710.18 2335.78 Q3710.18 2329.45 3707.44 2325.75 Q3704.7 2322.03 3700.03 2322.03 M3700.03 2317.06 Q3707.66 2317.06 3712.03 2322.03 Q3716.39 2326.99 3716.39 2335.78 Q3716.39 2344.53 3712.03 2349.53 Q3707.66 2354.49 3700.03 2354.49 Q3692.36 2354.49 3687.99 2349.53 Q3683.67 2344.53 3683.67 2335.78 Q3683.67 2326.99 3687.99 2322.03 Q3692.36 2317.06 3700.03 2317.06 Z" fill="#000000" fill-rule="evenodd" fill-opacity="1" /><path clip-path="url(#clip510)" d="M3774.57 2324.77 Q3776.76 2320.82 3779.82 2318.94 Q3782.88 2317.06 3787.01 2317.06 Q3792.58 2317.06 3795.61 2320.98 Q3798.63 2324.86 3798.63 2332.06 L3798.63 2353.57 L3792.74 2353.57 L3792.74 2332.25 Q3792.74 2327.12 3790.93 2324.64 Q3789.11 2322.16 3785.39 2322.16 Q3780.84 2322.16 3778.2 2325.18 Q3775.55 2328.2 3775.55 2333.42 L3775.55 2353.57 L3769.67 2353.57 L3769.67 2332.25 Q3769.67 2327.09 3767.85 2324.64 Q3766.04 2322.16 3762.25 2322.16 Q3757.76 2322.16 3755.12 2325.21 Q3752.48 2328.24 3752.48 2333.42 L3752.48 2353.57 L3746.59 2353.57 L3746.59 2317.92 L3752.48 2317.92 L3752.48 2323.46 Q3754.48 2320.18 3757.29 2318.62 Q3760.09 2317.06 3763.94 2317.06 Q3767.82 2317.06 3770.53 2319.04 Q3773.26 2321.01 3774.57 2324.77 Z" fill="#000000" fill-rule="evenodd" fill-opacity="1" /><path clip-path="url(#clip510)" d="M3840.8 2334.28 L3840.8 2337.15 L3813.88 2337.15 Q3814.26 2343.2 3817.5 2346.38 Q3820.78 2349.53 3826.61 2349.53 Q3829.98 2349.53 3833.13 2348.7 Q3836.32 2347.87 3839.43 2346.22 L3839.43 2351.76 Q3836.28 2353.09 3832.97 2353.79 Q3829.66 2354.49 3826.26 2354.49 Q3817.73 2354.49 3812.73 2349.53 Q3807.77 2344.56 3807.77 2336.1 Q3807.77 2327.35 3812.48 2322.22 Q3817.22 2317.06 3825.24 2317.06 Q3832.43 2317.06 3836.6 2321.71 Q3840.8 2326.33 3840.8 2334.28 M3834.95 2332.56 Q3834.88 2327.76 3832.24 2324.89 Q3829.63 2322.03 3825.3 2322.03 Q3820.4 2322.03 3817.44 2324.8 Q3814.51 2327.57 3814.07 2332.6 L3834.95 2332.56 Z" fill="#000000" fill-rule="evenodd" fill-opacity="1" /><path clip-path="url(#clip510)" d="M3856.21 2307.8 L3856.21 2317.92 L3868.27 2317.92 L3868.27 2322.48 L3856.21 2322.48 L3856.21 2341.83 Q3856.21 2346.19 3857.39 2347.43 Q3858.6 2348.67 3862.26 2348.67 L3868.27 2348.67 L3868.27 2353.57 L3862.26 2353.57 Q3855.48 2353.57 3852.9 2351.06 Q3850.32 2348.51 3850.32 2341.83 L3850.32 2322.48 L3846.02 2322.48 L3846.02 2317.92 L3850.32 2317.92 L3850.32 2307.8 L3856.21 2307.8 Z" fill="#000000" fill-rule="evenodd" fill-opacity="1" /><path clip-path="url(#clip510)" d="M3896.63 2323.4 Q3895.64 2322.83 3894.47 2322.57 Q3893.32 2322.28 3891.92 2322.28 Q3886.95 2322.28 3884.28 2325.53 Q3881.64 2328.75 3881.64 2334.79 L3881.64 2353.57 L3875.75 2353.57 L3875.75 2317.92 L3881.64 2317.92 L3881.64 2323.46 Q3883.49 2320.22 3886.45 2318.66 Q3889.41 2317.06 3893.64 2317.06 Q3894.24 2317.06 3894.98 2317.16 Q3895.71 2317.22 3896.6 2317.38 L3896.63 2323.4 Z" fill="#000000" fill-rule="evenodd" fill-opacity="1" /><path clip-path="url(#clip510)" d="M3915.15 2322.03 Q3910.44 2322.03 3907.71 2325.72 Q3904.97 2329.38 3904.97 2335.78 Q3904.97 2342.18 3907.68 2345.87 Q3910.41 2349.53 3915.15 2349.53 Q3919.83 2349.53 3922.57 2345.84 Q3925.31 2342.15 3925.31 2335.78 Q3925.31 2329.45 3922.57 2325.75 Q3919.83 2322.03 3915.15 2322.03 M3915.15 2317.06 Q3922.79 2317.06 3927.15 2322.03 Q3931.51 2326.99 3931.51 2335.78 Q3931.51 2344.53 3927.15 2349.53 Q3922.79 2354.49 3915.15 2354.49 Q3907.48 2354.49 3903.12 2349.53 Q3898.8 2344.53 3898.8 2335.78 Q3898.8 2326.99 3903.12 2322.03 Q3907.48 2317.06 3915.15 2317.06 Z" fill="#000000" fill-rule="evenodd" fill-opacity="1" /><path clip-path="url(#clip510)" d="M3984.67 2318.97 L3984.67 2324.51 Q3982.19 2323.24 3979.51 2322.6 Q3976.84 2321.97 3973.97 2321.97 Q3969.61 2321.97 3967.42 2323.3 Q3965.25 2324.64 3965.25 2327.31 Q3965.25 2329.35 3966.81 2330.53 Q3968.37 2331.67 3973.08 2332.72 L3975.09 2333.17 Q3981.33 2334.51 3983.94 2336.96 Q3986.58 2339.38 3986.58 2343.74 Q3986.58 2348.7 3982.63 2351.6 Q3978.72 2354.49 3971.84 2354.49 Q3968.98 2354.49 3965.86 2353.92 Q3962.77 2353.38 3959.33 2352.27 L3959.33 2346.22 Q3962.58 2347.91 3965.73 2348.77 Q3968.88 2349.59 3971.97 2349.59 Q3976.11 2349.59 3978.33 2348.19 Q3980.56 2346.76 3980.56 2344.18 Q3980.56 2341.8 3978.94 2340.52 Q3977.35 2339.25 3971.91 2338.07 L3969.87 2337.59 Q3964.43 2336.45 3962.01 2334.09 Q3959.59 2331.71 3959.59 2327.57 Q3959.59 2322.54 3963.15 2319.8 Q3966.72 2317.06 3973.27 2317.06 Q3976.52 2317.06 3979.38 2317.54 Q3982.25 2318.02 3984.67 2318.97 Z" fill="#000000" fill-rule="evenodd" fill-opacity="1" /><path clip-path="url(#clip510)" d="M4001.7 2307.8 L4001.7 2317.92 L4013.76 2317.92 L4013.76 2322.48 L4001.7 2322.48 L4001.7 2341.83 Q4001.7 2346.19 4002.87 2347.43 Q4004.08 2348.67 4007.74 2348.67 L4013.76 2348.67 L4013.76 2353.57 L4007.74 2353.57 Q4000.96 2353.57 3998.39 2351.06 Q3995.81 2348.51 3995.81 2341.83 L3995.81 2322.48 L3991.51 2322.48 L3991.51 2317.92 L3995.81 2317.92 L3995.81 2307.8 L4001.7 2307.8 Z" fill="#000000" fill-rule="evenodd" fill-opacity="1" /><path clip-path="url(#clip510)" d="M4035.28 2322.03 Q4030.57 2322.03 4027.83 2325.72 Q4025.09 2329.38 4025.09 2335.78 Q4025.09 2342.18 4027.8 2345.87 Q4030.53 2349.53 4035.28 2349.53 Q4039.95 2349.53 4042.69 2345.84 Q4045.43 2342.15 4045.43 2335.78 Q4045.43 2329.45 4042.69 2325.75 Q4039.95 2322.03 4035.28 2322.03 M4035.28 2317.06 Q4042.91 2317.06 4047.28 2322.03 Q4051.64 2326.99 4051.64 2335.78 Q4051.64 2344.53 4047.28 2349.53 Q4042.91 2354.49 4035.28 2354.49 Q4027.61 2354.49 4023.24 2349.53 Q4018.92 2344.53 4018.92 2335.78 Q4018.92 2326.99 4023.24 2322.03 Q4027.61 2317.06 4035.28 2317.06 Z" fill="#000000" fill-rule="evenodd" fill-opacity="1" /><path clip-path="url(#clip510)" d="M4067.01 2348.22 L4067.01 2367.13 L4061.12 2367.13 L4061.12 2317.92 L4067.01 2317.92 L4067.01 2323.33 Q4068.85 2320.15 4071.66 2318.62 Q4074.49 2317.06 4078.4 2317.06 Q4084.9 2317.06 4088.94 2322.22 Q4093.01 2327.38 4093.01 2335.78 Q4093.01 2344.18 4088.94 2349.34 Q4084.9 2354.49 4078.4 2354.49 Q4074.49 2354.49 4071.66 2352.97 Q4068.85 2351.41 4067.01 2348.22 M4086.93 2335.78 Q4086.93 2329.32 4084.26 2325.66 Q4081.62 2321.97 4076.97 2321.97 Q4072.32 2321.97 4069.65 2325.66 Q4067.01 2329.32 4067.01 2335.78 Q4067.01 2342.24 4069.65 2345.93 Q4072.32 2349.59 4076.97 2349.59 Q4081.62 2349.59 4084.26 2345.93 Q4086.93 2342.24 4086.93 2335.78 Z" fill="#000000" fill-rule="evenodd" fill-opacity="1" /><path clip-path="url(#clip510)" d="M4137.51 2304.11 Q4133.24 2311.43 4131.18 2318.59 Q4129.11 2325.75 4129.11 2333.11 Q4129.11 2340.46 4131.18 2347.68 Q4133.28 2354.88 4137.51 2362.17 L4132.42 2362.17 Q4127.64 2354.69 4125.26 2347.46 Q4122.9 2340.24 4122.9 2333.11 Q4122.9 2326.01 4125.26 2318.81 Q4127.61 2311.62 4132.42 2304.11 L4137.51 2304.11 Z" fill="#000000" fill-rule="evenodd" fill-opacity="1" /><path clip-path="url(#clip510)" d="M4148.65 2304.05 L4154.54 2304.05 L4154.54 2333.3 L4172.01 2317.92 L4179.49 2317.92 L4160.58 2334.6 L4180.29 2353.57 L4172.65 2353.57 L4154.54 2336.16 L4154.54 2353.57 L4148.65 2353.57 L4148.65 2304.05 Z" fill="#000000" fill-rule="evenodd" fill-opacity="1" /><path clip-path="url(#clip510)" d="M4214.37 2324.77 Q4216.57 2320.82 4219.63 2318.94 Q4222.68 2317.06 4226.82 2317.06 Q4232.39 2317.06 4235.41 2320.98 Q4238.44 2324.86 4238.44 2332.06 L4238.44 2353.57 L4232.55 2353.57 L4232.55 2332.25 Q4232.55 2327.12 4230.73 2324.64 Q4228.92 2322.16 4225.2 2322.16 Q4220.65 2322.16 4218 2325.18 Q4215.36 2328.2 4215.36 2333.42 L4215.36 2353.57 L4209.47 2353.57 L4209.47 2332.25 Q4209.47 2327.09 4207.66 2324.64 Q4205.84 2322.16 4202.06 2322.16 Q4197.57 2322.16 4194.93 2325.21 Q4192.29 2328.24 4192.29 2333.42 L4192.29 2353.57 L4186.4 2353.57 L4186.4 2317.92 L4192.29 2317.92 L4192.29 2323.46 Q4194.29 2320.18 4197.09 2318.62 Q4199.89 2317.06 4203.74 2317.06 Q4207.63 2317.06 4210.33 2319.04 Q4213.07 2321.01 4214.37 2324.77 Z" fill="#000000" fill-rule="evenodd" fill-opacity="1" /><path clip-path="url(#clip510)" d="M4249.2 2304.11 L4254.29 2304.11 Q4259.06 2311.62 4261.42 2318.81 Q4263.8 2326.01 4263.8 2333.11 Q4263.8 2340.24 4261.42 2347.46 Q4259.06 2354.69 4254.29 2362.17 L4249.2 2362.17 Q4253.43 2354.88 4255.5 2347.68 Q4257.6 2340.46 4257.6 2333.11 Q4257.6 2325.75 4255.5 2318.59 Q4253.43 2311.43 4249.2 2304.11 Z" fill="#000000" fill-rule="evenodd" fill-opacity="1" /><polyline clip-path="url(#clip513)" style="stroke:#000000; stroke-linecap:round; stroke-linejoin:round; stroke-width:2; stroke-opacity:0.1; fill:none" points="
  2668.5,2141.32 4689.76,2141.32 
  "/>
<polyline clip-path="url(#clip513)" style="stroke:#000000; stroke-linecap:round; stroke-linejoin:round; stroke-width:2; stroke-opacity:0.1; fill:none" points="
  2668.5,1811.52 4689.76,1811.52 
  "/>
<polyline clip-path="url(#clip513)" style="stroke:#000000; stroke-linecap:round; stroke-linejoin:round; stroke-width:2; stroke-opacity:0.1; fill:none" points="
  2668.5,1481.72 4689.76,1481.72 
  "/>
<polyline clip-path="url(#clip513)" style="stroke:#000000; stroke-linecap:round; stroke-linejoin:round; stroke-width:2; stroke-opacity:0.1; fill:none" points="
  2668.5,1151.91 4689.76,1151.91 
  "/>
<polyline clip-path="url(#clip513)" style="stroke:#000000; stroke-linecap:round; stroke-linejoin:round; stroke-width:2; stroke-opacity:0.1; fill:none" points="
  2668.5,822.112 4689.76,822.112 
  "/>
<polyline clip-path="url(#clip513)" style="stroke:#000000; stroke-linecap:round; stroke-linejoin:round; stroke-width:2; stroke-opacity:0.1; fill:none" points="
  2668.5,492.311 4689.76,492.311 
  "/>
<polyline clip-path="url(#clip513)" style="stroke:#000000; stroke-linecap:round; stroke-linejoin:round; stroke-width:2; stroke-opacity:0.1; fill:none" points="
  2668.5,162.509 4689.76,162.509 
  "/>
<polyline clip-path="url(#clip510)" style="stroke:#000000; stroke-linecap:round; stroke-linejoin:round; stroke-width:4; stroke-opacity:1; fill:none" points="
  2668.5,2172.71 2668.5,110.236 
  "/>
<polyline clip-path="url(#clip510)" style="stroke:#000000; stroke-linecap:round; stroke-linejoin:round; stroke-width:4; stroke-opacity:1; fill:none" points="
  2668.5,2141.32 2687.39,2141.32 
  "/>
<polyline clip-path="url(#clip510)" style="stroke:#000000; stroke-linecap:round; stroke-linejoin:round; stroke-width:4; stroke-opacity:1; fill:none" points="
  2668.5,1811.52 2687.39,1811.52 
  "/>
<polyline clip-path="url(#clip510)" style="stroke:#000000; stroke-linecap:round; stroke-linejoin:round; stroke-width:4; stroke-opacity:1; fill:none" points="
  2668.5,1481.72 2687.39,1481.72 
  "/>
<polyline clip-path="url(#clip510)" style="stroke:#000000; stroke-linecap:round; stroke-linejoin:round; stroke-width:4; stroke-opacity:1; fill:none" points="
  2668.5,1151.91 2687.39,1151.91 
  "/>
<polyline clip-path="url(#clip510)" style="stroke:#000000; stroke-linecap:round; stroke-linejoin:round; stroke-width:4; stroke-opacity:1; fill:none" points="
  2668.5,822.112 2687.39,822.112 
  "/>
<polyline clip-path="url(#clip510)" style="stroke:#000000; stroke-linecap:round; stroke-linejoin:round; stroke-width:4; stroke-opacity:1; fill:none" points="
  2668.5,492.311 2687.39,492.311 
  "/>
<polyline clip-path="url(#clip510)" style="stroke:#000000; stroke-linecap:round; stroke-linejoin:round; stroke-width:4; stroke-opacity:1; fill:none" points="
  2668.5,162.509 2687.39,162.509 
  "/>
<path clip-path="url(#clip510)" d="M2535.43 2141.77 L2565.11 2141.77 L2565.11 2145.71 L2535.43 2145.71 L2535.43 2141.77 Z" fill="#000000" fill-rule="evenodd" fill-opacity="1" /><path clip-path="url(#clip510)" d="M2589.37 2139.97 Q2592.72 2140.68 2594.6 2142.95 Q2596.5 2145.22 2596.5 2148.55 Q2596.5 2153.67 2592.98 2156.47 Q2589.46 2159.27 2582.98 2159.27 Q2580.8 2159.27 2578.49 2158.83 Q2576.2 2158.41 2573.74 2157.56 L2573.74 2153.04 Q2575.69 2154.18 2578 2154.76 Q2580.32 2155.34 2582.84 2155.34 Q2587.24 2155.34 2589.53 2153.6 Q2591.84 2151.86 2591.84 2148.55 Q2591.84 2145.5 2589.69 2143.78 Q2587.56 2142.05 2583.74 2142.05 L2579.71 2142.05 L2579.71 2138.21 L2583.93 2138.21 Q2587.38 2138.21 2589.21 2136.84 Q2591.03 2135.45 2591.03 2132.86 Q2591.03 2130.2 2589.14 2128.78 Q2587.26 2127.35 2583.74 2127.35 Q2581.82 2127.35 2579.62 2127.77 Q2577.42 2128.18 2574.78 2129.06 L2574.78 2124.9 Q2577.45 2124.16 2579.76 2123.78 Q2582.1 2123.41 2584.16 2123.41 Q2589.48 2123.41 2592.59 2125.85 Q2595.69 2128.25 2595.69 2132.37 Q2595.69 2135.24 2594.04 2137.23 Q2592.4 2139.2 2589.37 2139.97 Z" fill="#000000" fill-rule="evenodd" fill-opacity="1" /><path clip-path="url(#clip510)" d="M2536.38 1811.97 L2566.06 1811.97 L2566.06 1815.9 L2536.38 1815.9 L2536.38 1811.97 Z" fill="#000000" fill-rule="evenodd" fill-opacity="1" /><path clip-path="url(#clip510)" d="M2580.18 1824.86 L2596.5 1824.86 L2596.5 1828.8 L2574.55 1828.8 L2574.55 1824.86 Q2577.21 1822.11 2581.8 1817.48 Q2586.4 1812.83 2587.59 1811.48 Q2589.83 1808.96 2590.71 1807.22 Q2591.61 1805.46 2591.61 1803.77 Q2591.61 1801.02 2589.67 1799.28 Q2587.75 1797.55 2584.65 1797.55 Q2582.45 1797.55 2579.99 1798.31 Q2577.56 1799.08 2574.78 1800.63 L2574.78 1795.9 Q2577.61 1794.77 2580.06 1794.19 Q2582.52 1793.61 2584.55 1793.61 Q2589.92 1793.61 2593.12 1796.3 Q2596.31 1798.98 2596.31 1803.47 Q2596.31 1805.6 2595.5 1807.52 Q2594.71 1809.42 2592.61 1812.02 Q2592.03 1812.69 2588.93 1815.9 Q2585.83 1819.1 2580.18 1824.86 Z" fill="#000000" fill-rule="evenodd" fill-opacity="1" /><path clip-path="url(#clip510)" d="M2536.01 1482.17 L2565.69 1482.17 L2565.69 1486.1 L2536.01 1486.1 L2536.01 1482.17 Z" fill="#000000" fill-rule="evenodd" fill-opacity="1" /><path clip-path="url(#clip510)" d="M2576.59 1495.06 L2584.23 1495.06 L2584.23 1468.7 L2575.92 1470.36 L2575.92 1466.1 L2584.18 1464.44 L2588.86 1464.44 L2588.86 1495.06 L2596.5 1495.06 L2596.5 1499 L2576.59 1499 L2576.59 1495.06 Z" fill="#000000" fill-rule="evenodd" fill-opacity="1" /><path clip-path="url(#clip510)" d="M2584.55 1137.71 Q2580.94 1137.71 2579.11 1141.28 Q2577.31 1144.82 2577.31 1151.95 Q2577.31 1159.06 2579.11 1162.62 Q2580.94 1166.16 2584.55 1166.16 Q2588.19 1166.16 2589.99 1162.62 Q2591.82 1159.06 2591.82 1151.95 Q2591.82 1144.82 2589.99 1141.28 Q2588.19 1137.71 2584.55 1137.71 M2584.55 1134.01 Q2590.36 1134.01 2593.42 1138.62 Q2596.5 1143.2 2596.5 1151.95 Q2596.5 1160.68 2593.42 1165.28 Q2590.36 1169.87 2584.55 1169.87 Q2578.74 1169.87 2575.66 1165.28 Q2572.61 1160.68 2572.61 1151.95 Q2572.61 1143.2 2575.66 1138.62 Q2578.74 1134.01 2584.55 1134.01 Z" fill="#000000" fill-rule="evenodd" fill-opacity="1" /><path clip-path="url(#clip510)" d="M2576.59 835.457 L2584.23 835.457 L2584.23 809.092 L2575.92 810.758 L2575.92 806.499 L2584.18 804.832 L2588.86 804.832 L2588.86 835.457 L2596.5 835.457 L2596.5 839.392 L2576.59 839.392 L2576.59 835.457 Z" fill="#000000" fill-rule="evenodd" fill-opacity="1" /><path clip-path="url(#clip510)" d="M2580.18 505.655 L2596.5 505.655 L2596.5 509.591 L2574.55 509.591 L2574.55 505.655 Q2577.21 502.901 2581.8 498.271 Q2586.4 493.619 2587.59 492.276 Q2589.83 489.753 2590.71 488.017 Q2591.61 486.257 2591.61 484.568 Q2591.61 481.813 2589.67 480.077 Q2587.75 478.341 2584.65 478.341 Q2582.45 478.341 2579.99 479.105 Q2577.56 479.869 2574.78 481.42 L2574.78 476.697 Q2577.61 475.563 2580.06 474.984 Q2582.52 474.406 2584.55 474.406 Q2589.92 474.406 2593.12 477.091 Q2596.31 479.776 2596.31 484.267 Q2596.31 486.396 2595.5 488.318 Q2594.71 490.216 2592.61 492.808 Q2592.03 493.48 2588.93 496.697 Q2585.83 499.892 2580.18 505.655 Z" fill="#000000" fill-rule="evenodd" fill-opacity="1" /><path clip-path="url(#clip510)" d="M2589.37 161.155 Q2592.72 161.872 2594.6 164.141 Q2596.5 166.409 2596.5 169.743 Q2596.5 174.858 2592.98 177.659 Q2589.46 180.46 2582.98 180.46 Q2580.8 180.46 2578.49 180.02 Q2576.2 179.604 2573.74 178.747 L2573.74 174.233 Q2575.69 175.368 2578 175.946 Q2580.32 176.525 2582.84 176.525 Q2587.24 176.525 2589.53 174.789 Q2591.84 173.053 2591.84 169.743 Q2591.84 166.687 2589.69 164.974 Q2587.56 163.238 2583.74 163.238 L2579.71 163.238 L2579.71 159.395 L2583.93 159.395 Q2587.38 159.395 2589.21 158.03 Q2591.03 156.641 2591.03 154.048 Q2591.03 151.386 2589.14 149.974 Q2587.26 148.539 2583.74 148.539 Q2581.82 148.539 2579.62 148.956 Q2577.42 149.372 2574.78 150.252 L2574.78 146.085 Q2577.45 145.345 2579.76 144.974 Q2582.1 144.604 2584.16 144.604 Q2589.48 144.604 2592.59 147.034 Q2595.69 149.442 2595.69 153.562 Q2595.69 156.433 2594.04 158.423 Q2592.4 160.391 2589.37 161.155 Z" fill="#000000" fill-rule="evenodd" fill-opacity="1" /><path clip-path="url(#clip510)" d="M2407.99 1504.13 L2443.83 1517.18 L2443.83 1491.04 L2407.99 1504.13 M2449.18 1525.9 L2401.66 1507.75 L2401.66 1500.47 L2449.18 1482.36 L2449.18 1525.9 Z" fill="#000000" fill-rule="evenodd" fill-opacity="1" /><path clip-path="url(#clip510)" d="M2406.02 1435.41 Q2406.02 1442.41 2411.24 1446.55 Q2416.46 1450.65 2425.46 1450.65 Q2434.44 1450.65 2439.66 1446.55 Q2444.88 1442.41 2444.88 1435.41 Q2444.88 1428.41 2439.66 1424.33 Q2434.44 1420.23 2425.46 1420.23 Q2416.46 1420.23 2411.24 1424.33 Q2406.02 1428.41 2406.02 1435.41 M2400.8 1435.41 Q2400.8 1425.41 2407.51 1419.43 Q2414.2 1413.45 2425.46 1413.45 Q2436.7 1413.45 2443.42 1419.43 Q2450.1 1425.41 2450.1 1435.41 Q2450.1 1445.43 2443.42 1451.45 Q2436.73 1457.43 2425.46 1457.43 Q2414.2 1457.43 2407.51 1451.45 Q2400.8 1445.43 2400.8 1435.41 Z" fill="#000000" fill-rule="evenodd" fill-opacity="1" /><path clip-path="url(#clip510)" d="M2413.53 1407.84 L2413.53 1401.64 L2443.45 1390.5 L2413.53 1379.36 L2413.53 1373.15 L2449.18 1386.52 L2449.18 1394.48 L2413.53 1407.84 Z" fill="#000000" fill-rule="evenodd" fill-opacity="1" /><path clip-path="url(#clip510)" d="M2429.89 1334.58 L2432.75 1334.58 L2432.75 1361.5 Q2438.8 1361.12 2441.98 1357.87 Q2445.13 1354.6 2445.13 1348.77 Q2445.13 1345.4 2444.31 1342.25 Q2443.48 1339.06 2441.82 1335.94 L2447.36 1335.94 Q2448.7 1339.1 2449.4 1342.41 Q2450.1 1345.72 2450.1 1349.12 Q2450.1 1357.65 2445.13 1362.65 Q2440.17 1367.61 2431.7 1367.61 Q2422.95 1367.61 2417.83 1362.9 Q2412.67 1358.16 2412.67 1350.14 Q2412.67 1342.95 2417.32 1338.78 Q2421.93 1334.58 2429.89 1334.58 M2428.17 1340.43 Q2423.36 1340.5 2420.5 1343.14 Q2417.63 1345.75 2417.63 1350.08 Q2417.63 1354.98 2420.4 1357.94 Q2423.17 1360.87 2428.2 1361.31 L2428.17 1340.43 Z" fill="#000000" fill-rule="evenodd" fill-opacity="1" /><path clip-path="url(#clip510)" d="M2419 1304.31 Q2418.43 1305.29 2418.18 1306.47 Q2417.89 1307.62 2417.89 1309.02 Q2417.89 1313.98 2421.14 1316.66 Q2424.35 1319.3 2430.4 1319.3 L2449.18 1319.3 L2449.18 1325.19 L2413.53 1325.19 L2413.53 1319.3 L2419.07 1319.3 Q2415.82 1317.45 2414.26 1314.49 Q2412.67 1311.53 2412.67 1307.3 Q2412.67 1306.69 2412.76 1305.96 Q2412.83 1305.23 2412.99 1304.34 L2419 1304.31 Z" fill="#000000" fill-rule="evenodd" fill-opacity="1" /><path clip-path="url(#clip510)" d="M2414.58 1275.44 L2420.12 1275.44 Q2418.84 1277.92 2418.21 1280.59 Q2417.57 1283.27 2417.57 1286.13 Q2417.57 1290.49 2418.91 1292.69 Q2420.24 1294.85 2422.92 1294.85 Q2424.96 1294.85 2426.13 1293.29 Q2427.28 1291.73 2428.33 1287.02 L2428.77 1285.02 Q2430.11 1278.78 2432.56 1276.17 Q2434.98 1273.53 2439.34 1273.53 Q2444.31 1273.53 2447.2 1277.48 Q2450.1 1281.39 2450.1 1288.27 Q2450.1 1291.13 2449.53 1294.25 Q2448.99 1297.34 2447.87 1300.77 L2441.82 1300.77 Q2443.51 1297.53 2444.37 1294.38 Q2445.2 1291.23 2445.2 1288.14 Q2445.2 1284 2443.8 1281.77 Q2442.37 1279.54 2439.79 1279.54 Q2437.4 1279.54 2436.13 1281.17 Q2434.85 1282.76 2433.68 1288.2 L2433.2 1290.24 Q2432.05 1295.68 2429.7 1298.1 Q2427.31 1300.52 2423.17 1300.52 Q2418.14 1300.52 2415.41 1296.95 Q2412.67 1293.39 2412.67 1286.83 Q2412.67 1283.59 2413.15 1280.72 Q2413.62 1277.86 2414.58 1275.44 Z" fill="#000000" fill-rule="evenodd" fill-opacity="1" /><path clip-path="url(#clip510)" d="M2435.11 1264.81 L2413.53 1264.81 L2413.53 1258.95 L2434.89 1258.95 Q2439.95 1258.95 2442.49 1256.98 Q2445.01 1255 2445.01 1251.06 Q2445.01 1246.32 2441.98 1243.58 Q2438.96 1240.81 2433.74 1240.81 L2413.53 1240.81 L2413.53 1234.95 L2449.18 1234.95 L2449.18 1240.81 L2443.7 1240.81 Q2446.95 1242.94 2448.54 1245.77 Q2450.1 1248.57 2450.1 1252.3 Q2450.1 1258.44 2446.28 1261.62 Q2442.46 1264.81 2435.11 1264.81 M2412.67 1250.07 L2412.67 1250.07 Z" fill="#000000" fill-rule="evenodd" fill-opacity="1" /><path clip-path="url(#clip510)" d="M2431.38 1197.3 Q2424.92 1197.3 2421.26 1199.97 Q2417.57 1202.61 2417.57 1207.26 Q2417.57 1211.91 2421.26 1214.58 Q2424.92 1217.22 2431.38 1217.22 Q2437.85 1217.22 2441.54 1214.58 Q2445.2 1211.91 2445.2 1207.26 Q2445.2 1202.61 2441.54 1199.97 Q2437.85 1197.3 2431.38 1197.3 M2418.94 1217.22 Q2415.76 1215.38 2414.23 1212.58 Q2412.67 1209.74 2412.67 1205.83 Q2412.67 1199.34 2417.83 1195.29 Q2422.98 1191.22 2431.38 1191.22 Q2439.79 1191.22 2444.94 1195.29 Q2450.1 1199.34 2450.1 1205.83 Q2450.1 1209.74 2448.57 1212.58 Q2447.01 1215.38 2443.83 1217.22 L2449.18 1217.22 L2449.18 1223.11 L2399.65 1223.11 L2399.65 1217.22 L2418.94 1217.22 Z" fill="#000000" fill-rule="evenodd" fill-opacity="1" /><path clip-path="url(#clip510)" d="M2414.58 1158.79 L2420.12 1158.79 Q2418.84 1161.27 2418.21 1163.94 Q2417.57 1166.62 2417.57 1169.48 Q2417.57 1173.84 2418.91 1176.04 Q2420.24 1178.2 2422.92 1178.2 Q2424.96 1178.2 2426.13 1176.64 Q2427.28 1175.08 2428.33 1170.37 L2428.77 1168.37 Q2430.11 1162.13 2432.56 1159.52 Q2434.98 1156.88 2439.34 1156.88 Q2444.31 1156.88 2447.2 1160.82 Q2450.1 1164.74 2450.1 1171.61 Q2450.1 1174.48 2449.53 1177.6 Q2448.99 1180.68 2447.87 1184.12 L2441.82 1184.12 Q2443.51 1180.88 2444.37 1177.72 Q2445.2 1174.57 2445.2 1171.49 Q2445.2 1167.35 2443.8 1165.12 Q2442.37 1162.89 2439.79 1162.89 Q2437.4 1162.89 2436.13 1164.52 Q2434.85 1166.11 2433.68 1171.55 L2433.2 1173.59 Q2432.05 1179.03 2429.7 1181.45 Q2427.31 1183.87 2423.17 1183.87 Q2418.14 1183.87 2415.41 1180.3 Q2412.67 1176.74 2412.67 1170.18 Q2412.67 1166.93 2413.15 1164.07 Q2413.62 1161.21 2414.58 1158.79 Z" fill="#000000" fill-rule="evenodd" fill-opacity="1" /><path clip-path="url(#clip510)" d="M2414.9 1121.9 L2420.37 1121.9 Q2419 1124.38 2418.33 1126.89 Q2417.63 1129.38 2417.63 1131.92 Q2417.63 1137.62 2421.26 1140.77 Q2424.86 1143.92 2431.38 1143.92 Q2437.91 1143.92 2441.54 1140.77 Q2445.13 1137.62 2445.13 1131.92 Q2445.13 1129.38 2444.47 1126.89 Q2443.77 1124.38 2442.4 1121.9 L2447.81 1121.9 Q2448.95 1124.35 2449.53 1126.99 Q2450.1 1129.6 2450.1 1132.56 Q2450.1 1140.61 2445.04 1145.36 Q2439.98 1150.1 2431.38 1150.1 Q2422.66 1150.1 2417.67 1145.32 Q2412.67 1140.52 2412.67 1132.18 Q2412.67 1129.47 2413.24 1126.89 Q2413.78 1124.32 2414.9 1121.9 Z" fill="#000000" fill-rule="evenodd" fill-opacity="1" /><path clip-path="url(#clip510)" d="M2419 1091.06 Q2418.43 1092.04 2418.18 1093.22 Q2417.89 1094.37 2417.89 1095.77 Q2417.89 1100.73 2421.14 1103.41 Q2424.35 1106.05 2430.4 1106.05 L2449.18 1106.05 L2449.18 1111.94 L2413.53 1111.94 L2413.53 1106.05 L2419.07 1106.05 Q2415.82 1104.2 2414.26 1101.24 Q2412.67 1098.28 2412.67 1094.05 Q2412.67 1093.44 2412.76 1092.71 Q2412.83 1091.98 2412.99 1091.09 L2419 1091.06 Z" fill="#000000" fill-rule="evenodd" fill-opacity="1" /><path clip-path="url(#clip510)" d="M2413.53 1084.91 L2413.53 1079.06 L2449.18 1079.06 L2449.18 1084.91 L2413.53 1084.91 M2399.65 1084.91 L2399.65 1079.06 L2407.07 1079.06 L2407.07 1084.91 L2399.65 1084.91 Z" fill="#000000" fill-rule="evenodd" fill-opacity="1" /><path clip-path="url(#clip510)" d="M2443.83 1061.14 L2462.74 1061.14 L2462.74 1067.03 L2413.53 1067.03 L2413.53 1061.14 L2418.94 1061.14 Q2415.76 1059.29 2414.23 1056.49 Q2412.67 1053.66 2412.67 1049.74 Q2412.67 1043.25 2417.83 1039.21 Q2422.98 1035.13 2431.38 1035.13 Q2439.79 1035.13 2444.94 1039.21 Q2450.1 1043.25 2450.1 1049.74 Q2450.1 1053.66 2448.57 1056.49 Q2447.01 1059.29 2443.83 1061.14 M2431.38 1041.21 Q2424.92 1041.21 2421.26 1043.89 Q2417.57 1046.53 2417.57 1051.17 Q2417.57 1055.82 2421.26 1058.49 Q2424.92 1061.14 2431.38 1061.14 Q2437.85 1061.14 2441.54 1058.49 Q2445.2 1055.82 2445.2 1051.17 Q2445.2 1046.53 2441.54 1043.89 Q2437.85 1041.21 2431.38 1041.21 Z" fill="#000000" fill-rule="evenodd" fill-opacity="1" /><path clip-path="url(#clip510)" d="M2403.41 1019.63 L2413.53 1019.63 L2413.53 1007.57 L2418.08 1007.57 L2418.08 1019.63 L2437.43 1019.63 Q2441.79 1019.63 2443.03 1018.45 Q2444.27 1017.25 2444.27 1013.58 L2444.27 1007.57 L2449.18 1007.57 L2449.18 1013.58 Q2449.18 1020.36 2446.66 1022.94 Q2444.12 1025.52 2437.43 1025.52 L2418.08 1025.52 L2418.08 1029.82 L2413.53 1029.82 L2413.53 1025.52 L2403.41 1025.52 L2403.41 1019.63 Z" fill="#000000" fill-rule="evenodd" fill-opacity="1" /><path clip-path="url(#clip510)" d="M2413.53 999.867 L2413.53 994.01 L2449.18 994.01 L2449.18 999.867 L2413.53 999.867 M2399.65 999.867 L2399.65 994.01 L2407.07 994.01 L2407.07 999.867 L2399.65 999.867 Z" fill="#000000" fill-rule="evenodd" fill-opacity="1" /><path clip-path="url(#clip510)" d="M2417.63 967.943 Q2417.63 972.653 2421.33 975.391 Q2424.99 978.128 2431.38 978.128 Q2437.78 978.128 2441.47 975.423 Q2445.13 972.685 2445.13 967.943 Q2445.13 963.264 2441.44 960.527 Q2437.75 957.79 2431.38 957.79 Q2425.05 957.79 2421.36 960.527 Q2417.63 963.264 2417.63 967.943 M2412.67 967.943 Q2412.67 960.304 2417.63 955.943 Q2422.6 951.583 2431.38 951.583 Q2440.14 951.583 2445.13 955.943 Q2450.1 960.304 2450.1 967.943 Q2450.1 975.613 2445.13 979.974 Q2440.14 984.303 2431.38 984.303 Q2422.6 984.303 2417.63 979.974 Q2412.67 975.613 2412.67 967.943 Z" fill="#000000" fill-rule="evenodd" fill-opacity="1" /><path clip-path="url(#clip510)" d="M2427.66 912.243 L2449.18 912.243 L2449.18 918.099 L2427.85 918.099 Q2422.79 918.099 2420.28 920.073 Q2417.76 922.046 2417.76 925.993 Q2417.76 930.735 2420.79 933.473 Q2423.81 936.21 2429.03 936.21 L2449.18 936.21 L2449.18 942.098 L2413.53 942.098 L2413.53 936.21 L2419.07 936.21 Q2415.85 934.109 2414.26 931.276 Q2412.67 928.412 2412.67 924.688 Q2412.67 918.545 2416.49 915.394 Q2420.28 912.243 2427.66 912.243 Z" fill="#000000" fill-rule="evenodd" fill-opacity="1" /><path clip-path="url(#clip510)" d="M2419 859.185 Q2418.43 860.171 2418.18 861.349 Q2417.89 862.495 2417.89 863.895 Q2417.89 868.861 2421.14 871.534 Q2424.35 874.176 2430.4 874.176 L2449.18 874.176 L2449.18 880.064 L2413.53 880.064 L2413.53 874.176 L2419.07 874.176 Q2415.82 872.33 2414.26 869.37 Q2412.67 866.41 2412.67 862.177 Q2412.67 861.572 2412.76 860.84 Q2412.83 860.108 2412.99 859.217 L2419 859.185 Z" fill="#000000" fill-rule="evenodd" fill-opacity="1" /><path clip-path="url(#clip510)" d="M2431.26 836.841 Q2431.26 843.939 2432.88 846.676 Q2434.5 849.413 2438.42 849.413 Q2441.54 849.413 2443.38 847.376 Q2445.2 845.307 2445.2 841.775 Q2445.2 836.905 2441.76 833.977 Q2438.29 831.016 2432.56 831.016 L2431.26 831.016 L2431.26 836.841 M2428.84 825.16 L2449.18 825.16 L2449.18 831.016 L2443.77 831.016 Q2447.01 833.022 2448.57 836.014 Q2450.1 839.005 2450.1 843.334 Q2450.1 848.809 2447.04 852.055 Q2443.96 855.27 2438.8 855.27 Q2432.78 855.27 2429.73 851.259 Q2426.67 847.217 2426.67 839.228 L2426.67 831.016 L2426.1 831.016 Q2422.06 831.016 2419.86 833.69 Q2417.63 836.332 2417.63 841.138 Q2417.63 844.193 2418.37 847.09 Q2419.1 849.986 2420.56 852.66 L2415.15 852.66 Q2413.91 849.445 2413.31 846.421 Q2412.67 843.398 2412.67 840.533 Q2412.67 832.799 2416.68 828.979 Q2420.69 825.16 2428.84 825.16 Z" fill="#000000" fill-rule="evenodd" fill-opacity="1" /><path clip-path="url(#clip510)" d="M2403.41 807.304 L2413.53 807.304 L2413.53 795.241 L2418.08 795.241 L2418.08 807.304 L2437.43 807.304 Q2441.79 807.304 2443.03 806.127 Q2444.27 804.917 2444.27 801.257 L2444.27 795.241 L2449.18 795.241 L2449.18 801.257 Q2449.18 808.036 2446.66 810.614 Q2444.12 813.192 2437.43 813.192 L2418.08 813.192 L2418.08 817.489 L2413.53 817.489 L2413.53 813.192 L2403.41 813.192 L2403.41 807.304 Z" fill="#000000" fill-rule="evenodd" fill-opacity="1" /><path clip-path="url(#clip510)" d="M2429.89 757.047 L2432.75 757.047 L2432.75 783.974 Q2438.8 783.592 2441.98 780.345 Q2445.13 777.067 2445.13 771.242 Q2445.13 767.869 2444.31 764.718 Q2443.48 761.535 2441.82 758.416 L2447.36 758.416 Q2448.7 761.567 2449.4 764.877 Q2450.1 768.187 2450.1 771.593 Q2450.1 780.123 2445.13 785.12 Q2440.17 790.085 2431.7 790.085 Q2422.95 790.085 2417.83 785.374 Q2412.67 780.632 2412.67 772.611 Q2412.67 765.418 2417.32 761.248 Q2421.93 757.047 2429.89 757.047 M2428.17 762.903 Q2423.36 762.967 2420.5 765.609 Q2417.63 768.219 2417.63 772.547 Q2417.63 777.449 2420.4 780.409 Q2423.17 783.337 2428.2 783.783 L2428.17 762.903 Z" fill="#000000" fill-rule="evenodd" fill-opacity="1" /><circle clip-path="url(#clip513)" cx="2725.7" cy="1051.46" r="14.4" fill="#009af9" fill-rule="evenodd" fill-opacity="1" stroke="#000000" stroke-opacity="1" stroke-width="4.8"/>
<circle clip-path="url(#clip513)" cx="3091.94" cy="168.608" r="14.4" fill="#009af9" fill-rule="evenodd" fill-opacity="1" stroke="#000000" stroke-opacity="1" stroke-width="4.8"/>
<circle clip-path="url(#clip513)" cx="3205.14" cy="1041.03" r="14.4" fill="#009af9" fill-rule="evenodd" fill-opacity="1" stroke="#000000" stroke-opacity="1" stroke-width="4.8"/>
<circle clip-path="url(#clip513)" cx="3415.86" cy="706.089" r="14.4" fill="#009af9" fill-rule="evenodd" fill-opacity="1" stroke="#000000" stroke-opacity="1" stroke-width="4.8"/>
<circle clip-path="url(#clip513)" cx="3543.3" cy="776.384" r="14.4" fill="#009af9" fill-rule="evenodd" fill-opacity="1" stroke="#000000" stroke-opacity="1" stroke-width="4.8"/>
<circle clip-path="url(#clip513)" cx="3657.49" cy="1152.06" r="14.4" fill="#009af9" fill-rule="evenodd" fill-opacity="1" stroke="#000000" stroke-opacity="1" stroke-width="4.8"/>
<circle clip-path="url(#clip513)" cx="3692.28" cy="744.88" r="14.4" fill="#009af9" fill-rule="evenodd" fill-opacity="1" stroke="#000000" stroke-opacity="1" stroke-width="4.8"/>
<circle clip-path="url(#clip513)" cx="3723.58" cy="928.589" r="14.4" fill="#009af9" fill-rule="evenodd" fill-opacity="1" stroke="#000000" stroke-opacity="1" stroke-width="4.8"/>
<circle clip-path="url(#clip513)" cx="3821.99" cy="1129.25" r="14.4" fill="#009af9" fill-rule="evenodd" fill-opacity="1" stroke="#000000" stroke-opacity="1" stroke-width="4.8"/>
<circle clip-path="url(#clip513)" cx="3873.92" cy="2114.34" r="14.4" fill="#009af9" fill-rule="evenodd" fill-opacity="1" stroke="#000000" stroke-opacity="1" stroke-width="4.8"/>
<circle clip-path="url(#clip513)" cx="4121" cy="1724.79" r="14.4" fill="#009af9" fill-rule="evenodd" fill-opacity="1" stroke="#000000" stroke-opacity="1" stroke-width="4.8"/>
<circle clip-path="url(#clip513)" cx="4162.51" cy="1222.49" r="14.4" fill="#009af9" fill-rule="evenodd" fill-opacity="1" stroke="#000000" stroke-opacity="1" stroke-width="4.8"/>
<circle clip-path="url(#clip513)" cx="4190.99" cy="790.257" r="14.4" fill="#009af9" fill-rule="evenodd" fill-opacity="1" stroke="#000000" stroke-opacity="1" stroke-width="4.8"/>
<circle clip-path="url(#clip513)" cx="4255.39" cy="1527.85" r="14.4" fill="#009af9" fill-rule="evenodd" fill-opacity="1" stroke="#000000" stroke-opacity="1" stroke-width="4.8"/>
<circle clip-path="url(#clip513)" cx="4274.64" cy="1405.6" r="14.4" fill="#009af9" fill-rule="evenodd" fill-opacity="1" stroke="#000000" stroke-opacity="1" stroke-width="4.8"/>
<circle clip-path="url(#clip513)" cx="4293.04" cy="1709.34" r="14.4" fill="#009af9" fill-rule="evenodd" fill-opacity="1" stroke="#000000" stroke-opacity="1" stroke-width="4.8"/>
<circle clip-path="url(#clip513)" cx="4302.76" cy="1175.31" r="14.4" fill="#009af9" fill-rule="evenodd" fill-opacity="1" stroke="#000000" stroke-opacity="1" stroke-width="4.8"/>
<circle clip-path="url(#clip513)" cx="4632.56" cy="1641.98" r="14.4" fill="#009af9" fill-rule="evenodd" fill-opacity="1" stroke="#000000" stroke-opacity="1" stroke-width="4.8"/>
<polyline clip-path="url(#clip513)" style="stroke:#009af9; stroke-linecap:round; stroke-linejoin:round; stroke-width:4; stroke-opacity:1; fill:none" points="
  2725.7,565.402 4632.56,1602.33 
  "/>
</svg>
