<?xml version="1.0" encoding="utf-8"?>
<svg xmlns="http://www.w3.org/2000/svg" xmlns:xlink="http://www.w3.org/1999/xlink" width="1000" height="600" viewBox="0 0 4000 2400">
<defs>
  <clipPath id="clip350">
    <rect x="0" y="0" width="4000" height="2400"/>
  </clipPath>
</defs>
<path clip-path="url(#clip350)" d="
M0 2400 L4000 2400 L4000 0 L0 0  Z
  " fill="#ffffff" fill-rule="evenodd" fill-opacity="1"/>
<defs>
  <clipPath id="clip351">
    <rect x="800" y="0" width="2801" height="2400"/>
  </clipPath>
</defs>
<path clip-path="url(#clip350)" d="
M293.134 2160.4 L3889.76 2160.4 L3889.76 110.236 L293.134 110.236  Z
  " fill="#ffffff" fill-rule="evenodd" fill-opacity="1"/>
<defs>
  <clipPath id="clip352">
    <rect x="293" y="110" width="3598" height="2051"/>
  </clipPath>
</defs>
<polyline clip-path="url(#clip352)" style="stroke:#000000; stroke-linecap:round; stroke-linejoin:round; stroke-width:2; stroke-opacity:0.1; fill:none" points="
  755.941,2160.4 755.941,110.236 
  "/>
<polyline clip-path="url(#clip352)" style="stroke:#000000; stroke-linecap:round; stroke-linejoin:round; stroke-width:2; stroke-opacity:0.1; fill:none" points="
  1221.56,2160.4 1221.56,110.236 
  "/>
<polyline clip-path="url(#clip352)" style="stroke:#000000; stroke-linecap:round; stroke-linejoin:round; stroke-width:2; stroke-opacity:0.1; fill:none" points="
  1687.19,2160.4 1687.19,110.236 
  "/>
<polyline clip-path="url(#clip352)" style="stroke:#000000; stroke-linecap:round; stroke-linejoin:round; stroke-width:2; stroke-opacity:0.1; fill:none" points="
  2152.81,2160.4 2152.81,110.236 
  "/>
<polyline clip-path="url(#clip352)" style="stroke:#000000; stroke-linecap:round; stroke-linejoin:round; stroke-width:2; stroke-opacity:0.1; fill:none" points="
  2618.43,2160.4 2618.43,110.236 
  "/>
<polyline clip-path="url(#clip352)" style="stroke:#000000; stroke-linecap:round; stroke-linejoin:round; stroke-width:2; stroke-opacity:0.1; fill:none" points="
  3084.06,2160.4 3084.06,110.236 
  "/>
<polyline clip-path="url(#clip352)" style="stroke:#000000; stroke-linecap:round; stroke-linejoin:round; stroke-width:2; stroke-opacity:0.1; fill:none" points="
  3549.68,2160.4 3549.68,110.236 
  "/>
<polyline clip-path="url(#clip350)" style="stroke:#000000; stroke-linecap:round; stroke-linejoin:round; stroke-width:4; stroke-opacity:1; fill:none" points="
  293.134,2160.4 3889.76,2160.4 
  "/>
<polyline clip-path="url(#clip350)" style="stroke:#000000; stroke-linecap:round; stroke-linejoin:round; stroke-width:4; stroke-opacity:1; fill:none" points="
  755.941,2160.4 755.941,2141.5 
  "/>
<polyline clip-path="url(#clip350)" style="stroke:#000000; stroke-linecap:round; stroke-linejoin:round; stroke-width:4; stroke-opacity:1; fill:none" points="
  1221.56,2160.4 1221.56,2141.5 
  "/>
<polyline clip-path="url(#clip350)" style="stroke:#000000; stroke-linecap:round; stroke-linejoin:round; stroke-width:4; stroke-opacity:1; fill:none" points="
  1687.19,2160.4 1687.19,2141.5 
  "/>
<polyline clip-path="url(#clip350)" style="stroke:#000000; stroke-linecap:round; stroke-linejoin:round; stroke-width:4; stroke-opacity:1; fill:none" points="
  2152.81,2160.4 2152.81,2141.5 
  "/>
<polyline clip-path="url(#clip350)" style="stroke:#000000; stroke-linecap:round; stroke-linejoin:round; stroke-width:4; stroke-opacity:1; fill:none" points="
  2618.43,2160.4 2618.43,2141.5 
  "/>
<polyline clip-path="url(#clip350)" style="stroke:#000000; stroke-linecap:round; stroke-linejoin:round; stroke-width:4; stroke-opacity:1; fill:none" points="
  3084.06,2160.4 3084.06,2141.5 
  "/>
<polyline clip-path="url(#clip350)" style="stroke:#000000; stroke-linecap:round; stroke-linejoin:round; stroke-width:4; stroke-opacity:1; fill:none" points="
  3549.68,2160.4 3549.68,2141.5 
  "/>
<path clip-path="url(#clip350)" d="M702.793 2218.77 L732.468 2218.77 L732.468 2222.7 L702.793 2222.7 L702.793 2218.77 Z" fill="#000000" fill-rule="evenodd" fill-opacity="1" /><path clip-path="url(#clip350)" d="M752.561 2204.11 Q748.95 2204.11 747.121 2207.68 Q745.316 2211.22 745.316 2218.35 Q745.316 2225.46 747.121 2229.02 Q748.95 2232.56 752.561 2232.56 Q756.195 2232.56 758.001 2229.02 Q759.829 2225.46 759.829 2218.35 Q759.829 2211.22 758.001 2207.68 Q756.195 2204.11 752.561 2204.11 M752.561 2200.41 Q758.371 2200.41 761.427 2205.02 Q764.505 2209.6 764.505 2218.35 Q764.505 2227.08 761.427 2231.68 Q758.371 2236.27 752.561 2236.27 Q746.751 2236.27 743.672 2231.68 Q740.617 2227.08 740.617 2218.35 Q740.617 2209.6 743.672 2205.02 Q746.751 2200.41 752.561 2200.41 Z" fill="#000000" fill-rule="evenodd" fill-opacity="1" /><path clip-path="url(#clip350)" d="M772.723 2229.72 L777.607 2229.72 L777.607 2235.6 L772.723 2235.6 L772.723 2229.72 Z" fill="#000000" fill-rule="evenodd" fill-opacity="1" /><path clip-path="url(#clip350)" d="M801.959 2216.96 Q805.315 2217.68 807.19 2219.95 Q809.088 2222.22 809.088 2225.55 Q809.088 2230.67 805.57 2233.47 Q802.051 2236.27 795.57 2236.27 Q793.394 2236.27 791.079 2235.83 Q788.788 2235.41 786.334 2234.55 L786.334 2230.04 Q788.278 2231.17 790.593 2231.75 Q792.908 2232.33 795.431 2232.33 Q799.829 2232.33 802.121 2230.6 Q804.436 2228.86 804.436 2225.55 Q804.436 2222.49 802.283 2220.78 Q800.153 2219.04 796.334 2219.04 L792.306 2219.04 L792.306 2215.2 L796.519 2215.2 Q799.968 2215.2 801.797 2213.84 Q803.625 2212.45 803.625 2209.86 Q803.625 2207.19 801.727 2205.78 Q799.852 2204.35 796.334 2204.35 Q794.413 2204.35 792.213 2204.76 Q790.014 2205.18 787.376 2206.06 L787.376 2201.89 Q790.038 2201.15 792.352 2200.78 Q794.69 2200.41 796.75 2200.41 Q802.075 2200.41 805.176 2202.84 Q808.278 2205.25 808.278 2209.37 Q808.278 2212.24 806.635 2214.23 Q804.991 2216.2 801.959 2216.96 Z" fill="#000000" fill-rule="evenodd" fill-opacity="1" /><path clip-path="url(#clip350)" d="M1168.89 2218.77 L1198.57 2218.77 L1198.57 2222.7 L1168.89 2222.7 L1168.89 2218.77 Z" fill="#000000" fill-rule="evenodd" fill-opacity="1" /><path clip-path="url(#clip350)" d="M1218.66 2204.11 Q1215.05 2204.11 1213.22 2207.68 Q1211.41 2211.22 1211.41 2218.35 Q1211.41 2225.46 1213.22 2229.02 Q1215.05 2232.56 1218.66 2232.56 Q1222.29 2232.56 1224.1 2229.02 Q1225.93 2225.46 1225.93 2218.35 Q1225.93 2211.22 1224.1 2207.68 Q1222.29 2204.11 1218.66 2204.11 M1218.66 2200.41 Q1224.47 2200.41 1227.52 2205.02 Q1230.6 2209.6 1230.6 2218.35 Q1230.6 2227.08 1227.52 2231.68 Q1224.47 2236.27 1218.66 2236.27 Q1212.85 2236.27 1209.77 2231.68 Q1206.71 2227.08 1206.71 2218.35 Q1206.71 2209.6 1209.77 2205.02 Q1212.85 2200.41 1218.66 2200.41 Z" fill="#000000" fill-rule="evenodd" fill-opacity="1" /><path clip-path="url(#clip350)" d="M1238.82 2229.72 L1243.7 2229.72 L1243.7 2235.6 L1238.82 2235.6 L1238.82 2229.72 Z" fill="#000000" fill-rule="evenodd" fill-opacity="1" /><path clip-path="url(#clip350)" d="M1257.92 2231.66 L1274.24 2231.66 L1274.24 2235.6 L1252.29 2235.6 L1252.29 2231.66 Q1254.95 2228.91 1259.54 2224.28 Q1264.14 2219.62 1265.33 2218.28 Q1267.57 2215.76 1268.45 2214.02 Q1269.35 2212.26 1269.35 2210.57 Q1269.35 2207.82 1267.41 2206.08 Q1265.49 2204.35 1262.39 2204.35 Q1260.19 2204.35 1257.73 2205.11 Q1255.3 2205.87 1252.52 2207.42 L1252.52 2202.7 Q1255.35 2201.57 1257.8 2200.99 Q1260.26 2200.41 1262.29 2200.41 Q1267.66 2200.41 1270.86 2203.1 Q1274.05 2205.78 1274.05 2210.27 Q1274.05 2212.4 1273.24 2214.32 Q1272.45 2216.22 1270.35 2218.81 Q1269.77 2219.48 1266.67 2222.7 Q1263.57 2225.9 1257.92 2231.66 Z" fill="#000000" fill-rule="evenodd" fill-opacity="1" /><path clip-path="url(#clip350)" d="M1634.33 2218.77 L1664 2218.77 L1664 2222.7 L1634.33 2222.7 L1634.33 2218.77 Z" fill="#000000" fill-rule="evenodd" fill-opacity="1" /><path clip-path="url(#clip350)" d="M1684.1 2204.11 Q1680.49 2204.11 1678.66 2207.68 Q1676.85 2211.22 1676.85 2218.35 Q1676.85 2225.46 1678.66 2229.02 Q1680.49 2232.56 1684.1 2232.56 Q1687.73 2232.56 1689.54 2229.02 Q1691.37 2225.46 1691.37 2218.35 Q1691.37 2211.22 1689.54 2207.68 Q1687.73 2204.11 1684.1 2204.11 M1684.1 2200.41 Q1689.91 2200.41 1692.96 2205.02 Q1696.04 2209.6 1696.04 2218.35 Q1696.04 2227.08 1692.96 2231.68 Q1689.91 2236.27 1684.1 2236.27 Q1678.29 2236.27 1675.21 2231.68 Q1672.15 2227.08 1672.15 2218.35 Q1672.15 2209.6 1675.21 2205.02 Q1678.29 2200.41 1684.1 2200.41 Z" fill="#000000" fill-rule="evenodd" fill-opacity="1" /><path clip-path="url(#clip350)" d="M1704.26 2229.72 L1709.14 2229.72 L1709.14 2235.6 L1704.26 2235.6 L1704.26 2229.72 Z" fill="#000000" fill-rule="evenodd" fill-opacity="1" /><path clip-path="url(#clip350)" d="M1720.14 2231.66 L1727.78 2231.66 L1727.78 2205.29 L1719.47 2206.96 L1719.47 2202.7 L1727.73 2201.04 L1732.41 2201.04 L1732.41 2231.66 L1740.05 2231.66 L1740.05 2235.6 L1720.14 2235.6 L1720.14 2231.66 Z" fill="#000000" fill-rule="evenodd" fill-opacity="1" /><path clip-path="url(#clip350)" d="M2130.19 2204.11 Q2126.58 2204.11 2124.76 2207.68 Q2122.95 2211.22 2122.95 2218.35 Q2122.95 2225.46 2124.76 2229.02 Q2126.58 2232.56 2130.19 2232.56 Q2133.83 2232.56 2135.63 2229.02 Q2137.46 2225.46 2137.46 2218.35 Q2137.46 2211.22 2135.63 2207.68 Q2133.83 2204.11 2130.19 2204.11 M2130.19 2200.41 Q2136 2200.41 2139.06 2205.02 Q2142.14 2209.6 2142.14 2218.35 Q2142.14 2227.08 2139.06 2231.68 Q2136 2236.27 2130.19 2236.27 Q2124.38 2236.27 2121.31 2231.68 Q2118.25 2227.08 2118.25 2218.35 Q2118.25 2209.6 2121.31 2205.02 Q2124.38 2200.41 2130.19 2200.41 Z" fill="#000000" fill-rule="evenodd" fill-opacity="1" /><path clip-path="url(#clip350)" d="M2150.36 2229.72 L2155.24 2229.72 L2155.24 2235.6 L2150.36 2235.6 L2150.36 2229.72 Z" fill="#000000" fill-rule="evenodd" fill-opacity="1" /><path clip-path="url(#clip350)" d="M2175.43 2204.11 Q2171.81 2204.11 2169.99 2207.68 Q2168.18 2211.22 2168.18 2218.35 Q2168.18 2225.46 2169.99 2229.02 Q2171.81 2232.56 2175.43 2232.56 Q2179.06 2232.56 2180.87 2229.02 Q2182.69 2225.46 2182.69 2218.35 Q2182.69 2211.22 2180.87 2207.68 Q2179.06 2204.11 2175.43 2204.11 M2175.43 2200.41 Q2181.24 2200.41 2184.29 2205.02 Q2187.37 2209.6 2187.37 2218.35 Q2187.37 2227.08 2184.29 2231.68 Q2181.24 2236.27 2175.43 2236.27 Q2169.62 2236.27 2166.54 2231.68 Q2163.48 2227.08 2163.48 2218.35 Q2163.48 2209.6 2166.54 2205.02 Q2169.62 2200.41 2175.43 2200.41 Z" fill="#000000" fill-rule="evenodd" fill-opacity="1" /><path clip-path="url(#clip350)" d="M2596.43 2204.11 Q2592.82 2204.11 2590.99 2207.68 Q2589.19 2211.22 2589.19 2218.35 Q2589.19 2225.46 2590.99 2229.02 Q2592.82 2232.56 2596.43 2232.56 Q2600.07 2232.56 2601.87 2229.02 Q2603.7 2225.46 2603.7 2218.35 Q2603.7 2211.22 2601.87 2207.68 Q2600.07 2204.11 2596.43 2204.11 M2596.43 2200.41 Q2602.24 2200.41 2605.3 2205.02 Q2608.38 2209.6 2608.38 2218.35 Q2608.38 2227.08 2605.3 2231.68 Q2602.24 2236.27 2596.43 2236.27 Q2590.62 2236.27 2587.54 2231.68 Q2584.49 2227.08 2584.49 2218.35 Q2584.49 2209.6 2587.54 2205.02 Q2590.62 2200.41 2596.43 2200.41 Z" fill="#000000" fill-rule="evenodd" fill-opacity="1" /><path clip-path="url(#clip350)" d="M2616.59 2229.72 L2621.48 2229.72 L2621.48 2235.6 L2616.59 2235.6 L2616.59 2229.72 Z" fill="#000000" fill-rule="evenodd" fill-opacity="1" /><path clip-path="url(#clip350)" d="M2632.47 2231.66 L2640.11 2231.66 L2640.11 2205.29 L2631.8 2206.96 L2631.8 2202.7 L2640.07 2201.04 L2644.74 2201.04 L2644.74 2231.66 L2652.38 2231.66 L2652.38 2235.6 L2632.47 2235.6 L2632.47 2231.66 Z" fill="#000000" fill-rule="evenodd" fill-opacity="1" /><path clip-path="url(#clip350)" d="M3062.24 2204.11 Q3058.63 2204.11 3056.8 2207.68 Q3054.99 2211.22 3054.99 2218.35 Q3054.99 2225.46 3056.8 2229.02 Q3058.63 2232.56 3062.24 2232.56 Q3065.87 2232.56 3067.68 2229.02 Q3069.51 2225.46 3069.51 2218.35 Q3069.51 2211.22 3067.68 2207.68 Q3065.87 2204.11 3062.24 2204.11 M3062.24 2200.41 Q3068.05 2200.41 3071.11 2205.02 Q3074.18 2209.6 3074.18 2218.35 Q3074.18 2227.08 3071.11 2231.68 Q3068.05 2236.27 3062.24 2236.27 Q3056.43 2236.27 3053.35 2231.68 Q3050.3 2227.08 3050.3 2218.35 Q3050.3 2209.6 3053.35 2205.02 Q3056.43 2200.41 3062.24 2200.41 Z" fill="#000000" fill-rule="evenodd" fill-opacity="1" /><path clip-path="url(#clip350)" d="M3082.4 2229.72 L3087.29 2229.72 L3087.29 2235.6 L3082.4 2235.6 L3082.4 2229.72 Z" fill="#000000" fill-rule="evenodd" fill-opacity="1" /><path clip-path="url(#clip350)" d="M3101.5 2231.66 L3117.82 2231.66 L3117.82 2235.6 L3095.87 2235.6 L3095.87 2231.66 Q3098.54 2228.91 3103.12 2224.28 Q3107.73 2219.62 3108.91 2218.28 Q3111.15 2215.76 3112.03 2214.02 Q3112.93 2212.26 3112.93 2210.57 Q3112.93 2207.82 3110.99 2206.08 Q3109.07 2204.35 3105.97 2204.35 Q3103.77 2204.35 3101.31 2205.11 Q3098.88 2205.87 3096.11 2207.42 L3096.11 2202.7 Q3098.93 2201.57 3101.38 2200.99 Q3103.84 2200.41 3105.87 2200.41 Q3111.24 2200.41 3114.44 2203.1 Q3117.63 2205.78 3117.63 2210.27 Q3117.63 2212.4 3116.82 2214.32 Q3116.04 2216.22 3113.93 2218.81 Q3113.35 2219.48 3110.25 2222.7 Q3107.15 2225.9 3101.5 2231.66 Z" fill="#000000" fill-rule="evenodd" fill-opacity="1" /><path clip-path="url(#clip350)" d="M3527.39 2204.11 Q3523.78 2204.11 3521.95 2207.68 Q3520.14 2211.22 3520.14 2218.35 Q3520.14 2225.46 3521.95 2229.02 Q3523.78 2232.56 3527.39 2232.56 Q3531.02 2232.56 3532.83 2229.02 Q3534.66 2225.46 3534.66 2218.35 Q3534.66 2211.22 3532.83 2207.68 Q3531.02 2204.11 3527.39 2204.11 M3527.39 2200.41 Q3533.2 2200.41 3536.25 2205.02 Q3539.33 2209.6 3539.33 2218.35 Q3539.33 2227.08 3536.25 2231.68 Q3533.2 2236.27 3527.39 2236.27 Q3521.58 2236.27 3518.5 2231.68 Q3515.44 2227.08 3515.44 2218.35 Q3515.44 2209.6 3518.5 2205.02 Q3521.58 2200.41 3527.39 2200.41 Z" fill="#000000" fill-rule="evenodd" fill-opacity="1" /><path clip-path="url(#clip350)" d="M3547.55 2229.72 L3552.43 2229.72 L3552.43 2235.6 L3547.55 2235.6 L3547.55 2229.72 Z" fill="#000000" fill-rule="evenodd" fill-opacity="1" /><path clip-path="url(#clip350)" d="M3576.79 2216.96 Q3580.14 2217.68 3582.02 2219.95 Q3583.92 2222.22 3583.92 2225.55 Q3583.92 2230.67 3580.4 2233.47 Q3576.88 2236.27 3570.4 2236.27 Q3568.22 2236.27 3565.91 2235.83 Q3563.62 2235.41 3561.16 2234.55 L3561.16 2230.04 Q3563.11 2231.17 3565.42 2231.75 Q3567.74 2232.33 3570.26 2232.33 Q3574.66 2232.33 3576.95 2230.6 Q3579.26 2228.86 3579.26 2225.55 Q3579.26 2222.49 3577.11 2220.78 Q3574.98 2219.04 3571.16 2219.04 L3567.13 2219.04 L3567.13 2215.2 L3571.35 2215.2 Q3574.8 2215.2 3576.62 2213.84 Q3578.45 2212.45 3578.45 2209.86 Q3578.45 2207.19 3576.56 2205.78 Q3574.68 2204.35 3571.16 2204.35 Q3569.24 2204.35 3567.04 2204.76 Q3564.84 2205.18 3562.2 2206.06 L3562.2 2201.89 Q3564.87 2201.15 3567.18 2200.78 Q3569.52 2200.41 3571.58 2200.41 Q3576.9 2200.41 3580 2202.84 Q3583.11 2205.25 3583.11 2209.37 Q3583.11 2212.24 3581.46 2214.23 Q3579.82 2216.2 3576.79 2216.96 Z" fill="#000000" fill-rule="evenodd" fill-opacity="1" /><path clip-path="url(#clip350)" d="M1507.35 2283.3 L1507.35 2289.57 Q1503.69 2287.82 1500.44 2286.96 Q1497.19 2286.1 1494.17 2286.1 Q1488.92 2286.1 1486.05 2288.14 Q1483.22 2290.17 1483.22 2293.93 Q1483.22 2297.08 1485.1 2298.7 Q1487.01 2300.3 1492.29 2301.28 L1496.18 2302.08 Q1503.37 2303.45 1506.77 2306.92 Q1510.21 2310.35 1510.21 2316.15 Q1510.21 2323.05 1505.57 2326.62 Q1500.95 2330.18 1492.01 2330.18 Q1488.63 2330.18 1484.81 2329.42 Q1481.03 2328.65 1476.95 2327.16 L1476.95 2320.54 Q1480.87 2322.73 1484.62 2323.85 Q1488.38 2324.96 1492.01 2324.96 Q1497.51 2324.96 1500.5 2322.8 Q1503.5 2320.63 1503.5 2316.62 Q1503.5 2313.12 1501.33 2311.15 Q1499.2 2309.18 1494.3 2308.19 L1490.38 2307.43 Q1483.19 2305.99 1479.98 2302.94 Q1476.76 2299.88 1476.76 2294.44 Q1476.76 2288.14 1481.18 2284.51 Q1485.64 2280.88 1493.44 2280.88 Q1496.78 2280.88 1500.25 2281.49 Q1503.72 2282.09 1507.35 2283.3 Z" fill="#000000" fill-rule="evenodd" fill-opacity="1" /><path clip-path="url(#clip350)" d="M1525.78 2283.49 L1525.78 2293.61 L1537.84 2293.61 L1537.84 2298.16 L1525.78 2298.16 L1525.78 2317.51 Q1525.78 2321.88 1526.95 2323.12 Q1528.16 2324.36 1531.82 2324.36 L1537.84 2324.36 L1537.84 2329.26 L1531.82 2329.26 Q1525.04 2329.26 1522.47 2326.75 Q1519.89 2324.2 1519.89 2317.51 L1519.89 2298.16 L1515.59 2298.16 L1515.59 2293.61 L1519.89 2293.61 L1519.89 2283.49 L1525.78 2283.49 Z" fill="#000000" fill-rule="evenodd" fill-opacity="1" /><path clip-path="url(#clip350)" d="M1561.74 2311.34 Q1554.64 2311.34 1551.91 2312.96 Q1549.17 2314.59 1549.17 2318.5 Q1549.17 2321.62 1551.21 2323.47 Q1553.28 2325.28 1556.81 2325.28 Q1561.68 2325.28 1564.61 2321.84 Q1567.57 2318.37 1567.57 2312.65 L1567.57 2311.34 L1561.74 2311.34 M1573.42 2308.92 L1573.42 2329.26 L1567.57 2329.26 L1567.57 2323.85 Q1565.56 2327.1 1562.57 2328.65 Q1559.58 2330.18 1555.25 2330.18 Q1549.78 2330.18 1546.53 2327.13 Q1543.31 2324.04 1543.31 2318.88 Q1543.31 2312.87 1547.32 2309.81 Q1551.37 2306.76 1559.36 2306.76 L1567.57 2306.76 L1567.57 2306.18 Q1567.57 2302.14 1564.89 2299.95 Q1562.25 2297.72 1557.45 2297.72 Q1554.39 2297.72 1551.49 2298.45 Q1548.6 2299.18 1545.92 2300.65 L1545.92 2295.24 Q1549.14 2293.99 1552.16 2293.39 Q1555.19 2292.75 1558.05 2292.75 Q1565.78 2292.75 1569.6 2296.76 Q1573.42 2300.77 1573.42 2308.92 Z" fill="#000000" fill-rule="evenodd" fill-opacity="1" /><path clip-path="url(#clip350)" d="M1615.12 2307.74 L1615.12 2329.26 L1609.26 2329.26 L1609.26 2307.93 Q1609.26 2302.87 1607.29 2300.36 Q1605.32 2297.84 1601.37 2297.84 Q1596.63 2297.84 1593.89 2300.87 Q1591.15 2303.89 1591.15 2309.11 L1591.15 2329.26 L1585.26 2329.26 L1585.26 2293.61 L1591.15 2293.61 L1591.15 2299.15 Q1593.25 2295.94 1596.09 2294.34 Q1598.95 2292.75 1602.67 2292.75 Q1608.82 2292.75 1611.97 2296.57 Q1615.12 2300.36 1615.12 2307.74 Z" fill="#000000" fill-rule="evenodd" fill-opacity="1" /><path clip-path="url(#clip350)" d="M1650.26 2299.02 L1650.26 2279.73 L1656.11 2279.73 L1656.11 2329.26 L1650.26 2329.26 L1650.26 2323.91 Q1648.41 2327.1 1645.58 2328.65 Q1642.78 2330.18 1638.83 2330.18 Q1632.37 2330.18 1628.3 2325.03 Q1624.25 2319.87 1624.25 2311.47 Q1624.25 2303.06 1628.3 2297.91 Q1632.37 2292.75 1638.83 2292.75 Q1642.78 2292.75 1645.58 2294.31 Q1648.41 2295.84 1650.26 2299.02 M1630.3 2311.47 Q1630.3 2317.93 1632.94 2321.62 Q1635.62 2325.28 1640.26 2325.28 Q1644.91 2325.28 1647.58 2321.62 Q1650.26 2317.93 1650.26 2311.47 Q1650.26 2305.01 1647.58 2301.35 Q1644.91 2297.65 1640.26 2297.65 Q1635.62 2297.65 1632.94 2301.35 Q1630.3 2305.01 1630.3 2311.47 Z" fill="#000000" fill-rule="evenodd" fill-opacity="1" /><path clip-path="url(#clip350)" d="M1684.38 2311.34 Q1677.28 2311.34 1674.54 2312.96 Q1671.81 2314.59 1671.81 2318.5 Q1671.81 2321.62 1673.84 2323.47 Q1675.91 2325.28 1679.44 2325.28 Q1684.31 2325.28 1687.24 2321.84 Q1690.2 2318.37 1690.2 2312.65 L1690.2 2311.34 L1684.38 2311.34 M1696.06 2308.92 L1696.06 2329.26 L1690.2 2329.26 L1690.2 2323.85 Q1688.2 2327.1 1685.21 2328.65 Q1682.21 2330.18 1677.88 2330.18 Q1672.41 2330.18 1669.16 2327.13 Q1665.95 2324.04 1665.95 2318.88 Q1665.95 2312.87 1669.96 2309.81 Q1674 2306.76 1681.99 2306.76 L1690.2 2306.76 L1690.2 2306.18 Q1690.2 2302.14 1687.53 2299.95 Q1684.89 2297.72 1680.08 2297.72 Q1677.03 2297.72 1674.13 2298.45 Q1671.23 2299.18 1668.56 2300.65 L1668.56 2295.24 Q1671.77 2293.99 1674.8 2293.39 Q1677.82 2292.75 1680.69 2292.75 Q1688.42 2292.75 1692.24 2296.76 Q1696.06 2300.77 1696.06 2308.92 Z" fill="#000000" fill-rule="evenodd" fill-opacity="1" /><path clip-path="url(#clip350)" d="M1728.78 2299.09 Q1727.79 2298.51 1726.61 2298.26 Q1725.47 2297.97 1724.07 2297.97 Q1719.1 2297.97 1716.43 2301.22 Q1713.79 2304.43 1713.79 2310.48 L1713.79 2329.26 L1707.9 2329.26 L1707.9 2293.61 L1713.79 2293.61 L1713.79 2299.15 Q1715.63 2295.9 1718.59 2294.34 Q1721.55 2292.75 1725.79 2292.75 Q1726.39 2292.75 1727.12 2292.85 Q1727.86 2292.91 1728.75 2293.07 L1728.78 2299.09 Z" fill="#000000" fill-rule="evenodd" fill-opacity="1" /><path clip-path="url(#clip350)" d="M1757.23 2299.02 L1757.23 2279.73 L1763.09 2279.73 L1763.09 2329.26 L1757.23 2329.26 L1757.23 2323.91 Q1755.39 2327.1 1752.55 2328.65 Q1749.75 2330.18 1745.81 2330.18 Q1739.35 2330.18 1735.27 2325.03 Q1731.23 2319.87 1731.23 2311.47 Q1731.23 2303.06 1735.27 2297.91 Q1739.35 2292.75 1745.81 2292.75 Q1749.75 2292.75 1752.55 2294.31 Q1755.39 2295.84 1757.23 2299.02 M1737.28 2311.47 Q1737.28 2317.93 1739.92 2321.62 Q1742.59 2325.28 1747.24 2325.28 Q1751.89 2325.28 1754.56 2321.62 Q1757.23 2317.93 1757.23 2311.47 Q1757.23 2305.01 1754.56 2301.35 Q1751.89 2297.65 1747.24 2297.65 Q1742.59 2297.65 1739.92 2301.35 Q1737.28 2305.01 1737.28 2311.47 Z" fill="#000000" fill-rule="evenodd" fill-opacity="1" /><path clip-path="url(#clip350)" d="M1775.15 2293.61 L1781.01 2293.61 L1781.01 2329.26 L1775.15 2329.26 L1775.15 2293.61 M1775.15 2279.73 L1781.01 2279.73 L1781.01 2287.15 L1775.15 2287.15 L1775.15 2279.73 Z" fill="#000000" fill-rule="evenodd" fill-opacity="1" /><path clip-path="url(#clip350)" d="M1790.72 2293.61 L1818.54 2293.61 L1818.54 2298.96 L1796.51 2324.58 L1818.54 2324.58 L1818.54 2329.26 L1789.92 2329.26 L1789.92 2323.91 L1811.95 2298.29 L1790.72 2298.29 L1790.72 2293.61 Z" fill="#000000" fill-rule="evenodd" fill-opacity="1" /><path clip-path="url(#clip350)" d="M1857.97 2309.97 L1857.97 2312.84 L1831.04 2312.84 Q1831.43 2318.88 1834.67 2322.07 Q1837.95 2325.22 1843.78 2325.22 Q1847.15 2325.22 1850.3 2324.39 Q1853.48 2323.56 1856.6 2321.91 L1856.6 2327.45 Q1853.45 2328.78 1850.14 2329.48 Q1846.83 2330.18 1843.43 2330.18 Q1834.9 2330.18 1829.9 2325.22 Q1824.93 2320.25 1824.93 2311.79 Q1824.93 2303.03 1829.64 2297.91 Q1834.39 2292.75 1842.41 2292.75 Q1849.6 2292.75 1853.77 2297.4 Q1857.97 2302.01 1857.97 2309.97 M1852.11 2308.25 Q1852.05 2303.45 1849.41 2300.58 Q1846.8 2297.72 1842.47 2297.72 Q1837.57 2297.72 1834.61 2300.49 Q1831.68 2303.26 1831.23 2308.28 L1852.11 2308.25 Z" fill="#000000" fill-rule="evenodd" fill-opacity="1" /><path clip-path="url(#clip350)" d="M1891.04 2299.02 L1891.04 2279.73 L1896.9 2279.73 L1896.9 2329.26 L1891.04 2329.26 L1891.04 2323.91 Q1889.19 2327.1 1886.36 2328.65 Q1883.56 2330.18 1879.61 2330.18 Q1873.15 2330.18 1869.08 2325.03 Q1865.04 2319.87 1865.04 2311.47 Q1865.04 2303.06 1869.08 2297.91 Q1873.15 2292.75 1879.61 2292.75 Q1883.56 2292.75 1886.36 2294.31 Q1889.19 2295.84 1891.04 2299.02 M1871.08 2311.47 Q1871.08 2317.93 1873.73 2321.62 Q1876.4 2325.28 1881.05 2325.28 Q1885.69 2325.28 1888.37 2321.62 Q1891.04 2317.93 1891.04 2311.47 Q1891.04 2305.01 1888.37 2301.35 Q1885.69 2297.65 1881.05 2297.65 Q1876.4 2297.65 1873.73 2301.35 Q1871.08 2305.01 1871.08 2311.47 Z" fill="#000000" fill-rule="evenodd" fill-opacity="1" /><path clip-path="url(#clip350)" d="M1935.35 2323.91 L1935.35 2342.82 L1929.46 2342.82 L1929.46 2293.61 L1935.35 2293.61 L1935.35 2299.02 Q1937.19 2295.84 1939.99 2294.31 Q1942.83 2292.75 1946.74 2292.75 Q1953.23 2292.75 1957.28 2297.91 Q1961.35 2303.06 1961.35 2311.47 Q1961.35 2319.87 1957.28 2325.03 Q1953.23 2330.18 1946.74 2330.18 Q1942.83 2330.18 1939.99 2328.65 Q1937.19 2327.1 1935.35 2323.91 M1955.27 2311.47 Q1955.27 2305.01 1952.6 2301.35 Q1949.96 2297.65 1945.31 2297.65 Q1940.66 2297.65 1937.99 2301.35 Q1935.35 2305.01 1935.35 2311.47 Q1935.35 2317.93 1937.99 2321.62 Q1940.66 2325.28 1945.31 2325.28 Q1949.96 2325.28 1952.6 2321.62 Q1955.27 2317.93 1955.27 2311.47 Z" fill="#000000" fill-rule="evenodd" fill-opacity="1" /><path clip-path="url(#clip350)" d="M1991.71 2299.09 Q1990.73 2298.51 1989.55 2298.26 Q1988.4 2297.97 1987 2297.97 Q1982.04 2297.97 1979.36 2301.22 Q1976.72 2304.43 1976.72 2310.48 L1976.72 2329.26 L1970.83 2329.26 L1970.83 2293.61 L1976.72 2293.61 L1976.72 2299.15 Q1978.57 2295.9 1981.53 2294.34 Q1984.49 2292.75 1988.72 2292.75 Q1989.33 2292.75 1990.06 2292.85 Q1990.79 2292.91 1991.68 2293.07 L1991.71 2299.09 Z" fill="#000000" fill-rule="evenodd" fill-opacity="1" /><path clip-path="url(#clip350)" d="M1997.86 2293.61 L2003.71 2293.61 L2003.71 2329.26 L1997.86 2329.26 L1997.86 2293.61 M1997.86 2279.73 L2003.71 2279.73 L2003.71 2287.15 L1997.86 2287.15 L1997.86 2279.73 Z" fill="#000000" fill-rule="evenodd" fill-opacity="1" /><path clip-path="url(#clip350)" d="M2041.62 2294.98 L2041.62 2300.45 Q2039.14 2299.09 2036.62 2298.42 Q2034.14 2297.72 2031.6 2297.72 Q2025.9 2297.72 2022.75 2301.35 Q2019.6 2304.94 2019.6 2311.47 Q2019.6 2317.99 2022.75 2321.62 Q2025.9 2325.22 2031.6 2325.22 Q2034.14 2325.22 2036.62 2324.55 Q2039.14 2323.85 2041.62 2322.48 L2041.62 2327.89 Q2039.17 2329.04 2036.53 2329.61 Q2033.92 2330.18 2030.96 2330.18 Q2022.91 2330.18 2018.16 2325.12 Q2013.42 2320.06 2013.42 2311.47 Q2013.42 2302.75 2018.2 2297.75 Q2023 2292.75 2031.34 2292.75 Q2034.05 2292.75 2036.62 2293.33 Q2039.2 2293.87 2041.62 2294.98 Z" fill="#000000" fill-rule="evenodd" fill-opacity="1" /><path clip-path="url(#clip350)" d="M2082.3 2309.97 L2082.3 2312.84 L2055.37 2312.84 Q2055.75 2318.88 2059 2322.07 Q2062.28 2325.22 2068.1 2325.22 Q2071.48 2325.22 2074.63 2324.39 Q2077.81 2323.56 2080.93 2321.91 L2080.93 2327.45 Q2077.78 2328.78 2074.47 2329.48 Q2071.16 2330.18 2067.75 2330.18 Q2059.22 2330.18 2054.23 2325.22 Q2049.26 2320.25 2049.26 2311.79 Q2049.26 2303.03 2053.97 2297.91 Q2058.71 2292.75 2066.73 2292.75 Q2073.93 2292.75 2078.1 2297.4 Q2082.3 2302.01 2082.3 2309.97 M2076.44 2308.25 Q2076.38 2303.45 2073.74 2300.58 Q2071.13 2297.72 2066.8 2297.72 Q2061.9 2297.72 2058.94 2300.49 Q2056.01 2303.26 2055.56 2308.28 L2076.44 2308.25 Z" fill="#000000" fill-rule="evenodd" fill-opacity="1" /><path clip-path="url(#clip350)" d="M2126.44 2297.72 Q2121.73 2297.72 2119 2301.41 Q2116.26 2305.07 2116.26 2311.47 Q2116.26 2317.87 2118.96 2321.56 Q2121.7 2325.22 2126.44 2325.22 Q2131.12 2325.22 2133.86 2321.53 Q2136.6 2317.83 2136.6 2311.47 Q2136.6 2305.13 2133.86 2301.44 Q2131.12 2297.72 2126.44 2297.72 M2126.44 2292.75 Q2134.08 2292.75 2138.44 2297.72 Q2142.8 2302.68 2142.8 2311.47 Q2142.8 2320.22 2138.44 2325.22 Q2134.08 2330.18 2126.44 2330.18 Q2118.77 2330.18 2114.41 2325.22 Q2110.08 2320.22 2110.08 2311.47 Q2110.08 2302.68 2114.41 2297.72 Q2118.77 2292.75 2126.44 2292.75 Z" fill="#000000" fill-rule="evenodd" fill-opacity="1" /><path clip-path="url(#clip350)" d="M2170.56 2279.73 L2170.56 2284.6 L2164.96 2284.6 Q2161.81 2284.6 2160.56 2285.88 Q2159.36 2287.15 2159.36 2290.46 L2159.36 2293.61 L2169 2293.61 L2169 2298.16 L2159.36 2298.16 L2159.36 2329.26 L2153.47 2329.26 L2153.47 2298.16 L2147.87 2298.16 L2147.87 2293.61 L2153.47 2293.61 L2153.47 2291.13 Q2153.47 2285.18 2156.24 2282.47 Q2159.01 2279.73 2165.02 2279.73 L2170.56 2279.73 Z" fill="#000000" fill-rule="evenodd" fill-opacity="1" /><path clip-path="url(#clip350)" d="M2221.83 2294.98 L2221.83 2300.45 Q2219.35 2299.09 2216.84 2298.42 Q2214.35 2297.72 2211.81 2297.72 Q2206.11 2297.72 2202.96 2301.35 Q2199.81 2304.94 2199.81 2311.47 Q2199.81 2317.99 2202.96 2321.62 Q2206.11 2325.22 2211.81 2325.22 Q2214.35 2325.22 2216.84 2324.55 Q2219.35 2323.85 2221.83 2322.48 L2221.83 2327.89 Q2219.38 2329.04 2216.74 2329.61 Q2214.13 2330.18 2211.17 2330.18 Q2203.12 2330.18 2198.38 2325.12 Q2193.63 2320.06 2193.63 2311.47 Q2193.63 2302.75 2198.41 2297.75 Q2203.21 2292.75 2211.55 2292.75 Q2214.26 2292.75 2216.84 2293.33 Q2219.42 2293.87 2221.83 2294.98 Z" fill="#000000" fill-rule="evenodd" fill-opacity="1" /><path clip-path="url(#clip350)" d="M2245.83 2297.72 Q2241.12 2297.72 2238.39 2301.41 Q2235.65 2305.07 2235.65 2311.47 Q2235.65 2317.87 2238.35 2321.56 Q2241.09 2325.22 2245.83 2325.22 Q2250.51 2325.22 2253.25 2321.53 Q2255.99 2317.83 2255.99 2311.47 Q2255.99 2305.13 2253.25 2301.44 Q2250.51 2297.72 2245.83 2297.72 M2245.83 2292.75 Q2253.47 2292.75 2257.83 2297.72 Q2262.19 2302.68 2262.19 2311.47 Q2262.19 2320.22 2257.83 2325.22 Q2253.47 2330.18 2245.83 2330.18 Q2238.16 2330.18 2233.8 2325.22 Q2229.47 2320.22 2229.47 2311.47 Q2229.47 2302.68 2233.8 2297.72 Q2238.16 2292.75 2245.83 2292.75 Z" fill="#000000" fill-rule="evenodd" fill-opacity="1" /><path clip-path="url(#clip350)" d="M2301.53 2307.74 L2301.53 2329.26 L2295.68 2329.26 L2295.68 2307.93 Q2295.68 2302.87 2293.7 2300.36 Q2291.73 2297.84 2287.78 2297.84 Q2283.04 2297.84 2280.3 2300.87 Q2277.57 2303.89 2277.57 2309.11 L2277.57 2329.26 L2271.68 2329.26 L2271.68 2293.61 L2277.57 2293.61 L2277.57 2299.15 Q2279.67 2295.94 2282.5 2294.34 Q2285.36 2292.75 2289.09 2292.75 Q2295.23 2292.75 2298.38 2296.57 Q2301.53 2300.36 2301.53 2307.74 Z" fill="#000000" fill-rule="evenodd" fill-opacity="1" /><path clip-path="url(#clip350)" d="M2338.87 2294.98 L2338.87 2300.45 Q2336.39 2299.09 2333.87 2298.42 Q2331.39 2297.72 2328.84 2297.72 Q2323.14 2297.72 2319.99 2301.35 Q2316.84 2304.94 2316.84 2311.47 Q2316.84 2317.99 2319.99 2321.62 Q2323.14 2325.22 2328.84 2325.22 Q2331.39 2325.22 2333.87 2324.55 Q2336.39 2323.85 2338.87 2322.48 L2338.87 2327.89 Q2336.42 2329.04 2333.78 2329.61 Q2331.17 2330.18 2328.21 2330.18 Q2320.15 2330.18 2315.41 2325.12 Q2310.67 2320.06 2310.67 2311.47 Q2310.67 2302.75 2315.44 2297.75 Q2320.25 2292.75 2328.59 2292.75 Q2331.29 2292.75 2333.87 2293.33 Q2336.45 2293.87 2338.87 2294.98 Z" fill="#000000" fill-rule="evenodd" fill-opacity="1" /><path clip-path="url(#clip350)" d="M2369.71 2299.09 Q2368.72 2298.51 2367.55 2298.26 Q2366.4 2297.97 2365 2297.97 Q2360.03 2297.97 2357.36 2301.22 Q2354.72 2304.43 2354.72 2310.48 L2354.72 2329.26 L2348.83 2329.26 L2348.83 2293.61 L2354.72 2293.61 L2354.72 2299.15 Q2356.56 2295.9 2359.52 2294.34 Q2362.48 2292.75 2366.72 2292.75 Q2367.32 2292.75 2368.05 2292.85 Q2368.79 2292.91 2369.68 2293.07 L2369.71 2299.09 Z" fill="#000000" fill-rule="evenodd" fill-opacity="1" /><path clip-path="url(#clip350)" d="M2404.91 2309.97 L2404.91 2312.84 L2377.99 2312.84 Q2378.37 2318.88 2381.61 2322.07 Q2384.89 2325.22 2390.72 2325.22 Q2394.09 2325.22 2397.24 2324.39 Q2400.42 2323.56 2403.54 2321.91 L2403.54 2327.45 Q2400.39 2328.78 2397.08 2329.48 Q2393.77 2330.18 2390.37 2330.18 Q2381.84 2330.18 2376.84 2325.22 Q2371.87 2320.25 2371.87 2311.79 Q2371.87 2303.03 2376.58 2297.91 Q2381.33 2292.75 2389.35 2292.75 Q2396.54 2292.75 2400.71 2297.4 Q2404.91 2302.01 2404.91 2309.97 M2399.06 2308.25 Q2398.99 2303.45 2396.35 2300.58 Q2393.74 2297.72 2389.41 2297.72 Q2384.51 2297.72 2381.55 2300.49 Q2378.62 2303.26 2378.18 2308.28 L2399.06 2308.25 Z" fill="#000000" fill-rule="evenodd" fill-opacity="1" /><path clip-path="url(#clip350)" d="M2420.32 2283.49 L2420.32 2293.61 L2432.38 2293.61 L2432.38 2298.16 L2420.32 2298.16 L2420.32 2317.51 Q2420.32 2321.88 2421.49 2323.12 Q2422.7 2324.36 2426.36 2324.36 L2432.38 2324.36 L2432.38 2329.26 L2426.36 2329.26 Q2419.59 2329.26 2417.01 2326.75 Q2414.43 2324.2 2414.43 2317.51 L2414.43 2298.16 L2410.13 2298.16 L2410.13 2293.61 L2414.43 2293.61 L2414.43 2283.49 L2420.32 2283.49 Z" fill="#000000" fill-rule="evenodd" fill-opacity="1" /><path clip-path="url(#clip350)" d="M2440.08 2293.61 L2445.94 2293.61 L2445.94 2329.26 L2440.08 2329.26 L2440.08 2293.61 M2440.08 2279.73 L2445.94 2279.73 L2445.94 2287.15 L2440.08 2287.15 L2440.08 2279.73 Z" fill="#000000" fill-rule="evenodd" fill-opacity="1" /><path clip-path="url(#clip350)" d="M2487.83 2307.74 L2487.83 2329.26 L2481.97 2329.26 L2481.97 2307.93 Q2481.97 2302.87 2480 2300.36 Q2478.02 2297.84 2474.08 2297.84 Q2469.33 2297.84 2466.6 2300.87 Q2463.86 2303.89 2463.86 2309.11 L2463.86 2329.26 L2457.97 2329.26 L2457.97 2293.61 L2463.86 2293.61 L2463.86 2299.15 Q2465.96 2295.94 2468.79 2294.34 Q2471.66 2292.75 2475.38 2292.75 Q2481.52 2292.75 2484.67 2296.57 Q2487.83 2300.36 2487.83 2307.74 Z" fill="#000000" fill-rule="evenodd" fill-opacity="1" /><path clip-path="url(#clip350)" d="M2522.96 2311.02 Q2522.96 2304.66 2520.32 2301.16 Q2517.71 2297.65 2512.97 2297.65 Q2508.26 2297.65 2505.62 2301.16 Q2503.01 2304.66 2503.01 2311.02 Q2503.01 2317.36 2505.62 2320.86 Q2508.26 2324.36 2512.97 2324.36 Q2517.71 2324.36 2520.32 2320.86 Q2522.96 2317.36 2522.96 2311.02 M2528.82 2324.84 Q2528.82 2333.94 2524.78 2338.36 Q2520.74 2342.82 2512.4 2342.82 Q2509.31 2342.82 2506.57 2342.34 Q2503.84 2341.9 2501.26 2340.94 L2501.26 2335.24 Q2503.84 2336.64 2506.35 2337.31 Q2508.86 2337.98 2511.47 2337.98 Q2517.24 2337.98 2520.1 2334.96 Q2522.96 2331.97 2522.96 2325.89 L2522.96 2322.99 Q2521.15 2326.14 2518.32 2327.7 Q2515.48 2329.26 2511.54 2329.26 Q2504.98 2329.26 2500.97 2324.26 Q2496.96 2319.27 2496.96 2311.02 Q2496.96 2302.75 2500.97 2297.75 Q2504.98 2292.75 2511.54 2292.75 Q2515.48 2292.75 2518.32 2294.31 Q2521.15 2295.87 2522.96 2299.02 L2522.96 2293.61 L2528.82 2293.61 L2528.82 2324.84 Z" fill="#000000" fill-rule="evenodd" fill-opacity="1" /><path clip-path="url(#clip350)" d="M2584.33 2294.66 L2584.33 2300.2 Q2581.85 2298.93 2579.17 2298.29 Q2576.5 2297.65 2573.64 2297.65 Q2569.27 2297.65 2567.08 2298.99 Q2564.91 2300.33 2564.91 2303 Q2564.91 2305.04 2566.47 2306.22 Q2568.03 2307.36 2572.74 2308.41 L2574.75 2308.86 Q2580.99 2310.19 2583.6 2312.65 Q2586.24 2315.06 2586.24 2319.42 Q2586.24 2324.39 2582.29 2327.29 Q2578.38 2330.18 2571.5 2330.18 Q2568.64 2330.18 2565.52 2329.61 Q2562.43 2329.07 2558.99 2327.95 L2558.99 2321.91 Q2562.24 2323.59 2565.39 2324.45 Q2568.54 2325.28 2571.63 2325.28 Q2575.77 2325.28 2578 2323.88 Q2580.22 2322.45 2580.22 2319.87 Q2580.22 2317.48 2578.6 2316.21 Q2577.01 2314.94 2571.57 2313.76 L2569.53 2313.28 Q2564.09 2312.14 2561.67 2309.78 Q2559.25 2307.39 2559.25 2303.26 Q2559.25 2298.23 2562.81 2295.49 Q2566.38 2292.75 2572.94 2292.75 Q2576.18 2292.75 2579.05 2293.23 Q2581.91 2293.71 2584.33 2294.66 Z" fill="#000000" fill-rule="evenodd" fill-opacity="1" /><path clip-path="url(#clip350)" d="M2611.77 2311.34 Q2604.67 2311.34 2601.93 2312.96 Q2599.19 2314.59 2599.19 2318.5 Q2599.19 2321.62 2601.23 2323.47 Q2603.3 2325.28 2606.83 2325.28 Q2611.7 2325.28 2614.63 2321.84 Q2617.59 2318.37 2617.59 2312.65 L2617.59 2311.34 L2611.77 2311.34 M2623.45 2308.92 L2623.45 2329.26 L2617.59 2329.26 L2617.59 2323.85 Q2615.59 2327.1 2612.59 2328.65 Q2609.6 2330.18 2605.27 2330.18 Q2599.8 2330.18 2596.55 2327.13 Q2593.34 2324.04 2593.34 2318.88 Q2593.34 2312.87 2597.35 2309.81 Q2601.39 2306.76 2609.38 2306.76 L2617.59 2306.76 L2617.59 2306.18 Q2617.59 2302.14 2614.92 2299.95 Q2612.28 2297.72 2607.47 2297.72 Q2604.41 2297.72 2601.52 2298.45 Q2598.62 2299.18 2595.95 2300.65 L2595.95 2295.24 Q2599.16 2293.99 2602.19 2293.39 Q2605.21 2292.75 2608.07 2292.75 Q2615.81 2292.75 2619.63 2296.76 Q2623.45 2300.77 2623.45 2308.92 Z" fill="#000000" fill-rule="evenodd" fill-opacity="1" /><path clip-path="url(#clip350)" d="M2665.14 2307.74 L2665.14 2329.26 L2659.29 2329.26 L2659.29 2307.93 Q2659.29 2302.87 2657.31 2300.36 Q2655.34 2297.84 2651.39 2297.84 Q2646.65 2297.84 2643.91 2300.87 Q2641.18 2303.89 2641.18 2309.11 L2641.18 2329.26 L2635.29 2329.26 L2635.29 2293.61 L2641.18 2293.61 L2641.18 2299.15 Q2643.28 2295.94 2646.11 2294.34 Q2648.97 2292.75 2652.7 2292.75 Q2658.84 2292.75 2661.99 2296.57 Q2665.14 2300.36 2665.14 2307.74 Z" fill="#000000" fill-rule="evenodd" fill-opacity="1" /><path clip-path="url(#clip350)" d="M2700.28 2299.02 L2700.28 2279.73 L2706.14 2279.73 L2706.14 2329.26 L2700.28 2329.26 L2700.28 2323.91 Q2698.44 2327.1 2695.6 2328.65 Q2692.8 2330.18 2688.85 2330.18 Q2682.39 2330.18 2678.32 2325.03 Q2674.28 2319.87 2674.28 2311.47 Q2674.28 2303.06 2678.32 2297.91 Q2682.39 2292.75 2688.85 2292.75 Q2692.8 2292.75 2695.6 2294.31 Q2698.44 2295.84 2700.28 2299.02 M2680.32 2311.47 Q2680.32 2317.93 2682.97 2321.62 Q2685.64 2325.28 2690.29 2325.28 Q2694.93 2325.28 2697.61 2321.62 Q2700.28 2317.93 2700.28 2311.47 Q2700.28 2305.01 2697.61 2301.35 Q2694.93 2297.65 2690.29 2297.65 Q2685.64 2297.65 2682.97 2301.35 Q2680.32 2305.01 2680.32 2311.47 Z" fill="#000000" fill-rule="evenodd" fill-opacity="1" /><polyline clip-path="url(#clip352)" style="stroke:#000000; stroke-linecap:round; stroke-linejoin:round; stroke-width:2; stroke-opacity:0.1; fill:none" points="
  293.134,1947.03 3889.76,1947.03 
  "/>
<polyline clip-path="url(#clip352)" style="stroke:#000000; stroke-linecap:round; stroke-linejoin:round; stroke-width:2; stroke-opacity:0.1; fill:none" points="
  293.134,1440.08 3889.76,1440.08 
  "/>
<polyline clip-path="url(#clip352)" style="stroke:#000000; stroke-linecap:round; stroke-linejoin:round; stroke-width:2; stroke-opacity:0.1; fill:none" points="
  293.134,933.126 3889.76,933.126 
  "/>
<polyline clip-path="url(#clip352)" style="stroke:#000000; stroke-linecap:round; stroke-linejoin:round; stroke-width:2; stroke-opacity:0.1; fill:none" points="
  293.134,426.173 3889.76,426.173 
  "/>
<polyline clip-path="url(#clip350)" style="stroke:#000000; stroke-linecap:round; stroke-linejoin:round; stroke-width:4; stroke-opacity:1; fill:none" points="
  293.134,2160.4 293.134,110.236 
  "/>
<polyline clip-path="url(#clip350)" style="stroke:#000000; stroke-linecap:round; stroke-linejoin:round; stroke-width:4; stroke-opacity:1; fill:none" points="
  293.134,1947.03 312.032,1947.03 
  "/>
<polyline clip-path="url(#clip350)" style="stroke:#000000; stroke-linecap:round; stroke-linejoin:round; stroke-width:4; stroke-opacity:1; fill:none" points="
  293.134,1440.08 312.032,1440.08 
  "/>
<polyline clip-path="url(#clip350)" style="stroke:#000000; stroke-linecap:round; stroke-linejoin:round; stroke-width:4; stroke-opacity:1; fill:none" points="
  293.134,933.126 312.032,933.126 
  "/>
<polyline clip-path="url(#clip350)" style="stroke:#000000; stroke-linecap:round; stroke-linejoin:round; stroke-width:4; stroke-opacity:1; fill:none" points="
  293.134,426.173 312.032,426.173 
  "/>
<path clip-path="url(#clip350)" d="M170.172 1960.38 L186.491 1960.38 L186.491 1964.31 L164.547 1964.31 L164.547 1960.38 Q167.209 1957.62 171.792 1952.99 Q176.398 1948.34 177.579 1947 Q179.824 1944.47 180.704 1942.74 Q181.607 1940.98 181.607 1939.29 Q181.607 1936.53 179.662 1934.8 Q177.741 1933.06 174.639 1933.06 Q172.44 1933.06 169.986 1933.83 Q167.556 1934.59 164.778 1936.14 L164.778 1931.42 Q167.602 1930.28 170.056 1929.71 Q172.509 1929.13 174.547 1929.13 Q179.917 1929.13 183.111 1931.81 Q186.306 1934.5 186.306 1938.99 Q186.306 1941.12 185.496 1943.04 Q184.709 1944.94 182.602 1947.53 Q182.023 1948.2 178.922 1951.42 Q175.82 1954.61 170.172 1960.38 Z" fill="#000000" fill-rule="evenodd" fill-opacity="1" /><path clip-path="url(#clip350)" d="M196.306 1958.43 L201.19 1958.43 L201.19 1964.31 L196.306 1964.31 L196.306 1958.43 Z" fill="#000000" fill-rule="evenodd" fill-opacity="1" /><path clip-path="url(#clip350)" d="M211.514 1963.59 L211.514 1959.33 Q213.273 1960.17 215.079 1960.61 Q216.884 1961.05 218.62 1961.05 Q223.25 1961.05 225.681 1957.95 Q228.134 1954.82 228.481 1948.48 Q227.139 1950.47 225.079 1951.53 Q223.018 1952.6 220.519 1952.6 Q215.333 1952.6 212.301 1949.47 Q209.292 1946.33 209.292 1940.89 Q209.292 1935.56 212.44 1932.34 Q215.588 1929.13 220.819 1929.13 Q226.815 1929.13 229.963 1933.73 Q233.134 1938.32 233.134 1947.07 Q233.134 1955.24 229.245 1960.12 Q225.38 1964.98 218.829 1964.98 Q217.069 1964.98 215.264 1964.64 Q213.458 1964.29 211.514 1963.59 M220.819 1948.94 Q223.968 1948.94 225.796 1946.79 Q227.648 1944.64 227.648 1940.89 Q227.648 1937.16 225.796 1935.01 Q223.968 1932.83 220.819 1932.83 Q217.671 1932.83 215.819 1935.01 Q213.991 1937.16 213.991 1940.89 Q213.991 1944.64 215.819 1946.79 Q217.671 1948.94 220.819 1948.94 Z" fill="#000000" fill-rule="evenodd" fill-opacity="1" /><path clip-path="url(#clip350)" d="M180.125 1438.72 Q183.482 1439.44 185.357 1441.71 Q187.255 1443.98 187.255 1447.31 Q187.255 1452.43 183.736 1455.23 Q180.218 1458.03 173.736 1458.03 Q171.56 1458.03 169.246 1457.59 Q166.954 1457.17 164.5 1456.32 L164.5 1451.8 Q166.445 1452.94 168.76 1453.52 Q171.074 1454.09 173.597 1454.09 Q177.996 1454.09 180.287 1452.36 Q182.602 1450.62 182.602 1447.31 Q182.602 1444.26 180.449 1442.54 Q178.32 1440.81 174.5 1440.81 L170.472 1440.81 L170.472 1436.97 L174.685 1436.97 Q178.134 1436.97 179.963 1435.6 Q181.792 1434.21 181.792 1431.62 Q181.792 1428.96 179.894 1427.54 Q178.019 1426.11 174.5 1426.11 Q172.579 1426.11 170.38 1426.53 Q168.181 1426.94 165.542 1427.82 L165.542 1423.66 Q168.204 1422.91 170.519 1422.54 Q172.857 1422.17 174.917 1422.17 Q180.241 1422.17 183.343 1424.6 Q186.445 1427.01 186.445 1431.13 Q186.445 1434 184.801 1435.99 Q183.158 1437.96 180.125 1438.72 Z" fill="#000000" fill-rule="evenodd" fill-opacity="1" /><path clip-path="url(#clip350)" d="M196.12 1451.48 L201.005 1451.48 L201.005 1457.36 L196.12 1457.36 L196.12 1451.48 Z" fill="#000000" fill-rule="evenodd" fill-opacity="1" /><path clip-path="url(#clip350)" d="M221.19 1425.88 Q217.579 1425.88 215.75 1429.44 Q213.944 1432.98 213.944 1440.11 Q213.944 1447.22 215.75 1450.78 Q217.579 1454.33 221.19 1454.33 Q224.824 1454.33 226.63 1450.78 Q228.458 1447.22 228.458 1440.11 Q228.458 1432.98 226.63 1429.44 Q224.824 1425.88 221.19 1425.88 M221.19 1422.17 Q227 1422.17 230.055 1426.78 Q233.134 1431.36 233.134 1440.11 Q233.134 1448.84 230.055 1453.45 Q227 1458.03 221.19 1458.03 Q215.38 1458.03 212.301 1453.45 Q209.245 1448.84 209.245 1440.11 Q209.245 1431.36 212.301 1426.78 Q215.38 1422.17 221.19 1422.17 Z" fill="#000000" fill-rule="evenodd" fill-opacity="1" /><path clip-path="url(#clip350)" d="M181.352 931.772 Q184.709 932.489 186.583 934.758 Q188.482 937.026 188.482 940.36 Q188.482 945.475 184.963 948.276 Q181.445 951.077 174.963 951.077 Q172.787 951.077 170.472 950.637 Q168.181 950.221 165.727 949.364 L165.727 944.85 Q167.672 945.985 169.986 946.563 Q172.301 947.142 174.824 947.142 Q179.222 947.142 181.514 945.406 Q183.829 943.67 183.829 940.36 Q183.829 937.304 181.676 935.591 Q179.546 933.855 175.727 933.855 L171.699 933.855 L171.699 930.013 L175.912 930.013 Q179.361 930.013 181.19 928.647 Q183.019 927.258 183.019 924.665 Q183.019 922.003 181.121 920.591 Q179.246 919.156 175.727 919.156 Q173.806 919.156 171.607 919.573 Q169.408 919.99 166.769 920.869 L166.769 916.702 Q169.431 915.962 171.746 915.591 Q174.084 915.221 176.144 915.221 Q181.468 915.221 184.57 917.652 Q187.671 920.059 187.671 924.179 Q187.671 927.05 186.028 929.04 Q184.384 931.008 181.352 931.772 Z" fill="#000000" fill-rule="evenodd" fill-opacity="1" /><path clip-path="url(#clip350)" d="M197.347 944.526 L202.232 944.526 L202.232 950.406 L197.347 950.406 L197.347 944.526 Z" fill="#000000" fill-rule="evenodd" fill-opacity="1" /><path clip-path="url(#clip350)" d="M213.227 946.471 L220.866 946.471 L220.866 920.105 L212.556 921.772 L212.556 917.513 L220.819 915.846 L225.495 915.846 L225.495 946.471 L233.134 946.471 L233.134 950.406 L213.227 950.406 L213.227 946.471 Z" fill="#000000" fill-rule="evenodd" fill-opacity="1" /><path clip-path="url(#clip350)" d="M181.722 424.819 Q185.079 425.537 186.954 427.805 Q188.852 430.074 188.852 433.407 Q188.852 438.523 185.334 441.324 Q181.815 444.125 175.334 444.125 Q173.158 444.125 170.843 443.685 Q168.551 443.268 166.097 442.412 L166.097 437.898 Q168.042 439.032 170.357 439.611 Q172.672 440.189 175.195 440.189 Q179.593 440.189 181.884 438.453 Q184.199 436.717 184.199 433.407 Q184.199 430.352 182.046 428.639 Q179.917 426.902 176.097 426.902 L172.07 426.902 L172.07 423.06 L176.283 423.06 Q179.732 423.06 181.56 421.694 Q183.389 420.305 183.389 417.713 Q183.389 415.051 181.491 413.639 Q179.616 412.203 176.097 412.203 Q174.176 412.203 171.977 412.62 Q169.778 413.037 167.139 413.916 L167.139 409.75 Q169.801 409.009 172.116 408.639 Q174.454 408.268 176.514 408.268 Q181.838 408.268 184.94 410.699 Q188.042 413.106 188.042 417.227 Q188.042 420.097 186.398 422.088 Q184.755 424.055 181.722 424.819 Z" fill="#000000" fill-rule="evenodd" fill-opacity="1" /><path clip-path="url(#clip350)" d="M197.718 437.574 L202.602 437.574 L202.602 443.453 L197.718 443.453 L197.718 437.574 Z" fill="#000000" fill-rule="evenodd" fill-opacity="1" /><path clip-path="url(#clip350)" d="M216.815 439.518 L233.134 439.518 L233.134 443.453 L211.19 443.453 L211.19 439.518 Q213.852 436.764 218.435 432.134 Q223.042 427.481 224.222 426.139 Q226.468 423.615 227.347 421.879 Q228.25 420.12 228.25 418.43 Q228.25 415.676 226.306 413.94 Q224.384 412.203 221.282 412.203 Q219.083 412.203 216.63 412.967 Q214.199 413.731 211.421 415.282 L211.421 410.56 Q214.245 409.426 216.699 408.847 Q219.153 408.268 221.19 408.268 Q226.56 408.268 229.755 410.953 Q232.949 413.639 232.949 418.129 Q232.949 420.259 232.139 422.18 Q231.352 424.078 229.245 426.671 Q228.667 427.342 225.565 430.56 Q222.463 433.754 216.815 439.518 Z" fill="#000000" fill-rule="evenodd" fill-opacity="1" /><path clip-path="url(#clip350)" d="M67.9643 1586.28 Q68.6645 1584.21 70.9562 1582.27 Q73.2478 1580.29 77.2582 1578.32 L90.2443 1571.8 L90.2443 1578.7 L78.054 1584.78 Q73.2797 1587.14 71.7201 1589.37 Q70.1605 1591.56 70.1605 1595.38 L70.1605 1602.38 L90.2443 1602.38 L90.2443 1608.81 L42.7243 1608.81 L42.7243 1594.3 Q42.7243 1586.15 46.1299 1582.14 Q49.5356 1578.13 56.4106 1578.13 Q60.8984 1578.13 63.8584 1580.23 Q66.8185 1582.3 67.9643 1586.28 M48.0078 1602.38 L64.8769 1602.38 L64.8769 1594.3 Q64.8769 1589.65 62.7444 1587.3 Q60.5801 1584.91 56.4106 1584.91 Q52.241 1584.91 50.1403 1587.3 Q48.0078 1589.65 48.0078 1594.3 L48.0078 1602.38 Z" fill="#000000" fill-rule="evenodd" fill-opacity="1" /><path clip-path="url(#clip350)" d="M70.9562 1536.21 L73.8208 1536.21 L73.8208 1563.14 Q79.8682 1562.76 83.051 1559.51 Q86.2021 1556.23 86.2021 1550.41 Q86.2021 1547.03 85.3745 1543.88 Q84.547 1540.7 82.8919 1537.58 L88.4301 1537.58 Q89.7669 1540.73 90.4671 1544.04 Q91.1673 1547.35 91.1673 1550.76 Q91.1673 1559.29 86.2021 1564.29 Q81.2368 1569.25 72.7704 1569.25 Q64.0176 1569.25 58.8932 1564.54 Q53.737 1559.8 53.737 1551.78 Q53.737 1544.58 58.3839 1540.41 Q62.9991 1536.21 70.9562 1536.21 M69.2375 1542.07 Q64.4313 1542.13 61.5668 1544.77 Q58.7022 1547.38 58.7022 1551.71 Q58.7022 1556.61 61.4713 1559.57 Q64.2404 1562.5 69.2693 1562.95 L69.2375 1542.07 Z" fill="#000000" fill-rule="evenodd" fill-opacity="1" /><path clip-path="url(#clip350)" d="M55.6467 1503.87 L61.1848 1503.87 Q59.9117 1506.36 59.2751 1509.03 Q58.6386 1511.7 58.6386 1514.57 Q58.6386 1518.93 59.9753 1521.13 Q61.3121 1523.29 63.9857 1523.29 Q66.0228 1523.29 67.2004 1521.73 Q68.3463 1520.17 69.3966 1515.46 L69.8422 1513.45 Q71.179 1507.22 73.6298 1504.61 Q76.0488 1501.96 80.4093 1501.96 Q85.3745 1501.96 88.2709 1505.91 Q91.1673 1509.83 91.1673 1516.7 Q91.1673 1519.57 90.5944 1522.69 Q90.0533 1525.77 88.9393 1529.21 L82.8919 1529.21 Q84.5788 1525.96 85.4382 1522.81 Q86.2657 1519.66 86.2657 1516.57 Q86.2657 1512.44 84.8653 1510.21 Q83.433 1507.98 80.8549 1507.98 Q78.4677 1507.98 77.1946 1509.6 Q75.9214 1511.2 74.7438 1516.64 L74.2664 1518.67 Q73.1205 1524.12 70.7652 1526.54 Q68.3781 1528.96 64.2404 1528.96 Q59.2115 1528.96 56.4742 1525.39 Q53.737 1521.83 53.737 1515.27 Q53.737 1512.02 54.2144 1509.16 Q54.6918 1506.29 55.6467 1503.87 Z" fill="#000000" fill-rule="evenodd" fill-opacity="1" /><path clip-path="url(#clip350)" d="M54.5963 1492.64 L54.5963 1486.78 L90.2443 1486.78 L90.2443 1492.64 L54.5963 1492.64 M40.7191 1492.64 L40.7191 1486.78 L48.1351 1486.78 L48.1351 1492.64 L40.7191 1492.64 Z" fill="#000000" fill-rule="evenodd" fill-opacity="1" /><path clip-path="url(#clip350)" d="M60.0072 1451.07 L40.7191 1451.07 L40.7191 1445.21 L90.2443 1445.21 L90.2443 1451.07 L84.8971 1451.07 Q88.0799 1452.92 89.6395 1455.75 Q91.1673 1458.55 91.1673 1462.5 Q91.1673 1468.96 86.0111 1473.03 Q80.8549 1477.07 72.4521 1477.07 Q64.0494 1477.07 58.8932 1473.03 Q53.737 1468.96 53.737 1462.5 Q53.737 1458.55 55.2966 1455.75 Q56.8243 1452.92 60.0072 1451.07 M72.4521 1471.03 Q78.9133 1471.03 82.6054 1468.39 Q86.2657 1465.71 86.2657 1461.07 Q86.2657 1456.42 82.6054 1453.74 Q78.9133 1451.07 72.4521 1451.07 Q65.9909 1451.07 62.3307 1453.74 Q58.6386 1456.42 58.6386 1461.07 Q58.6386 1465.71 62.3307 1468.39 Q65.9909 1471.03 72.4521 1471.03 Z" fill="#000000" fill-rule="evenodd" fill-opacity="1" /><path clip-path="url(#clip350)" d="M76.1761 1433.76 L54.5963 1433.76 L54.5963 1427.9 L75.9533 1427.9 Q81.014 1427.9 83.5603 1425.93 Q86.0747 1423.95 86.0747 1420.01 Q86.0747 1415.26 83.051 1412.53 Q80.0273 1409.76 74.8074 1409.76 L54.5963 1409.76 L54.5963 1403.9 L90.2443 1403.9 L90.2443 1409.76 L84.7698 1409.76 Q88.0163 1411.89 89.6077 1414.72 Q91.1673 1417.52 91.1673 1421.25 Q91.1673 1427.39 87.3479 1430.57 Q83.5285 1433.76 76.1761 1433.76 M53.737 1419.02 L53.737 1419.02 Z" fill="#000000" fill-rule="evenodd" fill-opacity="1" /><path clip-path="url(#clip350)" d="M72.3248 1375.64 Q72.3248 1382.74 73.9481 1385.47 Q75.5713 1388.21 79.4862 1388.21 Q82.6054 1388.21 84.4515 1386.17 Q86.2657 1384.1 86.2657 1380.57 Q86.2657 1375.7 82.8282 1372.77 Q79.3589 1369.81 73.6298 1369.81 L72.3248 1369.81 L72.3248 1375.64 M69.9059 1363.96 L90.2443 1363.96 L90.2443 1369.81 L84.8334 1369.81 Q88.0799 1371.82 89.6395 1374.81 Q91.1673 1377.8 91.1673 1382.13 Q91.1673 1387.6 88.1118 1390.85 Q85.0244 1394.07 79.8682 1394.07 Q73.8526 1394.07 70.797 1390.06 Q67.7415 1386.01 67.7415 1378.02 L67.7415 1369.81 L67.1686 1369.81 Q63.1264 1369.81 60.9302 1372.49 Q58.7022 1375.13 58.7022 1379.93 Q58.7022 1382.99 59.4343 1385.89 Q60.1663 1388.78 61.6304 1391.46 L56.2196 1391.46 Q54.9783 1388.24 54.3735 1385.22 Q53.737 1382.19 53.737 1379.33 Q53.737 1371.6 57.7474 1367.78 Q61.7577 1363.96 69.9059 1363.96 Z" fill="#000000" fill-rule="evenodd" fill-opacity="1" /><path clip-path="url(#clip350)" d="M40.7191 1351.89 L40.7191 1346.04 L90.2443 1346.04 L90.2443 1351.89 L40.7191 1351.89 Z" fill="#000000" fill-rule="evenodd" fill-opacity="1" /><path clip-path="url(#clip350)" d="M54.5963 1333.78 L54.5963 1327.93 L90.2443 1327.93 L90.2443 1333.78 L54.5963 1333.78 M40.7191 1333.78 L40.7191 1327.93 L48.1351 1327.93 L48.1351 1333.78 L40.7191 1333.78 Z" fill="#000000" fill-rule="evenodd" fill-opacity="1" /><path clip-path="url(#clip350)" d="M54.5963 1318.22 L54.5963 1290.4 L59.9435 1290.4 L85.5655 1312.43 L85.5655 1290.4 L90.2443 1290.4 L90.2443 1319.01 L84.8971 1319.01 L59.2751 1296.99 L59.2751 1318.22 L54.5963 1318.22 Z" fill="#000000" fill-rule="evenodd" fill-opacity="1" /><path clip-path="url(#clip350)" d="M70.9562 1250.96 L73.8208 1250.96 L73.8208 1277.89 Q79.8682 1277.51 83.051 1274.26 Q86.2021 1270.99 86.2021 1265.16 Q86.2021 1261.79 85.3745 1258.64 Q84.547 1255.45 82.8919 1252.33 L88.4301 1252.33 Q89.7669 1255.48 90.4671 1258.79 Q91.1673 1262.1 91.1673 1265.51 Q91.1673 1274.04 86.2021 1279.04 Q81.2368 1284 72.7704 1284 Q64.0176 1284 58.8932 1279.29 Q53.737 1274.55 53.737 1266.53 Q53.737 1259.34 58.3839 1255.17 Q62.9991 1250.96 70.9562 1250.96 M69.2375 1256.82 Q64.4313 1256.89 61.5668 1259.53 Q58.7022 1262.14 58.7022 1266.47 Q58.7022 1271.37 61.4713 1274.33 Q64.2404 1277.26 69.2693 1277.7 L69.2375 1256.82 Z" fill="#000000" fill-rule="evenodd" fill-opacity="1" /><path clip-path="url(#clip350)" d="M60.0072 1217.9 L40.7191 1217.9 L40.7191 1212.04 L90.2443 1212.04 L90.2443 1217.9 L84.8971 1217.9 Q88.0799 1219.74 89.6395 1222.57 Q91.1673 1225.37 91.1673 1229.32 Q91.1673 1235.78 86.0111 1239.86 Q80.8549 1243.9 72.4521 1243.9 Q64.0494 1243.9 58.8932 1239.86 Q53.737 1235.78 53.737 1229.32 Q53.737 1225.37 55.2966 1222.57 Q56.8243 1219.74 60.0072 1217.9 M72.4521 1237.85 Q78.9133 1237.85 82.6054 1235.21 Q86.2657 1232.54 86.2657 1227.89 Q86.2657 1223.24 82.6054 1220.57 Q78.9133 1217.9 72.4521 1217.9 Q65.9909 1217.9 62.3307 1220.57 Q58.6386 1223.24 58.6386 1227.89 Q58.6386 1232.54 62.3307 1235.21 Q65.9909 1237.85 72.4521 1237.85 Z" fill="#000000" fill-rule="evenodd" fill-opacity="1" /><path clip-path="url(#clip350)" d="M72.3248 1163.05 Q72.3248 1170.15 73.9481 1172.89 Q75.5713 1175.63 79.4862 1175.63 Q82.6054 1175.63 84.4515 1173.59 Q86.2657 1171.52 86.2657 1167.99 Q86.2657 1163.12 82.8282 1160.19 Q79.3589 1157.23 73.6298 1157.23 L72.3248 1157.23 L72.3248 1163.05 M69.9059 1151.37 L90.2443 1151.37 L90.2443 1157.23 L84.8334 1157.23 Q88.0799 1159.24 89.6395 1162.23 Q91.1673 1165.22 91.1673 1169.55 Q91.1673 1175.02 88.1118 1178.27 Q85.0244 1181.48 79.8682 1181.48 Q73.8526 1181.48 70.797 1177.47 Q67.7415 1173.43 67.7415 1165.44 L67.7415 1157.23 L67.1686 1157.23 Q63.1264 1157.23 60.9302 1159.9 Q58.7022 1162.55 58.7022 1167.35 Q58.7022 1170.41 59.4343 1173.3 Q60.1663 1176.2 61.6304 1178.87 L56.2196 1178.87 Q54.9783 1175.66 54.3735 1172.63 Q53.737 1169.61 53.737 1166.75 Q53.737 1159.01 57.7474 1155.19 Q61.7577 1151.37 69.9059 1151.37 Z" fill="#000000" fill-rule="evenodd" fill-opacity="1" /><path clip-path="url(#clip350)" d="M84.8971 1133.64 L103.803 1133.64 L103.803 1139.53 L54.5963 1139.53 L54.5963 1133.64 L60.0072 1133.64 Q56.8243 1131.8 55.2966 1129 Q53.737 1126.17 53.737 1122.25 Q53.737 1115.76 58.8932 1111.72 Q64.0494 1107.64 72.4521 1107.64 Q80.8549 1107.64 86.0111 1111.72 Q91.1673 1115.76 91.1673 1122.25 Q91.1673 1126.17 89.6395 1129 Q88.0799 1131.8 84.8971 1133.64 M72.4521 1113.72 Q65.9909 1113.72 62.3307 1116.39 Q58.6386 1119.04 58.6386 1123.68 Q58.6386 1128.33 62.3307 1131 Q65.9909 1133.64 72.4521 1133.64 Q78.9133 1133.64 82.6054 1131 Q86.2657 1128.33 86.2657 1123.68 Q86.2657 1119.04 82.6054 1116.39 Q78.9133 1113.72 72.4521 1113.72 Z" fill="#000000" fill-rule="evenodd" fill-opacity="1" /><path clip-path="url(#clip350)" d="M72.3248 1081.73 Q72.3248 1088.83 73.9481 1091.57 Q75.5713 1094.3 79.4862 1094.3 Q82.6054 1094.3 84.4515 1092.27 Q86.2657 1090.2 86.2657 1086.67 Q86.2657 1081.8 82.8282 1078.87 Q79.3589 1075.91 73.6298 1075.91 L72.3248 1075.91 L72.3248 1081.73 M69.9059 1070.05 L90.2443 1070.05 L90.2443 1075.91 L84.8334 1075.91 Q88.0799 1077.91 89.6395 1080.91 Q91.1673 1083.9 91.1673 1088.23 Q91.1673 1093.7 88.1118 1096.95 Q85.0244 1100.16 79.8682 1100.16 Q73.8526 1100.16 70.797 1096.15 Q67.7415 1092.11 67.7415 1084.12 L67.7415 1075.91 L67.1686 1075.91 Q63.1264 1075.91 60.9302 1078.58 Q58.7022 1081.22 58.7022 1086.03 Q58.7022 1089.09 59.4343 1091.98 Q60.1663 1094.88 61.6304 1097.55 L56.2196 1097.55 Q54.9783 1094.34 54.3735 1091.31 Q53.737 1088.29 53.737 1085.42 Q53.737 1077.69 57.7474 1073.87 Q61.7577 1070.05 69.9059 1070.05 Z" fill="#000000" fill-rule="evenodd" fill-opacity="1" /><path clip-path="url(#clip350)" d="M60.0708 1037.33 Q59.4979 1038.32 59.2433 1039.5 Q58.9568 1040.64 58.9568 1042.04 Q58.9568 1047.01 62.2033 1049.68 Q65.418 1052.32 71.4654 1052.32 L90.2443 1052.32 L90.2443 1058.21 L54.5963 1058.21 L54.5963 1052.32 L60.1345 1052.32 Q56.888 1050.48 55.3284 1047.52 Q53.737 1044.56 53.737 1040.32 Q53.737 1039.72 53.8324 1038.99 Q53.8961 1038.25 54.0552 1037.36 L60.0708 1037.33 Z" fill="#000000" fill-rule="evenodd" fill-opacity="1" /><path clip-path="url(#clip350)" d="M44.4749 1025.4 L54.5963 1025.4 L54.5963 1013.33 L59.1478 1013.33 L59.1478 1025.4 L78.4996 1025.4 Q82.8601 1025.4 84.1014 1024.22 Q85.3427 1023.01 85.3427 1019.35 L85.3427 1013.33 L90.2443 1013.33 L90.2443 1019.35 Q90.2443 1026.13 87.7298 1028.71 Q85.1835 1031.28 78.4996 1031.28 L59.1478 1031.28 L59.1478 1035.58 L54.5963 1035.58 L54.5963 1031.28 L44.4749 1031.28 L44.4749 1025.4 Z" fill="#000000" fill-rule="evenodd" fill-opacity="1" /><path clip-path="url(#clip350)" d="M61.4395 977.876 Q57.4927 975.68 55.6148 972.624 Q53.737 969.569 53.737 965.431 Q53.737 959.861 57.6519 956.837 Q61.5349 953.814 68.7282 953.814 L90.2443 953.814 L90.2443 959.702 L68.9192 959.702 Q63.7948 959.702 61.3121 961.516 Q58.8295 963.33 58.8295 967.054 Q58.8295 971.606 61.8532 974.248 Q64.8769 976.889 70.0968 976.889 L90.2443 976.889 L90.2443 982.778 L68.9192 982.778 Q63.7629 982.778 61.3121 984.592 Q58.8295 986.406 58.8295 990.194 Q58.8295 994.682 61.8851 997.323 Q64.9088 999.965 70.0968 999.965 L90.2443 999.965 L90.2443 1005.85 L54.5963 1005.85 L54.5963 999.965 L60.1345 999.965 Q56.8562 997.96 55.2966 995.159 Q53.737 992.358 53.737 988.507 Q53.737 984.624 55.7103 981.918 Q57.6837 979.181 61.4395 977.876 Z" fill="#000000" fill-rule="evenodd" fill-opacity="1" /><path clip-path="url(#clip350)" d="M70.9562 911.641 L73.8208 911.641 L73.8208 938.568 Q79.8682 938.186 83.051 934.939 Q86.2021 931.661 86.2021 925.836 Q86.2021 922.463 85.3745 919.312 Q84.547 916.129 82.8919 913.01 L88.4301 913.01 Q89.7669 916.161 90.4671 919.471 Q91.1673 922.781 91.1673 926.187 Q91.1673 934.717 86.2021 939.714 Q81.2368 944.679 72.7704 944.679 Q64.0176 944.679 58.8932 939.968 Q53.737 935.226 53.737 927.205 Q53.737 920.012 58.3839 915.842 Q62.9991 911.641 70.9562 911.641 M69.2375 917.497 Q64.4313 917.561 61.5668 920.203 Q58.7022 922.813 58.7022 927.141 Q58.7022 932.043 61.4713 935.003 Q64.2404 937.931 69.2693 938.377 L69.2375 917.497 Z" fill="#000000" fill-rule="evenodd" fill-opacity="1" /><path clip-path="url(#clip350)" d="M68.7282 872.396 L90.2443 872.396 L90.2443 878.253 L68.9192 878.253 Q63.8584 878.253 61.344 880.226 Q58.8295 882.2 58.8295 886.146 Q58.8295 890.889 61.8532 893.626 Q64.8769 896.363 70.0968 896.363 L90.2443 896.363 L90.2443 902.252 L54.5963 902.252 L54.5963 896.363 L60.1345 896.363 Q56.9198 894.263 55.3284 891.43 Q53.737 888.565 53.737 884.841 Q53.737 878.698 57.5564 875.547 Q61.344 872.396 68.7282 872.396 Z" fill="#000000" fill-rule="evenodd" fill-opacity="1" /><path clip-path="url(#clip350)" d="M44.4749 854.923 L54.5963 854.923 L54.5963 842.859 L59.1478 842.859 L59.1478 854.923 L78.4996 854.923 Q82.8601 854.923 84.1014 853.745 Q85.3427 852.535 85.3427 848.875 L85.3427 842.859 L90.2443 842.859 L90.2443 848.875 Q90.2443 855.655 87.7298 858.233 Q85.1835 860.811 78.4996 860.811 L59.1478 860.811 L59.1478 865.108 L54.5963 865.108 L54.5963 860.811 L44.4749 860.811 L44.4749 854.923 Z" fill="#000000" fill-rule="evenodd" fill-opacity="1" /><path clip-path="url(#clip350)" d="M84.8971 808.771 L103.803 808.771 L103.803 814.659 L54.5963 814.659 L54.5963 808.771 L60.0072 808.771 Q56.8243 806.925 55.2966 804.124 Q53.737 801.291 53.737 797.377 Q53.737 790.883 58.8932 786.841 Q64.0494 782.767 72.4521 782.767 Q80.8549 782.767 86.0111 786.841 Q91.1673 790.883 91.1673 797.377 Q91.1673 801.291 89.6395 804.124 Q88.0799 806.925 84.8971 808.771 M72.4521 788.846 Q65.9909 788.846 62.3307 791.52 Q58.6386 794.162 58.6386 798.809 Q58.6386 803.456 62.3307 806.129 Q65.9909 808.771 72.4521 808.771 Q78.9133 808.771 82.6054 806.129 Q86.2657 803.456 86.2657 798.809 Q86.2657 794.162 82.6054 791.52 Q78.9133 788.846 72.4521 788.846 Z" fill="#000000" fill-rule="evenodd" fill-opacity="1" /><path clip-path="url(#clip350)" d="M60.0708 752.403 Q59.4979 753.389 59.2433 754.567 Q58.9568 755.713 58.9568 757.113 Q58.9568 762.079 62.2033 764.752 Q65.418 767.394 71.4654 767.394 L90.2443 767.394 L90.2443 773.282 L54.5963 773.282 L54.5963 767.394 L60.1345 767.394 Q56.888 765.548 55.3284 762.588 Q53.737 759.628 53.737 755.395 Q53.737 754.79 53.8324 754.058 Q53.8961 753.326 54.0552 752.435 L60.0708 752.403 Z" fill="#000000" fill-rule="evenodd" fill-opacity="1" /><path clip-path="url(#clip350)" d="M54.5963 746.26 L54.5963 740.403 L90.2443 740.403 L90.2443 746.26 L54.5963 746.26 M40.7191 746.26 L40.7191 740.403 L48.1351 740.403 L48.1351 746.26 L40.7191 746.26 Z" fill="#000000" fill-rule="evenodd" fill-opacity="1" /><path clip-path="url(#clip350)" d="M55.965 702.496 L61.4395 702.496 Q60.0708 704.978 59.4024 707.493 Q58.7022 709.975 58.7022 712.522 Q58.7022 718.219 62.3307 721.37 Q65.9273 724.521 72.4521 724.521 Q78.977 724.521 82.6054 721.37 Q86.2021 718.219 86.2021 712.522 Q86.2021 709.975 85.5337 707.493 Q84.8334 704.978 83.4648 702.496 L88.8757 702.496 Q90.0215 704.946 90.5944 707.588 Q91.1673 710.198 91.1673 713.158 Q91.1673 721.211 86.1066 725.953 Q81.0458 730.696 72.4521 730.696 Q63.7311 730.696 58.734 725.921 Q53.737 721.115 53.737 712.776 Q53.737 710.071 54.3099 707.493 Q54.851 704.915 55.965 702.496 Z" fill="#000000" fill-rule="evenodd" fill-opacity="1" /><path clip-path="url(#clip350)" d="M70.9562 661.819 L73.8208 661.819 L73.8208 688.746 Q79.8682 688.364 83.051 685.117 Q86.2021 681.839 86.2021 676.014 Q86.2021 672.64 85.3745 669.489 Q84.547 666.307 82.8919 663.187 L88.4301 663.187 Q89.7669 666.338 90.4671 669.649 Q91.1673 672.959 91.1673 676.364 Q91.1673 684.894 86.2021 689.892 Q81.2368 694.857 72.7704 694.857 Q64.0176 694.857 58.8932 690.146 Q53.737 685.404 53.737 677.383 Q53.737 670.19 58.3839 666.02 Q62.9991 661.819 70.9562 661.819 M69.2375 667.675 Q64.4313 667.739 61.5668 670.381 Q58.7022 672.991 58.7022 677.319 Q58.7022 682.221 61.4713 685.181 Q64.2404 688.109 69.2693 688.555 L69.2375 667.675 Z" fill="#000000" fill-rule="evenodd" fill-opacity="1" /><circle clip-path="url(#clip352)" cx="394.926" cy="1289.8" r="14.4" fill="#009af9" fill-rule="evenodd" fill-opacity="1" stroke="#000000" stroke-opacity="1" stroke-width="4.8"/>
<circle clip-path="url(#clip352)" cx="1116.98" cy="2102.37" r="14.4" fill="#009af9" fill-rule="evenodd" fill-opacity="1" stroke="#000000" stroke-opacity="1" stroke-width="4.8"/>
<circle clip-path="url(#clip352)" cx="1349.11" cy="1674.64" r="14.4" fill="#009af9" fill-rule="evenodd" fill-opacity="1" stroke="#000000" stroke-opacity="1" stroke-width="4.8"/>
<circle clip-path="url(#clip352)" cx="1611.85" cy="1915.35" r="14.4" fill="#009af9" fill-rule="evenodd" fill-opacity="1" stroke="#000000" stroke-opacity="1" stroke-width="4.8"/>
<circle clip-path="url(#clip352)" cx="1780.59" cy="921.029" r="14.4" fill="#009af9" fill-rule="evenodd" fill-opacity="1" stroke="#000000" stroke-opacity="1" stroke-width="4.8"/>
<circle clip-path="url(#clip352)" cx="1894.51" cy="574.266" r="14.4" fill="#009af9" fill-rule="evenodd" fill-opacity="1" stroke="#000000" stroke-opacity="1" stroke-width="4.8"/>
<circle clip-path="url(#clip352)" cx="1966.22" cy="1270.03" r="14.4" fill="#009af9" fill-rule="evenodd" fill-opacity="1" stroke="#000000" stroke-opacity="1" stroke-width="4.8"/>
<circle clip-path="url(#clip352)" cx="2018.89" cy="1239.21" r="14.4" fill="#009af9" fill-rule="evenodd" fill-opacity="1" stroke="#000000" stroke-opacity="1" stroke-width="4.8"/>
<circle clip-path="url(#clip352)" cx="2063.75" cy="524.542" r="14.4" fill="#009af9" fill-rule="evenodd" fill-opacity="1" stroke="#000000" stroke-opacity="1" stroke-width="4.8"/>
<circle clip-path="url(#clip352)" cx="2098.78" cy="2059.31" r="14.4" fill="#009af9" fill-rule="evenodd" fill-opacity="1" stroke="#000000" stroke-opacity="1" stroke-width="4.8"/>
<circle clip-path="url(#clip352)" cx="2158.44" cy="661.422" r="14.4" fill="#009af9" fill-rule="evenodd" fill-opacity="1" stroke="#000000" stroke-opacity="1" stroke-width="4.8"/>
<circle clip-path="url(#clip352)" cx="2234.24" cy="178.006" r="14.4" fill="#009af9" fill-rule="evenodd" fill-opacity="1" stroke="#000000" stroke-opacity="1" stroke-width="4.8"/>
<circle clip-path="url(#clip352)" cx="2287.29" cy="941.883" r="14.4" fill="#009af9" fill-rule="evenodd" fill-opacity="1" stroke="#000000" stroke-opacity="1" stroke-width="4.8"/>
<circle clip-path="url(#clip352)" cx="2345.64" cy="1061.09" r="14.4" fill="#009af9" fill-rule="evenodd" fill-opacity="1" stroke="#000000" stroke-opacity="1" stroke-width="4.8"/>
<circle clip-path="url(#clip352)" cx="2441.17" cy="616.749" r="14.4" fill="#009af9" fill-rule="evenodd" fill-opacity="1" stroke="#000000" stroke-opacity="1" stroke-width="4.8"/>
<circle clip-path="url(#clip352)" cx="2598.66" cy="168.26" r="14.4" fill="#009af9" fill-rule="evenodd" fill-opacity="1" stroke="#000000" stroke-opacity="1" stroke-width="4.8"/>
<circle clip-path="url(#clip352)" cx="2741.17" cy="552.399" r="14.4" fill="#009af9" fill-rule="evenodd" fill-opacity="1" stroke="#000000" stroke-opacity="1" stroke-width="4.8"/>
<circle clip-path="url(#clip352)" cx="2888.89" cy="985.504" r="14.4" fill="#009af9" fill-rule="evenodd" fill-opacity="1" stroke="#000000" stroke-opacity="1" stroke-width="4.8"/>
<circle clip-path="url(#clip352)" cx="3277.08" cy="275.405" r="14.4" fill="#009af9" fill-rule="evenodd" fill-opacity="1" stroke="#000000" stroke-opacity="1" stroke-width="4.8"/>
<circle clip-path="url(#clip352)" cx="3787.97" cy="538.398" r="14.4" fill="#009af9" fill-rule="evenodd" fill-opacity="1" stroke="#000000" stroke-opacity="1" stroke-width="4.8"/>
<polyline clip-path="url(#clip352)" style="stroke:#009af9; stroke-linecap:round; stroke-linejoin:round; stroke-width:4; stroke-opacity:1; fill:none" points="
  394.926,1817.44 3787.97,196.163 
  "/>
</svg>
