<?xml version="1.0" encoding="utf-8"?>
<svg xmlns="http://www.w3.org/2000/svg" xmlns:xlink="http://www.w3.org/1999/xlink" width="1000" height="600" viewBox="0 0 4000 2400">
<defs>
  <clipPath id="clip080">
    <rect x="0" y="0" width="4000" height="2400"/>
  </clipPath>
</defs>
<path clip-path="url(#clip080)" d="
M0 2400 L4000 2400 L4000 0 L0 0  Z
  " fill="#ffffff" fill-rule="evenodd" fill-opacity="1"/>
<defs>
  <clipPath id="clip081">
    <rect x="800" y="0" width="2801" height="2400"/>
  </clipPath>
</defs>
<path clip-path="url(#clip080)" d="
M321.699 2160.4 L3889.76 2160.4 L3889.76 110.236 L321.699 110.236  Z
  " fill="#ffffff" fill-rule="evenodd" fill-opacity="1"/>
<defs>
  <clipPath id="clip082">
    <rect x="321" y="110" width="3569" height="2051"/>
  </clipPath>
</defs>
<polyline clip-path="url(#clip082)" style="stroke:#000000; stroke-linecap:butt; stroke-linejoin:round; stroke-width:2; stroke-opacity:0.1; fill:none" points="
  422.682,2160.4 422.682,110.236 
  "/>
<polyline clip-path="url(#clip082)" style="stroke:#000000; stroke-linecap:butt; stroke-linejoin:round; stroke-width:2; stroke-opacity:0.1; fill:none" points="
  759.292,2160.4 759.292,110.236 
  "/>
<polyline clip-path="url(#clip082)" style="stroke:#000000; stroke-linecap:butt; stroke-linejoin:round; stroke-width:2; stroke-opacity:0.1; fill:none" points="
  1095.9,2160.4 1095.9,110.236 
  "/>
<polyline clip-path="url(#clip082)" style="stroke:#000000; stroke-linecap:butt; stroke-linejoin:round; stroke-width:2; stroke-opacity:0.1; fill:none" points="
  1432.51,2160.4 1432.51,110.236 
  "/>
<polyline clip-path="url(#clip082)" style="stroke:#000000; stroke-linecap:butt; stroke-linejoin:round; stroke-width:2; stroke-opacity:0.1; fill:none" points="
  1769.12,2160.4 1769.12,110.236 
  "/>
<polyline clip-path="url(#clip082)" style="stroke:#000000; stroke-linecap:butt; stroke-linejoin:round; stroke-width:2; stroke-opacity:0.1; fill:none" points="
  2105.73,2160.4 2105.73,110.236 
  "/>
<polyline clip-path="url(#clip082)" style="stroke:#000000; stroke-linecap:butt; stroke-linejoin:round; stroke-width:2; stroke-opacity:0.1; fill:none" points="
  2442.34,2160.4 2442.34,110.236 
  "/>
<polyline clip-path="url(#clip082)" style="stroke:#000000; stroke-linecap:butt; stroke-linejoin:round; stroke-width:2; stroke-opacity:0.1; fill:none" points="
  2778.95,2160.4 2778.95,110.236 
  "/>
<polyline clip-path="url(#clip082)" style="stroke:#000000; stroke-linecap:butt; stroke-linejoin:round; stroke-width:2; stroke-opacity:0.1; fill:none" points="
  3115.56,2160.4 3115.56,110.236 
  "/>
<polyline clip-path="url(#clip082)" style="stroke:#000000; stroke-linecap:butt; stroke-linejoin:round; stroke-width:2; stroke-opacity:0.1; fill:none" points="
  3452.17,2160.4 3452.17,110.236 
  "/>
<polyline clip-path="url(#clip082)" style="stroke:#000000; stroke-linecap:butt; stroke-linejoin:round; stroke-width:2; stroke-opacity:0.1; fill:none" points="
  3788.78,2160.4 3788.78,110.236 
  "/>
<polyline clip-path="url(#clip080)" style="stroke:#000000; stroke-linecap:butt; stroke-linejoin:round; stroke-width:4; stroke-opacity:1; fill:none" points="
  321.699,2160.4 3889.76,2160.4 
  "/>
<polyline clip-path="url(#clip080)" style="stroke:#000000; stroke-linecap:butt; stroke-linejoin:round; stroke-width:4; stroke-opacity:1; fill:none" points="
  422.682,2160.4 422.682,2141.5 
  "/>
<polyline clip-path="url(#clip080)" style="stroke:#000000; stroke-linecap:butt; stroke-linejoin:round; stroke-width:4; stroke-opacity:1; fill:none" points="
  759.292,2160.4 759.292,2141.5 
  "/>
<polyline clip-path="url(#clip080)" style="stroke:#000000; stroke-linecap:butt; stroke-linejoin:round; stroke-width:4; stroke-opacity:1; fill:none" points="
  1095.9,2160.4 1095.9,2141.5 
  "/>
<polyline clip-path="url(#clip080)" style="stroke:#000000; stroke-linecap:butt; stroke-linejoin:round; stroke-width:4; stroke-opacity:1; fill:none" points="
  1432.51,2160.4 1432.51,2141.5 
  "/>
<polyline clip-path="url(#clip080)" style="stroke:#000000; stroke-linecap:butt; stroke-linejoin:round; stroke-width:4; stroke-opacity:1; fill:none" points="
  1769.12,2160.4 1769.12,2141.5 
  "/>
<polyline clip-path="url(#clip080)" style="stroke:#000000; stroke-linecap:butt; stroke-linejoin:round; stroke-width:4; stroke-opacity:1; fill:none" points="
  2105.73,2160.4 2105.73,2141.5 
  "/>
<polyline clip-path="url(#clip080)" style="stroke:#000000; stroke-linecap:butt; stroke-linejoin:round; stroke-width:4; stroke-opacity:1; fill:none" points="
  2442.34,2160.4 2442.34,2141.5 
  "/>
<polyline clip-path="url(#clip080)" style="stroke:#000000; stroke-linecap:butt; stroke-linejoin:round; stroke-width:4; stroke-opacity:1; fill:none" points="
  2778.95,2160.4 2778.95,2141.5 
  "/>
<polyline clip-path="url(#clip080)" style="stroke:#000000; stroke-linecap:butt; stroke-linejoin:round; stroke-width:4; stroke-opacity:1; fill:none" points="
  3115.56,2160.4 3115.56,2141.5 
  "/>
<polyline clip-path="url(#clip080)" style="stroke:#000000; stroke-linecap:butt; stroke-linejoin:round; stroke-width:4; stroke-opacity:1; fill:none" points="
  3452.17,2160.4 3452.17,2141.5 
  "/>
<polyline clip-path="url(#clip080)" style="stroke:#000000; stroke-linecap:butt; stroke-linejoin:round; stroke-width:4; stroke-opacity:1; fill:none" points="
  3788.78,2160.4 3788.78,2141.5 
  "/>
<path clip-path="url(#clip080)" d="M371.293 2229.93 L387.613 2229.93 L387.613 2233.87 L365.668 2233.87 L365.668 2229.93 Q368.33 2227.18 372.914 2222.55 Q377.52 2217.9 378.701 2216.55 Q380.946 2214.03 381.826 2212.29 Q382.728 2210.53 382.728 2208.84 Q382.728 2206.09 380.784 2204.35 Q378.863 2202.62 375.761 2202.62 Q373.562 2202.62 371.108 2203.38 Q368.677 2204.15 365.9 2205.7 L365.9 2200.97 Q368.724 2199.84 371.177 2199.26 Q373.631 2198.68 375.668 2198.68 Q381.039 2198.68 384.233 2201.37 Q387.427 2204.05 387.427 2208.54 Q387.427 2210.67 386.617 2212.59 Q385.83 2214.49 383.724 2217.09 Q383.145 2217.76 380.043 2220.97 Q376.941 2224.17 371.293 2229.93 Z" fill="#000000" fill-rule="evenodd" fill-opacity="1" /><path clip-path="url(#clip080)" d="M407.427 2202.39 Q403.816 2202.39 401.987 2205.95 Q400.182 2209.49 400.182 2216.62 Q400.182 2223.73 401.987 2227.29 Q403.816 2230.84 407.427 2230.84 Q411.061 2230.84 412.867 2227.29 Q414.696 2223.73 414.696 2216.62 Q414.696 2209.49 412.867 2205.95 Q411.061 2202.39 407.427 2202.39 M407.427 2198.68 Q413.237 2198.68 416.293 2203.29 Q419.372 2207.87 419.372 2216.62 Q419.372 2225.35 416.293 2229.96 Q413.237 2234.54 407.427 2234.54 Q401.617 2234.54 398.538 2229.96 Q395.483 2225.35 395.483 2216.62 Q395.483 2207.87 398.538 2203.29 Q401.617 2198.68 407.427 2198.68 Z" fill="#000000" fill-rule="evenodd" fill-opacity="1" /><path clip-path="url(#clip080)" d="M428.399 2229.93 L436.038 2229.93 L436.038 2203.57 L427.728 2205.23 L427.728 2200.97 L435.992 2199.31 L440.668 2199.31 L440.668 2229.93 L448.307 2229.93 L448.307 2233.87 L428.399 2233.87 L428.399 2229.93 Z" fill="#000000" fill-rule="evenodd" fill-opacity="1" /><path clip-path="url(#clip080)" d="M467.751 2202.39 Q464.14 2202.39 462.311 2205.95 Q460.506 2209.49 460.506 2216.62 Q460.506 2223.73 462.311 2227.29 Q464.14 2230.84 467.751 2230.84 Q471.385 2230.84 473.191 2227.29 Q475.019 2223.73 475.019 2216.62 Q475.019 2209.49 473.191 2205.95 Q471.385 2202.39 467.751 2202.39 M467.751 2198.68 Q473.561 2198.68 476.617 2203.29 Q479.695 2207.87 479.695 2216.62 Q479.695 2225.35 476.617 2229.96 Q473.561 2234.54 467.751 2234.54 Q461.941 2234.54 458.862 2229.96 Q455.807 2225.35 455.807 2216.62 Q455.807 2207.87 458.862 2203.29 Q461.941 2198.68 467.751 2198.68 Z" fill="#000000" fill-rule="evenodd" fill-opacity="1" /><path clip-path="url(#clip080)" d="M708.517 2229.93 L724.836 2229.93 L724.836 2233.87 L702.892 2233.87 L702.892 2229.93 Q705.554 2227.18 710.137 2222.55 Q714.743 2217.9 715.924 2216.55 Q718.169 2214.03 719.049 2212.29 Q719.952 2210.53 719.952 2208.84 Q719.952 2206.09 718.007 2204.35 Q716.086 2202.62 712.984 2202.62 Q710.785 2202.62 708.331 2203.38 Q705.901 2204.15 703.123 2205.7 L703.123 2200.97 Q705.947 2199.84 708.401 2199.26 Q710.854 2198.68 712.891 2198.68 Q718.262 2198.68 721.456 2201.37 Q724.651 2204.05 724.651 2208.54 Q724.651 2210.67 723.841 2212.59 Q723.053 2214.49 720.947 2217.09 Q720.368 2217.76 717.266 2220.97 Q714.165 2224.17 708.517 2229.93 Z" fill="#000000" fill-rule="evenodd" fill-opacity="1" /><path clip-path="url(#clip080)" d="M744.651 2202.39 Q741.039 2202.39 739.211 2205.95 Q737.405 2209.49 737.405 2216.62 Q737.405 2223.73 739.211 2227.29 Q741.039 2230.84 744.651 2230.84 Q748.285 2230.84 750.09 2227.29 Q751.919 2223.73 751.919 2216.62 Q751.919 2209.49 750.09 2205.95 Q748.285 2202.39 744.651 2202.39 M744.651 2198.68 Q750.461 2198.68 753.516 2203.29 Q756.595 2207.87 756.595 2216.62 Q756.595 2225.35 753.516 2229.96 Q750.461 2234.54 744.651 2234.54 Q738.84 2234.54 735.762 2229.96 Q732.706 2225.35 732.706 2216.62 Q732.706 2207.87 735.762 2203.29 Q738.84 2198.68 744.651 2198.68 Z" fill="#000000" fill-rule="evenodd" fill-opacity="1" /><path clip-path="url(#clip080)" d="M765.623 2229.93 L773.262 2229.93 L773.262 2203.57 L764.951 2205.23 L764.951 2200.97 L773.215 2199.31 L777.891 2199.31 L777.891 2229.93 L785.53 2229.93 L785.53 2233.87 L765.623 2233.87 L765.623 2229.93 Z" fill="#000000" fill-rule="evenodd" fill-opacity="1" /><path clip-path="url(#clip080)" d="M795.785 2229.93 L803.423 2229.93 L803.423 2203.57 L795.113 2205.23 L795.113 2200.97 L803.377 2199.31 L808.053 2199.31 L808.053 2229.93 L815.692 2229.93 L815.692 2233.87 L795.785 2233.87 L795.785 2229.93 Z" fill="#000000" fill-rule="evenodd" fill-opacity="1" /><path clip-path="url(#clip080)" d="M1045.31 2229.93 L1061.63 2229.93 L1061.63 2233.87 L1039.69 2233.87 L1039.69 2229.93 Q1042.35 2227.18 1046.93 2222.55 Q1051.54 2217.9 1052.72 2216.55 Q1054.96 2214.03 1055.84 2212.29 Q1056.75 2210.53 1056.75 2208.84 Q1056.75 2206.09 1054.8 2204.35 Q1052.88 2202.62 1049.78 2202.62 Q1047.58 2202.62 1045.13 2203.38 Q1042.7 2204.15 1039.92 2205.7 L1039.92 2200.97 Q1042.74 2199.84 1045.2 2199.26 Q1047.65 2198.68 1049.69 2198.68 Q1055.06 2198.68 1058.25 2201.37 Q1061.45 2204.05 1061.45 2208.54 Q1061.45 2210.67 1060.64 2212.59 Q1059.85 2214.49 1057.74 2217.09 Q1057.16 2217.76 1054.06 2220.97 Q1050.96 2224.17 1045.31 2229.93 Z" fill="#000000" fill-rule="evenodd" fill-opacity="1" /><path clip-path="url(#clip080)" d="M1081.45 2202.39 Q1077.83 2202.39 1076.01 2205.95 Q1074.2 2209.49 1074.2 2216.62 Q1074.2 2223.73 1076.01 2227.29 Q1077.83 2230.84 1081.45 2230.84 Q1085.08 2230.84 1086.89 2227.29 Q1088.71 2223.73 1088.71 2216.62 Q1088.71 2209.49 1086.89 2205.95 Q1085.08 2202.39 1081.45 2202.39 M1081.45 2198.68 Q1087.26 2198.68 1090.31 2203.29 Q1093.39 2207.87 1093.39 2216.62 Q1093.39 2225.35 1090.31 2229.96 Q1087.26 2234.54 1081.45 2234.54 Q1075.64 2234.54 1072.56 2229.96 Q1069.5 2225.35 1069.5 2216.62 Q1069.5 2207.87 1072.56 2203.29 Q1075.64 2198.68 1081.45 2198.68 Z" fill="#000000" fill-rule="evenodd" fill-opacity="1" /><path clip-path="url(#clip080)" d="M1102.42 2229.93 L1110.06 2229.93 L1110.06 2203.57 L1101.75 2205.23 L1101.75 2200.97 L1110.01 2199.31 L1114.69 2199.31 L1114.69 2229.93 L1122.33 2229.93 L1122.33 2233.87 L1102.42 2233.87 L1102.42 2229.93 Z" fill="#000000" fill-rule="evenodd" fill-opacity="1" /><path clip-path="url(#clip080)" d="M1135.8 2229.93 L1152.12 2229.93 L1152.12 2233.87 L1130.17 2233.87 L1130.17 2229.93 Q1132.83 2227.18 1137.42 2222.55 Q1142.02 2217.9 1143.2 2216.55 Q1145.45 2214.03 1146.33 2212.29 Q1147.23 2210.53 1147.23 2208.84 Q1147.23 2206.09 1145.29 2204.35 Q1143.37 2202.62 1140.26 2202.62 Q1138.07 2202.62 1135.61 2203.38 Q1133.18 2204.15 1130.4 2205.7 L1130.4 2200.97 Q1133.23 2199.84 1135.68 2199.26 Q1138.14 2198.68 1140.17 2198.68 Q1145.54 2198.68 1148.74 2201.37 Q1151.93 2204.05 1151.93 2208.54 Q1151.93 2210.67 1151.12 2212.59 Q1150.33 2214.49 1148.23 2217.09 Q1147.65 2217.76 1144.55 2220.97 Q1141.45 2224.17 1135.8 2229.93 Z" fill="#000000" fill-rule="evenodd" fill-opacity="1" /><path clip-path="url(#clip080)" d="M1381.45 2229.93 L1397.77 2229.93 L1397.77 2233.87 L1375.82 2233.87 L1375.82 2229.93 Q1378.48 2227.18 1383.07 2222.55 Q1387.67 2217.9 1388.85 2216.55 Q1391.1 2214.03 1391.98 2212.29 Q1392.88 2210.53 1392.88 2208.84 Q1392.88 2206.09 1390.94 2204.35 Q1389.02 2202.62 1385.91 2202.62 Q1383.72 2202.62 1381.26 2203.38 Q1378.83 2204.15 1376.05 2205.7 L1376.05 2200.97 Q1378.88 2199.84 1381.33 2199.26 Q1383.78 2198.68 1385.82 2198.68 Q1391.19 2198.68 1394.39 2201.37 Q1397.58 2204.05 1397.58 2208.54 Q1397.58 2210.67 1396.77 2212.59 Q1395.98 2214.49 1393.88 2217.09 Q1393.3 2217.76 1390.2 2220.97 Q1387.1 2224.17 1381.45 2229.93 Z" fill="#000000" fill-rule="evenodd" fill-opacity="1" /><path clip-path="url(#clip080)" d="M1417.58 2202.39 Q1413.97 2202.39 1412.14 2205.95 Q1410.34 2209.49 1410.34 2216.62 Q1410.34 2223.73 1412.14 2227.29 Q1413.97 2230.84 1417.58 2230.84 Q1421.22 2230.84 1423.02 2227.29 Q1424.85 2223.73 1424.85 2216.62 Q1424.85 2209.49 1423.02 2205.95 Q1421.22 2202.39 1417.58 2202.39 M1417.58 2198.68 Q1423.39 2198.68 1426.45 2203.29 Q1429.53 2207.87 1429.53 2216.62 Q1429.53 2225.35 1426.45 2229.96 Q1423.39 2234.54 1417.58 2234.54 Q1411.77 2234.54 1408.69 2229.96 Q1405.64 2225.35 1405.64 2216.62 Q1405.64 2207.87 1408.69 2203.29 Q1411.77 2198.68 1417.58 2198.68 Z" fill="#000000" fill-rule="evenodd" fill-opacity="1" /><path clip-path="url(#clip080)" d="M1438.55 2229.93 L1446.19 2229.93 L1446.19 2203.57 L1437.88 2205.23 L1437.88 2200.97 L1446.15 2199.31 L1450.82 2199.31 L1450.82 2229.93 L1458.46 2229.93 L1458.46 2233.87 L1438.55 2233.87 L1438.55 2229.93 Z" fill="#000000" fill-rule="evenodd" fill-opacity="1" /><path clip-path="url(#clip080)" d="M1482.07 2215.23 Q1485.43 2215.95 1487.3 2218.22 Q1489.2 2220.49 1489.2 2223.82 Q1489.2 2228.94 1485.68 2231.74 Q1482.16 2234.54 1475.68 2234.54 Q1473.51 2234.54 1471.19 2234.1 Q1468.9 2233.68 1466.45 2232.83 L1466.45 2228.31 Q1468.39 2229.45 1470.71 2230.03 Q1473.02 2230.6 1475.54 2230.6 Q1479.94 2230.6 1482.23 2228.87 Q1484.55 2227.13 1484.55 2223.82 Q1484.55 2220.77 1482.4 2219.05 Q1480.27 2217.32 1476.45 2217.32 L1472.42 2217.32 L1472.42 2213.47 L1476.63 2213.47 Q1480.08 2213.47 1481.91 2212.11 Q1483.74 2210.72 1483.74 2208.13 Q1483.74 2205.47 1481.84 2204.05 Q1479.96 2202.62 1476.45 2202.62 Q1474.53 2202.62 1472.33 2203.03 Q1470.13 2203.45 1467.49 2204.33 L1467.49 2200.16 Q1470.15 2199.42 1472.46 2199.05 Q1474.8 2198.68 1476.86 2198.68 Q1482.19 2198.68 1485.29 2201.11 Q1488.39 2203.52 1488.39 2207.64 Q1488.39 2210.51 1486.75 2212.5 Q1485.1 2214.47 1482.07 2215.23 Z" fill="#000000" fill-rule="evenodd" fill-opacity="1" /><path clip-path="url(#clip080)" d="M1717.49 2229.93 L1733.81 2229.93 L1733.81 2233.87 L1711.86 2233.87 L1711.86 2229.93 Q1714.53 2227.18 1719.11 2222.55 Q1723.72 2217.9 1724.9 2216.55 Q1727.14 2214.03 1728.02 2212.29 Q1728.92 2210.53 1728.92 2208.84 Q1728.92 2206.09 1726.98 2204.35 Q1725.06 2202.62 1721.96 2202.62 Q1719.76 2202.62 1717.3 2203.38 Q1714.87 2204.15 1712.1 2205.7 L1712.1 2200.97 Q1714.92 2199.84 1717.37 2199.26 Q1719.83 2198.68 1721.86 2198.68 Q1727.24 2198.68 1730.43 2201.37 Q1733.62 2204.05 1733.62 2208.54 Q1733.62 2210.67 1732.81 2212.59 Q1732.03 2214.49 1729.92 2217.09 Q1729.34 2217.76 1726.24 2220.97 Q1723.14 2224.17 1717.49 2229.93 Z" fill="#000000" fill-rule="evenodd" fill-opacity="1" /><path clip-path="url(#clip080)" d="M1753.62 2202.39 Q1750.01 2202.39 1748.18 2205.95 Q1746.38 2209.49 1746.38 2216.62 Q1746.38 2223.73 1748.18 2227.29 Q1750.01 2230.84 1753.62 2230.84 Q1757.26 2230.84 1759.06 2227.29 Q1760.89 2223.73 1760.89 2216.62 Q1760.89 2209.49 1759.06 2205.95 Q1757.26 2202.39 1753.62 2202.39 M1753.62 2198.68 Q1759.43 2198.68 1762.49 2203.29 Q1765.57 2207.87 1765.57 2216.62 Q1765.57 2225.35 1762.49 2229.96 Q1759.43 2234.54 1753.62 2234.54 Q1747.81 2234.54 1744.73 2229.96 Q1741.68 2225.35 1741.68 2216.62 Q1741.68 2207.87 1744.73 2203.29 Q1747.81 2198.68 1753.62 2198.68 Z" fill="#000000" fill-rule="evenodd" fill-opacity="1" /><path clip-path="url(#clip080)" d="M1774.6 2229.93 L1782.23 2229.93 L1782.23 2203.57 L1773.92 2205.23 L1773.92 2200.97 L1782.19 2199.31 L1786.86 2199.31 L1786.86 2229.93 L1794.5 2229.93 L1794.5 2233.87 L1774.6 2233.87 L1774.6 2229.93 Z" fill="#000000" fill-rule="evenodd" fill-opacity="1" /><path clip-path="url(#clip080)" d="M1816.79 2203.38 L1804.99 2221.83 L1816.79 2221.83 L1816.79 2203.38 M1815.57 2199.31 L1821.45 2199.31 L1821.45 2221.83 L1826.38 2221.83 L1826.38 2225.72 L1821.45 2225.72 L1821.45 2233.87 L1816.79 2233.87 L1816.79 2225.72 L1801.19 2225.72 L1801.19 2221.21 L1815.57 2199.31 Z" fill="#000000" fill-rule="evenodd" fill-opacity="1" /><path clip-path="url(#clip080)" d="M2054.84 2229.93 L2071.16 2229.93 L2071.16 2233.87 L2049.22 2233.87 L2049.22 2229.93 Q2051.88 2227.18 2056.46 2222.55 Q2061.07 2217.9 2062.25 2216.55 Q2064.49 2214.03 2065.37 2212.29 Q2066.28 2210.53 2066.28 2208.84 Q2066.28 2206.09 2064.33 2204.35 Q2062.41 2202.62 2059.31 2202.62 Q2057.11 2202.62 2054.66 2203.38 Q2052.22 2204.15 2049.45 2205.7 L2049.45 2200.97 Q2052.27 2199.84 2054.72 2199.26 Q2057.18 2198.68 2059.22 2198.68 Q2064.59 2198.68 2067.78 2201.37 Q2070.97 2204.05 2070.97 2208.54 Q2070.97 2210.67 2070.16 2212.59 Q2069.38 2214.49 2067.27 2217.09 Q2066.69 2217.76 2063.59 2220.97 Q2060.49 2224.17 2054.84 2229.93 Z" fill="#000000" fill-rule="evenodd" fill-opacity="1" /><path clip-path="url(#clip080)" d="M2090.97 2202.39 Q2087.36 2202.39 2085.53 2205.95 Q2083.73 2209.49 2083.73 2216.62 Q2083.73 2223.73 2085.53 2227.29 Q2087.36 2230.84 2090.97 2230.84 Q2094.61 2230.84 2096.41 2227.29 Q2098.24 2223.73 2098.24 2216.62 Q2098.24 2209.49 2096.41 2205.95 Q2094.61 2202.39 2090.97 2202.39 M2090.97 2198.68 Q2096.78 2198.68 2099.84 2203.29 Q2102.92 2207.87 2102.92 2216.62 Q2102.92 2225.35 2099.84 2229.96 Q2096.78 2234.54 2090.97 2234.54 Q2085.16 2234.54 2082.09 2229.96 Q2079.03 2225.35 2079.03 2216.62 Q2079.03 2207.87 2082.09 2203.29 Q2085.16 2198.68 2090.97 2198.68 Z" fill="#000000" fill-rule="evenodd" fill-opacity="1" /><path clip-path="url(#clip080)" d="M2111.95 2229.93 L2119.59 2229.93 L2119.59 2203.57 L2111.28 2205.23 L2111.28 2200.97 L2119.54 2199.31 L2124.22 2199.31 L2124.22 2229.93 L2131.85 2229.93 L2131.85 2233.87 L2111.95 2233.87 L2111.95 2229.93 Z" fill="#000000" fill-rule="evenodd" fill-opacity="1" /><path clip-path="url(#clip080)" d="M2141.34 2199.31 L2159.7 2199.31 L2159.7 2203.24 L2145.63 2203.24 L2145.63 2211.72 Q2146.65 2211.37 2147.66 2211.21 Q2148.68 2211.02 2149.7 2211.02 Q2155.49 2211.02 2158.87 2214.19 Q2162.25 2217.36 2162.25 2222.78 Q2162.25 2228.36 2158.78 2231.46 Q2155.3 2234.54 2148.98 2234.54 Q2146.81 2234.54 2144.54 2234.17 Q2142.29 2233.8 2139.89 2233.06 L2139.89 2228.36 Q2141.97 2229.49 2144.19 2230.05 Q2146.41 2230.6 2148.89 2230.6 Q2152.9 2230.6 2155.23 2228.5 Q2157.57 2226.39 2157.57 2222.78 Q2157.57 2219.17 2155.23 2217.06 Q2152.9 2214.96 2148.89 2214.96 Q2147.02 2214.96 2145.14 2215.37 Q2143.29 2215.79 2141.34 2216.67 L2141.34 2199.31 Z" fill="#000000" fill-rule="evenodd" fill-opacity="1" /><path clip-path="url(#clip080)" d="M2390.87 2229.93 L2407.19 2229.93 L2407.19 2233.87 L2385.25 2233.87 L2385.25 2229.93 Q2387.91 2227.18 2392.49 2222.55 Q2397.1 2217.9 2398.28 2216.55 Q2400.52 2214.03 2401.4 2212.29 Q2402.31 2210.53 2402.31 2208.84 Q2402.31 2206.09 2400.36 2204.35 Q2398.44 2202.62 2395.34 2202.62 Q2393.14 2202.62 2390.69 2203.38 Q2388.26 2204.15 2385.48 2205.7 L2385.48 2200.97 Q2388.3 2199.84 2390.76 2199.26 Q2393.21 2198.68 2395.25 2198.68 Q2400.62 2198.68 2403.81 2201.37 Q2407.01 2204.05 2407.01 2208.54 Q2407.01 2210.67 2406.2 2212.59 Q2405.41 2214.49 2403.3 2217.09 Q2402.72 2217.76 2399.62 2220.97 Q2396.52 2224.17 2390.87 2229.93 Z" fill="#000000" fill-rule="evenodd" fill-opacity="1" /><path clip-path="url(#clip080)" d="M2427.01 2202.39 Q2423.39 2202.39 2421.57 2205.95 Q2419.76 2209.49 2419.76 2216.62 Q2419.76 2223.73 2421.57 2227.29 Q2423.39 2230.84 2427.01 2230.84 Q2430.64 2230.84 2432.45 2227.29 Q2434.27 2223.73 2434.27 2216.62 Q2434.27 2209.49 2432.45 2205.95 Q2430.64 2202.39 2427.01 2202.39 M2427.01 2198.68 Q2432.82 2198.68 2435.87 2203.29 Q2438.95 2207.87 2438.95 2216.62 Q2438.95 2225.35 2435.87 2229.96 Q2432.82 2234.54 2427.01 2234.54 Q2421.2 2234.54 2418.12 2229.96 Q2415.06 2225.35 2415.06 2216.62 Q2415.06 2207.87 2418.12 2203.29 Q2421.2 2198.68 2427.01 2198.68 Z" fill="#000000" fill-rule="evenodd" fill-opacity="1" /><path clip-path="url(#clip080)" d="M2447.98 2229.93 L2455.62 2229.93 L2455.62 2203.57 L2447.31 2205.23 L2447.31 2200.97 L2455.57 2199.31 L2460.25 2199.31 L2460.25 2229.93 L2467.89 2229.93 L2467.89 2233.87 L2447.98 2233.87 L2447.98 2229.93 Z" fill="#000000" fill-rule="evenodd" fill-opacity="1" /><path clip-path="url(#clip080)" d="M2487.91 2214.72 Q2484.76 2214.72 2482.91 2216.88 Q2481.08 2219.03 2481.08 2222.78 Q2481.08 2226.51 2482.91 2228.68 Q2484.76 2230.84 2487.91 2230.84 Q2491.06 2230.84 2492.88 2228.68 Q2494.74 2226.51 2494.74 2222.78 Q2494.74 2219.03 2492.88 2216.88 Q2491.06 2214.72 2487.91 2214.72 M2497.19 2200.07 L2497.19 2204.33 Q2495.43 2203.5 2493.63 2203.06 Q2491.84 2202.62 2490.08 2202.62 Q2485.45 2202.62 2483 2205.74 Q2480.57 2208.87 2480.22 2215.19 Q2481.59 2213.17 2483.65 2212.11 Q2485.71 2211.02 2488.19 2211.02 Q2493.39 2211.02 2496.4 2214.19 Q2499.44 2217.34 2499.44 2222.78 Q2499.44 2228.1 2496.29 2231.32 Q2493.14 2234.54 2487.91 2234.54 Q2481.91 2234.54 2478.74 2229.96 Q2475.57 2225.35 2475.57 2216.62 Q2475.57 2208.43 2479.46 2203.57 Q2483.35 2198.68 2489.9 2198.68 Q2491.66 2198.68 2493.44 2199.03 Q2495.25 2199.38 2497.19 2200.07 Z" fill="#000000" fill-rule="evenodd" fill-opacity="1" /><path clip-path="url(#clip080)" d="M2728.01 2229.93 L2744.33 2229.93 L2744.33 2233.87 L2722.39 2233.87 L2722.39 2229.93 Q2725.05 2227.18 2729.63 2222.55 Q2734.24 2217.9 2735.42 2216.55 Q2737.67 2214.03 2738.55 2212.29 Q2739.45 2210.53 2739.45 2208.84 Q2739.45 2206.09 2737.5 2204.35 Q2735.58 2202.62 2732.48 2202.62 Q2730.28 2202.62 2727.83 2203.38 Q2725.4 2204.15 2722.62 2205.7 L2722.62 2200.97 Q2725.44 2199.84 2727.9 2199.26 Q2730.35 2198.68 2732.39 2198.68 Q2737.76 2198.68 2740.95 2201.37 Q2744.15 2204.05 2744.15 2208.54 Q2744.15 2210.67 2743.34 2212.59 Q2742.55 2214.49 2740.44 2217.09 Q2739.87 2217.76 2736.76 2220.97 Q2733.66 2224.17 2728.01 2229.93 Z" fill="#000000" fill-rule="evenodd" fill-opacity="1" /><path clip-path="url(#clip080)" d="M2764.15 2202.39 Q2760.54 2202.39 2758.71 2205.95 Q2756.9 2209.49 2756.9 2216.62 Q2756.9 2223.73 2758.71 2227.29 Q2760.54 2230.84 2764.15 2230.84 Q2767.78 2230.84 2769.59 2227.29 Q2771.42 2223.73 2771.42 2216.62 Q2771.42 2209.49 2769.59 2205.95 Q2767.78 2202.39 2764.15 2202.39 M2764.15 2198.68 Q2769.96 2198.68 2773.01 2203.29 Q2776.09 2207.87 2776.09 2216.62 Q2776.09 2225.35 2773.01 2229.96 Q2769.96 2234.54 2764.15 2234.54 Q2758.34 2234.54 2755.26 2229.96 Q2752.2 2225.35 2752.2 2216.62 Q2752.2 2207.87 2755.26 2203.29 Q2758.34 2198.68 2764.15 2198.68 Z" fill="#000000" fill-rule="evenodd" fill-opacity="1" /><path clip-path="url(#clip080)" d="M2785.12 2229.93 L2792.76 2229.93 L2792.76 2203.57 L2784.45 2205.23 L2784.45 2200.97 L2792.71 2199.31 L2797.39 2199.31 L2797.39 2229.93 L2805.03 2229.93 L2805.03 2233.87 L2785.12 2233.87 L2785.12 2229.93 Z" fill="#000000" fill-rule="evenodd" fill-opacity="1" /><path clip-path="url(#clip080)" d="M2813.29 2199.31 L2835.51 2199.31 L2835.51 2201.3 L2822.97 2233.87 L2818.08 2233.87 L2829.89 2203.24 L2813.29 2203.24 L2813.29 2199.31 Z" fill="#000000" fill-rule="evenodd" fill-opacity="1" /><path clip-path="url(#clip080)" d="M3064.22 2229.93 L3080.54 2229.93 L3080.54 2233.87 L3058.59 2233.87 L3058.59 2229.93 Q3061.26 2227.18 3065.84 2222.55 Q3070.45 2217.9 3071.63 2216.55 Q3073.87 2214.03 3074.75 2212.29 Q3075.65 2210.53 3075.65 2208.84 Q3075.65 2206.09 3073.71 2204.35 Q3071.79 2202.62 3068.69 2202.62 Q3066.49 2202.62 3064.03 2203.38 Q3061.6 2204.15 3058.83 2205.7 L3058.83 2200.97 Q3061.65 2199.84 3064.1 2199.26 Q3066.56 2198.68 3068.59 2198.68 Q3073.96 2198.68 3077.16 2201.37 Q3080.35 2204.05 3080.35 2208.54 Q3080.35 2210.67 3079.54 2212.59 Q3078.76 2214.49 3076.65 2217.09 Q3076.07 2217.76 3072.97 2220.97 Q3069.87 2224.17 3064.22 2229.93 Z" fill="#000000" fill-rule="evenodd" fill-opacity="1" /><path clip-path="url(#clip080)" d="M3100.35 2202.39 Q3096.74 2202.39 3094.91 2205.95 Q3093.11 2209.49 3093.11 2216.62 Q3093.11 2223.73 3094.91 2227.29 Q3096.74 2230.84 3100.35 2230.84 Q3103.99 2230.84 3105.79 2227.29 Q3107.62 2223.73 3107.62 2216.62 Q3107.62 2209.49 3105.79 2205.95 Q3103.99 2202.39 3100.35 2202.39 M3100.35 2198.68 Q3106.16 2198.68 3109.22 2203.29 Q3112.3 2207.87 3112.3 2216.62 Q3112.3 2225.35 3109.22 2229.96 Q3106.16 2234.54 3100.35 2234.54 Q3094.54 2234.54 3091.46 2229.96 Q3088.41 2225.35 3088.41 2216.62 Q3088.41 2207.87 3091.46 2203.29 Q3094.54 2198.68 3100.35 2198.68 Z" fill="#000000" fill-rule="evenodd" fill-opacity="1" /><path clip-path="url(#clip080)" d="M3121.32 2229.93 L3128.96 2229.93 L3128.96 2203.57 L3120.65 2205.23 L3120.65 2200.97 L3128.92 2199.31 L3133.59 2199.31 L3133.59 2229.93 L3141.23 2229.93 L3141.23 2233.87 L3121.32 2233.87 L3121.32 2229.93 Z" fill="#000000" fill-rule="evenodd" fill-opacity="1" /><path clip-path="url(#clip080)" d="M3160.68 2217.46 Q3157.34 2217.46 3155.42 2219.24 Q3153.52 2221.02 3153.52 2224.15 Q3153.52 2227.27 3155.42 2229.05 Q3157.34 2230.84 3160.68 2230.84 Q3164.01 2230.84 3165.93 2229.05 Q3167.85 2227.25 3167.85 2224.15 Q3167.85 2221.02 3165.93 2219.24 Q3164.03 2217.46 3160.68 2217.46 M3156 2215.47 Q3152.99 2214.72 3151.3 2212.66 Q3149.63 2210.6 3149.63 2207.64 Q3149.63 2203.5 3152.57 2201.09 Q3155.54 2198.68 3160.68 2198.68 Q3165.84 2198.68 3168.78 2201.09 Q3171.72 2203.5 3171.72 2207.64 Q3171.72 2210.6 3170.03 2212.66 Q3168.36 2214.72 3165.38 2215.47 Q3168.76 2216.25 3170.63 2218.54 Q3172.53 2220.84 3172.53 2224.15 Q3172.53 2229.17 3169.45 2231.85 Q3166.39 2234.54 3160.68 2234.54 Q3154.96 2234.54 3151.88 2231.85 Q3148.82 2229.17 3148.82 2224.15 Q3148.82 2220.84 3150.72 2218.54 Q3152.62 2216.25 3156 2215.47 M3154.29 2208.08 Q3154.29 2210.77 3155.95 2212.27 Q3157.64 2213.78 3160.68 2213.78 Q3163.69 2213.78 3165.38 2212.27 Q3167.09 2210.77 3167.09 2208.08 Q3167.09 2205.4 3165.38 2203.89 Q3163.69 2202.39 3160.68 2202.39 Q3157.64 2202.39 3155.95 2203.89 Q3154.29 2205.4 3154.29 2208.08 Z" fill="#000000" fill-rule="evenodd" fill-opacity="1" /><path clip-path="url(#clip080)" d="M3400.87 2229.93 L3417.19 2229.93 L3417.19 2233.87 L3395.25 2233.87 L3395.25 2229.93 Q3397.91 2227.18 3402.5 2222.55 Q3407.1 2217.9 3408.28 2216.55 Q3410.53 2214.03 3411.41 2212.29 Q3412.31 2210.53 3412.31 2208.84 Q3412.31 2206.09 3410.37 2204.35 Q3408.44 2202.62 3405.34 2202.62 Q3403.14 2202.62 3400.69 2203.38 Q3398.26 2204.15 3395.48 2205.7 L3395.48 2200.97 Q3398.31 2199.84 3400.76 2199.26 Q3403.21 2198.68 3405.25 2198.68 Q3410.62 2198.68 3413.81 2201.37 Q3417.01 2204.05 3417.01 2208.54 Q3417.01 2210.67 3416.2 2212.59 Q3415.41 2214.49 3413.31 2217.09 Q3412.73 2217.76 3409.62 2220.97 Q3406.52 2224.17 3400.87 2229.93 Z" fill="#000000" fill-rule="evenodd" fill-opacity="1" /><path clip-path="url(#clip080)" d="M3437.01 2202.39 Q3433.4 2202.39 3431.57 2205.95 Q3429.76 2209.49 3429.76 2216.62 Q3429.76 2223.73 3431.57 2227.29 Q3433.4 2230.84 3437.01 2230.84 Q3440.64 2230.84 3442.45 2227.29 Q3444.28 2223.73 3444.28 2216.62 Q3444.28 2209.49 3442.45 2205.95 Q3440.64 2202.39 3437.01 2202.39 M3437.01 2198.68 Q3442.82 2198.68 3445.87 2203.29 Q3448.95 2207.87 3448.95 2216.62 Q3448.95 2225.35 3445.87 2229.96 Q3442.82 2234.54 3437.01 2234.54 Q3431.2 2234.54 3428.12 2229.96 Q3425.06 2225.35 3425.06 2216.62 Q3425.06 2207.87 3428.12 2203.29 Q3431.2 2198.68 3437.01 2198.68 Z" fill="#000000" fill-rule="evenodd" fill-opacity="1" /><path clip-path="url(#clip080)" d="M3457.98 2229.93 L3465.62 2229.93 L3465.62 2203.57 L3457.31 2205.23 L3457.31 2200.97 L3465.57 2199.31 L3470.25 2199.31 L3470.25 2229.93 L3477.89 2229.93 L3477.89 2233.87 L3457.98 2233.87 L3457.98 2229.93 Z" fill="#000000" fill-rule="evenodd" fill-opacity="1" /><path clip-path="url(#clip080)" d="M3487.47 2233.15 L3487.47 2228.89 Q3489.23 2229.72 3491.04 2230.16 Q3492.84 2230.6 3494.58 2230.6 Q3499.21 2230.6 3501.64 2227.5 Q3504.09 2224.38 3504.44 2218.03 Q3503.1 2220.03 3501.04 2221.09 Q3498.98 2222.15 3496.48 2222.15 Q3491.29 2222.15 3488.26 2219.03 Q3485.25 2215.88 3485.25 2210.44 Q3485.25 2205.12 3488.4 2201.9 Q3491.55 2198.68 3496.78 2198.68 Q3502.77 2198.68 3505.92 2203.29 Q3509.09 2207.87 3509.09 2216.62 Q3509.09 2224.79 3505.2 2229.68 Q3501.34 2234.54 3494.79 2234.54 Q3493.03 2234.54 3491.22 2234.19 Q3489.42 2233.84 3487.47 2233.15 M3496.78 2218.5 Q3499.93 2218.5 3501.75 2216.34 Q3503.61 2214.19 3503.61 2210.44 Q3503.61 2206.72 3501.75 2204.56 Q3499.93 2202.39 3496.78 2202.39 Q3493.63 2202.39 3491.78 2204.56 Q3489.95 2206.72 3489.95 2210.44 Q3489.95 2214.19 3491.78 2216.34 Q3493.63 2218.5 3496.78 2218.5 Z" fill="#000000" fill-rule="evenodd" fill-opacity="1" /><path clip-path="url(#clip080)" d="M3737.39 2229.93 L3753.71 2229.93 L3753.71 2233.87 L3731.77 2233.87 L3731.77 2229.93 Q3734.43 2227.18 3739.01 2222.55 Q3743.62 2217.9 3744.8 2216.55 Q3747.04 2214.03 3747.92 2212.29 Q3748.83 2210.53 3748.83 2208.84 Q3748.83 2206.09 3746.88 2204.35 Q3744.96 2202.62 3741.86 2202.62 Q3739.66 2202.62 3737.21 2203.38 Q3734.78 2204.15 3732 2205.7 L3732 2200.97 Q3734.82 2199.84 3737.28 2199.26 Q3739.73 2198.68 3741.77 2198.68 Q3747.14 2198.68 3750.33 2201.37 Q3753.53 2204.05 3753.53 2208.54 Q3753.53 2210.67 3752.72 2212.59 Q3751.93 2214.49 3749.82 2217.09 Q3749.24 2217.76 3746.14 2220.97 Q3743.04 2224.17 3737.39 2229.93 Z" fill="#000000" fill-rule="evenodd" fill-opacity="1" /><path clip-path="url(#clip080)" d="M3773.53 2202.39 Q3769.92 2202.39 3768.09 2205.95 Q3766.28 2209.49 3766.28 2216.62 Q3766.28 2223.73 3768.09 2227.29 Q3769.92 2230.84 3773.53 2230.84 Q3777.16 2230.84 3778.97 2227.29 Q3780.79 2223.73 3780.79 2216.62 Q3780.79 2209.49 3778.97 2205.95 Q3777.16 2202.39 3773.53 2202.39 M3773.53 2198.68 Q3779.34 2198.68 3782.39 2203.29 Q3785.47 2207.87 3785.47 2216.62 Q3785.47 2225.35 3782.39 2229.96 Q3779.34 2234.54 3773.53 2234.54 Q3767.72 2234.54 3764.64 2229.96 Q3761.58 2225.35 3761.58 2216.62 Q3761.58 2207.87 3764.64 2203.29 Q3767.72 2198.68 3773.53 2198.68 Z" fill="#000000" fill-rule="evenodd" fill-opacity="1" /><path clip-path="url(#clip080)" d="M3797.72 2229.93 L3814.04 2229.93 L3814.04 2233.87 L3792.09 2233.87 L3792.09 2229.93 Q3794.75 2227.18 3799.34 2222.55 Q3803.94 2217.9 3805.12 2216.55 Q3807.37 2214.03 3808.25 2212.29 Q3809.15 2210.53 3809.15 2208.84 Q3809.15 2206.09 3807.21 2204.35 Q3805.29 2202.62 3802.18 2202.62 Q3799.98 2202.62 3797.53 2203.38 Q3795.1 2204.15 3792.32 2205.7 L3792.32 2200.97 Q3795.15 2199.84 3797.6 2199.26 Q3800.05 2198.68 3802.09 2198.68 Q3807.46 2198.68 3810.66 2201.37 Q3813.85 2204.05 3813.85 2208.54 Q3813.85 2210.67 3813.04 2212.59 Q3812.25 2214.49 3810.15 2217.09 Q3809.57 2217.76 3806.47 2220.97 Q3803.36 2224.17 3797.72 2229.93 Z" fill="#000000" fill-rule="evenodd" fill-opacity="1" /><path clip-path="url(#clip080)" d="M3833.85 2202.39 Q3830.24 2202.39 3828.41 2205.95 Q3826.6 2209.49 3826.6 2216.62 Q3826.6 2223.73 3828.41 2227.29 Q3830.24 2230.84 3833.85 2230.84 Q3837.48 2230.84 3839.29 2227.29 Q3841.12 2223.73 3841.12 2216.62 Q3841.12 2209.49 3839.29 2205.95 Q3837.48 2202.39 3833.85 2202.39 M3833.85 2198.68 Q3839.66 2198.68 3842.72 2203.29 Q3845.79 2207.87 3845.79 2216.62 Q3845.79 2225.35 3842.72 2229.96 Q3839.66 2234.54 3833.85 2234.54 Q3828.04 2234.54 3824.96 2229.96 Q3821.91 2225.35 3821.91 2216.62 Q3821.91 2207.87 3824.96 2203.29 Q3828.04 2198.68 3833.85 2198.68 Z" fill="#000000" fill-rule="evenodd" fill-opacity="1" /><path clip-path="url(#clip080)" d="M2036.66 2281.74 L2043.57 2281.74 L2056.75 2301.28 L2069.83 2281.74 L2076.74 2281.74 L2059.93 2306.63 L2059.93 2329.26 L2053.47 2329.26 L2053.47 2306.63 L2036.66 2281.74 Z" fill="#000000" fill-rule="evenodd" fill-opacity="1" /><path clip-path="url(#clip080)" d="M2104.59 2309.97 L2104.59 2312.84 L2077.66 2312.84 Q2078.04 2318.88 2081.29 2322.07 Q2084.57 2325.22 2090.39 2325.22 Q2093.76 2325.22 2096.91 2324.39 Q2100.1 2323.56 2103.22 2321.91 L2103.22 2327.45 Q2100.07 2328.78 2096.76 2329.48 Q2093.45 2330.18 2090.04 2330.18 Q2081.51 2330.18 2076.51 2325.22 Q2071.55 2320.25 2071.55 2311.79 Q2071.55 2303.03 2076.26 2297.91 Q2081 2292.75 2089.02 2292.75 Q2096.21 2292.75 2100.38 2297.4 Q2104.59 2302.01 2104.59 2309.97 M2098.73 2308.25 Q2098.67 2303.45 2096.02 2300.58 Q2093.41 2297.72 2089.08 2297.72 Q2084.18 2297.72 2081.22 2300.49 Q2078.3 2303.26 2077.85 2308.28 L2098.73 2308.25 Z" fill="#000000" fill-rule="evenodd" fill-opacity="1" /><path clip-path="url(#clip080)" d="M2130.4 2311.34 Q2123.3 2311.34 2120.56 2312.96 Q2117.83 2314.59 2117.83 2318.5 Q2117.83 2321.62 2119.86 2323.47 Q2121.93 2325.28 2125.46 2325.28 Q2130.33 2325.28 2133.26 2321.84 Q2136.22 2318.37 2136.22 2312.65 L2136.22 2311.34 L2130.4 2311.34 M2142.08 2308.92 L2142.08 2329.26 L2136.22 2329.26 L2136.22 2323.85 Q2134.22 2327.1 2131.23 2328.65 Q2128.23 2330.18 2123.91 2330.18 Q2118.43 2330.18 2115.18 2327.13 Q2111.97 2324.04 2111.97 2318.88 Q2111.97 2312.87 2115.98 2309.81 Q2120.02 2306.76 2128.01 2306.76 L2136.22 2306.76 L2136.22 2306.18 Q2136.22 2302.14 2133.55 2299.95 Q2130.91 2297.72 2126.1 2297.72 Q2123.05 2297.72 2120.15 2298.45 Q2117.25 2299.18 2114.58 2300.65 L2114.58 2295.24 Q2117.79 2293.99 2120.82 2293.39 Q2123.84 2292.75 2126.71 2292.75 Q2134.44 2292.75 2138.26 2296.76 Q2142.08 2300.77 2142.08 2308.92 Z" fill="#000000" fill-rule="evenodd" fill-opacity="1" /><path clip-path="url(#clip080)" d="M2174.8 2299.09 Q2173.81 2298.51 2172.63 2298.26 Q2171.49 2297.97 2170.09 2297.97 Q2165.12 2297.97 2162.45 2301.22 Q2159.81 2304.43 2159.81 2310.48 L2159.81 2329.26 L2153.92 2329.26 L2153.92 2293.61 L2159.81 2293.61 L2159.81 2299.15 Q2161.65 2295.9 2164.61 2294.34 Q2167.57 2292.75 2171.81 2292.75 Q2172.41 2292.75 2173.14 2292.85 Q2173.88 2292.91 2174.77 2293.07 L2174.8 2299.09 Z" fill="#000000" fill-rule="evenodd" fill-opacity="1" /><polyline clip-path="url(#clip082)" style="stroke:#000000; stroke-linecap:butt; stroke-linejoin:round; stroke-width:2; stroke-opacity:0.1; fill:none" points="
  321.699,2102.37 3889.76,2102.37 
  "/>
<polyline clip-path="url(#clip082)" style="stroke:#000000; stroke-linecap:butt; stroke-linejoin:round; stroke-width:2; stroke-opacity:0.1; fill:none" points="
  321.699,1614.58 3889.76,1614.58 
  "/>
<polyline clip-path="url(#clip082)" style="stroke:#000000; stroke-linecap:butt; stroke-linejoin:round; stroke-width:2; stroke-opacity:0.1; fill:none" points="
  321.699,1126.79 3889.76,1126.79 
  "/>
<polyline clip-path="url(#clip082)" style="stroke:#000000; stroke-linecap:butt; stroke-linejoin:round; stroke-width:2; stroke-opacity:0.1; fill:none" points="
  321.699,638.995 3889.76,638.995 
  "/>
<polyline clip-path="url(#clip082)" style="stroke:#000000; stroke-linecap:butt; stroke-linejoin:round; stroke-width:2; stroke-opacity:0.1; fill:none" points="
  321.699,151.202 3889.76,151.202 
  "/>
<polyline clip-path="url(#clip080)" style="stroke:#000000; stroke-linecap:butt; stroke-linejoin:round; stroke-width:4; stroke-opacity:1; fill:none" points="
  321.699,2160.4 321.699,110.236 
  "/>
<polyline clip-path="url(#clip080)" style="stroke:#000000; stroke-linecap:butt; stroke-linejoin:round; stroke-width:4; stroke-opacity:1; fill:none" points="
  321.699,2102.37 340.596,2102.37 
  "/>
<polyline clip-path="url(#clip080)" style="stroke:#000000; stroke-linecap:butt; stroke-linejoin:round; stroke-width:4; stroke-opacity:1; fill:none" points="
  321.699,1614.58 340.596,1614.58 
  "/>
<polyline clip-path="url(#clip080)" style="stroke:#000000; stroke-linecap:butt; stroke-linejoin:round; stroke-width:4; stroke-opacity:1; fill:none" points="
  321.699,1126.79 340.596,1126.79 
  "/>
<polyline clip-path="url(#clip080)" style="stroke:#000000; stroke-linecap:butt; stroke-linejoin:round; stroke-width:4; stroke-opacity:1; fill:none" points="
  321.699,638.995 340.596,638.995 
  "/>
<polyline clip-path="url(#clip080)" style="stroke:#000000; stroke-linecap:butt; stroke-linejoin:round; stroke-width:4; stroke-opacity:1; fill:none" points="
  321.699,151.202 340.596,151.202 
  "/>
<path clip-path="url(#clip080)" d="M204.523 2088.17 Q200.912 2088.17 199.083 2091.74 Q197.278 2095.28 197.278 2102.41 Q197.278 2109.51 199.083 2113.08 Q200.912 2116.62 204.523 2116.62 Q208.157 2116.62 209.963 2113.08 Q211.792 2109.51 211.792 2102.41 Q211.792 2095.28 209.963 2091.74 Q208.157 2088.17 204.523 2088.17 M204.523 2084.47 Q210.333 2084.47 213.389 2089.07 Q216.468 2093.66 216.468 2102.41 Q216.468 2111.13 213.389 2115.74 Q210.333 2120.32 204.523 2120.32 Q198.713 2120.32 195.634 2115.74 Q192.579 2111.13 192.579 2102.41 Q192.579 2093.66 195.634 2089.07 Q198.713 2084.47 204.523 2084.47 Z" fill="#000000" fill-rule="evenodd" fill-opacity="1" /><path clip-path="url(#clip080)" d="M224.685 2113.77 L229.569 2113.77 L229.569 2119.65 L224.685 2119.65 L224.685 2113.77 Z" fill="#000000" fill-rule="evenodd" fill-opacity="1" /><path clip-path="url(#clip080)" d="M249.754 2088.17 Q246.143 2088.17 244.315 2091.74 Q242.509 2095.28 242.509 2102.41 Q242.509 2109.51 244.315 2113.08 Q246.143 2116.62 249.754 2116.62 Q253.389 2116.62 255.194 2113.08 Q257.023 2109.51 257.023 2102.41 Q257.023 2095.28 255.194 2091.74 Q253.389 2088.17 249.754 2088.17 M249.754 2084.47 Q255.565 2084.47 258.62 2089.07 Q261.699 2093.66 261.699 2102.41 Q261.699 2111.13 258.62 2115.74 Q255.565 2120.32 249.754 2120.32 Q243.944 2120.32 240.866 2115.74 Q237.81 2111.13 237.81 2102.41 Q237.81 2093.66 240.866 2089.07 Q243.944 2084.47 249.754 2084.47 Z" fill="#000000" fill-rule="evenodd" fill-opacity="1" /><path clip-path="url(#clip080)" d="M199.546 1627.92 L215.866 1627.92 L215.866 1631.86 L193.921 1631.86 L193.921 1627.92 Q196.583 1625.17 201.167 1620.54 Q205.773 1615.89 206.954 1614.55 Q209.199 1612.02 210.079 1610.29 Q210.982 1608.53 210.982 1606.84 Q210.982 1604.08 209.037 1602.35 Q207.116 1600.61 204.014 1600.61 Q201.815 1600.61 199.361 1601.37 Q196.931 1602.14 194.153 1603.69 L194.153 1598.97 Q196.977 1597.83 199.431 1597.25 Q201.884 1596.67 203.921 1596.67 Q209.292 1596.67 212.486 1599.36 Q215.681 1602.05 215.681 1606.54 Q215.681 1608.67 214.87 1610.59 Q214.083 1612.48 211.977 1615.08 Q211.398 1615.75 208.296 1618.97 Q205.195 1622.16 199.546 1627.92 Z" fill="#000000" fill-rule="evenodd" fill-opacity="1" /><path clip-path="url(#clip080)" d="M225.681 1625.98 L230.565 1625.98 L230.565 1631.86 L225.681 1631.86 L225.681 1625.98 Z" fill="#000000" fill-rule="evenodd" fill-opacity="1" /><path clip-path="url(#clip080)" d="M240.796 1597.3 L259.153 1597.3 L259.153 1601.23 L245.079 1601.23 L245.079 1609.71 Q246.097 1609.36 247.116 1609.2 Q248.134 1609.01 249.153 1609.01 Q254.94 1609.01 258.319 1612.18 Q261.699 1615.36 261.699 1620.77 Q261.699 1626.35 258.227 1629.45 Q254.754 1632.53 248.435 1632.53 Q246.259 1632.53 243.991 1632.16 Q241.745 1631.79 239.338 1631.05 L239.338 1626.35 Q241.421 1627.48 243.643 1628.04 Q245.866 1628.6 248.342 1628.6 Q252.347 1628.6 254.685 1626.49 Q257.023 1624.38 257.023 1620.77 Q257.023 1617.16 254.685 1615.05 Q252.347 1612.95 248.342 1612.95 Q246.467 1612.95 244.592 1613.36 Q242.741 1613.78 240.796 1614.66 L240.796 1597.3 Z" fill="#000000" fill-rule="evenodd" fill-opacity="1" /><path clip-path="url(#clip080)" d="M194.57 1109.51 L212.926 1109.51 L212.926 1113.44 L198.852 1113.44 L198.852 1121.91 Q199.87 1121.57 200.889 1121.41 Q201.907 1121.22 202.926 1121.22 Q208.713 1121.22 212.093 1124.39 Q215.472 1127.56 215.472 1132.98 Q215.472 1138.56 212 1141.66 Q208.528 1144.74 202.208 1144.74 Q200.033 1144.74 197.764 1144.37 Q195.519 1144 193.111 1143.26 L193.111 1138.56 Q195.195 1139.69 197.417 1140.25 Q199.639 1140.8 202.116 1140.8 Q206.12 1140.8 208.458 1138.7 Q210.796 1136.59 210.796 1132.98 Q210.796 1129.37 208.458 1127.26 Q206.12 1125.16 202.116 1125.16 Q200.241 1125.16 198.366 1125.57 Q196.514 1125.99 194.57 1126.87 L194.57 1109.51 Z" fill="#000000" fill-rule="evenodd" fill-opacity="1" /><path clip-path="url(#clip080)" d="M224.685 1138.19 L229.569 1138.19 L229.569 1144.07 L224.685 1144.07 L224.685 1138.19 Z" fill="#000000" fill-rule="evenodd" fill-opacity="1" /><path clip-path="url(#clip080)" d="M249.754 1112.59 Q246.143 1112.59 244.315 1116.15 Q242.509 1119.69 242.509 1126.82 Q242.509 1133.93 244.315 1137.49 Q246.143 1141.03 249.754 1141.03 Q253.389 1141.03 255.194 1137.49 Q257.023 1133.93 257.023 1126.82 Q257.023 1119.69 255.194 1116.15 Q253.389 1112.59 249.754 1112.59 M249.754 1108.88 Q255.565 1108.88 258.62 1113.49 Q261.699 1118.07 261.699 1126.82 Q261.699 1135.55 258.62 1140.16 Q255.565 1144.74 249.754 1144.74 Q243.944 1144.74 240.866 1140.16 Q237.81 1135.55 237.81 1126.82 Q237.81 1118.07 240.866 1113.49 Q243.944 1108.88 249.754 1108.88 Z" fill="#000000" fill-rule="evenodd" fill-opacity="1" /><path clip-path="url(#clip080)" d="M194.338 621.715 L216.56 621.715 L216.56 623.705 L204.014 656.275 L199.13 656.275 L210.935 625.65 L194.338 625.65 L194.338 621.715 Z" fill="#000000" fill-rule="evenodd" fill-opacity="1" /><path clip-path="url(#clip080)" d="M225.681 650.395 L230.565 650.395 L230.565 656.275 L225.681 656.275 L225.681 650.395 Z" fill="#000000" fill-rule="evenodd" fill-opacity="1" /><path clip-path="url(#clip080)" d="M240.796 621.715 L259.153 621.715 L259.153 625.65 L245.079 625.65 L245.079 634.122 Q246.097 633.775 247.116 633.613 Q248.134 633.428 249.153 633.428 Q254.94 633.428 258.319 636.599 Q261.699 639.77 261.699 645.187 Q261.699 650.765 258.227 653.867 Q254.754 656.946 248.435 656.946 Q246.259 656.946 243.991 656.576 Q241.745 656.205 239.338 655.465 L239.338 650.765 Q241.421 651.9 243.643 652.455 Q245.866 653.011 248.342 653.011 Q252.347 653.011 254.685 650.904 Q257.023 648.798 257.023 645.187 Q257.023 641.576 254.685 639.469 Q252.347 637.363 248.342 637.363 Q246.467 637.363 244.592 637.779 Q242.741 638.196 240.796 639.076 L240.796 621.715 Z" fill="#000000" fill-rule="evenodd" fill-opacity="1" /><path clip-path="url(#clip080)" d="M165.172 164.547 L172.81 164.547 L172.81 138.181 L164.5 139.848 L164.5 135.589 L172.764 133.922 L177.44 133.922 L177.44 164.547 L185.079 164.547 L185.079 168.482 L165.172 168.482 L165.172 164.547 Z" fill="#000000" fill-rule="evenodd" fill-opacity="1" /><path clip-path="url(#clip080)" d="M204.523 137.001 Q200.912 137.001 199.083 140.566 Q197.278 144.107 197.278 151.237 Q197.278 158.343 199.083 161.908 Q200.912 165.45 204.523 165.45 Q208.157 165.45 209.963 161.908 Q211.792 158.343 211.792 151.237 Q211.792 144.107 209.963 140.566 Q208.157 137.001 204.523 137.001 M204.523 133.297 Q210.333 133.297 213.389 137.904 Q216.468 142.487 216.468 151.237 Q216.468 159.964 213.389 164.57 Q210.333 169.153 204.523 169.153 Q198.713 169.153 195.634 164.57 Q192.579 159.964 192.579 151.237 Q192.579 142.487 195.634 137.904 Q198.713 133.297 204.523 133.297 Z" fill="#000000" fill-rule="evenodd" fill-opacity="1" /><path clip-path="url(#clip080)" d="M224.685 162.603 L229.569 162.603 L229.569 168.482 L224.685 168.482 L224.685 162.603 Z" fill="#000000" fill-rule="evenodd" fill-opacity="1" /><path clip-path="url(#clip080)" d="M249.754 137.001 Q246.143 137.001 244.315 140.566 Q242.509 144.107 242.509 151.237 Q242.509 158.343 244.315 161.908 Q246.143 165.45 249.754 165.45 Q253.389 165.45 255.194 161.908 Q257.023 158.343 257.023 151.237 Q257.023 144.107 255.194 140.566 Q253.389 137.001 249.754 137.001 M249.754 133.297 Q255.565 133.297 258.62 137.904 Q261.699 142.487 261.699 151.237 Q261.699 159.964 258.62 164.57 Q255.565 169.153 249.754 169.153 Q243.944 169.153 240.866 164.57 Q237.81 159.964 237.81 151.237 Q237.81 142.487 240.866 137.904 Q243.944 133.297 249.754 133.297 Z" fill="#000000" fill-rule="evenodd" fill-opacity="1" /><path clip-path="url(#clip080)" d="M69.3329 1526.82 Q69.3329 1529.59 71.6882 1531.18 Q74.0436 1532.74 78.2449 1532.74 Q82.3826 1532.74 84.7698 1531.18 Q87.1251 1529.59 87.1251 1526.82 Q87.1251 1524.12 84.7698 1522.56 Q82.3826 1520.97 78.2449 1520.97 Q74.0754 1520.97 71.7201 1522.56 Q69.3329 1524.12 69.3329 1526.82 M65.2907 1526.82 Q65.2907 1521.79 68.7919 1518.83 Q72.293 1515.87 78.2449 1515.87 Q84.1969 1515.87 87.698 1518.87 Q91.1673 1521.83 91.1673 1526.82 Q91.1673 1531.92 87.698 1534.88 Q84.1969 1537.84 78.2449 1537.84 Q72.2612 1537.84 68.7919 1534.88 Q65.2907 1531.88 65.2907 1526.82 M45.9071 1559.67 Q45.9071 1562.41 48.2943 1564 Q50.6496 1565.56 54.7873 1565.56 Q58.9887 1565.56 61.344 1564 Q63.6993 1562.44 63.6993 1559.67 Q63.6993 1556.9 61.344 1555.34 Q58.9887 1553.75 54.7873 1553.75 Q50.6814 1553.75 48.2943 1555.34 Q45.9071 1556.93 45.9071 1559.67 M41.8649 1530.93 L41.8649 1525.84 L91.1673 1555.56 L91.1673 1560.66 L41.8649 1530.93 M41.8649 1559.67 Q41.8649 1554.64 45.3661 1551.65 Q48.8354 1548.66 54.7873 1548.66 Q60.8029 1548.66 64.2722 1551.65 Q67.7415 1554.61 67.7415 1559.67 Q67.7415 1564.73 64.2722 1567.69 Q60.7711 1570.62 54.7873 1570.62 Q48.8672 1570.62 45.3661 1567.66 Q41.8649 1564.7 41.8649 1559.67 Z" fill="#000000" fill-rule="evenodd" fill-opacity="1" /><path clip-path="url(#clip080)" d="M55.965 1459.76 L61.4395 1459.76 Q60.0708 1462.24 59.4024 1464.76 Q58.7022 1467.24 58.7022 1469.79 Q58.7022 1475.48 62.3307 1478.63 Q65.9273 1481.79 72.4521 1481.79 Q78.977 1481.79 82.6054 1478.63 Q86.2021 1475.48 86.2021 1469.79 Q86.2021 1467.24 85.5337 1464.76 Q84.8334 1462.24 83.4648 1459.76 L88.8757 1459.76 Q90.0215 1462.21 90.5944 1464.85 Q91.1673 1467.46 91.1673 1470.42 Q91.1673 1478.48 86.1066 1483.22 Q81.0458 1487.96 72.4521 1487.96 Q63.7311 1487.96 58.734 1483.19 Q53.737 1478.38 53.737 1470.04 Q53.737 1467.34 54.3099 1464.76 Q54.851 1462.18 55.965 1459.76 Z" fill="#000000" fill-rule="evenodd" fill-opacity="1" /><path clip-path="url(#clip080)" d="M68.7282 1419.94 L90.2443 1419.94 L90.2443 1425.8 L68.9192 1425.8 Q63.8584 1425.8 61.344 1427.77 Q58.8295 1429.75 58.8295 1433.69 Q58.8295 1438.44 61.8532 1441.17 Q64.8769 1443.91 70.0968 1443.91 L90.2443 1443.91 L90.2443 1449.8 L40.7191 1449.8 L40.7191 1443.91 L60.1345 1443.91 Q56.9198 1441.81 55.3284 1438.98 Q53.737 1436.11 53.737 1432.39 Q53.737 1426.24 57.5564 1423.09 Q61.344 1419.94 68.7282 1419.94 Z" fill="#000000" fill-rule="evenodd" fill-opacity="1" /><path clip-path="url(#clip080)" d="M72.3248 1392.06 Q72.3248 1399.16 73.9481 1401.9 Q75.5713 1404.63 79.4862 1404.63 Q82.6054 1404.63 84.4515 1402.6 Q86.2657 1400.53 86.2657 1396.99 Q86.2657 1392.12 82.8282 1389.2 Q79.3589 1386.24 73.6298 1386.24 L72.3248 1386.24 L72.3248 1392.06 M69.9059 1380.38 L90.2443 1380.38 L90.2443 1386.24 L84.8334 1386.24 Q88.0799 1388.24 89.6395 1391.23 Q91.1673 1394.23 91.1673 1398.55 Q91.1673 1404.03 88.1118 1407.27 Q85.0244 1410.49 79.8682 1410.49 Q73.8526 1410.49 70.797 1406.48 Q67.7415 1402.44 67.7415 1394.45 L67.7415 1386.24 L67.1686 1386.24 Q63.1264 1386.24 60.9302 1388.91 Q58.7022 1391.55 58.7022 1396.36 Q58.7022 1399.41 59.4343 1402.31 Q60.1663 1405.21 61.6304 1407.88 L56.2196 1407.88 Q54.9783 1404.66 54.3735 1401.64 Q53.737 1398.62 53.737 1395.75 Q53.737 1388.02 57.7474 1384.2 Q61.7577 1380.38 69.9059 1380.38 Z" fill="#000000" fill-rule="evenodd" fill-opacity="1" /><path clip-path="url(#clip080)" d="M68.7282 1338.68 L90.2443 1338.68 L90.2443 1344.54 L68.9192 1344.54 Q63.8584 1344.54 61.344 1346.51 Q58.8295 1348.49 58.8295 1352.43 Q58.8295 1357.18 61.8532 1359.91 Q64.8769 1362.65 70.0968 1362.65 L90.2443 1362.65 L90.2443 1368.54 L54.5963 1368.54 L54.5963 1362.65 L60.1345 1362.65 Q56.9198 1360.55 55.3284 1357.72 Q53.737 1354.85 53.737 1351.13 Q53.737 1344.99 57.5564 1341.84 Q61.344 1338.68 68.7282 1338.68 Z" fill="#000000" fill-rule="evenodd" fill-opacity="1" /><path clip-path="url(#clip080)" d="M72.0065 1303.55 Q65.6408 1303.55 62.1397 1306.19 Q58.6386 1308.8 58.6386 1313.54 Q58.6386 1318.25 62.1397 1320.89 Q65.6408 1323.5 72.0065 1323.5 Q78.3404 1323.5 81.8416 1320.89 Q85.3427 1318.25 85.3427 1313.54 Q85.3427 1308.8 81.8416 1306.19 Q78.3404 1303.55 72.0065 1303.55 M85.8201 1297.69 Q94.9231 1297.69 99.3472 1301.73 Q103.803 1305.77 103.803 1314.11 Q103.803 1317.2 103.326 1319.94 Q102.88 1322.67 101.925 1325.25 L96.228 1325.25 Q97.6285 1322.67 98.2969 1320.16 Q98.9653 1317.65 98.9653 1315.04 Q98.9653 1309.27 95.9416 1306.41 Q92.9497 1303.55 86.8705 1303.55 L83.9741 1303.55 Q87.1251 1305.36 88.6847 1308.19 Q90.2443 1311.03 90.2443 1314.97 Q90.2443 1321.53 85.2472 1325.54 Q80.2501 1329.55 72.0065 1329.55 Q63.7311 1329.55 58.734 1325.54 Q53.737 1321.53 53.737 1314.97 Q53.737 1311.03 55.2966 1308.19 Q56.8562 1305.36 60.0072 1303.55 L54.5963 1303.55 L54.5963 1297.69 L85.8201 1297.69 Z" fill="#000000" fill-rule="evenodd" fill-opacity="1" /><path clip-path="url(#clip080)" d="M70.9562 1255.13 L73.8208 1255.13 L73.8208 1282.06 Q79.8682 1281.68 83.051 1278.43 Q86.2021 1275.15 86.2021 1269.33 Q86.2021 1265.96 85.3745 1262.81 Q84.547 1259.62 82.8919 1256.5 L88.4301 1256.5 Q89.7669 1259.65 90.4671 1262.96 Q91.1673 1266.27 91.1673 1269.68 Q91.1673 1278.21 86.2021 1283.21 Q81.2368 1288.17 72.7704 1288.17 Q64.0176 1288.17 58.8932 1283.46 Q53.737 1278.72 53.737 1270.7 Q53.737 1263.51 58.3839 1259.34 Q62.9991 1255.13 70.9562 1255.13 M69.2375 1260.99 Q64.4313 1261.05 61.5668 1263.7 Q58.7022 1266.31 58.7022 1270.63 Q58.7022 1275.54 61.4713 1278.5 Q64.2404 1281.42 69.2693 1281.87 L69.2375 1260.99 Z" fill="#000000" fill-rule="evenodd" fill-opacity="1" /><path clip-path="url(#clip080)" d="M54.5963 1224.8 L54.5963 1218.95 L90.2443 1218.95 L90.2443 1224.8 L54.5963 1224.8 M40.7191 1224.8 L40.7191 1218.95 L48.1351 1218.95 L48.1351 1224.8 L40.7191 1224.8 Z" fill="#000000" fill-rule="evenodd" fill-opacity="1" /><path clip-path="url(#clip080)" d="M68.7282 1177.06 L90.2443 1177.06 L90.2443 1182.92 L68.9192 1182.92 Q63.8584 1182.92 61.344 1184.89 Q58.8295 1186.86 58.8295 1190.81 Q58.8295 1195.55 61.8532 1198.29 Q64.8769 1201.03 70.0968 1201.03 L90.2443 1201.03 L90.2443 1206.91 L54.5963 1206.91 L54.5963 1201.03 L60.1345 1201.03 Q56.9198 1198.93 55.3284 1196.09 Q53.737 1193.23 53.737 1189.5 Q53.737 1183.36 57.5564 1180.21 Q61.344 1177.06 68.7282 1177.06 Z" fill="#000000" fill-rule="evenodd" fill-opacity="1" /><path clip-path="url(#clip080)" d="M68.7282 1115.03 L90.2443 1115.03 L90.2443 1120.88 L68.9192 1120.88 Q63.8584 1120.88 61.344 1122.86 Q58.8295 1124.83 58.8295 1128.78 Q58.8295 1133.52 61.8532 1136.25 Q64.8769 1138.99 70.0968 1138.99 L90.2443 1138.99 L90.2443 1144.88 L40.7191 1144.88 L40.7191 1138.99 L60.1345 1138.99 Q56.9198 1136.89 55.3284 1134.06 Q53.737 1131.19 53.737 1127.47 Q53.737 1121.33 57.5564 1118.18 Q61.344 1115.03 68.7282 1115.03 Z" fill="#000000" fill-rule="evenodd" fill-opacity="1" /><path clip-path="url(#clip080)" d="M58.7022 1089.53 Q58.7022 1094.24 62.3943 1096.98 Q66.0546 1099.72 72.4521 1099.72 Q78.8497 1099.72 82.5418 1097.01 Q86.2021 1094.27 86.2021 1089.53 Q86.2021 1084.85 82.5099 1082.11 Q78.8178 1079.38 72.4521 1079.38 Q66.1183 1079.38 62.4261 1082.11 Q58.7022 1084.85 58.7022 1089.53 M53.737 1089.53 Q53.737 1081.89 58.7022 1077.53 Q63.6675 1073.17 72.4521 1073.17 Q81.205 1073.17 86.2021 1077.53 Q91.1673 1081.89 91.1673 1089.53 Q91.1673 1097.2 86.2021 1101.56 Q81.205 1105.89 72.4521 1105.89 Q63.6675 1105.89 58.7022 1101.56 Q53.737 1097.2 53.737 1089.53 Z" fill="#000000" fill-rule="evenodd" fill-opacity="1" /><path clip-path="url(#clip080)" d="M76.1761 1064.07 L54.5963 1064.07 L54.5963 1058.21 L75.9533 1058.21 Q81.014 1058.21 83.5603 1056.24 Q86.0747 1054.26 86.0747 1050.32 Q86.0747 1045.58 83.051 1042.84 Q80.0273 1040.07 74.8074 1040.07 L54.5963 1040.07 L54.5963 1034.21 L90.2443 1034.21 L90.2443 1040.07 L84.7698 1040.07 Q88.0163 1042.2 89.6077 1045.03 Q91.1673 1047.84 91.1673 1051.56 Q91.1673 1057.7 87.3479 1060.88 Q83.5285 1064.07 76.1761 1064.07 M53.737 1049.33 L53.737 1049.33 Z" fill="#000000" fill-rule="evenodd" fill-opacity="1" /><path clip-path="url(#clip080)" d="M55.6467 999.424 L61.1848 999.424 Q59.9117 1001.91 59.2751 1004.58 Q58.6386 1007.25 58.6386 1010.12 Q58.6386 1014.48 59.9753 1016.68 Q61.3121 1018.84 63.9857 1018.84 Q66.0228 1018.84 67.2004 1017.28 Q68.3463 1015.72 69.3966 1011.01 L69.8422 1009 Q71.179 1002.77 73.6298 1000.16 Q76.0488 997.514 80.4093 997.514 Q85.3745 997.514 88.2709 1001.46 Q91.1673 1005.38 91.1673 1012.25 Q91.1673 1015.12 90.5944 1018.23 Q90.0533 1021.32 88.9393 1024.76 L82.8919 1024.76 Q84.5788 1021.51 85.4382 1018.36 Q86.2657 1015.21 86.2657 1012.12 Q86.2657 1007.99 84.8653 1005.76 Q83.433 1003.53 80.8549 1003.53 Q78.4677 1003.53 77.1946 1005.15 Q75.9214 1006.74 74.7438 1012.19 L74.2664 1014.22 Q73.1205 1019.67 70.7652 1022.09 Q68.3781 1024.5 64.2404 1024.5 Q59.2115 1024.5 56.4742 1020.94 Q53.737 1017.38 53.737 1010.82 Q53.737 1007.57 54.2144 1004.71 Q54.6918 1001.84 55.6467 999.424 Z" fill="#000000" fill-rule="evenodd" fill-opacity="1" /><path clip-path="url(#clip080)" d="M54.5963 988.189 L54.5963 982.332 L90.2443 982.332 L90.2443 988.189 L54.5963 988.189 M40.7191 988.189 L40.7191 982.332 L48.1351 982.332 L48.1351 988.189 L40.7191 988.189 Z" fill="#000000" fill-rule="evenodd" fill-opacity="1" /><path clip-path="url(#clip080)" d="M68.7282 940.446 L90.2443 940.446 L90.2443 946.302 L68.9192 946.302 Q63.8584 946.302 61.344 948.276 Q58.8295 950.249 58.8295 954.196 Q58.8295 958.938 61.8532 961.675 Q64.8769 964.413 70.0968 964.413 L90.2443 964.413 L90.2443 970.301 L54.5963 970.301 L54.5963 964.413 L60.1345 964.413 Q56.9198 962.312 55.3284 959.479 Q53.737 956.615 53.737 952.891 Q53.737 946.748 57.5564 943.597 Q61.344 940.446 68.7282 940.446 Z" fill="#000000" fill-rule="evenodd" fill-opacity="1" /><path clip-path="url(#clip080)" d="M72.0065 905.307 Q65.6408 905.307 62.1397 907.949 Q58.6386 910.559 58.6386 915.301 Q58.6386 920.012 62.1397 922.654 Q65.6408 925.264 72.0065 925.264 Q78.3404 925.264 81.8416 922.654 Q85.3427 920.012 85.3427 915.301 Q85.3427 910.559 81.8416 907.949 Q78.3404 905.307 72.0065 905.307 M85.8201 899.451 Q94.9231 899.451 99.3472 903.493 Q103.803 907.535 103.803 915.874 Q103.803 918.962 103.326 921.699 Q102.88 924.436 101.925 927.014 L96.228 927.014 Q97.6285 924.436 98.2969 921.922 Q98.9653 919.407 98.9653 916.797 Q98.9653 911.036 95.9416 908.172 Q92.9497 905.307 86.8705 905.307 L83.9741 905.307 Q87.1251 907.121 88.6847 909.954 Q90.2443 912.787 90.2443 916.734 Q90.2443 923.29 85.2472 927.301 Q80.2501 931.311 72.0065 931.311 Q63.7311 931.311 58.734 927.301 Q53.737 923.29 53.737 916.734 Q53.737 912.787 55.2966 909.954 Q56.8562 907.121 60.0072 905.307 L54.5963 905.307 L54.5963 899.451 L85.8201 899.451 Z" fill="#000000" fill-rule="evenodd" fill-opacity="1" /><path clip-path="url(#clip080)" d="M55.6467 843.942 L61.1848 843.942 Q59.9117 846.424 59.2751 849.098 Q58.6386 851.771 58.6386 854.636 Q58.6386 858.997 59.9753 861.193 Q61.3121 863.357 63.9857 863.357 Q66.0228 863.357 67.2004 861.797 Q68.3463 860.238 69.3966 855.527 L69.8422 853.522 Q71.179 847.284 73.6298 844.674 Q76.0488 842.032 80.4093 842.032 Q85.3745 842.032 88.2709 845.979 Q91.1673 849.894 91.1673 856.769 Q91.1673 859.633 90.5944 862.752 Q90.0533 865.84 88.9393 869.277 L82.8919 869.277 Q84.5788 866.031 85.4382 862.88 Q86.2657 859.729 86.2657 856.641 Q86.2657 852.504 84.8653 850.276 Q83.433 848.048 80.8549 848.048 Q78.4677 848.048 77.1946 849.671 Q75.9214 851.262 74.7438 856.705 L74.2664 858.742 Q73.1205 864.185 70.7652 866.604 Q68.3781 869.023 64.2404 869.023 Q59.2115 869.023 56.4742 865.458 Q53.737 861.893 53.737 855.336 Q53.737 852.09 54.2144 849.225 Q54.6918 846.361 55.6467 843.942 Z" fill="#000000" fill-rule="evenodd" fill-opacity="1" /><path clip-path="url(#clip080)" d="M44.4749 826.913 L54.5963 826.913 L54.5963 814.85 L59.1478 814.85 L59.1478 826.913 L78.4996 826.913 Q82.8601 826.913 84.1014 825.736 Q85.3427 824.526 85.3427 820.866 L85.3427 814.85 L90.2443 814.85 L90.2443 820.866 Q90.2443 827.645 87.7298 830.224 Q85.1835 832.802 78.4996 832.802 L59.1478 832.802 L59.1478 837.099 L54.5963 837.099 L54.5963 832.802 L44.4749 832.802 L44.4749 826.913 Z" fill="#000000" fill-rule="evenodd" fill-opacity="1" /><path clip-path="url(#clip080)" d="M58.7022 793.334 Q58.7022 798.045 62.3943 800.782 Q66.0546 803.519 72.4521 803.519 Q78.8497 803.519 82.5418 800.814 Q86.2021 798.077 86.2021 793.334 Q86.2021 788.655 82.5099 785.918 Q78.8178 783.181 72.4521 783.181 Q66.1183 783.181 62.4261 785.918 Q58.7022 788.655 58.7022 793.334 M53.737 793.334 Q53.737 785.695 58.7022 781.335 Q63.6675 776.974 72.4521 776.974 Q81.205 776.974 86.2021 781.335 Q91.1673 785.695 91.1673 793.334 Q91.1673 801.005 86.2021 805.365 Q81.205 809.694 72.4521 809.694 Q63.6675 809.694 58.7022 805.365 Q53.737 801.005 53.737 793.334 Z" fill="#000000" fill-rule="evenodd" fill-opacity="1" /><path clip-path="url(#clip080)" d="M55.965 741.613 L61.4395 741.613 Q60.0708 744.096 59.4024 746.61 Q58.7022 749.093 58.7022 751.639 Q58.7022 757.336 62.3307 760.487 Q65.9273 763.638 72.4521 763.638 Q78.977 763.638 82.6054 760.487 Q86.2021 757.336 86.2021 751.639 Q86.2021 749.093 85.5337 746.61 Q84.8334 744.096 83.4648 741.613 L88.8757 741.613 Q90.0215 744.064 90.5944 746.705 Q91.1673 749.315 91.1673 752.275 Q91.1673 760.328 86.1066 765.071 Q81.0458 769.813 72.4521 769.813 Q63.7311 769.813 58.734 765.039 Q53.737 760.233 53.737 751.894 Q53.737 749.188 54.3099 746.61 Q54.851 744.032 55.965 741.613 Z" fill="#000000" fill-rule="evenodd" fill-opacity="1" /><path clip-path="url(#clip080)" d="M40.7191 731.651 L40.7191 725.762 L69.9695 725.762 L54.5963 708.288 L54.5963 700.809 L71.2745 719.715 L90.2443 700.013 L90.2443 707.652 L72.8341 725.762 L90.2443 725.762 L90.2443 731.651 L40.7191 731.651 Z" fill="#000000" fill-rule="evenodd" fill-opacity="1" /><path clip-path="url(#clip082)" d="
M422.682 2102.37 L759.292 2102.37 L1095.9 2102.37 L1432.51 2102.37 L1769.12 2102.37 L2105.73 2102.37 L2442.34 2102.37 L2778.95 2102.37 L3115.56 2102.37 L3452.17 2102.37 
  L3788.78 2102.37 L3788.78 919.534 L3452.17 615.566 L3115.56 1391.86 L2778.95 1282.36 L2442.34 1122.49 L2105.73 1491.12 L1769.12 1522.81 L1432.51 1922.11 L1095.9 1547.96 
  L759.292 1934.01 L422.682 1579.35  Z
  " fill="#0000ff" fill-rule="evenodd" fill-opacity="0.15"/>
<polyline clip-path="url(#clip082)" style="stroke:#0000ff; stroke-linecap:butt; stroke-linejoin:round; stroke-width:4; stroke-opacity:0.15; fill:none" points="
  422.682,2102.37 759.292,2102.37 1095.9,2102.37 1432.51,2102.37 1769.12,2102.37 2105.73,2102.37 2442.34,2102.37 2778.95,2102.37 3115.56,2102.37 3452.17,2102.37 
  3788.78,2102.37 
  "/>
<polyline clip-path="url(#clip082)" style="stroke:#0000ff; stroke-linecap:butt; stroke-linejoin:round; stroke-width:4; stroke-opacity:1; fill:none" points="
  422.682,1947.97 759.292,2018.04 1095.9,1976.63 1432.51,2046.97 1769.12,1846.54 2105.73,1895.36 2442.34,1724.67 2778.95,1875.73 3115.56,1874.79 3452.17,1695.02 
  3788.78,1699.43 
  "/>
<polyline clip-path="url(#clip082)" style="stroke:#3da44d; stroke-linecap:butt; stroke-linejoin:round; stroke-width:4; stroke-opacity:1; fill:none" points="
  422.682,1430 759.292,1765.64 1095.9,1569.31 1432.51,1468.15 1769.12,1688.82 2105.73,1612.01 2442.34,1100.49 2778.95,1963.27 3115.56,969.811 3452.17,168.26 
  3788.78,725.351 
  "/>
<polyline clip-path="url(#clip082)" style="stroke:#c271d2; stroke-linecap:butt; stroke-linejoin:round; stroke-width:4; stroke-opacity:1; fill:none" points="
  422.682,2102.37 759.292,2102.37 1095.9,2068.12 1432.51,1796.13 1769.12,2102.37 2105.73,2102.37 2442.34,2102.37 2778.95,2102.37 3115.56,2102.37 3452.17,1930.73 
  3788.78,1874.33 
  "/>
<path clip-path="url(#clip080)" d="
M440.634 437.775 L1398.87 437.775 L1398.87 178.575 L440.634 178.575  Z
  " fill="#ffffff" fill-rule="evenodd" fill-opacity="1"/>
<polyline clip-path="url(#clip080)" style="stroke:#000000; stroke-linecap:butt; stroke-linejoin:round; stroke-width:4; stroke-opacity:1; fill:none" points="
  440.634,437.775 1398.87,437.775 1398.87,178.575 440.634,178.575 440.634,437.775 
  "/>
<path clip-path="url(#clip080)" d="
M480.28 251.151 L718.15 251.151 L718.15 209.679 L480.28 209.679 L480.28 251.151  Z
  " fill="#0000ff" fill-rule="evenodd" fill-opacity="0.15"/>
<polyline clip-path="url(#clip080)" style="stroke:#0000ff; stroke-linecap:butt; stroke-linejoin:round; stroke-width:4; stroke-opacity:0.15; fill:none" points="
  480.28,209.679 718.15,209.679 
  "/>
<path clip-path="url(#clip080)" d="M758.467 243.76 L766.106 243.76 L766.106 217.394 L757.796 219.061 L757.796 214.802 L766.06 213.135 L770.735 213.135 L770.735 243.76 L778.374 243.76 L778.374 247.695 L758.467 247.695 L758.467 243.76 Z" fill="#000000" fill-rule="evenodd" fill-opacity="1" /><path clip-path="url(#clip080)" d="M797.819 216.214 Q794.208 216.214 792.379 219.778 Q790.573 223.32 790.573 230.45 Q790.573 237.556 792.379 241.121 Q794.208 244.662 797.819 244.662 Q801.453 244.662 803.258 241.121 Q805.087 237.556 805.087 230.45 Q805.087 223.32 803.258 219.778 Q801.453 216.214 797.819 216.214 M797.819 212.51 Q803.629 212.51 806.684 217.116 Q809.763 221.7 809.763 230.45 Q809.763 239.176 806.684 243.783 Q803.629 248.366 797.819 248.366 Q792.008 248.366 788.93 243.783 Q785.874 239.176 785.874 230.45 Q785.874 221.7 788.93 217.116 Q792.008 212.51 797.819 212.51 Z" fill="#000000" fill-rule="evenodd" fill-opacity="1" /><path clip-path="url(#clip080)" d="M821.592 214.408 L821.592 221.769 L830.365 221.769 L830.365 225.079 L821.592 225.079 L821.592 239.153 Q821.592 242.325 822.448 243.227 Q823.328 244.13 825.99 244.13 L830.365 244.13 L830.365 247.695 L825.99 247.695 Q821.059 247.695 819.184 245.866 Q817.309 244.014 817.309 239.153 L817.309 225.079 L814.184 225.079 L814.184 221.769 L817.309 221.769 L817.309 214.408 L821.592 214.408 Z" fill="#000000" fill-rule="evenodd" fill-opacity="1" /><path clip-path="url(#clip080)" d="M857.517 232.047 L857.517 247.695 L853.258 247.695 L853.258 232.186 Q853.258 228.505 851.823 226.676 Q850.388 224.848 847.517 224.848 Q844.068 224.848 842.078 227.047 Q840.087 229.246 840.087 233.042 L840.087 247.695 L835.805 247.695 L835.805 211.677 L840.087 211.677 L840.087 225.797 Q841.615 223.459 843.675 222.301 Q845.758 221.144 848.466 221.144 Q852.934 221.144 855.226 223.922 Q857.517 226.676 857.517 232.047 Z" fill="#000000" fill-rule="evenodd" fill-opacity="1" /><path clip-path="url(#clip080)" d="M885.295 214.408 L885.295 221.769 L894.068 221.769 L894.068 225.079 L885.295 225.079 L885.295 239.153 Q885.295 242.325 886.151 243.227 Q887.031 244.13 889.693 244.13 L894.068 244.13 L894.068 247.695 L889.693 247.695 Q884.763 247.695 882.888 245.866 Q881.013 244.014 881.013 239.153 L881.013 225.079 L877.888 225.079 L877.888 221.769 L881.013 221.769 L881.013 214.408 L885.295 214.408 Z" fill="#000000" fill-rule="evenodd" fill-opacity="1" /><path clip-path="url(#clip080)" d="M909.716 224.755 Q906.29 224.755 904.3 227.44 Q902.309 230.102 902.309 234.755 Q902.309 239.408 904.276 242.093 Q906.267 244.755 909.716 244.755 Q913.119 244.755 915.11 242.07 Q917.1 239.385 917.1 234.755 Q917.1 230.149 915.11 227.463 Q913.119 224.755 909.716 224.755 M909.716 221.144 Q915.272 221.144 918.443 224.755 Q921.614 228.366 921.614 234.755 Q921.614 241.121 918.443 244.755 Q915.272 248.366 909.716 248.366 Q904.137 248.366 900.966 244.755 Q897.818 241.121 897.818 234.755 Q897.818 228.366 900.966 224.755 Q904.137 221.144 909.716 221.144 Z" fill="#000000" fill-rule="evenodd" fill-opacity="1" /><path clip-path="url(#clip080)" d="M944.484 246.977 L944.484 242.718 Q946.244 243.551 948.049 243.991 Q949.855 244.431 951.591 244.431 Q956.221 244.431 958.651 241.329 Q961.105 238.204 961.452 231.862 Q960.109 233.852 958.049 234.917 Q955.989 235.982 953.489 235.982 Q948.304 235.982 945.272 232.857 Q942.262 229.709 942.262 224.269 Q942.262 218.945 945.41 215.727 Q948.559 212.51 953.79 212.51 Q959.785 212.51 962.933 217.116 Q966.105 221.7 966.105 230.45 Q966.105 238.621 962.216 243.505 Q958.35 248.366 951.799 248.366 Q950.04 248.366 948.234 248.019 Q946.429 247.672 944.484 246.977 M953.79 232.325 Q956.938 232.325 958.767 230.172 Q960.619 228.019 960.619 224.269 Q960.619 220.542 958.767 218.389 Q956.938 216.214 953.79 216.214 Q950.642 216.214 948.79 218.389 Q946.961 220.542 946.961 224.269 Q946.961 228.019 948.79 230.172 Q950.642 232.325 953.79 232.325 Z" fill="#000000" fill-rule="evenodd" fill-opacity="1" /><path clip-path="url(#clip080)" d="M984.507 216.214 Q980.896 216.214 979.068 219.778 Q977.262 223.32 977.262 230.45 Q977.262 237.556 979.068 241.121 Q980.896 244.662 984.507 244.662 Q988.142 244.662 989.947 241.121 Q991.776 237.556 991.776 230.45 Q991.776 223.32 989.947 219.778 Q988.142 216.214 984.507 216.214 M984.507 212.51 Q990.318 212.51 993.373 217.116 Q996.452 221.7 996.452 230.45 Q996.452 239.176 993.373 243.783 Q990.318 248.366 984.507 248.366 Q978.697 248.366 975.619 243.783 Q972.563 239.176 972.563 230.45 Q972.563 221.7 975.619 217.116 Q978.697 212.51 984.507 212.51 Z" fill="#000000" fill-rule="evenodd" fill-opacity="1" /><path clip-path="url(#clip080)" d="M1008.28 214.408 L1008.28 221.769 L1017.05 221.769 L1017.05 225.079 L1008.28 225.079 L1008.28 239.153 Q1008.28 242.325 1009.14 243.227 Q1010.02 244.13 1012.68 244.13 L1017.05 244.13 L1017.05 247.695 L1012.68 247.695 Q1007.75 247.695 1005.87 245.866 Q1004 244.014 1004 239.153 L1004 225.079 L1000.87 225.079 L1000.87 221.769 L1004 221.769 L1004 214.408 L1008.28 214.408 Z" fill="#000000" fill-rule="evenodd" fill-opacity="1" /><path clip-path="url(#clip080)" d="M1044.21 232.047 L1044.21 247.695 L1039.95 247.695 L1039.95 232.186 Q1039.95 228.505 1038.51 226.676 Q1037.08 224.848 1034.21 224.848 Q1030.76 224.848 1028.77 227.047 Q1026.78 229.246 1026.78 233.042 L1026.78 247.695 L1022.49 247.695 L1022.49 211.677 L1026.78 211.677 L1026.78 225.797 Q1028.3 223.459 1030.36 222.301 Q1032.45 221.144 1035.16 221.144 Q1039.62 221.144 1041.91 223.922 Q1044.21 226.676 1044.21 232.047 Z" fill="#000000" fill-rule="evenodd" fill-opacity="1" /><path clip-path="url(#clip080)" d="M1072.63 216.977 L1072.63 229.963 L1078.51 229.963 Q1081.78 229.963 1083.56 228.274 Q1085.34 226.584 1085.34 223.459 Q1085.34 220.357 1083.56 218.667 Q1081.78 216.977 1078.51 216.977 L1072.63 216.977 M1067.96 213.135 L1078.51 213.135 Q1084.32 213.135 1087.28 215.774 Q1090.27 218.389 1090.27 223.459 Q1090.27 228.575 1087.28 231.19 Q1084.32 233.806 1078.51 233.806 L1072.63 233.806 L1072.63 247.695 L1067.96 247.695 L1067.96 213.135 Z" fill="#000000" fill-rule="evenodd" fill-opacity="1" /><path clip-path="url(#clip080)" d="M1116.84 233.667 L1116.84 235.75 L1097.26 235.75 Q1097.54 240.149 1099.9 242.463 Q1102.28 244.755 1106.52 244.755 Q1108.97 244.755 1111.27 244.153 Q1113.58 243.551 1115.85 242.348 L1115.85 246.375 Q1113.56 247.348 1111.15 247.857 Q1108.74 248.366 1106.27 248.366 Q1100.06 248.366 1096.43 244.755 Q1092.82 241.144 1092.82 234.987 Q1092.82 228.621 1096.24 224.894 Q1099.69 221.144 1105.53 221.144 Q1110.76 221.144 1113.79 224.524 Q1116.84 227.88 1116.84 233.667 M1112.59 232.417 Q1112.54 228.922 1110.62 226.839 Q1108.72 224.755 1105.57 224.755 Q1102.01 224.755 1099.85 226.769 Q1097.72 228.783 1097.4 232.44 L1112.59 232.417 Z" fill="#000000" fill-rule="evenodd" fill-opacity="1" /><path clip-path="url(#clip080)" d="M1138.86 225.751 Q1138.14 225.334 1137.28 225.149 Q1136.45 224.94 1135.43 224.94 Q1131.82 224.94 1129.88 227.301 Q1127.96 229.639 1127.96 234.038 L1127.96 247.695 L1123.67 247.695 L1123.67 221.769 L1127.96 221.769 L1127.96 225.797 Q1129.3 223.436 1131.45 222.301 Q1133.6 221.144 1136.68 221.144 Q1137.12 221.144 1137.65 221.214 Q1138.19 221.26 1138.84 221.376 L1138.86 225.751 Z" fill="#000000" fill-rule="evenodd" fill-opacity="1" /><path clip-path="url(#clip080)" d="M1160.94 222.764 L1160.94 226.746 Q1159.14 225.751 1157.31 225.264 Q1155.5 224.755 1153.65 224.755 Q1149.51 224.755 1147.21 227.394 Q1144.92 230.01 1144.92 234.755 Q1144.92 239.5 1147.21 242.139 Q1149.51 244.755 1153.65 244.755 Q1155.5 244.755 1157.31 244.269 Q1159.14 243.76 1160.94 242.764 L1160.94 246.7 Q1159.16 247.533 1157.24 247.949 Q1155.34 248.366 1153.19 248.366 Q1147.33 248.366 1143.88 244.686 Q1140.43 241.005 1140.43 234.755 Q1140.43 228.413 1143.9 224.778 Q1147.4 221.144 1153.46 221.144 Q1155.43 221.144 1157.31 221.561 Q1159.18 221.954 1160.94 222.764 Z" fill="#000000" fill-rule="evenodd" fill-opacity="1" /><path clip-path="url(#clip080)" d="M1190.52 233.667 L1190.52 235.75 L1170.94 235.75 Q1171.22 240.149 1173.58 242.463 Q1175.96 244.755 1180.2 244.755 Q1182.65 244.755 1184.95 244.153 Q1187.26 243.551 1189.53 242.348 L1189.53 246.375 Q1187.24 247.348 1184.83 247.857 Q1182.42 248.366 1179.95 248.366 Q1173.74 248.366 1170.11 244.755 Q1166.5 241.144 1166.5 234.987 Q1166.5 228.621 1169.92 224.894 Q1173.37 221.144 1179.21 221.144 Q1184.44 221.144 1187.47 224.524 Q1190.52 227.88 1190.52 233.667 M1186.27 232.417 Q1186.22 228.922 1184.3 226.839 Q1182.4 224.755 1179.25 224.755 Q1175.69 224.755 1173.53 226.769 Q1171.4 228.783 1171.08 232.44 L1186.27 232.417 Z" fill="#000000" fill-rule="evenodd" fill-opacity="1" /><path clip-path="url(#clip080)" d="M1219.07 232.047 L1219.07 247.695 L1214.81 247.695 L1214.81 232.186 Q1214.81 228.505 1213.37 226.676 Q1211.94 224.848 1209.07 224.848 Q1205.62 224.848 1203.63 227.047 Q1201.64 229.246 1201.64 233.042 L1201.64 247.695 L1197.35 247.695 L1197.35 221.769 L1201.64 221.769 L1201.64 225.797 Q1203.16 223.459 1205.22 222.301 Q1207.31 221.144 1210.02 221.144 Q1214.48 221.144 1216.77 223.922 Q1219.07 226.676 1219.07 232.047 Z" fill="#000000" fill-rule="evenodd" fill-opacity="1" /><path clip-path="url(#clip080)" d="M1231.77 214.408 L1231.77 221.769 L1240.55 221.769 L1240.55 225.079 L1231.77 225.079 L1231.77 239.153 Q1231.77 242.325 1232.63 243.227 Q1233.51 244.13 1236.17 244.13 L1240.55 244.13 L1240.55 247.695 L1236.17 247.695 Q1231.24 247.695 1229.37 245.866 Q1227.49 244.014 1227.49 239.153 L1227.49 225.079 L1224.37 225.079 L1224.37 221.769 L1227.49 221.769 L1227.49 214.408 L1231.77 214.408 Z" fill="#000000" fill-rule="evenodd" fill-opacity="1" /><path clip-path="url(#clip080)" d="M1246.15 221.769 L1250.41 221.769 L1250.41 247.695 L1246.15 247.695 L1246.15 221.769 M1246.15 211.677 L1250.41 211.677 L1250.41 217.07 L1246.15 217.07 L1246.15 211.677 Z" fill="#000000" fill-rule="evenodd" fill-opacity="1" /><path clip-path="url(#clip080)" d="M1259.32 211.677 L1263.58 211.677 L1263.58 247.695 L1259.32 247.695 L1259.32 211.677 Z" fill="#000000" fill-rule="evenodd" fill-opacity="1" /><path clip-path="url(#clip080)" d="M1294.67 233.667 L1294.67 235.75 L1275.08 235.75 Q1275.36 240.149 1277.72 242.463 Q1280.11 244.755 1284.34 244.755 Q1286.8 244.755 1289.09 244.153 Q1291.4 243.551 1293.67 242.348 L1293.67 246.375 Q1291.38 247.348 1288.97 247.857 Q1286.57 248.366 1284.09 248.366 Q1277.89 248.366 1274.25 244.755 Q1270.64 241.144 1270.64 234.987 Q1270.64 228.621 1274.07 224.894 Q1277.52 221.144 1283.35 221.144 Q1288.58 221.144 1291.61 224.524 Q1294.67 227.88 1294.67 233.667 M1290.41 232.417 Q1290.36 228.922 1288.44 226.839 Q1286.54 224.755 1283.39 224.755 Q1279.83 224.755 1277.68 226.769 Q1275.55 228.783 1275.22 232.44 L1290.41 232.417 Z" fill="#000000" fill-rule="evenodd" fill-opacity="1" /><path clip-path="url(#clip080)" d="M1318.19 222.533 L1318.19 226.561 Q1316.38 225.635 1314.44 225.172 Q1312.49 224.709 1310.41 224.709 Q1307.24 224.709 1305.64 225.681 Q1304.07 226.653 1304.07 228.598 Q1304.07 230.079 1305.2 230.936 Q1306.33 231.769 1309.76 232.533 L1311.22 232.857 Q1315.76 233.829 1317.65 235.612 Q1319.58 237.371 1319.58 240.542 Q1319.58 244.153 1316.7 246.26 Q1313.86 248.366 1308.86 248.366 Q1306.77 248.366 1304.51 247.949 Q1302.26 247.556 1299.76 246.746 L1299.76 242.348 Q1302.12 243.575 1304.41 244.2 Q1306.7 244.801 1308.95 244.801 Q1311.96 244.801 1313.58 243.783 Q1315.2 242.741 1315.2 240.866 Q1315.2 239.13 1314.02 238.204 Q1312.86 237.278 1308.9 236.422 L1307.42 236.075 Q1303.46 235.241 1301.7 233.528 Q1299.95 231.792 1299.95 228.783 Q1299.95 225.126 1302.54 223.135 Q1305.13 221.144 1309.9 221.144 Q1312.26 221.144 1314.34 221.491 Q1316.43 221.839 1318.19 222.533 Z" fill="#000000" fill-rule="evenodd" fill-opacity="1" /><polyline clip-path="url(#clip080)" style="stroke:#0000ff; stroke-linecap:butt; stroke-linejoin:round; stroke-width:4; stroke-opacity:1; fill:none" points="
  480.28,282.255 718.15,282.255 
  "/>
<path clip-path="url(#clip080)" d="M757.796 264.975 L764.763 264.975 L773.583 288.493 L782.448 264.975 L789.416 264.975 L789.416 299.535 L784.856 299.535 L784.856 269.188 L775.944 292.891 L771.245 292.891 L762.333 269.188 L762.333 299.535 L757.796 299.535 L757.796 264.975 Z" fill="#000000" fill-rule="evenodd" fill-opacity="1" /><path clip-path="url(#clip080)" d="M820.689 285.507 L820.689 287.59 L801.106 287.59 Q801.383 291.989 803.744 294.303 Q806.129 296.595 810.365 296.595 Q812.819 296.595 815.11 295.993 Q817.425 295.391 819.693 294.188 L819.693 298.215 Q817.402 299.188 814.994 299.697 Q812.587 300.206 810.11 300.206 Q803.907 300.206 800.272 296.595 Q796.661 292.984 796.661 286.827 Q796.661 280.461 800.087 276.734 Q803.536 272.984 809.369 272.984 Q814.601 272.984 817.633 276.364 Q820.689 279.72 820.689 285.507 M816.43 284.257 Q816.383 280.762 814.462 278.679 Q812.564 276.595 809.416 276.595 Q805.851 276.595 803.698 278.609 Q801.569 280.623 801.245 284.28 L816.43 284.257 Z" fill="#000000" fill-rule="evenodd" fill-opacity="1" /><path clip-path="url(#clip080)" d="M839.462 286.503 Q834.3 286.503 832.309 287.683 Q830.318 288.864 830.318 291.711 Q830.318 293.979 831.8 295.322 Q833.305 296.641 835.874 296.641 Q839.416 296.641 841.545 294.141 Q843.698 291.618 843.698 287.452 L843.698 286.503 L839.462 286.503 M847.957 284.743 L847.957 299.535 L843.698 299.535 L843.698 295.6 Q842.24 297.961 840.064 299.095 Q837.888 300.206 834.74 300.206 Q830.758 300.206 828.397 297.984 Q826.059 295.739 826.059 291.989 Q826.059 287.614 828.976 285.391 Q831.916 283.169 837.726 283.169 L843.698 283.169 L843.698 282.753 Q843.698 279.813 841.754 278.216 Q839.832 276.595 836.337 276.595 Q834.115 276.595 832.008 277.128 Q829.902 277.66 827.957 278.725 L827.957 274.79 Q830.295 273.887 832.494 273.447 Q834.693 272.984 836.777 272.984 Q842.402 272.984 845.179 275.901 Q847.957 278.817 847.957 284.743 Z" fill="#000000" fill-rule="evenodd" fill-opacity="1" /><path clip-path="url(#clip080)" d="M878.281 283.887 L878.281 299.535 L874.022 299.535 L874.022 284.026 Q874.022 280.345 872.587 278.516 Q871.152 276.688 868.281 276.688 Q864.832 276.688 862.841 278.887 Q860.851 281.086 860.851 284.882 L860.851 299.535 L856.568 299.535 L856.568 273.609 L860.851 273.609 L860.851 277.637 Q862.378 275.299 864.439 274.141 Q866.522 272.984 869.23 272.984 Q873.698 272.984 875.989 275.762 Q878.281 278.516 878.281 283.887 Z" fill="#000000" fill-rule="evenodd" fill-opacity="1" /><polyline clip-path="url(#clip080)" style="stroke:#3da44d; stroke-linecap:butt; stroke-linejoin:round; stroke-width:4; stroke-opacity:1; fill:none" points="
  480.28,334.095 718.15,334.095 
  "/>
<path clip-path="url(#clip080)" d="M780.041 317.949 L780.041 322.509 Q777.379 321.236 775.018 320.611 Q772.657 319.986 770.458 319.986 Q766.638 319.986 764.555 321.468 Q762.495 322.949 762.495 325.681 Q762.495 327.972 763.86 329.153 Q765.249 330.31 769.092 331.028 L771.916 331.606 Q777.147 332.602 779.624 335.125 Q782.124 337.625 782.124 341.838 Q782.124 346.861 778.745 349.454 Q775.388 352.046 768.884 352.046 Q766.43 352.046 763.652 351.491 Q760.897 350.935 757.935 349.847 L757.935 345.032 Q760.782 346.63 763.513 347.44 Q766.245 348.25 768.884 348.25 Q772.888 348.25 775.064 346.676 Q777.24 345.102 777.24 342.185 Q777.24 339.639 775.666 338.204 Q774.115 336.768 770.55 336.051 L767.703 335.495 Q762.472 334.454 760.134 332.231 Q757.796 330.009 757.796 326.051 Q757.796 321.468 761.013 318.829 Q764.254 316.19 769.925 316.19 Q772.356 316.19 774.879 316.63 Q777.402 317.069 780.041 317.949 Z" fill="#000000" fill-rule="evenodd" fill-opacity="1" /><path clip-path="url(#clip080)" d="M811.406 337.347 L811.406 339.43 L791.823 339.43 Q792.101 343.829 794.462 346.143 Q796.846 348.435 801.082 348.435 Q803.536 348.435 805.828 347.833 Q808.143 347.231 810.411 346.028 L810.411 350.055 Q808.119 351.028 805.712 351.537 Q803.305 352.046 800.828 352.046 Q794.624 352.046 790.99 348.435 Q787.379 344.824 787.379 338.667 Q787.379 332.301 790.805 328.574 Q794.254 324.824 800.087 324.824 Q805.319 324.824 808.351 328.204 Q811.406 331.56 811.406 337.347 M807.147 336.097 Q807.101 332.602 805.18 330.519 Q803.282 328.435 800.133 328.435 Q796.569 328.435 794.416 330.449 Q792.286 332.463 791.962 336.12 L807.147 336.097 Z" fill="#000000" fill-rule="evenodd" fill-opacity="1" /><path clip-path="url(#clip080)" d="M839.948 335.727 L839.948 351.375 L835.689 351.375 L835.689 335.866 Q835.689 332.185 834.254 330.356 Q832.818 328.528 829.948 328.528 Q826.499 328.528 824.508 330.727 Q822.518 332.926 822.518 336.722 L822.518 351.375 L818.235 351.375 L818.235 325.449 L822.518 325.449 L822.518 329.477 Q824.045 327.139 826.105 325.981 Q828.189 324.824 830.897 324.824 Q835.365 324.824 837.656 327.602 Q839.948 330.356 839.948 335.727 Z" fill="#000000" fill-rule="evenodd" fill-opacity="1" /><path clip-path="url(#clip080)" d="M865.503 338.111 Q865.503 333.481 863.582 330.935 Q861.684 328.389 858.235 328.389 Q854.809 328.389 852.888 330.935 Q850.99 333.481 850.99 338.111 Q850.99 342.718 852.888 345.264 Q854.809 347.81 858.235 347.81 Q861.684 347.81 863.582 345.264 Q865.503 342.718 865.503 338.111 M869.763 348.157 Q869.763 354.778 866.823 357.995 Q863.883 361.236 857.818 361.236 Q855.573 361.236 853.582 360.889 Q851.591 360.565 849.716 359.87 L849.716 355.727 Q851.591 356.745 853.42 357.231 Q855.249 357.717 857.147 357.717 Q861.337 357.717 863.42 355.518 Q865.503 353.342 865.503 348.921 L865.503 346.815 Q864.184 349.106 862.124 350.241 Q860.064 351.375 857.193 351.375 Q852.425 351.375 849.508 347.741 Q846.591 344.106 846.591 338.111 Q846.591 332.093 849.508 328.458 Q852.425 324.824 857.193 324.824 Q860.064 324.824 862.124 325.958 Q864.184 327.093 865.503 329.384 L865.503 325.449 L869.763 325.449 L869.763 348.157 Z" fill="#000000" fill-rule="evenodd" fill-opacity="1" /><path clip-path="url(#clip080)" d="M878.374 315.357 L882.656 315.357 L882.656 336.63 L895.364 325.449 L900.804 325.449 L887.054 337.579 L901.383 351.375 L895.827 351.375 L882.656 338.713 L882.656 351.375 L878.374 351.375 L878.374 315.357 Z" fill="#000000" fill-rule="evenodd" fill-opacity="1" /><path clip-path="url(#clip080)" d="M916.938 338.343 Q911.776 338.343 909.786 339.523 Q907.795 340.704 907.795 343.551 Q907.795 345.819 909.276 347.162 Q910.781 348.481 913.35 348.481 Q916.892 348.481 919.022 345.981 Q921.174 343.458 921.174 339.292 L921.174 338.343 L916.938 338.343 M925.434 336.583 L925.434 351.375 L921.174 351.375 L921.174 347.44 Q919.716 349.801 917.54 350.935 Q915.364 352.046 912.216 352.046 Q908.235 352.046 905.874 349.824 Q903.536 347.579 903.536 343.829 Q903.536 339.454 906.452 337.231 Q909.392 335.009 915.202 335.009 L921.174 335.009 L921.174 334.593 Q921.174 331.653 919.23 330.056 Q917.309 328.435 913.813 328.435 Q911.591 328.435 909.485 328.968 Q907.378 329.5 905.434 330.565 L905.434 326.63 Q907.772 325.727 909.971 325.287 Q912.17 324.824 914.253 324.824 Q919.878 324.824 922.656 327.741 Q925.434 330.657 925.434 336.583 Z" fill="#000000" fill-rule="evenodd" fill-opacity="1" /><path clip-path="url(#clip080)" d="M955.758 335.727 L955.758 351.375 L951.498 351.375 L951.498 335.866 Q951.498 332.185 950.063 330.356 Q948.628 328.528 945.758 328.528 Q942.309 328.528 940.318 330.727 Q938.327 332.926 938.327 336.722 L938.327 351.375 L934.045 351.375 L934.045 325.449 L938.327 325.449 L938.327 329.477 Q939.855 327.139 941.915 325.981 Q943.998 324.824 946.707 324.824 Q951.174 324.824 953.466 327.602 Q955.758 330.356 955.758 335.727 Z" fill="#000000" fill-rule="evenodd" fill-opacity="1" /><path clip-path="url(#clip080)" d="M981.313 338.111 Q981.313 333.481 979.392 330.935 Q977.494 328.389 974.045 328.389 Q970.619 328.389 968.697 330.935 Q966.799 333.481 966.799 338.111 Q966.799 342.718 968.697 345.264 Q970.619 347.81 974.045 347.81 Q977.494 347.81 979.392 345.264 Q981.313 342.718 981.313 338.111 M985.572 348.157 Q985.572 354.778 982.632 357.995 Q979.693 361.236 973.628 361.236 Q971.382 361.236 969.392 360.889 Q967.401 360.565 965.526 359.87 L965.526 355.727 Q967.401 356.745 969.23 357.231 Q971.058 357.717 972.957 357.717 Q977.146 357.717 979.23 355.518 Q981.313 353.342 981.313 348.921 L981.313 346.815 Q979.994 349.106 977.933 350.241 Q975.873 351.375 973.003 351.375 Q968.234 351.375 965.318 347.741 Q962.401 344.106 962.401 338.111 Q962.401 332.093 965.318 328.458 Q968.234 324.824 973.003 324.824 Q975.873 324.824 977.933 325.958 Q979.994 327.093 981.313 329.384 L981.313 325.449 L985.572 325.449 L985.572 348.157 Z" fill="#000000" fill-rule="evenodd" fill-opacity="1" /><polyline clip-path="url(#clip080)" style="stroke:#c271d2; stroke-linecap:butt; stroke-linejoin:round; stroke-width:4; stroke-opacity:1; fill:none" points="
  480.28,385.935 718.15,385.935 
  "/>
<path clip-path="url(#clip080)" d="M762.472 386.71 L762.472 399.372 L769.972 399.372 Q773.745 399.372 775.55 397.821 Q777.379 396.247 777.379 393.03 Q777.379 389.789 775.55 388.261 Q773.745 386.71 769.972 386.71 L762.472 386.71 M762.472 372.497 L762.472 382.914 L769.393 382.914 Q772.819 382.914 774.485 381.641 Q776.175 380.345 776.175 377.706 Q776.175 375.09 774.485 373.794 Q772.819 372.497 769.393 372.497 L762.472 372.497 M757.796 368.655 L769.74 368.655 Q775.087 368.655 777.981 370.877 Q780.874 373.099 780.874 377.196 Q780.874 380.368 779.393 382.243 Q777.911 384.118 775.041 384.581 Q778.49 385.321 780.388 387.683 Q782.309 390.02 782.309 393.539 Q782.309 398.169 779.161 400.692 Q776.013 403.215 770.203 403.215 L757.796 403.215 L757.796 368.655 Z" fill="#000000" fill-rule="evenodd" fill-opacity="1" /><path clip-path="url(#clip080)" d="M812.309 389.187 L812.309 391.27 L792.726 391.27 Q793.004 395.669 795.365 397.983 Q797.749 400.275 801.985 400.275 Q804.439 400.275 806.731 399.673 Q809.045 399.071 811.314 397.868 L811.314 401.895 Q809.022 402.868 806.615 403.377 Q804.207 403.886 801.731 403.886 Q795.527 403.886 791.893 400.275 Q788.282 396.664 788.282 390.507 Q788.282 384.141 791.708 380.414 Q795.157 376.664 800.99 376.664 Q806.221 376.664 809.254 380.044 Q812.309 383.4 812.309 389.187 M808.05 387.937 Q808.004 384.442 806.082 382.359 Q804.184 380.275 801.036 380.275 Q797.471 380.275 795.319 382.289 Q793.189 384.303 792.865 387.96 L808.05 387.937 Z" fill="#000000" fill-rule="evenodd" fill-opacity="1" /><path clip-path="url(#clip080)" d="M836.36 381.224 L836.36 367.197 L840.619 367.197 L840.619 403.215 L836.36 403.215 L836.36 399.326 Q835.017 401.641 832.957 402.775 Q830.92 403.886 828.05 403.886 Q823.351 403.886 820.388 400.136 Q817.448 396.386 817.448 390.275 Q817.448 384.164 820.388 380.414 Q823.351 376.664 828.05 376.664 Q830.92 376.664 832.957 377.798 Q835.017 378.909 836.36 381.224 M821.846 390.275 Q821.846 394.974 823.768 397.659 Q825.712 400.321 829.092 400.321 Q832.471 400.321 834.416 397.659 Q836.36 394.974 836.36 390.275 Q836.36 385.576 834.416 382.914 Q832.471 380.229 829.092 380.229 Q825.712 380.229 823.768 382.914 Q821.846 385.576 821.846 390.275 Z" fill="#000000" fill-rule="evenodd" fill-opacity="1" /><path clip-path="url(#clip080)" d="M859.439 380.275 Q856.013 380.275 854.022 382.96 Q852.031 385.622 852.031 390.275 Q852.031 394.928 853.999 397.613 Q855.99 400.275 859.439 400.275 Q862.841 400.275 864.832 397.59 Q866.823 394.905 866.823 390.275 Q866.823 385.669 864.832 382.983 Q862.841 380.275 859.439 380.275 M859.439 376.664 Q864.994 376.664 868.165 380.275 Q871.337 383.886 871.337 390.275 Q871.337 396.641 868.165 400.275 Q864.994 403.886 859.439 403.886 Q853.86 403.886 850.689 400.275 Q847.541 396.641 847.541 390.275 Q847.541 383.886 850.689 380.275 Q853.86 376.664 859.439 376.664 Z" fill="#000000" fill-rule="evenodd" fill-opacity="1" /><path clip-path="url(#clip080)" d="M878.235 367.197 L882.517 367.197 L882.517 388.47 L895.225 377.289 L900.665 377.289 L886.915 389.419 L901.244 403.215 L895.688 403.215 L882.517 390.553 L882.517 403.215 L878.235 403.215 L878.235 367.197 Z" fill="#000000" fill-rule="evenodd" fill-opacity="1" /></svg>
