<?xml version="1.0" encoding="utf-8"?>
<svg xmlns="http://www.w3.org/2000/svg" xmlns:xlink="http://www.w3.org/1999/xlink" width="1000" height="600" viewBox="0 0 4000 2400">
<defs>
  <clipPath id="clip110">
    <rect x="0" y="0" width="4000" height="2400"/>
  </clipPath>
</defs>
<path clip-path="url(#clip110)" d="
M0 2400 L4000 2400 L4000 0 L0 0  Z
  " fill="#ffffff" fill-rule="evenodd" fill-opacity="1"/>
<defs>
  <clipPath id="clip111">
    <rect x="800" y="0" width="2801" height="2400"/>
  </clipPath>
</defs>
<path clip-path="url(#clip110)" d="
M279.361 2160.4 L3889.76 2160.4 L3889.76 180.416 L279.361 180.416  Z
  " fill="#ffffff" fill-rule="evenodd" fill-opacity="1"/>
<defs>
  <clipPath id="clip112">
    <rect x="279" y="180" width="3611" height="1981"/>
  </clipPath>
</defs>
<polyline clip-path="url(#clip112)" style="stroke:#000000; stroke-linecap:round; stroke-linejoin:round; stroke-width:2; stroke-opacity:0.1; fill:none" points="
  799.264,2160.4 799.264,180.416 
  "/>
<polyline clip-path="url(#clip112)" style="stroke:#000000; stroke-linecap:round; stroke-linejoin:round; stroke-width:2; stroke-opacity:0.1; fill:none" points="
  1441.91,2160.4 1441.91,180.416 
  "/>
<polyline clip-path="url(#clip112)" style="stroke:#000000; stroke-linecap:round; stroke-linejoin:round; stroke-width:2; stroke-opacity:0.1; fill:none" points="
  2084.56,2160.4 2084.56,180.416 
  "/>
<polyline clip-path="url(#clip112)" style="stroke:#000000; stroke-linecap:round; stroke-linejoin:round; stroke-width:2; stroke-opacity:0.1; fill:none" points="
  2727.21,2160.4 2727.21,180.416 
  "/>
<polyline clip-path="url(#clip112)" style="stroke:#000000; stroke-linecap:round; stroke-linejoin:round; stroke-width:2; stroke-opacity:0.1; fill:none" points="
  3369.86,2160.4 3369.86,180.416 
  "/>
<polyline clip-path="url(#clip110)" style="stroke:#000000; stroke-linecap:round; stroke-linejoin:round; stroke-width:4; stroke-opacity:1; fill:none" points="
  279.361,2160.4 3889.76,2160.4 
  "/>
<polyline clip-path="url(#clip110)" style="stroke:#000000; stroke-linecap:round; stroke-linejoin:round; stroke-width:4; stroke-opacity:1; fill:none" points="
  799.264,2160.4 799.264,2141.5 
  "/>
<polyline clip-path="url(#clip110)" style="stroke:#000000; stroke-linecap:round; stroke-linejoin:round; stroke-width:4; stroke-opacity:1; fill:none" points="
  1441.91,2160.4 1441.91,2141.5 
  "/>
<polyline clip-path="url(#clip110)" style="stroke:#000000; stroke-linecap:round; stroke-linejoin:round; stroke-width:4; stroke-opacity:1; fill:none" points="
  2084.56,2160.4 2084.56,2141.5 
  "/>
<polyline clip-path="url(#clip110)" style="stroke:#000000; stroke-linecap:round; stroke-linejoin:round; stroke-width:4; stroke-opacity:1; fill:none" points="
  2727.21,2160.4 2727.21,2141.5 
  "/>
<polyline clip-path="url(#clip110)" style="stroke:#000000; stroke-linecap:round; stroke-linejoin:round; stroke-width:4; stroke-opacity:1; fill:none" points="
  3369.86,2160.4 3369.86,2141.5 
  "/>
<path clip-path="url(#clip110)" d="M769.207 2218.77 L798.882 2218.77 L798.882 2222.7 L769.207 2222.7 L769.207 2218.77 Z" fill="#000000" fill-rule="evenodd" fill-opacity="1" /><path clip-path="url(#clip110)" d="M813.003 2231.66 L829.322 2231.66 L829.322 2235.6 L807.378 2235.6 L807.378 2231.66 Q810.04 2228.91 814.623 2224.28 Q819.229 2219.62 820.41 2218.28 Q822.655 2215.76 823.535 2214.02 Q824.438 2212.26 824.438 2210.57 Q824.438 2207.82 822.493 2206.08 Q820.572 2204.35 817.47 2204.35 Q815.271 2204.35 812.817 2205.11 Q810.387 2205.87 807.609 2207.42 L807.609 2202.7 Q810.433 2201.57 812.887 2200.99 Q815.341 2200.41 817.378 2200.41 Q822.748 2200.41 825.942 2203.1 Q829.137 2205.78 829.137 2210.27 Q829.137 2212.4 828.327 2214.32 Q827.54 2216.22 825.433 2218.81 Q824.854 2219.48 821.753 2222.7 Q818.651 2225.9 813.003 2231.66 Z" fill="#000000" fill-rule="evenodd" fill-opacity="1" /><path clip-path="url(#clip110)" d="M1411.67 2218.77 L1441.35 2218.77 L1441.35 2222.7 L1411.67 2222.7 L1411.67 2218.77 Z" fill="#000000" fill-rule="evenodd" fill-opacity="1" /><path clip-path="url(#clip110)" d="M1452.25 2231.66 L1459.89 2231.66 L1459.89 2205.29 L1451.58 2206.96 L1451.58 2202.7 L1459.84 2201.04 L1464.52 2201.04 L1464.52 2231.66 L1472.16 2231.66 L1472.16 2235.6 L1452.25 2235.6 L1452.25 2231.66 Z" fill="#000000" fill-rule="evenodd" fill-opacity="1" /><path clip-path="url(#clip110)" d="M2084.56 2204.11 Q2080.95 2204.11 2079.12 2207.68 Q2077.32 2211.22 2077.32 2218.35 Q2077.32 2225.46 2079.12 2229.02 Q2080.95 2232.56 2084.56 2232.56 Q2088.2 2232.56 2090 2229.02 Q2091.83 2225.46 2091.83 2218.35 Q2091.83 2211.22 2090 2207.68 Q2088.2 2204.11 2084.56 2204.11 M2084.56 2200.41 Q2090.37 2200.41 2093.43 2205.02 Q2096.51 2209.6 2096.51 2218.35 Q2096.51 2227.08 2093.43 2231.68 Q2090.37 2236.27 2084.56 2236.27 Q2078.75 2236.27 2075.67 2231.68 Q2072.62 2227.08 2072.62 2218.35 Q2072.62 2209.6 2075.67 2205.02 Q2078.75 2200.41 2084.56 2200.41 Z" fill="#000000" fill-rule="evenodd" fill-opacity="1" /><path clip-path="url(#clip110)" d="M2717.59 2231.66 L2725.23 2231.66 L2725.23 2205.29 L2716.92 2206.96 L2716.92 2202.7 L2725.19 2201.04 L2729.86 2201.04 L2729.86 2231.66 L2737.5 2231.66 L2737.5 2235.6 L2717.59 2235.6 L2717.59 2231.66 Z" fill="#000000" fill-rule="evenodd" fill-opacity="1" /><path clip-path="url(#clip110)" d="M3364.51 2231.66 L3380.83 2231.66 L3380.83 2235.6 L3358.89 2235.6 L3358.89 2231.66 Q3361.55 2228.91 3366.13 2224.28 Q3370.74 2219.62 3371.92 2218.28 Q3374.17 2215.76 3375.05 2214.02 Q3375.95 2212.26 3375.95 2210.57 Q3375.95 2207.82 3374 2206.08 Q3372.08 2204.35 3368.98 2204.35 Q3366.78 2204.35 3364.33 2205.11 Q3361.9 2205.87 3359.12 2207.42 L3359.12 2202.7 Q3361.94 2201.57 3364.4 2200.99 Q3366.85 2200.41 3368.89 2200.41 Q3374.26 2200.41 3377.45 2203.1 Q3380.65 2205.78 3380.65 2210.27 Q3380.65 2212.4 3379.84 2214.32 Q3379.05 2216.22 3376.94 2218.81 Q3376.37 2219.48 3373.26 2222.7 Q3370.16 2225.9 3364.51 2231.66 Z" fill="#000000" fill-rule="evenodd" fill-opacity="1" /><path clip-path="url(#clip110)" d="M1764.57 2281.74 L1771 2281.74 L1771 2323.85 L1794.14 2323.85 L1794.14 2329.26 L1764.57 2329.26 L1764.57 2281.74 Z" fill="#000000" fill-rule="evenodd" fill-opacity="1" /><path clip-path="url(#clip110)" d="M1813.3 2297.72 Q1808.59 2297.72 1805.86 2301.41 Q1803.12 2305.07 1803.12 2311.47 Q1803.12 2317.87 1805.82 2321.56 Q1808.56 2325.22 1813.3 2325.22 Q1817.98 2325.22 1820.72 2321.53 Q1823.46 2317.83 1823.46 2311.47 Q1823.46 2305.13 1820.72 2301.44 Q1817.98 2297.72 1813.3 2297.72 M1813.3 2292.75 Q1820.94 2292.75 1825.3 2297.72 Q1829.66 2302.68 1829.66 2311.47 Q1829.66 2320.22 1825.3 2325.22 Q1820.94 2330.18 1813.3 2330.18 Q1805.63 2330.18 1801.27 2325.22 Q1796.94 2320.22 1796.94 2311.47 Q1796.94 2302.68 1801.27 2297.72 Q1805.63 2292.75 1813.3 2292.75 Z" fill="#000000" fill-rule="evenodd" fill-opacity="1" /><path clip-path="url(#clip110)" d="M1862.83 2311.02 Q1862.83 2304.66 1860.19 2301.16 Q1857.58 2297.65 1852.83 2297.65 Q1848.12 2297.65 1845.48 2301.16 Q1842.87 2304.66 1842.87 2311.02 Q1842.87 2317.36 1845.48 2320.86 Q1848.12 2324.36 1852.83 2324.36 Q1857.58 2324.36 1860.19 2320.86 Q1862.83 2317.36 1862.83 2311.02 M1868.69 2324.84 Q1868.69 2333.94 1864.64 2338.36 Q1860.6 2342.82 1852.26 2342.82 Q1849.17 2342.82 1846.44 2342.34 Q1843.7 2341.9 1841.12 2340.94 L1841.12 2335.24 Q1843.7 2336.64 1846.21 2337.31 Q1848.73 2337.98 1851.34 2337.98 Q1857.1 2337.98 1859.96 2334.96 Q1862.83 2331.97 1862.83 2325.89 L1862.83 2322.99 Q1861.01 2326.14 1858.18 2327.7 Q1855.35 2329.26 1851.4 2329.26 Q1844.85 2329.26 1840.84 2324.26 Q1836.83 2319.27 1836.83 2311.02 Q1836.83 2302.75 1840.84 2297.75 Q1844.85 2292.75 1851.4 2292.75 Q1855.35 2292.75 1858.18 2294.31 Q1861.01 2295.87 1862.83 2299.02 L1862.83 2293.61 L1868.69 2293.61 L1868.69 2324.84 Z" fill="#000000" fill-rule="evenodd" fill-opacity="1" /><path clip-path="url(#clip110)" d="M1917.67 2311.34 Q1910.57 2311.34 1907.83 2312.96 Q1905.1 2314.59 1905.1 2318.5 Q1905.1 2321.62 1907.13 2323.47 Q1909.2 2325.28 1912.74 2325.28 Q1917.61 2325.28 1920.53 2321.84 Q1923.49 2318.37 1923.49 2312.65 L1923.49 2311.34 L1917.67 2311.34 M1929.35 2308.92 L1929.35 2329.26 L1923.49 2329.26 L1923.49 2323.85 Q1921.49 2327.1 1918.5 2328.65 Q1915.51 2330.18 1911.18 2330.18 Q1905.7 2330.18 1902.46 2327.13 Q1899.24 2324.04 1899.24 2318.88 Q1899.24 2312.87 1903.25 2309.81 Q1907.29 2306.76 1915.28 2306.76 L1923.49 2306.76 L1923.49 2306.18 Q1923.49 2302.14 1920.82 2299.95 Q1918.18 2297.72 1913.37 2297.72 Q1910.32 2297.72 1907.42 2298.45 Q1904.52 2299.18 1901.85 2300.65 L1901.85 2295.24 Q1905.07 2293.99 1908.09 2293.39 Q1911.11 2292.75 1913.98 2292.75 Q1921.71 2292.75 1925.53 2296.76 Q1929.35 2300.77 1929.35 2308.92 Z" fill="#000000" fill-rule="evenodd" fill-opacity="1" /><path clip-path="url(#clip110)" d="M1947.08 2323.91 L1947.08 2342.82 L1941.19 2342.82 L1941.19 2293.61 L1947.08 2293.61 L1947.08 2299.02 Q1948.93 2295.84 1951.73 2294.31 Q1954.56 2292.75 1958.47 2292.75 Q1964.97 2292.75 1969.01 2297.91 Q1973.08 2303.06 1973.08 2311.47 Q1973.08 2319.87 1969.01 2325.03 Q1964.97 2330.18 1958.47 2330.18 Q1954.56 2330.18 1951.73 2328.65 Q1948.93 2327.1 1947.08 2323.91 M1967 2311.47 Q1967 2305.01 1964.33 2301.35 Q1961.69 2297.65 1957.04 2297.65 Q1952.39 2297.65 1949.72 2301.35 Q1947.08 2305.01 1947.08 2311.47 Q1947.08 2317.93 1949.72 2321.62 Q1952.39 2325.28 1957.04 2325.28 Q1961.69 2325.28 1964.33 2321.62 Q1967 2317.93 1967 2311.47 Z" fill="#000000" fill-rule="evenodd" fill-opacity="1" /><path clip-path="url(#clip110)" d="M1988.46 2323.91 L1988.46 2342.82 L1982.57 2342.82 L1982.57 2293.61 L1988.46 2293.61 L1988.46 2299.02 Q1990.3 2295.84 1993.1 2294.31 Q1995.94 2292.75 1999.85 2292.75 Q2006.34 2292.75 2010.39 2297.91 Q2014.46 2303.06 2014.46 2311.47 Q2014.46 2319.87 2010.39 2325.03 Q2006.34 2330.18 1999.85 2330.18 Q1995.94 2330.18 1993.1 2328.65 Q1990.3 2327.1 1988.46 2323.91 M2008.38 2311.47 Q2008.38 2305.01 2005.71 2301.35 Q2003.07 2297.65 1998.42 2297.65 Q1993.77 2297.65 1991.1 2301.35 Q1988.46 2305.01 1988.46 2311.47 Q1988.46 2317.93 1991.1 2321.62 Q1993.77 2325.28 1998.42 2325.28 Q2003.07 2325.28 2005.71 2321.62 Q2008.38 2317.93 2008.38 2311.47 Z" fill="#000000" fill-rule="evenodd" fill-opacity="1" /><path clip-path="url(#clip110)" d="M2024.17 2279.73 L2030.02 2279.73 L2030.02 2329.26 L2024.17 2329.26 L2024.17 2279.73 Z" fill="#000000" fill-rule="evenodd" fill-opacity="1" /><path clip-path="url(#clip110)" d="M2042.28 2293.61 L2048.13 2293.61 L2048.13 2329.26 L2042.28 2329.26 L2042.28 2293.61 M2042.28 2279.73 L2048.13 2279.73 L2048.13 2287.15 L2042.28 2287.15 L2042.28 2279.73 Z" fill="#000000" fill-rule="evenodd" fill-opacity="1" /><path clip-path="url(#clip110)" d="M2086.04 2294.98 L2086.04 2300.45 Q2083.56 2299.09 2081.05 2298.42 Q2078.56 2297.72 2076.02 2297.72 Q2070.32 2297.72 2067.17 2301.35 Q2064.02 2304.94 2064.02 2311.47 Q2064.02 2317.99 2067.17 2321.62 Q2070.32 2325.22 2076.02 2325.22 Q2078.56 2325.22 2081.05 2324.55 Q2083.56 2323.85 2086.04 2322.48 L2086.04 2327.89 Q2083.59 2329.04 2080.95 2329.61 Q2078.34 2330.18 2075.38 2330.18 Q2067.33 2330.18 2062.58 2325.12 Q2057.84 2320.06 2057.84 2311.47 Q2057.84 2302.75 2062.62 2297.75 Q2067.42 2292.75 2075.76 2292.75 Q2078.47 2292.75 2081.05 2293.33 Q2083.62 2293.87 2086.04 2294.98 Z" fill="#000000" fill-rule="evenodd" fill-opacity="1" /><path clip-path="url(#clip110)" d="M2112.43 2311.34 Q2105.33 2311.34 2102.59 2312.96 Q2099.86 2314.59 2099.86 2318.5 Q2099.86 2321.62 2101.89 2323.47 Q2103.96 2325.28 2107.49 2325.28 Q2112.36 2325.28 2115.29 2321.84 Q2118.25 2318.37 2118.25 2312.65 L2118.25 2311.34 L2112.43 2311.34 M2124.11 2308.92 L2124.11 2329.26 L2118.25 2329.26 L2118.25 2323.85 Q2116.25 2327.1 2113.26 2328.65 Q2110.26 2330.18 2105.94 2330.18 Q2100.46 2330.18 2097.21 2327.13 Q2094 2324.04 2094 2318.88 Q2094 2312.87 2098.01 2309.81 Q2102.05 2306.76 2110.04 2306.76 L2118.25 2306.76 L2118.25 2306.18 Q2118.25 2302.14 2115.58 2299.95 Q2112.94 2297.72 2108.13 2297.72 Q2105.08 2297.72 2102.18 2298.45 Q2099.28 2299.18 2096.61 2300.65 L2096.61 2295.24 Q2099.82 2293.99 2102.85 2293.39 Q2105.87 2292.75 2108.74 2292.75 Q2116.47 2292.75 2120.29 2296.76 Q2124.11 2300.77 2124.11 2308.92 Z" fill="#000000" fill-rule="evenodd" fill-opacity="1" /><path clip-path="url(#clip110)" d="M2141.97 2283.49 L2141.97 2293.61 L2154.03 2293.61 L2154.03 2298.16 L2141.97 2298.16 L2141.97 2317.51 Q2141.97 2321.88 2143.14 2323.12 Q2144.35 2324.36 2148.01 2324.36 L2154.03 2324.36 L2154.03 2329.26 L2148.01 2329.26 Q2141.23 2329.26 2138.66 2326.75 Q2136.08 2324.2 2136.08 2317.51 L2136.08 2298.16 L2131.78 2298.16 L2131.78 2293.61 L2136.08 2293.61 L2136.08 2283.49 L2141.97 2283.49 Z" fill="#000000" fill-rule="evenodd" fill-opacity="1" /><path clip-path="url(#clip110)" d="M2161.73 2293.61 L2167.59 2293.61 L2167.59 2329.26 L2161.73 2329.26 L2161.73 2293.61 M2161.73 2279.73 L2167.59 2279.73 L2167.59 2287.15 L2161.73 2287.15 L2161.73 2279.73 Z" fill="#000000" fill-rule="evenodd" fill-opacity="1" /><path clip-path="url(#clip110)" d="M2193.65 2297.72 Q2188.94 2297.72 2186.21 2301.41 Q2183.47 2305.07 2183.47 2311.47 Q2183.47 2317.87 2186.18 2321.56 Q2188.91 2325.22 2193.65 2325.22 Q2198.33 2325.22 2201.07 2321.53 Q2203.81 2317.83 2203.81 2311.47 Q2203.81 2305.13 2201.07 2301.44 Q2198.33 2297.72 2193.65 2297.72 M2193.65 2292.75 Q2201.29 2292.75 2205.65 2297.72 Q2210.01 2302.68 2210.01 2311.47 Q2210.01 2320.22 2205.65 2325.22 Q2201.29 2330.18 2193.65 2330.18 Q2185.98 2330.18 2181.62 2325.22 Q2177.29 2320.22 2177.29 2311.47 Q2177.29 2302.68 2181.62 2297.72 Q2185.98 2292.75 2193.65 2292.75 Z" fill="#000000" fill-rule="evenodd" fill-opacity="1" /><path clip-path="url(#clip110)" d="M2249.35 2307.74 L2249.35 2329.26 L2243.5 2329.26 L2243.5 2307.93 Q2243.5 2302.87 2241.52 2300.36 Q2239.55 2297.84 2235.6 2297.84 Q2230.86 2297.84 2228.13 2300.87 Q2225.39 2303.89 2225.39 2309.11 L2225.39 2329.26 L2219.5 2329.26 L2219.5 2293.61 L2225.39 2293.61 L2225.39 2299.15 Q2227.49 2295.94 2230.32 2294.34 Q2233.19 2292.75 2236.91 2292.75 Q2243.05 2292.75 2246.2 2296.57 Q2249.35 2300.36 2249.35 2307.74 Z" fill="#000000" fill-rule="evenodd" fill-opacity="1" /><path clip-path="url(#clip110)" d="M2302.41 2299.09 Q2301.43 2298.51 2300.25 2298.26 Q2299.1 2297.97 2297.7 2297.97 Q2292.74 2297.97 2290.06 2301.22 Q2287.42 2304.43 2287.42 2310.48 L2287.42 2329.26 L2281.53 2329.26 L2281.53 2293.61 L2287.42 2293.61 L2287.42 2299.15 Q2289.27 2295.9 2292.23 2294.34 Q2295.19 2292.75 2299.42 2292.75 Q2300.03 2292.75 2300.76 2292.85 Q2301.49 2292.91 2302.38 2293.07 L2302.41 2299.09 Z" fill="#000000" fill-rule="evenodd" fill-opacity="1" /><path clip-path="url(#clip110)" d="M2324.76 2311.34 Q2317.66 2311.34 2314.92 2312.96 Q2312.18 2314.59 2312.18 2318.5 Q2312.18 2321.62 2314.22 2323.47 Q2316.29 2325.28 2319.82 2325.28 Q2324.69 2325.28 2327.62 2321.84 Q2330.58 2318.37 2330.58 2312.65 L2330.58 2311.34 L2324.76 2311.34 M2336.44 2308.92 L2336.44 2329.26 L2330.58 2329.26 L2330.58 2323.85 Q2328.58 2327.1 2325.58 2328.65 Q2322.59 2330.18 2318.26 2330.18 Q2312.79 2330.18 2309.54 2327.13 Q2306.33 2324.04 2306.33 2318.88 Q2306.33 2312.87 2310.34 2309.81 Q2314.38 2306.76 2322.37 2306.76 L2330.58 2306.76 L2330.58 2306.18 Q2330.58 2302.14 2327.91 2299.95 Q2325.27 2297.72 2320.46 2297.72 Q2317.4 2297.72 2314.51 2298.45 Q2311.61 2299.18 2308.94 2300.65 L2308.94 2295.24 Q2312.15 2293.99 2315.18 2293.39 Q2318.2 2292.75 2321.06 2292.75 Q2328.8 2292.75 2332.62 2296.76 Q2336.44 2300.77 2336.44 2308.92 Z" fill="#000000" fill-rule="evenodd" fill-opacity="1" /><path clip-path="url(#clip110)" d="M2354.29 2283.49 L2354.29 2293.61 L2366.36 2293.61 L2366.36 2298.16 L2354.29 2298.16 L2354.29 2317.51 Q2354.29 2321.88 2355.47 2323.12 Q2356.68 2324.36 2360.34 2324.36 L2366.36 2324.36 L2366.36 2329.26 L2360.34 2329.26 Q2353.56 2329.26 2350.98 2326.75 Q2348.41 2324.2 2348.41 2317.51 L2348.41 2298.16 L2344.11 2298.16 L2344.11 2293.61 L2348.41 2293.61 L2348.41 2283.49 L2354.29 2283.49 Z" fill="#000000" fill-rule="evenodd" fill-opacity="1" /><path clip-path="url(#clip110)" d="M2404.55 2309.97 L2404.55 2312.84 L2377.62 2312.84 Q2378.01 2318.88 2381.25 2322.07 Q2384.53 2325.22 2390.36 2325.22 Q2393.73 2325.22 2396.88 2324.39 Q2400.06 2323.56 2403.18 2321.91 L2403.18 2327.45 Q2400.03 2328.78 2396.72 2329.48 Q2393.41 2330.18 2390 2330.18 Q2381.47 2330.18 2376.48 2325.22 Q2371.51 2320.25 2371.51 2311.79 Q2371.51 2303.03 2376.22 2297.91 Q2380.97 2292.75 2388.99 2292.75 Q2396.18 2292.75 2400.35 2297.4 Q2404.55 2302.01 2404.55 2309.97 M2398.69 2308.25 Q2398.63 2303.45 2395.99 2300.58 Q2393.38 2297.72 2389.05 2297.72 Q2384.15 2297.72 2381.19 2300.49 Q2378.26 2303.26 2377.81 2308.28 L2398.69 2308.25 Z" fill="#000000" fill-rule="evenodd" fill-opacity="1" /><polyline clip-path="url(#clip112)" style="stroke:#000000; stroke-linecap:round; stroke-linejoin:round; stroke-width:2; stroke-opacity:0.1; fill:none" points="
  279.361,2104.36 3889.76,2104.36 
  "/>
<polyline clip-path="url(#clip112)" style="stroke:#000000; stroke-linecap:round; stroke-linejoin:round; stroke-width:2; stroke-opacity:0.1; fill:none" points="
  279.361,1738.1 3889.76,1738.1 
  "/>
<polyline clip-path="url(#clip112)" style="stroke:#000000; stroke-linecap:round; stroke-linejoin:round; stroke-width:2; stroke-opacity:0.1; fill:none" points="
  279.361,1371.85 3889.76,1371.85 
  "/>
<polyline clip-path="url(#clip112)" style="stroke:#000000; stroke-linecap:round; stroke-linejoin:round; stroke-width:2; stroke-opacity:0.1; fill:none" points="
  279.361,1005.59 3889.76,1005.59 
  "/>
<polyline clip-path="url(#clip112)" style="stroke:#000000; stroke-linecap:round; stroke-linejoin:round; stroke-width:2; stroke-opacity:0.1; fill:none" points="
  279.361,639.335 3889.76,639.335 
  "/>
<polyline clip-path="url(#clip112)" style="stroke:#000000; stroke-linecap:round; stroke-linejoin:round; stroke-width:2; stroke-opacity:0.1; fill:none" points="
  279.361,273.079 3889.76,273.079 
  "/>
<polyline clip-path="url(#clip110)" style="stroke:#000000; stroke-linecap:round; stroke-linejoin:round; stroke-width:4; stroke-opacity:1; fill:none" points="
  279.361,2160.4 279.361,180.416 
  "/>
<polyline clip-path="url(#clip110)" style="stroke:#000000; stroke-linecap:round; stroke-linejoin:round; stroke-width:4; stroke-opacity:1; fill:none" points="
  279.361,2104.36 298.259,2104.36 
  "/>
<polyline clip-path="url(#clip110)" style="stroke:#000000; stroke-linecap:round; stroke-linejoin:round; stroke-width:4; stroke-opacity:1; fill:none" points="
  279.361,1738.1 298.259,1738.1 
  "/>
<polyline clip-path="url(#clip110)" style="stroke:#000000; stroke-linecap:round; stroke-linejoin:round; stroke-width:4; stroke-opacity:1; fill:none" points="
  279.361,1371.85 298.259,1371.85 
  "/>
<polyline clip-path="url(#clip110)" style="stroke:#000000; stroke-linecap:round; stroke-linejoin:round; stroke-width:4; stroke-opacity:1; fill:none" points="
  279.361,1005.59 298.259,1005.59 
  "/>
<polyline clip-path="url(#clip110)" style="stroke:#000000; stroke-linecap:round; stroke-linejoin:round; stroke-width:4; stroke-opacity:1; fill:none" points="
  279.361,639.335 298.259,639.335 
  "/>
<polyline clip-path="url(#clip110)" style="stroke:#000000; stroke-linecap:round; stroke-linejoin:round; stroke-width:4; stroke-opacity:1; fill:none" points="
  279.361,273.079 298.259,273.079 
  "/>
<path clip-path="url(#clip110)" d="M207.417 2090.16 Q203.806 2090.16 201.977 2093.72 Q200.171 2097.26 200.171 2104.39 Q200.171 2111.5 201.977 2115.06 Q203.806 2118.61 207.417 2118.61 Q211.051 2118.61 212.857 2115.06 Q214.685 2111.5 214.685 2104.39 Q214.685 2097.26 212.857 2093.72 Q211.051 2090.16 207.417 2090.16 M207.417 2086.45 Q213.227 2086.45 216.282 2091.06 Q219.361 2095.64 219.361 2104.39 Q219.361 2113.12 216.282 2117.73 Q213.227 2122.31 207.417 2122.31 Q201.607 2122.31 198.528 2117.73 Q195.472 2113.12 195.472 2104.39 Q195.472 2095.64 198.528 2091.06 Q201.607 2086.45 207.417 2086.45 Z" fill="#000000" fill-rule="evenodd" fill-opacity="1" /><path clip-path="url(#clip110)" d="M168.065 1751.45 L175.704 1751.45 L175.704 1725.08 L167.394 1726.75 L167.394 1722.49 L175.658 1720.82 L180.334 1720.82 L180.334 1751.45 L187.972 1751.45 L187.972 1755.38 L168.065 1755.38 L168.065 1751.45 Z" fill="#000000" fill-rule="evenodd" fill-opacity="1" /><path clip-path="url(#clip110)" d="M207.417 1723.9 Q203.806 1723.9 201.977 1727.47 Q200.171 1731.01 200.171 1738.14 Q200.171 1745.24 201.977 1748.81 Q203.806 1752.35 207.417 1752.35 Q211.051 1752.35 212.857 1748.81 Q214.685 1745.24 214.685 1738.14 Q214.685 1731.01 212.857 1727.47 Q211.051 1723.9 207.417 1723.9 M207.417 1720.2 Q213.227 1720.2 216.282 1724.8 Q219.361 1729.39 219.361 1738.14 Q219.361 1746.86 216.282 1751.47 Q213.227 1756.05 207.417 1756.05 Q201.607 1756.05 198.528 1751.47 Q195.472 1746.86 195.472 1738.14 Q195.472 1729.39 198.528 1724.8 Q201.607 1720.2 207.417 1720.2 Z" fill="#000000" fill-rule="evenodd" fill-opacity="1" /><path clip-path="url(#clip110)" d="M171.283 1385.19 L187.602 1385.19 L187.602 1389.13 L165.658 1389.13 L165.658 1385.19 Q168.32 1382.44 172.903 1377.81 Q177.509 1373.15 178.69 1371.81 Q180.935 1369.29 181.815 1367.55 Q182.718 1365.79 182.718 1364.1 Q182.718 1361.35 180.773 1359.61 Q178.852 1357.88 175.75 1357.88 Q173.551 1357.88 171.097 1358.64 Q168.667 1359.4 165.889 1360.96 L165.889 1356.23 Q168.713 1355.1 171.167 1354.52 Q173.621 1353.94 175.658 1353.94 Q181.028 1353.94 184.222 1356.63 Q187.417 1359.31 187.417 1363.8 Q187.417 1365.93 186.607 1367.85 Q185.82 1369.75 183.713 1372.34 Q183.134 1373.02 180.033 1376.23 Q176.931 1379.43 171.283 1385.19 Z" fill="#000000" fill-rule="evenodd" fill-opacity="1" /><path clip-path="url(#clip110)" d="M207.417 1357.65 Q203.806 1357.65 201.977 1361.21 Q200.171 1364.75 200.171 1371.88 Q200.171 1378.99 201.977 1382.55 Q203.806 1386.09 207.417 1386.09 Q211.051 1386.09 212.857 1382.55 Q214.685 1378.99 214.685 1371.88 Q214.685 1364.75 212.857 1361.21 Q211.051 1357.65 207.417 1357.65 M207.417 1353.94 Q213.227 1353.94 216.282 1358.55 Q219.361 1363.13 219.361 1371.88 Q219.361 1380.61 216.282 1385.21 Q213.227 1389.8 207.417 1389.8 Q201.607 1389.8 198.528 1385.21 Q195.472 1380.61 195.472 1371.88 Q195.472 1363.13 198.528 1358.55 Q201.607 1353.94 207.417 1353.94 Z" fill="#000000" fill-rule="evenodd" fill-opacity="1" /><path clip-path="url(#clip110)" d="M181.421 1004.24 Q184.778 1004.95 186.653 1007.22 Q188.551 1009.49 188.551 1012.82 Q188.551 1017.94 185.033 1020.74 Q181.514 1023.54 175.033 1023.54 Q172.857 1023.54 170.542 1023.1 Q168.25 1022.69 165.797 1021.83 L165.797 1017.32 Q167.741 1018.45 170.056 1019.03 Q172.371 1019.61 174.894 1019.61 Q179.292 1019.61 181.584 1017.87 Q183.898 1016.13 183.898 1012.82 Q183.898 1009.77 181.746 1008.06 Q179.616 1006.32 175.797 1006.32 L171.769 1006.32 L171.769 1002.48 L175.982 1002.48 Q179.431 1002.48 181.259 1001.11 Q183.088 999.723 183.088 997.13 Q183.088 994.468 181.19 993.056 Q179.315 991.621 175.797 991.621 Q173.875 991.621 171.676 992.038 Q169.477 992.454 166.838 993.334 L166.838 989.167 Q169.5 988.427 171.815 988.056 Q174.153 987.686 176.213 987.686 Q181.537 987.686 184.639 990.116 Q187.741 992.524 187.741 996.644 Q187.741 999.514 186.097 1001.51 Q184.454 1003.47 181.421 1004.24 Z" fill="#000000" fill-rule="evenodd" fill-opacity="1" /><path clip-path="url(#clip110)" d="M207.417 991.39 Q203.806 991.39 201.977 994.954 Q200.171 998.496 200.171 1005.63 Q200.171 1012.73 201.977 1016.3 Q203.806 1019.84 207.417 1019.84 Q211.051 1019.84 212.857 1016.3 Q214.685 1012.73 214.685 1005.63 Q214.685 998.496 212.857 994.954 Q211.051 991.39 207.417 991.39 M207.417 987.686 Q213.227 987.686 216.282 992.292 Q219.361 996.876 219.361 1005.63 Q219.361 1014.35 216.282 1018.96 Q213.227 1023.54 207.417 1023.54 Q201.607 1023.54 198.528 1018.96 Q195.472 1014.35 195.472 1005.63 Q195.472 996.876 198.528 992.292 Q201.607 987.686 207.417 987.686 Z" fill="#000000" fill-rule="evenodd" fill-opacity="1" /><path clip-path="url(#clip110)" d="M180.102 626.129 L168.297 644.578 L180.102 644.578 L180.102 626.129 M178.875 622.055 L184.755 622.055 L184.755 644.578 L189.685 644.578 L189.685 648.467 L184.755 648.467 L184.755 656.615 L180.102 656.615 L180.102 648.467 L164.5 648.467 L164.5 643.953 L178.875 622.055 Z" fill="#000000" fill-rule="evenodd" fill-opacity="1" /><path clip-path="url(#clip110)" d="M207.417 625.134 Q203.806 625.134 201.977 628.698 Q200.171 632.24 200.171 639.37 Q200.171 646.476 201.977 650.041 Q203.806 653.583 207.417 653.583 Q211.051 653.583 212.857 650.041 Q214.685 646.476 214.685 639.37 Q214.685 632.24 212.857 628.698 Q211.051 625.134 207.417 625.134 M207.417 621.43 Q213.227 621.43 216.282 626.036 Q219.361 630.62 219.361 639.37 Q219.361 648.096 216.282 652.703 Q213.227 657.286 207.417 657.286 Q201.607 657.286 198.528 652.703 Q195.472 648.096 195.472 639.37 Q195.472 630.62 198.528 626.036 Q201.607 621.43 207.417 621.43 Z" fill="#000000" fill-rule="evenodd" fill-opacity="1" /><path clip-path="url(#clip110)" d="M167.301 255.799 L185.658 255.799 L185.658 259.734 L171.584 259.734 L171.584 268.206 Q172.602 267.859 173.621 267.697 Q174.639 267.512 175.658 267.512 Q181.445 267.512 184.824 270.683 Q188.204 273.854 188.204 279.271 Q188.204 284.85 184.732 287.952 Q181.259 291.03 174.94 291.03 Q172.764 291.03 170.496 290.66 Q168.25 290.29 165.843 289.549 L165.843 284.85 Q167.926 285.984 170.148 286.54 Q172.371 287.095 174.847 287.095 Q178.852 287.095 181.19 284.989 Q183.528 282.882 183.528 279.271 Q183.528 275.66 181.19 273.554 Q178.852 271.447 174.847 271.447 Q172.972 271.447 171.097 271.864 Q169.246 272.28 167.301 273.16 L167.301 255.799 Z" fill="#000000" fill-rule="evenodd" fill-opacity="1" /><path clip-path="url(#clip110)" d="M207.417 258.878 Q203.806 258.878 201.977 262.442 Q200.171 265.984 200.171 273.114 Q200.171 280.22 201.977 283.785 Q203.806 287.327 207.417 287.327 Q211.051 287.327 212.857 283.785 Q214.685 280.22 214.685 273.114 Q214.685 265.984 212.857 262.442 Q211.051 258.878 207.417 258.878 M207.417 255.174 Q213.227 255.174 216.282 259.78 Q219.361 264.364 219.361 273.114 Q219.361 281.841 216.282 286.447 Q213.227 291.03 207.417 291.03 Q201.607 291.03 198.528 286.447 Q195.472 281.841 195.472 273.114 Q195.472 264.364 198.528 259.78 Q201.607 255.174 207.417 255.174 Z" fill="#000000" fill-rule="evenodd" fill-opacity="1" /><path clip-path="url(#clip110)" d="M46.3846 1226.27 L53.164 1226.27 Q50.1403 1229.51 48.6444 1233.2 Q47.1484 1236.86 47.1484 1241 Q47.1484 1249.15 52.1455 1253.48 Q57.1108 1257.81 66.532 1257.81 Q75.9214 1257.81 80.9185 1253.48 Q85.8838 1249.15 85.8838 1241 Q85.8838 1236.86 84.3878 1233.2 Q82.8919 1229.51 79.8682 1226.27 L86.584 1226.27 Q88.8757 1229.64 90.0215 1233.43 Q91.1673 1237.18 91.1673 1241.38 Q91.1673 1252.17 84.5788 1258.38 Q77.9585 1264.59 66.532 1264.59 Q55.0738 1264.59 48.4852 1258.38 Q41.8649 1252.17 41.8649 1241.38 Q41.8649 1237.12 43.0107 1233.36 Q44.1247 1229.58 46.3846 1226.27 Z" fill="#000000" fill-rule="evenodd" fill-opacity="1" /><path clip-path="url(#clip110)" d="M58.7022 1202.78 Q58.7022 1207.49 62.3943 1210.22 Q66.0546 1212.96 72.4521 1212.96 Q78.8497 1212.96 82.5418 1210.26 Q86.2021 1207.52 86.2021 1202.78 Q86.2021 1198.1 82.5099 1195.36 Q78.8178 1192.62 72.4521 1192.62 Q66.1183 1192.62 62.4261 1195.36 Q58.7022 1198.1 58.7022 1202.78 M53.737 1202.78 Q53.737 1195.14 58.7022 1190.78 Q63.6675 1186.42 72.4521 1186.42 Q81.205 1186.42 86.2021 1190.78 Q91.1673 1195.14 91.1673 1202.78 Q91.1673 1210.45 86.2021 1214.81 Q81.205 1219.14 72.4521 1219.14 Q63.6675 1219.14 58.7022 1214.81 Q53.737 1210.45 53.737 1202.78 Z" fill="#000000" fill-rule="evenodd" fill-opacity="1" /><path clip-path="url(#clip110)" d="M76.1761 1177.31 L54.5963 1177.31 L54.5963 1171.46 L75.9533 1171.46 Q81.014 1171.46 83.5603 1169.48 Q86.0747 1167.51 86.0747 1163.56 Q86.0747 1158.82 83.051 1156.08 Q80.0273 1153.31 74.8074 1153.31 L54.5963 1153.31 L54.5963 1147.46 L90.2443 1147.46 L90.2443 1153.31 L84.7698 1153.31 Q88.0163 1155.45 89.6077 1158.28 Q91.1673 1161.08 91.1673 1164.8 Q91.1673 1170.95 87.3479 1174.13 Q83.5285 1177.31 76.1761 1177.31 M53.737 1162.58 L53.737 1162.58 Z" fill="#000000" fill-rule="evenodd" fill-opacity="1" /><path clip-path="url(#clip110)" d="M68.7282 1105.76 L90.2443 1105.76 L90.2443 1111.62 L68.9192 1111.62 Q63.8584 1111.62 61.344 1113.59 Q58.8295 1115.57 58.8295 1119.51 Q58.8295 1124.25 61.8532 1126.99 Q64.8769 1129.73 70.0968 1129.73 L90.2443 1129.73 L90.2443 1135.62 L54.5963 1135.62 L54.5963 1129.73 L60.1345 1129.73 Q56.9198 1127.63 55.3284 1124.8 Q53.737 1121.93 53.737 1118.21 Q53.737 1112.06 57.5564 1108.91 Q61.344 1105.76 68.7282 1105.76 Z" fill="#000000" fill-rule="evenodd" fill-opacity="1" /><path clip-path="url(#clip110)" d="M44.4749 1088.29 L54.5963 1088.29 L54.5963 1076.23 L59.1478 1076.23 L59.1478 1088.29 L78.4996 1088.29 Q82.8601 1088.29 84.1014 1087.11 Q85.3427 1085.9 85.3427 1082.24 L85.3427 1076.23 L90.2443 1076.23 L90.2443 1082.24 Q90.2443 1089.02 87.7298 1091.6 Q85.1835 1094.18 78.4996 1094.18 L59.1478 1094.18 L59.1478 1098.47 L54.5963 1098.47 L54.5963 1094.18 L44.4749 1094.18 L44.4749 1088.29 Z" fill="#000000" fill-rule="evenodd" fill-opacity="1" /><path clip-path="url(#clip110)" d="M1032.91 12.096 L1041.09 12.096 L1041.09 36.8875 L1070.82 36.8875 L1070.82 12.096 L1079.01 12.096 L1079.01 72.576 L1070.82 72.576 L1070.82 43.7741 L1041.09 43.7741 L1041.09 72.576 L1032.91 72.576 L1032.91 12.096 Z" fill="#000000" fill-rule="evenodd" fill-opacity="1" /><path clip-path="url(#clip110)" d="M1094.97 27.2059 L1102.42 27.2059 L1102.42 72.576 L1094.97 72.576 L1094.97 27.2059 M1094.97 9.54393 L1102.42 9.54393 L1102.42 18.9825 L1094.97 18.9825 L1094.97 9.54393 Z" fill="#000000" fill-rule="evenodd" fill-opacity="1" /><path clip-path="url(#clip110)" d="M1146.94 28.5427 L1146.94 35.5912 Q1143.78 33.9709 1140.38 33.1607 Q1136.97 32.3505 1133.33 32.3505 Q1127.78 32.3505 1124.98 34.0519 Q1122.23 35.7533 1122.23 39.156 Q1122.23 41.7486 1124.21 43.2475 Q1126.2 44.7058 1132.19 46.0426 L1134.75 46.6097 Q1142.69 48.3111 1146.01 51.4303 Q1149.37 54.509 1149.37 60.0587 Q1149.37 66.3781 1144.35 70.0644 Q1139.36 73.7508 1130.62 73.7508 Q1126.97 73.7508 1123 73.0216 Q1119.07 72.3329 1114.69 70.9151 L1114.69 63.2184 Q1118.83 65.3654 1122.84 66.4591 Q1126.85 67.5124 1130.78 67.5124 Q1136.04 67.5124 1138.88 65.73 Q1141.71 63.9071 1141.71 60.6258 Q1141.71 57.5877 1139.65 55.9673 Q1137.62 54.3469 1130.7 52.8481 L1128.1 52.2405 Q1121.18 50.7821 1118.1 47.7845 Q1115.02 44.7463 1115.02 39.4801 Q1115.02 33.0797 1119.56 29.5959 Q1124.09 26.1121 1132.44 26.1121 Q1136.57 26.1121 1140.22 26.7198 Q1143.86 27.3274 1146.94 28.5427 Z" fill="#000000" fill-rule="evenodd" fill-opacity="1" /><path clip-path="url(#clip110)" d="M1168.61 14.324 L1168.61 27.2059 L1183.97 27.2059 L1183.97 32.9987 L1168.61 32.9987 L1168.61 57.6282 Q1168.61 63.1779 1170.11 64.7578 Q1171.65 66.3376 1176.31 66.3376 L1183.97 66.3376 L1183.97 72.576 L1176.31 72.576 Q1167.68 72.576 1164.4 69.3758 Q1161.12 66.1351 1161.12 57.6282 L1161.12 32.9987 L1155.65 32.9987 L1155.65 27.2059 L1161.12 27.2059 L1161.12 14.324 L1168.61 14.324 Z" fill="#000000" fill-rule="evenodd" fill-opacity="1" /><path clip-path="url(#clip110)" d="M1211.35 32.4315 Q1205.35 32.4315 1201.87 37.1306 Q1198.39 41.7891 1198.39 49.9314 Q1198.39 58.0738 1201.83 62.7728 Q1205.31 67.4314 1211.35 67.4314 Q1217.3 67.4314 1220.79 62.7323 Q1224.27 58.0333 1224.27 49.9314 Q1224.27 41.8701 1220.79 37.1711 Q1217.3 32.4315 1211.35 32.4315 M1211.35 26.1121 Q1221.07 26.1121 1226.62 32.4315 Q1232.17 38.7509 1232.17 49.9314 Q1232.17 61.0714 1226.62 67.4314 Q1221.07 73.7508 1211.35 73.7508 Q1201.59 73.7508 1196.04 67.4314 Q1190.53 61.0714 1190.53 49.9314 Q1190.53 38.7509 1196.04 32.4315 Q1201.59 26.1121 1211.35 26.1121 Z" fill="#000000" fill-rule="evenodd" fill-opacity="1" /><path clip-path="url(#clip110)" d="M1274.38 49.3643 Q1274.38 41.2625 1271.02 36.8065 Q1267.7 32.3505 1261.66 32.3505 Q1255.67 32.3505 1252.3 36.8065 Q1248.98 41.2625 1248.98 49.3643 Q1248.98 57.4256 1252.3 61.8816 Q1255.67 66.3376 1261.66 66.3376 Q1267.7 66.3376 1271.02 61.8816 Q1274.38 57.4256 1274.38 49.3643 M1281.84 66.9452 Q1281.84 78.5308 1276.69 84.1616 Q1271.55 89.8329 1260.93 89.8329 Q1257 89.8329 1253.52 89.2252 Q1250.04 88.6581 1246.75 87.4428 L1246.75 80.1917 Q1250.04 81.9741 1253.24 82.8248 Q1256.44 83.6755 1259.76 83.6755 Q1267.09 83.6755 1270.74 79.8271 Q1274.38 76.0193 1274.38 68.282 L1274.38 64.5957 Q1272.07 68.6061 1268.47 70.5911 Q1264.86 72.576 1259.84 72.576 Q1251.49 72.576 1246.39 66.2161 Q1241.29 59.8562 1241.29 49.3643 Q1241.29 38.832 1246.39 32.472 Q1251.49 26.1121 1259.84 26.1121 Q1264.86 26.1121 1268.47 28.0971 Q1272.07 30.082 1274.38 34.0924 L1274.38 27.2059 L1281.84 27.2059 L1281.84 66.9452 Z" fill="#000000" fill-rule="evenodd" fill-opacity="1" /><path clip-path="url(#clip110)" d="M1323.48 34.1734 Q1322.22 33.4443 1320.72 33.1202 Q1319.27 32.7556 1317.48 32.7556 Q1311.16 32.7556 1307.76 36.8875 Q1304.4 40.9789 1304.4 48.6757 L1304.4 72.576 L1296.9 72.576 L1296.9 27.2059 L1304.4 27.2059 L1304.4 34.2544 Q1306.75 30.1225 1310.52 28.1376 Q1314.28 26.1121 1319.67 26.1121 Q1320.44 26.1121 1321.37 26.2337 Q1322.3 26.3147 1323.44 26.5172 L1323.48 34.1734 Z" fill="#000000" fill-rule="evenodd" fill-opacity="1" /><path clip-path="url(#clip110)" d="M1351.92 49.7694 Q1342.88 49.7694 1339.4 51.8354 Q1335.91 53.9013 1335.91 58.8839 Q1335.91 62.8538 1338.51 65.2034 Q1341.14 67.5124 1345.64 67.5124 Q1351.83 67.5124 1355.56 63.1374 Q1359.33 58.7219 1359.33 51.4303 L1359.33 49.7694 L1351.92 49.7694 M1366.78 46.6907 L1366.78 72.576 L1359.33 72.576 L1359.33 65.6895 Q1356.78 69.8214 1352.97 71.8063 Q1349.16 73.7508 1343.65 73.7508 Q1336.68 73.7508 1332.55 69.8619 Q1328.46 65.9325 1328.46 59.3701 Q1328.46 51.7138 1333.57 47.825 Q1338.71 43.9361 1348.88 43.9361 L1359.33 43.9361 L1359.33 43.2069 Q1359.33 38.0623 1355.93 35.2672 Q1352.56 32.4315 1346.45 32.4315 Q1342.56 32.4315 1338.87 33.3632 Q1335.19 34.295 1331.78 36.1584 L1331.78 29.2718 Q1335.87 27.692 1339.72 26.9223 Q1343.57 26.1121 1347.22 26.1121 Q1357.06 26.1121 1361.92 31.2163 Q1366.78 36.3204 1366.78 46.6907 Z" fill="#000000" fill-rule="evenodd" fill-opacity="1" /><path clip-path="url(#clip110)" d="M1417.46 35.9153 Q1420.25 30.8922 1424.14 28.5022 Q1428.03 26.1121 1433.3 26.1121 Q1440.39 26.1121 1444.24 31.0947 Q1448.08 36.0368 1448.08 45.1919 L1448.08 72.576 L1440.59 72.576 L1440.59 45.4349 Q1440.59 38.913 1438.28 35.7533 Q1435.97 32.5936 1431.23 32.5936 Q1425.44 32.5936 1422.08 36.4419 Q1418.72 40.2903 1418.72 46.9338 L1418.72 72.576 L1411.22 72.576 L1411.22 45.4349 Q1411.22 38.8725 1408.91 35.7533 Q1406.6 32.5936 1401.78 32.5936 Q1396.07 32.5936 1392.71 36.4824 Q1389.35 40.3308 1389.35 46.9338 L1389.35 72.576 L1381.85 72.576 L1381.85 27.2059 L1389.35 27.2059 L1389.35 34.2544 Q1391.9 30.082 1395.46 28.0971 Q1399.03 26.1121 1403.93 26.1121 Q1408.87 26.1121 1412.31 28.6237 Q1415.8 31.1352 1417.46 35.9153 Z" fill="#000000" fill-rule="evenodd" fill-opacity="1" /><path clip-path="url(#clip110)" d="M1506.9 32.4315 Q1500.91 32.4315 1497.42 37.1306 Q1493.94 41.7891 1493.94 49.9314 Q1493.94 58.0738 1497.38 62.7728 Q1500.87 67.4314 1506.9 67.4314 Q1512.86 67.4314 1516.34 62.7323 Q1519.83 58.0333 1519.83 49.9314 Q1519.83 41.8701 1516.34 37.1711 Q1512.86 32.4315 1506.9 32.4315 M1506.9 26.1121 Q1516.63 26.1121 1522.18 32.4315 Q1527.73 38.7509 1527.73 49.9314 Q1527.73 61.0714 1522.18 67.4314 Q1516.63 73.7508 1506.9 73.7508 Q1497.14 73.7508 1491.59 67.4314 Q1486.08 61.0714 1486.08 49.9314 Q1486.08 38.7509 1491.59 32.4315 Q1497.14 26.1121 1506.9 26.1121 Z" fill="#000000" fill-rule="evenodd" fill-opacity="1" /><path clip-path="url(#clip110)" d="M1563.05 9.54393 L1563.05 15.7418 L1555.92 15.7418 Q1551.91 15.7418 1550.33 17.3622 Q1548.79 18.9825 1548.79 23.1955 L1548.79 27.2059 L1561.06 27.2059 L1561.06 32.9987 L1548.79 32.9987 L1548.79 72.576 L1541.3 72.576 L1541.3 32.9987 L1534.17 32.9987 L1534.17 27.2059 L1541.3 27.2059 L1541.3 24.0462 Q1541.3 16.471 1544.82 13.0277 Q1548.34 9.54393 1556 9.54393 L1563.05 9.54393 Z" fill="#000000" fill-rule="evenodd" fill-opacity="1" /><path clip-path="url(#clip110)" d="M1595.66 9.54393 L1603.11 9.54393 L1603.11 72.576 L1595.66 72.576 L1595.66 9.54393 Z" fill="#000000" fill-rule="evenodd" fill-opacity="1" /><path clip-path="url(#clip110)" d="M1636.29 32.4315 Q1630.29 32.4315 1626.81 37.1306 Q1623.33 41.7891 1623.33 49.9314 Q1623.33 58.0738 1626.77 62.7728 Q1630.25 67.4314 1636.29 67.4314 Q1642.24 67.4314 1645.73 62.7323 Q1649.21 58.0333 1649.21 49.9314 Q1649.21 41.8701 1645.73 37.1711 Q1642.24 32.4315 1636.29 32.4315 M1636.29 26.1121 Q1646.01 26.1121 1651.56 32.4315 Q1657.11 38.7509 1657.11 49.9314 Q1657.11 61.0714 1651.56 67.4314 Q1646.01 73.7508 1636.29 73.7508 Q1626.53 73.7508 1620.98 67.4314 Q1615.47 61.0714 1615.47 49.9314 Q1615.47 38.7509 1620.98 32.4315 Q1626.53 26.1121 1636.29 26.1121 Z" fill="#000000" fill-rule="evenodd" fill-opacity="1" /><path clip-path="url(#clip110)" d="M1699.32 49.3643 Q1699.32 41.2625 1695.96 36.8065 Q1692.64 32.3505 1686.6 32.3505 Q1680.61 32.3505 1677.24 36.8065 Q1673.92 41.2625 1673.92 49.3643 Q1673.92 57.4256 1677.24 61.8816 Q1680.61 66.3376 1686.6 66.3376 Q1692.64 66.3376 1695.96 61.8816 Q1699.32 57.4256 1699.32 49.3643 M1706.78 66.9452 Q1706.78 78.5308 1701.63 84.1616 Q1696.49 89.8329 1685.87 89.8329 Q1681.94 89.8329 1678.46 89.2252 Q1674.98 88.6581 1671.69 87.4428 L1671.69 80.1917 Q1674.98 81.9741 1678.18 82.8248 Q1681.38 83.6755 1684.7 83.6755 Q1692.03 83.6755 1695.68 79.8271 Q1699.32 76.0193 1699.32 68.282 L1699.32 64.5957 Q1697.01 68.6061 1693.41 70.5911 Q1689.8 72.576 1684.78 72.576 Q1676.43 72.576 1671.33 66.2161 Q1666.23 59.8562 1666.23 49.3643 Q1666.23 38.832 1671.33 32.472 Q1676.43 26.1121 1684.78 26.1121 Q1689.8 26.1121 1693.41 28.0971 Q1697.01 30.082 1699.32 34.0924 L1699.32 27.2059 L1706.78 27.2059 L1706.78 66.9452 Z" fill="#000000" fill-rule="evenodd" fill-opacity="1" /><path clip-path="url(#clip110)" d="M1769.12 49.7694 Q1760.09 49.7694 1756.6 51.8354 Q1753.12 53.9013 1753.12 58.8839 Q1753.12 62.8538 1755.71 65.2034 Q1758.34 67.5124 1762.84 67.5124 Q1769.04 67.5124 1772.76 63.1374 Q1776.53 58.7219 1776.53 51.4303 L1776.53 49.7694 L1769.12 49.7694 M1783.99 46.6907 L1783.99 72.576 L1776.53 72.576 L1776.53 65.6895 Q1773.98 69.8214 1770.17 71.8063 Q1766.36 73.7508 1760.85 73.7508 Q1753.89 73.7508 1749.76 69.8619 Q1745.66 65.9325 1745.66 59.3701 Q1745.66 51.7138 1750.77 47.825 Q1755.91 43.9361 1766.08 43.9361 L1776.53 43.9361 L1776.53 43.2069 Q1776.53 38.0623 1773.13 35.2672 Q1769.77 32.4315 1763.65 32.4315 Q1759.76 32.4315 1756.07 33.3632 Q1752.39 34.295 1748.99 36.1584 L1748.99 29.2718 Q1753.08 27.692 1756.93 26.9223 Q1760.77 26.1121 1764.42 26.1121 Q1774.26 26.1121 1779.12 31.2163 Q1783.99 36.3204 1783.99 46.6907 Z" fill="#000000" fill-rule="evenodd" fill-opacity="1" /><path clip-path="url(#clip110)" d="M1806.55 65.7705 L1806.55 89.8329 L1799.05 89.8329 L1799.05 27.2059 L1806.55 27.2059 L1806.55 34.0924 Q1808.9 30.0415 1812.46 28.0971 Q1816.07 26.1121 1821.05 26.1121 Q1829.31 26.1121 1834.46 32.6746 Q1839.64 39.2371 1839.64 49.9314 Q1839.64 60.6258 1834.46 67.1883 Q1829.31 73.7508 1821.05 73.7508 Q1816.07 73.7508 1812.46 71.8063 Q1808.9 69.8214 1806.55 65.7705 M1831.91 49.9314 Q1831.91 41.7081 1828.5 37.0496 Q1825.14 32.3505 1819.23 32.3505 Q1813.31 32.3505 1809.91 37.0496 Q1806.55 41.7081 1806.55 49.9314 Q1806.55 58.1548 1809.91 62.8538 Q1813.31 67.5124 1819.23 67.5124 Q1825.14 67.5124 1828.5 62.8538 Q1831.91 58.1548 1831.91 49.9314 Z" fill="#000000" fill-rule="evenodd" fill-opacity="1" /><path clip-path="url(#clip110)" d="M1859.21 65.7705 L1859.21 89.8329 L1851.72 89.8329 L1851.72 27.2059 L1859.21 27.2059 L1859.21 34.0924 Q1861.56 30.0415 1865.12 28.0971 Q1868.73 26.1121 1873.71 26.1121 Q1881.98 26.1121 1887.12 32.6746 Q1892.31 39.2371 1892.31 49.9314 Q1892.31 60.6258 1887.12 67.1883 Q1881.98 73.7508 1873.71 73.7508 Q1868.73 73.7508 1865.12 71.8063 Q1861.56 69.8214 1859.21 65.7705 M1884.57 49.9314 Q1884.57 41.7081 1881.17 37.0496 Q1877.8 32.3505 1871.89 32.3505 Q1865.98 32.3505 1862.57 37.0496 Q1859.21 41.7081 1859.21 49.9314 Q1859.21 58.1548 1862.57 62.8538 Q1865.98 67.5124 1871.89 67.5124 Q1877.8 67.5124 1881.17 62.8538 Q1884.57 58.1548 1884.57 49.9314 Z" fill="#000000" fill-rule="evenodd" fill-opacity="1" /><path clip-path="url(#clip110)" d="M1904.66 9.54393 L1912.12 9.54393 L1912.12 72.576 L1904.66 72.576 L1904.66 9.54393 Z" fill="#000000" fill-rule="evenodd" fill-opacity="1" /><path clip-path="url(#clip110)" d="M1927.71 27.2059 L1935.17 27.2059 L1935.17 72.576 L1927.71 72.576 L1927.71 27.2059 M1927.71 9.54393 L1935.17 9.54393 L1935.17 18.9825 L1927.71 18.9825 L1927.71 9.54393 Z" fill="#000000" fill-rule="evenodd" fill-opacity="1" /><path clip-path="url(#clip110)" d="M1983.41 28.9478 L1983.41 35.9153 Q1980.25 34.1734 1977.05 33.3227 Q1973.89 32.4315 1970.65 32.4315 Q1963.4 32.4315 1959.39 37.0496 Q1955.38 41.6271 1955.38 49.9314 Q1955.38 58.2358 1959.39 62.8538 Q1963.4 67.4314 1970.65 67.4314 Q1973.89 67.4314 1977.05 66.5807 Q1980.25 65.6895 1983.41 63.9476 L1983.41 70.8341 Q1980.29 72.2924 1976.93 73.0216 Q1973.61 73.7508 1969.84 73.7508 Q1959.59 73.7508 1953.56 67.3098 Q1947.52 60.8689 1947.52 49.9314 Q1947.52 38.832 1953.6 32.472 Q1959.71 26.1121 1970.33 26.1121 Q1973.77 26.1121 1977.05 26.8413 Q1980.33 27.5299 1983.41 28.9478 Z" fill="#000000" fill-rule="evenodd" fill-opacity="1" /><path clip-path="url(#clip110)" d="M2016.99 49.7694 Q2007.96 49.7694 2004.48 51.8354 Q2000.99 53.9013 2000.99 58.8839 Q2000.99 62.8538 2003.58 65.2034 Q2006.22 67.5124 2010.71 67.5124 Q2016.91 67.5124 2020.64 63.1374 Q2024.41 58.7219 2024.41 51.4303 L2024.41 49.7694 L2016.99 49.7694 M2031.86 46.6907 L2031.86 72.576 L2024.41 72.576 L2024.41 65.6895 Q2021.85 69.8214 2018.05 71.8063 Q2014.24 73.7508 2008.73 73.7508 Q2001.76 73.7508 1997.63 69.8619 Q1993.54 65.9325 1993.54 59.3701 Q1993.54 51.7138 1998.64 47.825 Q2003.79 43.9361 2013.96 43.9361 L2024.41 43.9361 L2024.41 43.2069 Q2024.41 38.0623 2021 35.2672 Q2017.64 32.4315 2011.52 32.4315 Q2007.64 32.4315 2003.95 33.3632 Q2000.26 34.295 1996.86 36.1584 L1996.86 29.2718 Q2000.95 27.692 2004.8 26.9223 Q2008.65 26.1121 2012.29 26.1121 Q2022.14 26.1121 2027 31.2163 Q2031.86 36.3204 2031.86 46.6907 Z" fill="#000000" fill-rule="evenodd" fill-opacity="1" /><path clip-path="url(#clip110)" d="M2054.59 14.324 L2054.59 27.2059 L2069.94 27.2059 L2069.94 32.9987 L2054.59 32.9987 L2054.59 57.6282 Q2054.59 63.1779 2056.08 64.7578 Q2057.62 66.3376 2062.28 66.3376 L2069.94 66.3376 L2069.94 72.576 L2062.28 72.576 Q2053.65 72.576 2050.37 69.3758 Q2047.09 66.1351 2047.09 57.6282 L2047.09 32.9987 L2041.62 32.9987 L2041.62 27.2059 L2047.09 27.2059 L2047.09 14.324 L2054.59 14.324 Z" fill="#000000" fill-rule="evenodd" fill-opacity="1" /><path clip-path="url(#clip110)" d="M2079.74 27.2059 L2087.2 27.2059 L2087.2 72.576 L2079.74 72.576 L2079.74 27.2059 M2079.74 9.54393 L2087.2 9.54393 L2087.2 18.9825 L2079.74 18.9825 L2079.74 9.54393 Z" fill="#000000" fill-rule="evenodd" fill-opacity="1" /><path clip-path="url(#clip110)" d="M2120.37 32.4315 Q2114.38 32.4315 2110.89 37.1306 Q2107.41 41.7891 2107.41 49.9314 Q2107.41 58.0738 2110.85 62.7728 Q2114.34 67.4314 2120.37 67.4314 Q2126.33 67.4314 2129.81 62.7323 Q2133.29 58.0333 2133.29 49.9314 Q2133.29 41.8701 2129.81 37.1711 Q2126.33 32.4315 2120.37 32.4315 M2120.37 26.1121 Q2130.09 26.1121 2135.64 32.4315 Q2141.19 38.7509 2141.19 49.9314 Q2141.19 61.0714 2135.64 67.4314 Q2130.09 73.7508 2120.37 73.7508 Q2110.61 73.7508 2105.06 67.4314 Q2099.55 61.0714 2099.55 49.9314 Q2099.55 38.7509 2105.06 32.4315 Q2110.61 26.1121 2120.37 26.1121 Z" fill="#000000" fill-rule="evenodd" fill-opacity="1" /><path clip-path="url(#clip110)" d="M2191.26 45.1919 L2191.26 72.576 L2183.81 72.576 L2183.81 45.4349 Q2183.81 38.994 2181.3 35.7938 Q2178.79 32.5936 2173.76 32.5936 Q2167.73 32.5936 2164.24 36.4419 Q2160.76 40.2903 2160.76 46.9338 L2160.76 72.576 L2153.27 72.576 L2153.27 27.2059 L2160.76 27.2059 L2160.76 34.2544 Q2163.43 30.163 2167.04 28.1376 Q2170.68 26.1121 2175.42 26.1121 Q2183.24 26.1121 2187.25 30.9732 Q2191.26 35.7938 2191.26 45.1919 Z" fill="#000000" fill-rule="evenodd" fill-opacity="1" /><path clip-path="url(#clip110)" d="M2258.79 34.1734 Q2257.54 33.4443 2256.04 33.1202 Q2254.58 32.7556 2252.8 32.7556 Q2246.48 32.7556 2243.07 36.8875 Q2239.71 40.9789 2239.71 48.6757 L2239.71 72.576 L2232.22 72.576 L2232.22 27.2059 L2239.71 27.2059 L2239.71 34.2544 Q2242.06 30.1225 2245.83 28.1376 Q2249.6 26.1121 2254.98 26.1121 Q2255.75 26.1121 2256.69 26.2337 Q2257.62 26.3147 2258.75 26.5172 L2258.79 34.1734 Z" fill="#000000" fill-rule="evenodd" fill-opacity="1" /><path clip-path="url(#clip110)" d="M2287.23 49.7694 Q2278.2 49.7694 2274.71 51.8354 Q2271.23 53.9013 2271.23 58.8839 Q2271.23 62.8538 2273.82 65.2034 Q2276.45 67.5124 2280.95 67.5124 Q2287.15 67.5124 2290.87 63.1374 Q2294.64 58.7219 2294.64 51.4303 L2294.64 49.7694 L2287.23 49.7694 M2302.1 46.6907 L2302.1 72.576 L2294.64 72.576 L2294.64 65.6895 Q2292.09 69.8214 2288.28 71.8063 Q2284.47 73.7508 2278.97 73.7508 Q2272 73.7508 2267.87 69.8619 Q2263.77 65.9325 2263.77 59.3701 Q2263.77 51.7138 2268.88 47.825 Q2274.02 43.9361 2284.19 43.9361 L2294.64 43.9361 L2294.64 43.2069 Q2294.64 38.0623 2291.24 35.2672 Q2287.88 32.4315 2281.76 32.4315 Q2277.87 32.4315 2274.19 33.3632 Q2270.5 34.295 2267.1 36.1584 L2267.1 29.2718 Q2271.19 27.692 2275.04 26.9223 Q2278.88 26.1121 2282.53 26.1121 Q2292.37 26.1121 2297.23 31.2163 Q2302.1 36.3204 2302.1 46.6907 Z" fill="#000000" fill-rule="evenodd" fill-opacity="1" /><path clip-path="url(#clip110)" d="M2324.82 14.324 L2324.82 27.2059 L2340.17 27.2059 L2340.17 32.9987 L2324.82 32.9987 L2324.82 57.6282 Q2324.82 63.1779 2326.32 64.7578 Q2327.86 66.3376 2332.52 66.3376 L2340.17 66.3376 L2340.17 72.576 L2332.52 72.576 Q2323.89 72.576 2320.61 69.3758 Q2317.33 66.1351 2317.33 57.6282 L2317.33 32.9987 L2311.86 32.9987 L2311.86 27.2059 L2317.33 27.2059 L2317.33 14.324 L2324.82 14.324 Z" fill="#000000" fill-rule="evenodd" fill-opacity="1" /><path clip-path="url(#clip110)" d="M2388.79 48.0275 L2388.79 51.6733 L2354.51 51.6733 Q2355 59.3701 2359.13 63.421 Q2363.31 67.4314 2370.72 67.4314 Q2375.01 67.4314 2379.02 66.3781 Q2383.07 65.3249 2387.04 63.2184 L2387.04 70.267 Q2383.03 71.9684 2378.82 72.8596 Q2374.61 73.7508 2370.27 73.7508 Q2359.42 73.7508 2353.06 67.4314 Q2346.74 61.1119 2346.74 50.3365 Q2346.74 39.1965 2352.73 32.6746 Q2358.77 26.1121 2368.98 26.1121 Q2378.13 26.1121 2383.44 32.0264 Q2388.79 37.9003 2388.79 48.0275 M2381.33 45.84 Q2381.25 39.7232 2377.89 36.0774 Q2374.57 32.4315 2369.06 32.4315 Q2362.82 32.4315 2359.05 35.9558 Q2355.32 39.4801 2354.76 45.8805 L2381.33 45.84 Z" fill="#000000" fill-rule="evenodd" fill-opacity="1" /><path clip-path="url(#clip110)" d="M2429.94 28.5427 L2429.94 35.5912 Q2426.78 33.9709 2423.38 33.1607 Q2419.98 32.3505 2416.33 32.3505 Q2410.78 32.3505 2407.99 34.0519 Q2405.23 35.7533 2405.23 39.156 Q2405.23 41.7486 2407.22 43.2475 Q2409.2 44.7058 2415.2 46.0426 L2417.75 46.6097 Q2425.69 48.3111 2429.01 51.4303 Q2432.37 54.509 2432.37 60.0587 Q2432.37 66.3781 2427.35 70.0644 Q2422.37 73.7508 2413.62 73.7508 Q2409.97 73.7508 2406 73.0216 Q2402.07 72.3329 2397.7 70.9151 L2397.7 63.2184 Q2401.83 65.3654 2405.84 66.4591 Q2409.85 67.5124 2413.78 67.5124 Q2419.05 67.5124 2421.88 65.73 Q2424.72 63.9071 2424.72 60.6258 Q2424.72 57.5877 2422.65 55.9673 Q2420.63 54.3469 2413.7 52.8481 L2411.11 52.2405 Q2404.18 50.7821 2401.1 47.7845 Q2398.02 44.7463 2398.02 39.4801 Q2398.02 33.0797 2402.56 29.5959 Q2407.1 26.1121 2415.44 26.1121 Q2419.57 26.1121 2423.22 26.7198 Q2426.86 27.3274 2429.94 28.5427 Z" fill="#000000" fill-rule="evenodd" fill-opacity="1" /><path clip-path="url(#clip110)" d="M2503.18 49.9314 Q2503.18 41.7081 2499.78 37.0496 Q2496.42 32.3505 2490.5 32.3505 Q2484.59 32.3505 2481.19 37.0496 Q2477.82 41.7081 2477.82 49.9314 Q2477.82 58.1548 2481.19 62.8538 Q2484.59 67.5124 2490.5 67.5124 Q2496.42 67.5124 2499.78 62.8538 Q2503.18 58.1548 2503.18 49.9314 M2477.82 34.0924 Q2480.17 30.0415 2483.74 28.0971 Q2487.34 26.1121 2492.33 26.1121 Q2500.59 26.1121 2505.73 32.6746 Q2510.92 39.2371 2510.92 49.9314 Q2510.92 60.6258 2505.73 67.1883 Q2500.59 73.7508 2492.33 73.7508 Q2487.34 73.7508 2483.74 71.8063 Q2480.17 69.8214 2477.82 65.7705 L2477.82 72.576 L2470.33 72.576 L2470.33 9.54393 L2477.82 9.54393 L2477.82 34.0924 Z" fill="#000000" fill-rule="evenodd" fill-opacity="1" /><path clip-path="url(#clip110)" d="M2542.15 76.7889 Q2538.99 84.8907 2536 87.3618 Q2533 89.8329 2527.97 89.8329 L2522.02 89.8329 L2522.02 83.5945 L2526.39 83.5945 Q2529.47 83.5945 2531.17 82.1361 Q2532.88 80.6778 2534.94 75.2496 L2536.28 71.8468 L2517.93 27.2059 L2525.83 27.2059 L2540.01 62.6918 L2554.18 27.2059 L2562.08 27.2059 L2542.15 76.7889 Z" fill="#000000" fill-rule="evenodd" fill-opacity="1" /><path clip-path="url(#clip110)" d="M2628.6 34.0924 L2628.6 9.54393 L2636.05 9.54393 L2636.05 72.576 L2628.6 72.576 L2628.6 65.7705 Q2626.25 69.8214 2622.64 71.8063 Q2619.08 73.7508 2614.06 73.7508 Q2605.83 73.7508 2600.65 67.1883 Q2595.5 60.6258 2595.5 49.9314 Q2595.5 39.2371 2600.65 32.6746 Q2605.83 26.1121 2614.06 26.1121 Q2619.08 26.1121 2622.64 28.0971 Q2626.25 30.0415 2628.6 34.0924 M2603.2 49.9314 Q2603.2 58.1548 2606.56 62.8538 Q2609.96 67.5124 2615.88 67.5124 Q2621.79 67.5124 2625.2 62.8538 Q2628.6 58.1548 2628.6 49.9314 Q2628.6 41.7081 2625.2 37.0496 Q2621.79 32.3505 2615.88 32.3505 Q2609.96 32.3505 2606.56 37.0496 Q2603.2 41.7081 2603.2 49.9314 Z" fill="#000000" fill-rule="evenodd" fill-opacity="1" /><path clip-path="url(#clip110)" d="M2690.21 48.0275 L2690.21 51.6733 L2655.94 51.6733 Q2656.43 59.3701 2660.56 63.421 Q2664.73 67.4314 2672.15 67.4314 Q2676.44 67.4314 2680.45 66.3781 Q2684.5 65.3249 2688.47 63.2184 L2688.47 70.267 Q2684.46 71.9684 2680.25 72.8596 Q2676.03 73.7508 2671.7 73.7508 Q2660.84 73.7508 2654.48 67.4314 Q2648.16 61.1119 2648.16 50.3365 Q2648.16 39.1965 2654.16 32.6746 Q2660.2 26.1121 2670.4 26.1121 Q2679.56 26.1121 2684.87 32.0264 Q2690.21 37.9003 2690.21 48.0275 M2682.76 45.84 Q2682.68 39.7232 2679.32 36.0774 Q2675.99 32.4315 2670.49 32.4315 Q2664.25 32.4315 2660.48 35.9558 Q2656.75 39.4801 2656.19 45.8805 L2682.76 45.84 Z" fill="#000000" fill-rule="evenodd" fill-opacity="1" /><path clip-path="url(#clip110)" d="M2697.1 27.2059 L2705 27.2059 L2719.18 65.2844 L2733.36 27.2059 L2741.25 27.2059 L2724.24 72.576 L2714.11 72.576 L2697.1 27.2059 Z" fill="#000000" fill-rule="evenodd" fill-opacity="1" /><path clip-path="url(#clip110)" d="M2790.35 48.0275 L2790.35 51.6733 L2756.08 51.6733 Q2756.57 59.3701 2760.7 63.421 Q2764.87 67.4314 2772.28 67.4314 Q2776.58 67.4314 2780.59 66.3781 Q2784.64 65.3249 2788.61 63.2184 L2788.61 70.267 Q2784.6 71.9684 2780.39 72.8596 Q2776.17 73.7508 2771.84 73.7508 Q2760.98 73.7508 2754.62 67.4314 Q2748.3 61.1119 2748.3 50.3365 Q2748.3 39.1965 2754.3 32.6746 Q2760.33 26.1121 2770.54 26.1121 Q2779.7 26.1121 2785 32.0264 Q2790.35 37.9003 2790.35 48.0275 M2782.9 45.84 Q2782.82 39.7232 2779.45 36.0774 Q2776.13 32.4315 2770.62 32.4315 Q2764.39 32.4315 2760.62 35.9558 Q2756.89 39.4801 2756.32 45.8805 L2782.9 45.84 Z" fill="#000000" fill-rule="evenodd" fill-opacity="1" /><path clip-path="url(#clip110)" d="M2802.59 9.54393 L2810.04 9.54393 L2810.04 72.576 L2802.59 72.576 L2802.59 9.54393 Z" fill="#000000" fill-rule="evenodd" fill-opacity="1" /><path clip-path="url(#clip110)" d="M2843.22 32.4315 Q2837.22 32.4315 2833.74 37.1306 Q2830.25 41.7891 2830.25 49.9314 Q2830.25 58.0738 2833.7 62.7728 Q2837.18 67.4314 2843.22 67.4314 Q2849.17 67.4314 2852.65 62.7323 Q2856.14 58.0333 2856.14 49.9314 Q2856.14 41.8701 2852.65 37.1711 Q2849.17 32.4315 2843.22 32.4315 M2843.22 26.1121 Q2852.94 26.1121 2858.49 32.4315 Q2864.04 38.7509 2864.04 49.9314 Q2864.04 61.0714 2858.49 67.4314 Q2852.94 73.7508 2843.22 73.7508 Q2833.45 73.7508 2827.9 67.4314 Q2822.39 61.0714 2822.39 49.9314 Q2822.39 38.7509 2827.9 32.4315 Q2833.45 26.1121 2843.22 26.1121 Z" fill="#000000" fill-rule="evenodd" fill-opacity="1" /><path clip-path="url(#clip110)" d="M2883.6 65.7705 L2883.6 89.8329 L2876.11 89.8329 L2876.11 27.2059 L2883.6 27.2059 L2883.6 34.0924 Q2885.95 30.0415 2889.52 28.0971 Q2893.12 26.1121 2898.11 26.1121 Q2906.37 26.1121 2911.51 32.6746 Q2916.7 39.2371 2916.7 49.9314 Q2916.7 60.6258 2911.51 67.1883 Q2906.37 73.7508 2898.11 73.7508 Q2893.12 73.7508 2889.52 71.8063 Q2885.95 69.8214 2883.6 65.7705 M2908.96 49.9314 Q2908.96 41.7081 2905.56 37.0496 Q2902.2 32.3505 2896.28 32.3505 Q2890.37 32.3505 2886.97 37.0496 Q2883.6 41.7081 2883.6 49.9314 Q2883.6 58.1548 2886.97 62.8538 Q2890.37 67.5124 2896.28 67.5124 Q2902.2 67.5124 2905.56 62.8538 Q2908.96 58.1548 2908.96 49.9314 Z" fill="#000000" fill-rule="evenodd" fill-opacity="1" /><path clip-path="url(#clip110)" d="M2964.38 35.9153 Q2967.17 30.8922 2971.06 28.5022 Q2974.95 26.1121 2980.22 26.1121 Q2987.31 26.1121 2991.15 31.0947 Q2995 36.0368 2995 45.1919 L2995 72.576 L2987.51 72.576 L2987.51 45.4349 Q2987.51 38.913 2985.2 35.7533 Q2982.89 32.5936 2978.15 32.5936 Q2972.36 32.5936 2969 36.4419 Q2965.63 40.2903 2965.63 46.9338 L2965.63 72.576 L2958.14 72.576 L2958.14 45.4349 Q2958.14 38.8725 2955.83 35.7533 Q2953.52 32.5936 2948.7 32.5936 Q2942.99 32.5936 2939.63 36.4824 Q2936.27 40.3308 2936.27 46.9338 L2936.27 72.576 L2928.77 72.576 L2928.77 27.2059 L2936.27 27.2059 L2936.27 34.2544 Q2938.82 30.082 2942.38 28.0971 Q2945.95 26.1121 2950.85 26.1121 Q2955.79 26.1121 2959.23 28.6237 Q2962.72 31.1352 2964.38 35.9153 Z" fill="#000000" fill-rule="evenodd" fill-opacity="1" /><path clip-path="url(#clip110)" d="M3048.68 48.0275 L3048.68 51.6733 L3014.41 51.6733 Q3014.89 59.3701 3019.03 63.421 Q3023.2 67.4314 3030.61 67.4314 Q3034.9 67.4314 3038.91 66.3781 Q3042.97 65.3249 3046.94 63.2184 L3046.94 70.267 Q3042.93 71.9684 3038.71 72.8596 Q3034.5 73.7508 3030.17 73.7508 Q3019.31 73.7508 3012.95 67.4314 Q3006.63 61.1119 3006.63 50.3365 Q3006.63 39.1965 3012.62 32.6746 Q3018.66 26.1121 3028.87 26.1121 Q3038.02 26.1121 3043.33 32.0264 Q3048.68 37.9003 3048.68 48.0275 M3041.22 45.84 Q3041.14 39.7232 3037.78 36.0774 Q3034.46 32.4315 3028.95 32.4315 Q3022.71 32.4315 3018.94 35.9558 Q3015.22 39.4801 3014.65 45.8805 L3041.22 45.84 Z" fill="#000000" fill-rule="evenodd" fill-opacity="1" /><path clip-path="url(#clip110)" d="M3098.63 45.1919 L3098.63 72.576 L3091.17 72.576 L3091.17 45.4349 Q3091.17 38.994 3088.66 35.7938 Q3086.15 32.5936 3081.13 32.5936 Q3075.09 32.5936 3071.61 36.4419 Q3068.12 40.2903 3068.12 46.9338 L3068.12 72.576 L3060.63 72.576 L3060.63 27.2059 L3068.12 27.2059 L3068.12 34.2544 Q3070.8 30.163 3074.4 28.1376 Q3078.05 26.1121 3082.79 26.1121 Q3090.6 26.1121 3094.61 30.9732 Q3098.63 35.7938 3098.63 45.1919 Z" fill="#000000" fill-rule="evenodd" fill-opacity="1" /><path clip-path="url(#clip110)" d="M3120.86 14.324 L3120.86 27.2059 L3136.22 27.2059 L3136.22 32.9987 L3120.86 32.9987 L3120.86 57.6282 Q3120.86 63.1779 3122.36 64.7578 Q3123.9 66.3376 3128.56 66.3376 L3136.22 66.3376 L3136.22 72.576 L3128.56 72.576 Q3119.93 72.576 3116.65 69.3758 Q3113.37 66.1351 3113.37 57.6282 L3113.37 32.9987 L3107.9 32.9987 L3107.9 27.2059 L3113.37 27.2059 L3113.37 14.324 L3120.86 14.324 Z" fill="#000000" fill-rule="evenodd" fill-opacity="1" /><path clip-path="url(#clip112)" d="
M477.94 2067.73 L477.94 2104.36 L799.264 2104.36 L799.264 2067.73 L477.94 2067.73 L477.94 2067.73  Z
  " fill="#009af9" fill-rule="evenodd" fill-opacity="1"/>
<polyline clip-path="url(#clip112)" style="stroke:#000000; stroke-linecap:round; stroke-linejoin:round; stroke-width:4; stroke-opacity:1; fill:none" points="
  477.94,2067.73 477.94,2104.36 799.264,2104.36 799.264,2067.73 477.94,2067.73 
  "/>
<path clip-path="url(#clip112)" d="
M799.264 2031.11 L799.264 2104.36 L1120.59 2104.36 L1120.59 2031.11 L799.264 2031.11 L799.264 2031.11  Z
  " fill="#009af9" fill-rule="evenodd" fill-opacity="1"/>
<polyline clip-path="url(#clip112)" style="stroke:#000000; stroke-linecap:round; stroke-linejoin:round; stroke-width:4; stroke-opacity:1; fill:none" points="
  799.264,2031.11 799.264,2104.36 1120.59,2104.36 1120.59,2031.11 799.264,2031.11 
  "/>
<path clip-path="url(#clip112)" d="
M1120.59 2067.73 L1120.59 2104.36 L1441.91 2104.36 L1441.91 2067.73 L1120.59 2067.73 L1120.59 2067.73  Z
  " fill="#009af9" fill-rule="evenodd" fill-opacity="1"/>
<polyline clip-path="url(#clip112)" style="stroke:#000000; stroke-linecap:round; stroke-linejoin:round; stroke-width:4; stroke-opacity:1; fill:none" points="
  1120.59,2067.73 1120.59,2104.36 1441.91,2104.36 1441.91,2067.73 1120.59,2067.73 
  "/>
<path clip-path="url(#clip112)" d="
M1441.91 1298.6 L1441.91 2104.36 L1763.24 2104.36 L1763.24 1298.6 L1441.91 1298.6 L1441.91 1298.6  Z
  " fill="#009af9" fill-rule="evenodd" fill-opacity="1"/>
<polyline clip-path="url(#clip112)" style="stroke:#000000; stroke-linecap:round; stroke-linejoin:round; stroke-width:4; stroke-opacity:1; fill:none" points="
  1441.91,1298.6 1441.91,2104.36 1763.24,2104.36 1763.24,1298.6 1441.91,1298.6 
  "/>
<path clip-path="url(#clip112)" d="
M1763.24 785.837 L1763.24 2104.36 L2084.56 2104.36 L2084.56 785.837 L1763.24 785.837 L1763.24 785.837  Z
  " fill="#009af9" fill-rule="evenodd" fill-opacity="1"/>
<polyline clip-path="url(#clip112)" style="stroke:#000000; stroke-linecap:round; stroke-linejoin:round; stroke-width:4; stroke-opacity:1; fill:none" points="
  1763.24,785.837 1763.24,2104.36 2084.56,2104.36 2084.56,785.837 1763.24,785.837 
  "/>
<path clip-path="url(#clip112)" d="
M2084.56 236.453 L2084.56 2104.36 L2405.89 2104.36 L2405.89 236.453 L2084.56 236.453 L2084.56 236.453  Z
  " fill="#009af9" fill-rule="evenodd" fill-opacity="1"/>
<polyline clip-path="url(#clip112)" style="stroke:#000000; stroke-linecap:round; stroke-linejoin:round; stroke-width:4; stroke-opacity:1; fill:none" points="
  2084.56,236.453 2084.56,2104.36 2405.89,2104.36 2405.89,236.453 2084.56,236.453 
  "/>
<path clip-path="url(#clip112)" d="
M2405.89 602.709 L2405.89 2104.36 L2727.21 2104.36 L2727.21 602.709 L2405.89 602.709 L2405.89 602.709  Z
  " fill="#009af9" fill-rule="evenodd" fill-opacity="1"/>
<polyline clip-path="url(#clip112)" style="stroke:#000000; stroke-linecap:round; stroke-linejoin:round; stroke-width:4; stroke-opacity:1; fill:none" points="
  2405.89,602.709 2405.89,2104.36 2727.21,2104.36 2727.21,602.709 2405.89,602.709 
  "/>
<path clip-path="url(#clip112)" d="
M2727.21 1115.47 L2727.21 2104.36 L3048.54 2104.36 L3048.54 1115.47 L2727.21 1115.47 L2727.21 1115.47  Z
  " fill="#009af9" fill-rule="evenodd" fill-opacity="1"/>
<polyline clip-path="url(#clip112)" style="stroke:#000000; stroke-linecap:round; stroke-linejoin:round; stroke-width:4; stroke-opacity:1; fill:none" points="
  2727.21,1115.47 2727.21,2104.36 3048.54,2104.36 3048.54,1115.47 2727.21,1115.47 
  "/>
<path clip-path="url(#clip112)" d="
M3048.54 1738.1 L3048.54 2104.36 L3369.86 2104.36 L3369.86 1738.1 L3048.54 1738.1 L3048.54 1738.1  Z
  " fill="#009af9" fill-rule="evenodd" fill-opacity="1"/>
<polyline clip-path="url(#clip112)" style="stroke:#000000; stroke-linecap:round; stroke-linejoin:round; stroke-width:4; stroke-opacity:1; fill:none" points="
  3048.54,1738.1 3048.54,2104.36 3369.86,2104.36 3369.86,1738.1 3048.54,1738.1 
  "/>
<path clip-path="url(#clip112)" d="
M3369.86 1957.86 L3369.86 2104.36 L3691.19 2104.36 L3691.19 1957.86 L3369.86 1957.86 L3369.86 1957.86  Z
  " fill="#009af9" fill-rule="evenodd" fill-opacity="1"/>
<polyline clip-path="url(#clip112)" style="stroke:#000000; stroke-linecap:round; stroke-linejoin:round; stroke-width:4; stroke-opacity:1; fill:none" points="
  3369.86,1957.86 3369.86,2104.36 3691.19,2104.36 3691.19,1957.86 3369.86,1957.86 
  "/>
<circle clip-path="url(#clip112)" style="fill:#009af9; stroke:none; fill-opacity:0" cx="638.602" cy="2067.73" r="2"/>
<circle clip-path="url(#clip112)" style="fill:#009af9; stroke:none; fill-opacity:0" cx="959.927" cy="2031.11" r="2"/>
<circle clip-path="url(#clip112)" style="fill:#009af9; stroke:none; fill-opacity:0" cx="1281.25" cy="2067.73" r="2"/>
<circle clip-path="url(#clip112)" style="fill:#009af9; stroke:none; fill-opacity:0" cx="1602.58" cy="1298.6" r="2"/>
<circle clip-path="url(#clip112)" style="fill:#009af9; stroke:none; fill-opacity:0" cx="1923.9" cy="785.837" r="2"/>
<circle clip-path="url(#clip112)" style="fill:#009af9; stroke:none; fill-opacity:0" cx="2245.22" cy="236.453" r="2"/>
<circle clip-path="url(#clip112)" style="fill:#009af9; stroke:none; fill-opacity:0" cx="2566.55" cy="602.709" r="2"/>
<circle clip-path="url(#clip112)" style="fill:#009af9; stroke:none; fill-opacity:0" cx="2887.87" cy="1115.47" r="2"/>
<circle clip-path="url(#clip112)" style="fill:#009af9; stroke:none; fill-opacity:0" cx="3209.2" cy="1738.1" r="2"/>
<circle clip-path="url(#clip112)" style="fill:#009af9; stroke:none; fill-opacity:0" cx="3530.52" cy="1957.86" r="2"/>
<polyline clip-path="url(#clip112)" style="stroke:#e26f46; stroke-linecap:round; stroke-linejoin:round; stroke-width:4; stroke-opacity:1; fill:none" points="
  2084.56,4140.38 2084.56,-1799.56 
  "/>
<path clip-path="url(#clip110)" d="
M399.708 453.776 L1302.81 453.776 L1302.81 246.416 L399.708 246.416  Z
  " fill="#ffffff" fill-rule="evenodd" fill-opacity="1"/>
<polyline clip-path="url(#clip110)" style="stroke:#000000; stroke-linecap:round; stroke-linejoin:round; stroke-width:4; stroke-opacity:1; fill:none" points="
  399.708,453.776 1302.81,453.776 1302.81,246.416 399.708,246.416 399.708,453.776 
  "/>
<polyline clip-path="url(#clip110)" style="stroke:#e26f46; stroke-linecap:round; stroke-linejoin:round; stroke-width:4; stroke-opacity:1; fill:none" points="
  439.823,350.096 680.517,350.096 
  "/>
<path clip-path="url(#clip110)" d="M720.633 306.896 L725.332 306.896 L725.332 327.891 Q725.332 333.446 727.345 335.9 Q729.359 338.331 733.873 338.331 Q738.364 338.331 740.378 335.9 Q742.392 333.446 742.392 327.891 L742.392 306.896 L747.091 306.896 L747.091 328.47 Q747.091 335.229 743.734 338.678 Q740.401 342.127 733.873 342.127 Q727.322 342.127 723.966 338.678 Q720.633 335.229 720.633 328.47 L720.633 306.896 Z" fill="#000000" fill-rule="evenodd" fill-opacity="1" /><path clip-path="url(#clip110)" d="M777.229 325.808 L777.229 341.456 L772.97 341.456 L772.97 325.946 Q772.97 322.266 771.535 320.437 Q770.1 318.608 767.23 318.608 Q763.78 318.608 761.79 320.808 Q759.799 323.007 759.799 326.803 L759.799 341.456 L755.517 341.456 L755.517 315.53 L759.799 315.53 L759.799 319.558 Q761.327 317.22 763.387 316.062 Q765.47 314.905 768.179 314.905 Q772.646 314.905 774.938 317.683 Q777.229 320.437 777.229 325.808 Z" fill="#000000" fill-rule="evenodd" fill-opacity="1" /><path clip-path="url(#clip110)" d="M802.785 319.465 L802.785 305.437 L807.044 305.437 L807.044 341.456 L802.785 341.456 L802.785 337.567 Q801.442 339.882 799.382 341.016 Q797.345 342.127 794.475 342.127 Q789.776 342.127 786.813 338.377 Q783.873 334.627 783.873 328.516 Q783.873 322.405 786.813 318.655 Q789.776 314.905 794.475 314.905 Q797.345 314.905 799.382 316.039 Q801.442 317.15 802.785 319.465 M788.271 328.516 Q788.271 333.215 790.192 335.9 Q792.137 338.562 795.516 338.562 Q798.896 338.562 800.84 335.9 Q802.785 333.215 802.785 328.516 Q802.785 323.817 800.84 321.155 Q798.896 318.47 795.516 318.47 Q792.137 318.47 790.192 321.155 Q788.271 323.817 788.271 328.516 Z" fill="#000000" fill-rule="evenodd" fill-opacity="1" /><path clip-path="url(#clip110)" d="M837.993 327.428 L837.993 329.511 L818.41 329.511 Q818.688 333.909 821.049 336.224 Q823.433 338.516 827.669 338.516 Q830.123 338.516 832.414 337.914 Q834.729 337.312 836.998 336.108 L836.998 340.136 Q834.706 341.108 832.299 341.618 Q829.891 342.127 827.414 342.127 Q821.211 342.127 817.576 338.516 Q813.965 334.905 813.965 328.747 Q813.965 322.382 817.391 318.655 Q820.84 314.905 826.674 314.905 Q831.905 314.905 834.937 318.284 Q837.993 321.641 837.993 327.428 M833.734 326.178 Q833.687 322.683 831.766 320.599 Q829.868 318.516 826.72 318.516 Q823.155 318.516 821.002 320.53 Q818.873 322.544 818.549 326.201 L833.734 326.178 Z" fill="#000000" fill-rule="evenodd" fill-opacity="1" /><path clip-path="url(#clip110)" d="M860.007 319.511 Q859.289 319.095 858.433 318.909 Q857.599 318.701 856.581 318.701 Q852.97 318.701 851.025 321.062 Q849.104 323.4 849.104 327.798 L849.104 341.456 L844.822 341.456 L844.822 315.53 L849.104 315.53 L849.104 319.558 Q850.447 317.196 852.599 316.062 Q854.752 314.905 857.831 314.905 Q858.271 314.905 858.803 314.974 Q859.335 315.021 859.984 315.136 L860.007 319.511 Z" fill="#000000" fill-rule="evenodd" fill-opacity="1" /><path clip-path="url(#clip110)" d="M872.044 306.896 L875.979 306.896 L863.942 345.854 L860.007 345.854 L872.044 306.896 Z" fill="#000000" fill-rule="evenodd" fill-opacity="1" /><path clip-path="url(#clip110)" d="M894.659 310.067 Q889.567 310.067 886.558 313.863 Q883.571 317.659 883.571 324.21 Q883.571 330.738 886.558 334.534 Q889.567 338.331 894.659 338.331 Q899.752 338.331 902.715 334.534 Q905.701 330.738 905.701 324.21 Q905.701 317.659 902.715 313.863 Q899.752 310.067 894.659 310.067 M894.659 306.271 Q901.928 306.271 906.28 311.155 Q910.632 316.016 910.632 324.21 Q910.632 332.382 906.28 337.266 Q901.928 342.127 894.659 342.127 Q887.368 342.127 882.993 337.266 Q878.641 332.405 878.641 324.21 Q878.641 316.016 882.993 311.155 Q887.368 306.271 894.659 306.271 Z" fill="#000000" fill-rule="evenodd" fill-opacity="1" /><path clip-path="url(#clip110)" d="M914.706 315.53 L919.219 315.53 L927.321 337.289 L935.423 315.53 L939.937 315.53 L930.215 341.456 L924.428 341.456 L914.706 315.53 Z" fill="#000000" fill-rule="evenodd" fill-opacity="1" /><path clip-path="url(#clip110)" d="M967.992 327.428 L967.992 329.511 L948.409 329.511 Q948.687 333.909 951.048 336.224 Q953.432 338.516 957.668 338.516 Q960.122 338.516 962.414 337.914 Q964.728 337.312 966.997 336.108 L966.997 340.136 Q964.705 341.108 962.298 341.618 Q959.891 342.127 957.414 342.127 Q951.21 342.127 947.576 338.516 Q943.965 334.905 943.965 328.747 Q943.965 322.382 947.391 318.655 Q950.84 314.905 956.673 314.905 Q961.904 314.905 964.937 318.284 Q967.992 321.641 967.992 327.428 M963.733 326.178 Q963.687 322.683 961.766 320.599 Q959.867 318.516 956.719 318.516 Q953.154 318.516 951.002 320.53 Q948.872 322.544 948.548 326.201 L963.733 326.178 Z" fill="#000000" fill-rule="evenodd" fill-opacity="1" /><path clip-path="url(#clip110)" d="M990.006 319.511 Q989.289 319.095 988.432 318.909 Q987.599 318.701 986.58 318.701 Q982.969 318.701 981.025 321.062 Q979.103 323.4 979.103 327.798 L979.103 341.456 L974.821 341.456 L974.821 315.53 L979.103 315.53 L979.103 319.558 Q980.446 317.196 982.599 316.062 Q984.751 314.905 987.83 314.905 Q988.27 314.905 988.802 314.974 Q989.335 315.021 989.983 315.136 L990.006 319.511 Z" fill="#000000" fill-rule="evenodd" fill-opacity="1" /><path clip-path="url(#clip110)" d="M1011 316.294 L1011 320.321 Q1009.2 319.396 1007.25 318.933 Q1005.31 318.47 1003.22 318.47 Q1000.05 318.47 998.455 319.442 Q996.881 320.414 996.881 322.358 Q996.881 323.84 998.015 324.696 Q999.15 325.53 1002.58 326.294 L1004.03 326.618 Q1008.57 327.59 1010.47 329.372 Q1012.39 331.132 1012.39 334.303 Q1012.39 337.914 1009.52 340.02 Q1006.67 342.127 1001.67 342.127 Q999.589 342.127 997.321 341.71 Q995.076 341.317 992.576 340.506 L992.576 336.108 Q994.937 337.335 997.228 337.96 Q999.52 338.562 1001.77 338.562 Q1004.77 338.562 1006.39 337.544 Q1008.02 336.502 1008.02 334.627 Q1008.02 332.891 1006.83 331.965 Q1005.68 331.039 1001.72 330.182 L1000.24 329.835 Q996.279 329.002 994.52 327.289 Q992.761 325.553 992.761 322.544 Q992.761 318.886 995.353 316.896 Q997.946 314.905 1002.71 314.905 Q1005.08 314.905 1007.16 315.252 Q1009.24 315.599 1011 316.294 Z" fill="#000000" fill-rule="evenodd" fill-opacity="1" /><path clip-path="url(#clip110)" d="M1018.73 331.224 L1018.73 315.53 L1022.99 315.53 L1022.99 331.062 Q1022.99 334.743 1024.43 336.594 Q1025.86 338.423 1028.73 338.423 Q1032.18 338.423 1034.17 336.224 Q1036.19 334.025 1036.19 330.229 L1036.19 315.53 L1040.45 315.53 L1040.45 341.456 L1036.19 341.456 L1036.19 337.474 Q1034.64 339.835 1032.58 340.993 Q1030.54 342.127 1027.83 342.127 Q1023.36 342.127 1021.05 339.349 Q1018.73 336.571 1018.73 331.224 M1029.45 314.905 L1029.45 314.905 Z" fill="#000000" fill-rule="evenodd" fill-opacity="1" /><path clip-path="url(#clip110)" d="M1067.83 328.516 Q1067.83 323.817 1065.89 321.155 Q1063.96 318.47 1060.58 318.47 Q1057.2 318.47 1055.26 321.155 Q1053.34 323.817 1053.34 328.516 Q1053.34 333.215 1055.26 335.9 Q1057.2 338.562 1060.58 338.562 Q1063.96 338.562 1065.89 335.9 Q1067.83 333.215 1067.83 328.516 M1053.34 319.465 Q1054.68 317.15 1056.72 316.039 Q1058.78 314.905 1061.63 314.905 Q1066.35 314.905 1069.29 318.655 Q1072.25 322.405 1072.25 328.516 Q1072.25 334.627 1069.29 338.377 Q1066.35 342.127 1061.63 342.127 Q1058.78 342.127 1056.72 341.016 Q1054.68 339.882 1053.34 337.567 L1053.34 341.456 L1049.06 341.456 L1049.06 305.437 L1053.34 305.437 L1053.34 319.465 Z" fill="#000000" fill-rule="evenodd" fill-opacity="1" /><path clip-path="url(#clip110)" d="M1095.84 316.294 L1095.84 320.321 Q1094.03 319.396 1092.09 318.933 Q1090.14 318.47 1088.06 318.47 Q1084.89 318.47 1083.29 319.442 Q1081.72 320.414 1081.72 322.358 Q1081.72 323.84 1082.85 324.696 Q1083.99 325.53 1087.41 326.294 L1088.87 326.618 Q1093.41 327.59 1095.31 329.372 Q1097.23 331.132 1097.23 334.303 Q1097.23 337.914 1094.36 340.02 Q1091.51 342.127 1086.51 342.127 Q1084.43 342.127 1082.16 341.71 Q1079.91 341.317 1077.41 340.506 L1077.41 336.108 Q1079.77 337.335 1082.07 337.96 Q1084.36 338.562 1086.6 338.562 Q1089.61 338.562 1091.23 337.544 Q1092.85 336.502 1092.85 334.627 Q1092.85 332.891 1091.67 331.965 Q1090.51 331.039 1086.56 330.182 L1085.08 329.835 Q1081.12 329.002 1079.36 327.289 Q1077.6 325.553 1077.6 322.544 Q1077.6 318.886 1080.19 316.896 Q1082.78 314.905 1087.55 314.905 Q1089.91 314.905 1092 315.252 Q1094.08 315.599 1095.84 316.294 Z" fill="#000000" fill-rule="evenodd" fill-opacity="1" /><path clip-path="url(#clip110)" d="M1122.67 316.525 L1122.67 320.507 Q1120.86 319.511 1119.03 319.025 Q1117.23 318.516 1115.38 318.516 Q1111.23 318.516 1108.94 321.155 Q1106.65 323.77 1106.65 328.516 Q1106.65 333.261 1108.94 335.9 Q1111.23 338.516 1115.38 338.516 Q1117.23 338.516 1119.03 338.03 Q1120.86 337.52 1122.67 336.525 L1122.67 340.46 Q1120.89 341.294 1118.96 341.71 Q1117.07 342.127 1114.91 342.127 Q1109.06 342.127 1105.61 338.446 Q1102.16 334.766 1102.16 328.516 Q1102.16 322.173 1105.63 318.539 Q1109.13 314.905 1115.19 314.905 Q1117.16 314.905 1119.03 315.321 Q1120.91 315.715 1122.67 316.525 Z" fill="#000000" fill-rule="evenodd" fill-opacity="1" /><path clip-path="url(#clip110)" d="M1145.1 319.511 Q1144.38 319.095 1143.52 318.909 Q1142.69 318.701 1141.67 318.701 Q1138.06 318.701 1136.12 321.062 Q1134.2 323.4 1134.2 327.798 L1134.2 341.456 L1129.91 341.456 L1129.91 315.53 L1134.2 315.53 L1134.2 319.558 Q1135.54 317.196 1137.69 316.062 Q1139.84 314.905 1142.92 314.905 Q1143.36 314.905 1143.89 314.974 Q1144.43 315.021 1145.07 315.136 L1145.1 319.511 Z" fill="#000000" fill-rule="evenodd" fill-opacity="1" /><path clip-path="url(#clip110)" d="M1149.57 315.53 L1153.82 315.53 L1153.82 341.456 L1149.57 341.456 L1149.57 315.53 M1149.57 305.437 L1153.82 305.437 L1153.82 310.831 L1149.57 310.831 L1149.57 305.437 Z" fill="#000000" fill-rule="evenodd" fill-opacity="1" /><path clip-path="url(#clip110)" d="M1181.35 328.516 Q1181.35 323.817 1179.4 321.155 Q1177.48 318.47 1174.1 318.47 Q1170.72 318.47 1168.78 321.155 Q1166.86 323.817 1166.86 328.516 Q1166.86 333.215 1168.78 335.9 Q1170.72 338.562 1174.1 338.562 Q1177.48 338.562 1179.4 335.9 Q1181.35 333.215 1181.35 328.516 M1166.86 319.465 Q1168.2 317.15 1170.24 316.039 Q1172.3 314.905 1175.14 314.905 Q1179.87 314.905 1182.81 318.655 Q1185.77 322.405 1185.77 328.516 Q1185.77 334.627 1182.81 338.377 Q1179.87 342.127 1175.14 342.127 Q1172.3 342.127 1170.24 341.016 Q1168.2 339.882 1166.86 337.567 L1166.86 341.456 L1162.57 341.456 L1162.57 305.437 L1166.86 305.437 L1166.86 319.465 Z" fill="#000000" fill-rule="evenodd" fill-opacity="1" /><path clip-path="url(#clip110)" d="M1215 327.428 L1215 329.511 L1195.42 329.511 Q1195.7 333.909 1198.06 336.224 Q1200.44 338.516 1204.68 338.516 Q1207.13 338.516 1209.43 337.914 Q1211.74 337.312 1214.01 336.108 L1214.01 340.136 Q1211.72 341.108 1209.31 341.618 Q1206.9 342.127 1204.43 342.127 Q1198.22 342.127 1194.59 338.516 Q1190.98 334.905 1190.98 328.747 Q1190.98 322.382 1194.4 318.655 Q1197.85 314.905 1203.69 314.905 Q1208.92 314.905 1211.95 318.284 Q1215 321.641 1215 327.428 M1210.75 326.178 Q1210.7 322.683 1208.78 320.599 Q1206.88 318.516 1203.73 318.516 Q1200.17 318.516 1198.01 320.53 Q1195.88 322.544 1195.56 326.201 L1210.75 326.178 Z" fill="#000000" fill-rule="evenodd" fill-opacity="1" /><path clip-path="url(#clip110)" d="M1239.06 319.465 L1239.06 305.437 L1243.31 305.437 L1243.31 341.456 L1239.06 341.456 L1239.06 337.567 Q1237.71 339.882 1235.65 341.016 Q1233.62 342.127 1230.75 342.127 Q1226.05 342.127 1223.08 338.377 Q1220.14 334.627 1220.14 328.516 Q1220.14 322.405 1223.08 318.655 Q1226.05 314.905 1230.75 314.905 Q1233.62 314.905 1235.65 316.039 Q1237.71 317.15 1239.06 319.465 M1224.54 328.516 Q1224.54 333.215 1226.46 335.9 Q1228.41 338.562 1231.79 338.562 Q1235.17 338.562 1237.11 335.9 Q1239.06 333.215 1239.06 328.516 Q1239.06 323.817 1237.11 321.155 Q1235.17 318.47 1231.79 318.47 Q1228.41 318.47 1226.46 321.155 Q1224.54 323.817 1224.54 328.516 Z" fill="#000000" fill-rule="evenodd" fill-opacity="1" /><path clip-path="url(#clip110)" d="M750.401 357.324 Q747.299 362.648 745.794 367.856 Q744.29 373.064 744.29 378.411 Q744.29 383.759 745.794 389.013 Q747.322 394.245 750.401 399.546 L746.697 399.546 Q743.225 394.106 741.489 388.851 Q739.776 383.597 739.776 378.411 Q739.776 373.249 741.489 368.018 Q743.202 362.786 746.697 357.324 L750.401 357.324 Z" fill="#000000" fill-rule="evenodd" fill-opacity="1" /><path clip-path="url(#clip110)" d="M758.85 358.736 L763.526 358.736 L763.526 393.296 L758.85 393.296 L758.85 358.736 Z" fill="#000000" fill-rule="evenodd" fill-opacity="1" /><path clip-path="url(#clip110)" d="M786.859 361.907 Q781.766 361.907 778.757 365.703 Q775.771 369.499 775.771 376.05 Q775.771 382.578 778.757 386.374 Q781.766 390.171 786.859 390.171 Q791.952 390.171 794.915 386.374 Q797.901 382.578 797.901 376.05 Q797.901 369.499 794.915 365.703 Q791.952 361.907 786.859 361.907 M793.41 392.671 L799.567 399.407 L793.919 399.407 L788.803 393.874 Q788.04 393.921 787.623 393.944 Q787.229 393.967 786.859 393.967 Q779.567 393.967 775.192 389.106 Q770.841 384.222 770.841 376.05 Q770.841 367.856 775.192 362.995 Q779.567 358.111 786.859 358.111 Q794.128 358.111 798.479 362.995 Q802.831 367.856 802.831 376.05 Q802.831 382.069 800.401 386.351 Q797.993 390.634 793.41 392.671 Z" fill="#000000" fill-rule="evenodd" fill-opacity="1" /><path clip-path="url(#clip110)" d="M826.535 377.092 Q828.039 377.601 829.451 379.268 Q830.887 380.935 832.322 383.851 L837.067 393.296 L832.044 393.296 L827.623 384.43 Q825.91 380.958 824.289 379.823 Q822.692 378.689 819.914 378.689 L814.822 378.689 L814.822 393.296 L810.146 393.296 L810.146 358.736 L820.701 358.736 Q826.627 358.736 829.544 361.212 Q832.461 363.689 832.461 368.689 Q832.461 371.953 830.933 374.106 Q829.428 376.259 826.535 377.092 M814.822 362.578 L814.822 374.847 L820.701 374.847 Q824.081 374.847 825.794 373.296 Q827.53 371.722 827.53 368.689 Q827.53 365.657 825.794 364.129 Q824.081 362.578 820.701 362.578 L814.822 362.578 Z" fill="#000000" fill-rule="evenodd" fill-opacity="1" /><path clip-path="url(#clip110)" d="M842.53 387.416 L847.414 387.416 L847.414 393.296 L842.53 393.296 L842.53 387.416 M842.53 368.782 L847.414 368.782 L847.414 374.661 L842.53 374.661 L842.53 368.782 Z" fill="#000000" fill-rule="evenodd" fill-opacity="1" /><path clip-path="url(#clip110)" d="M882.715 357.324 Q879.613 362.648 878.109 367.856 Q876.604 373.064 876.604 378.411 Q876.604 383.759 878.109 389.013 Q879.636 394.245 882.715 399.546 L879.011 399.546 Q875.539 394.106 873.803 388.851 Q872.09 383.597 872.09 378.411 Q872.09 373.249 873.803 368.018 Q875.516 362.786 879.011 357.324 L882.715 357.324 Z" fill="#000000" fill-rule="evenodd" fill-opacity="1" /><path clip-path="url(#clip110)" d="M901.581 361.814 Q897.97 361.814 896.141 365.379 Q894.335 368.921 894.335 376.05 Q894.335 383.157 896.141 386.722 Q897.97 390.263 901.581 390.263 Q905.215 390.263 907.02 386.722 Q908.849 383.157 908.849 376.05 Q908.849 368.921 907.02 365.379 Q905.215 361.814 901.581 361.814 M901.581 358.111 Q907.391 358.111 910.446 362.717 Q913.525 367.3 913.525 376.05 Q913.525 384.777 910.446 389.384 Q907.391 393.967 901.581 393.967 Q895.77 393.967 892.692 389.384 Q889.636 384.777 889.636 376.05 Q889.636 367.3 892.692 362.717 Q895.77 358.111 901.581 358.111 Z" fill="#000000" fill-rule="evenodd" fill-opacity="1" /><path clip-path="url(#clip110)" d="M921.743 387.416 L926.627 387.416 L926.627 393.296 L921.743 393.296 L921.743 387.416 Z" fill="#000000" fill-rule="evenodd" fill-opacity="1" /><path clip-path="url(#clip110)" d="M946.812 376.884 Q943.479 376.884 941.557 378.666 Q939.659 380.448 939.659 383.573 Q939.659 386.698 941.557 388.481 Q943.479 390.263 946.812 390.263 Q950.145 390.263 952.066 388.481 Q953.988 386.675 953.988 383.573 Q953.988 380.448 952.066 378.666 Q950.168 376.884 946.812 376.884 M942.136 374.893 Q939.127 374.152 937.437 372.092 Q935.77 370.032 935.77 367.069 Q935.77 362.925 938.71 360.518 Q941.673 358.111 946.812 358.111 Q951.974 358.111 954.914 360.518 Q957.853 362.925 957.853 367.069 Q957.853 370.032 956.164 372.092 Q954.497 374.152 951.511 374.893 Q954.891 375.68 956.766 377.972 Q958.664 380.263 958.664 383.573 Q958.664 388.597 955.585 391.282 Q952.529 393.967 946.812 393.967 Q941.094 393.967 938.016 391.282 Q934.96 388.597 934.96 383.573 Q934.96 380.263 936.858 377.972 Q938.756 375.68 942.136 374.893 M940.423 367.509 Q940.423 370.194 942.09 371.698 Q943.779 373.203 946.812 373.203 Q949.821 373.203 951.511 371.698 Q953.224 370.194 953.224 367.509 Q953.224 364.823 951.511 363.319 Q949.821 361.814 946.812 361.814 Q943.779 361.814 942.09 363.319 Q940.423 364.823 940.423 367.509 Z" fill="#000000" fill-rule="evenodd" fill-opacity="1" /><path clip-path="url(#clip110)" d="M976.974 361.814 Q973.363 361.814 971.534 365.379 Q969.728 368.921 969.728 376.05 Q969.728 383.157 971.534 386.722 Q973.363 390.263 976.974 390.263 Q980.608 390.263 982.414 386.722 Q984.242 383.157 984.242 376.05 Q984.242 368.921 982.414 365.379 Q980.608 361.814 976.974 361.814 M976.974 358.111 Q982.784 358.111 985.839 362.717 Q988.918 367.3 988.918 376.05 Q988.918 384.777 985.839 389.384 Q982.784 393.967 976.974 393.967 Q971.164 393.967 968.085 389.384 Q965.029 384.777 965.029 376.05 Q965.029 367.3 968.085 362.717 Q971.164 358.111 976.974 358.111 Z" fill="#000000" fill-rule="evenodd" fill-opacity="1" /><path clip-path="url(#clip110)" d="M997.622 387.416 L1002.51 387.416 L1002.51 391.397 L998.71 398.805 L995.724 398.805 L997.622 391.397 L997.622 387.416 Z" fill="#000000" fill-rule="evenodd" fill-opacity="1" /><path clip-path="url(#clip110)" d="M1031.3 389.36 L1047.62 389.36 L1047.62 393.296 L1025.68 393.296 L1025.68 389.36 Q1028.34 386.606 1032.92 381.976 Q1037.53 377.323 1038.71 375.981 Q1040.95 373.458 1041.83 371.722 Q1042.74 369.962 1042.74 368.273 Q1042.74 365.518 1040.79 363.782 Q1038.87 362.046 1035.77 362.046 Q1033.57 362.046 1031.12 362.81 Q1028.69 363.574 1025.91 365.124 L1025.91 360.402 Q1028.73 359.268 1031.19 358.689 Q1033.64 358.111 1035.68 358.111 Q1041.05 358.111 1044.24 360.796 Q1047.44 363.481 1047.44 367.972 Q1047.44 370.101 1046.63 372.023 Q1045.84 373.921 1043.73 376.513 Q1043.15 377.185 1040.05 380.402 Q1036.95 383.597 1031.3 389.36 Z" fill="#000000" fill-rule="evenodd" fill-opacity="1" /><path clip-path="url(#clip110)" d="M1057.44 387.416 L1062.32 387.416 L1062.32 393.296 L1057.44 393.296 L1057.44 387.416 Z" fill="#000000" fill-rule="evenodd" fill-opacity="1" /><path clip-path="url(#clip110)" d="M1086.67 374.661 Q1090.03 375.379 1091.9 377.648 Q1093.8 379.916 1093.8 383.249 Q1093.8 388.365 1090.28 391.166 Q1086.76 393.967 1080.28 393.967 Q1078.11 393.967 1075.79 393.527 Q1073.5 393.11 1071.05 392.254 L1071.05 387.74 Q1072.99 388.874 1075.31 389.453 Q1077.62 390.032 1080.14 390.032 Q1084.54 390.032 1086.83 388.296 Q1089.15 386.559 1089.15 383.249 Q1089.15 380.194 1087 378.481 Q1084.87 376.745 1081.05 376.745 L1077.02 376.745 L1077.02 372.902 L1081.23 372.902 Q1084.68 372.902 1086.51 371.536 Q1088.34 370.148 1088.34 367.555 Q1088.34 364.893 1086.44 363.481 Q1084.57 362.046 1081.05 362.046 Q1079.13 362.046 1076.93 362.462 Q1074.73 362.879 1072.09 363.759 L1072.09 359.592 Q1074.75 358.851 1077.07 358.481 Q1079.4 358.111 1081.46 358.111 Q1086.79 358.111 1089.89 360.541 Q1092.99 362.949 1092.99 367.069 Q1092.99 369.939 1091.35 371.93 Q1089.7 373.898 1086.67 374.661 Z" fill="#000000" fill-rule="evenodd" fill-opacity="1" /><path clip-path="url(#clip110)" d="M1102.71 358.736 L1121.07 358.736 L1121.07 362.671 L1107 362.671 L1107 371.143 Q1108.01 370.796 1109.03 370.634 Q1110.05 370.448 1111.07 370.448 Q1116.86 370.448 1120.24 373.62 Q1123.62 376.791 1123.62 382.208 Q1123.62 387.786 1120.14 390.888 Q1116.67 393.967 1110.35 393.967 Q1108.18 393.967 1105.91 393.596 Q1103.66 393.226 1101.26 392.485 L1101.26 387.786 Q1103.34 388.921 1105.56 389.476 Q1107.78 390.032 1110.26 390.032 Q1114.26 390.032 1116.6 387.925 Q1118.94 385.819 1118.94 382.208 Q1118.94 378.597 1116.6 376.49 Q1114.26 374.384 1110.26 374.384 Q1108.39 374.384 1106.51 374.8 Q1104.66 375.217 1102.71 376.097 L1102.71 358.736 Z" fill="#000000" fill-rule="evenodd" fill-opacity="1" /><path clip-path="url(#clip110)" d="M1131.56 357.324 L1135.26 357.324 Q1138.73 362.786 1140.45 368.018 Q1142.18 373.249 1142.18 378.411 Q1142.18 383.597 1140.45 388.851 Q1138.73 394.106 1135.26 399.546 L1131.56 399.546 Q1134.63 394.245 1136.14 389.013 Q1137.67 383.759 1137.67 378.411 Q1137.67 373.064 1136.14 367.856 Q1134.63 362.648 1131.56 357.324 Z" fill="#000000" fill-rule="evenodd" fill-opacity="1" /><path clip-path="url(#clip110)" d="M1150.05 357.324 L1153.76 357.324 Q1157.23 362.786 1158.94 368.018 Q1160.68 373.249 1160.68 378.411 Q1160.68 383.597 1158.94 388.851 Q1157.23 394.106 1153.76 399.546 L1150.05 399.546 Q1153.13 394.245 1154.63 389.013 Q1156.16 383.759 1156.16 378.411 Q1156.16 373.064 1154.63 367.856 Q1153.13 362.648 1150.05 357.324 Z" fill="#000000" fill-rule="evenodd" fill-opacity="1" /></svg>
