<?xml version="1.0" encoding="utf-8"?>
<svg xmlns="http://www.w3.org/2000/svg" xmlns:xlink="http://www.w3.org/1999/xlink" width="800" height="600" viewBox="0 0 3200 2400">
<defs>
  <clipPath id="clip860">
    <rect x="0" y="0" width="3200" height="2400"/>
  </clipPath>
</defs>
<path clip-path="url(#clip860)" d="
M0 2400 L3200 2400 L3200 0 L0 0  Z
  " fill="#ffffff" fill-rule="evenodd" fill-opacity="1"/>
<defs>
  <clipPath id="clip861">
    <rect x="640" y="0" width="2241" height="2241"/>
  </clipPath>
</defs>
<path clip-path="url(#clip860)" d="
M265.302 2173.42 L3121.26 2173.42 L3121.26 162.528 L265.302 162.528  Z
  " fill="#ffffff" fill-rule="evenodd" fill-opacity="1"/>
<defs>
  <clipPath id="clip862">
    <rect x="265" y="162" width="2857" height="2012"/>
  </clipPath>
</defs>
<polyline clip-path="url(#clip862)" style="stroke:#000000; stroke-linecap:butt; stroke-linejoin:round; stroke-width:2; stroke-opacity:0.1; fill:none" points="
  422.385,2173.42 422.385,162.528 
  "/>
<polyline clip-path="url(#clip862)" style="stroke:#000000; stroke-linecap:butt; stroke-linejoin:round; stroke-width:2; stroke-opacity:0.1; fill:none" points="
  974.949,2173.42 974.949,162.528 
  "/>
<polyline clip-path="url(#clip862)" style="stroke:#000000; stroke-linecap:butt; stroke-linejoin:round; stroke-width:2; stroke-opacity:0.1; fill:none" points="
  1527.51,2173.42 1527.51,162.528 
  "/>
<polyline clip-path="url(#clip862)" style="stroke:#000000; stroke-linecap:butt; stroke-linejoin:round; stroke-width:2; stroke-opacity:0.1; fill:none" points="
  2080.08,2173.42 2080.08,162.528 
  "/>
<polyline clip-path="url(#clip862)" style="stroke:#000000; stroke-linecap:butt; stroke-linejoin:round; stroke-width:2; stroke-opacity:0.1; fill:none" points="
  2632.64,2173.42 2632.64,162.528 
  "/>
<polyline clip-path="url(#clip860)" style="stroke:#000000; stroke-linecap:butt; stroke-linejoin:round; stroke-width:4; stroke-opacity:1; fill:none" points="
  265.302,2173.42 3121.26,2173.42 
  "/>
<polyline clip-path="url(#clip860)" style="stroke:#000000; stroke-linecap:butt; stroke-linejoin:round; stroke-width:4; stroke-opacity:1; fill:none" points="
  422.385,2173.42 422.385,2154.53 
  "/>
<polyline clip-path="url(#clip860)" style="stroke:#000000; stroke-linecap:butt; stroke-linejoin:round; stroke-width:4; stroke-opacity:1; fill:none" points="
  974.949,2173.42 974.949,2154.53 
  "/>
<polyline clip-path="url(#clip860)" style="stroke:#000000; stroke-linecap:butt; stroke-linejoin:round; stroke-width:4; stroke-opacity:1; fill:none" points="
  1527.51,2173.42 1527.51,2154.53 
  "/>
<polyline clip-path="url(#clip860)" style="stroke:#000000; stroke-linecap:butt; stroke-linejoin:round; stroke-width:4; stroke-opacity:1; fill:none" points="
  2080.08,2173.42 2080.08,2154.53 
  "/>
<polyline clip-path="url(#clip860)" style="stroke:#000000; stroke-linecap:butt; stroke-linejoin:round; stroke-width:4; stroke-opacity:1; fill:none" points="
  2632.64,2173.42 2632.64,2154.53 
  "/>
<path clip-path="url(#clip860)" d="M368.913 2225.4 L398.589 2225.4 L398.589 2229.33 L368.913 2229.33 L368.913 2225.4 Z" fill="#000000" fill-rule="evenodd" fill-opacity="1" /><path clip-path="url(#clip860)" d="M408.728 2207.66 L427.084 2207.66 L427.084 2211.6 L413.01 2211.6 L413.01 2220.07 Q414.029 2219.72 415.047 2219.56 Q416.066 2219.38 417.084 2219.38 Q422.871 2219.38 426.251 2222.55 Q429.63 2225.72 429.63 2231.14 Q429.63 2236.71 426.158 2239.82 Q422.686 2242.9 416.367 2242.9 Q414.191 2242.9 411.922 2242.52 Q409.677 2242.15 407.269 2241.41 L407.269 2236.71 Q409.353 2237.85 411.575 2238.4 Q413.797 2238.96 416.274 2238.96 Q420.279 2238.96 422.617 2236.85 Q424.955 2234.75 424.955 2231.14 Q424.955 2227.52 422.617 2225.42 Q420.279 2223.31 416.274 2223.31 Q414.399 2223.31 412.524 2223.73 Q410.672 2224.15 408.728 2225.02 L408.728 2207.66 Z" fill="#000000" fill-rule="evenodd" fill-opacity="1" /><path clip-path="url(#clip860)" d="M438.843 2236.34 L443.728 2236.34 L443.728 2242.22 L438.843 2242.22 L438.843 2236.34 Z" fill="#000000" fill-rule="evenodd" fill-opacity="1" /><path clip-path="url(#clip860)" d="M463.913 2210.74 Q460.302 2210.74 458.473 2214.31 Q456.667 2217.85 456.667 2224.98 Q456.667 2232.08 458.473 2235.65 Q460.302 2239.19 463.913 2239.19 Q467.547 2239.19 469.352 2235.65 Q471.181 2232.08 471.181 2224.98 Q471.181 2217.85 469.352 2214.31 Q467.547 2210.74 463.913 2210.74 M463.913 2207.04 Q469.723 2207.04 472.778 2211.65 Q475.857 2216.23 475.857 2224.98 Q475.857 2233.71 472.778 2238.31 Q469.723 2242.9 463.913 2242.9 Q458.102 2242.9 455.024 2238.31 Q451.968 2233.71 451.968 2224.98 Q451.968 2216.23 455.024 2211.65 Q458.102 2207.04 463.913 2207.04 Z" fill="#000000" fill-rule="evenodd" fill-opacity="1" /><path clip-path="url(#clip860)" d="M921.974 2225.4 L951.65 2225.4 L951.65 2229.33 L921.974 2229.33 L921.974 2225.4 Z" fill="#000000" fill-rule="evenodd" fill-opacity="1" /><path clip-path="url(#clip860)" d="M965.77 2238.29 L982.09 2238.29 L982.09 2242.22 L960.145 2242.22 L960.145 2238.29 Q962.807 2235.53 967.391 2230.9 Q971.997 2226.25 973.178 2224.91 Q975.423 2222.39 976.303 2220.65 Q977.205 2218.89 977.205 2217.2 Q977.205 2214.45 975.261 2212.71 Q973.34 2210.97 970.238 2210.97 Q968.039 2210.97 965.585 2211.74 Q963.155 2212.5 960.377 2214.05 L960.377 2209.33 Q963.201 2208.2 965.655 2207.62 Q968.108 2207.04 970.145 2207.04 Q975.516 2207.04 978.71 2209.72 Q981.905 2212.41 981.905 2216.9 Q981.905 2219.03 981.094 2220.95 Q980.307 2222.85 978.201 2225.44 Q977.622 2226.11 974.52 2229.33 Q971.418 2232.52 965.77 2238.29 Z" fill="#000000" fill-rule="evenodd" fill-opacity="1" /><path clip-path="url(#clip860)" d="M991.904 2236.34 L996.789 2236.34 L996.789 2242.22 L991.904 2242.22 L991.904 2236.34 Z" fill="#000000" fill-rule="evenodd" fill-opacity="1" /><path clip-path="url(#clip860)" d="M1007.02 2207.66 L1025.38 2207.66 L1025.38 2211.6 L1011.3 2211.6 L1011.3 2220.07 Q1012.32 2219.72 1013.34 2219.56 Q1014.36 2219.38 1015.38 2219.38 Q1021.16 2219.38 1024.54 2222.55 Q1027.92 2225.72 1027.92 2231.14 Q1027.92 2236.71 1024.45 2239.82 Q1020.98 2242.9 1014.66 2242.9 Q1012.48 2242.9 1010.21 2242.52 Q1007.97 2242.15 1005.56 2241.41 L1005.56 2236.71 Q1007.65 2237.85 1009.87 2238.4 Q1012.09 2238.96 1014.57 2238.96 Q1018.57 2238.96 1020.91 2236.85 Q1023.25 2234.75 1023.25 2231.14 Q1023.25 2227.52 1020.91 2225.42 Q1018.57 2223.31 1014.57 2223.31 Q1012.69 2223.31 1010.82 2223.73 Q1008.96 2224.15 1007.02 2225.02 L1007.02 2207.66 Z" fill="#000000" fill-rule="evenodd" fill-opacity="1" /><path clip-path="url(#clip860)" d="M1504.9 2210.74 Q1501.29 2210.74 1499.46 2214.31 Q1497.65 2217.85 1497.65 2224.98 Q1497.65 2232.08 1499.46 2235.65 Q1501.29 2239.19 1504.9 2239.19 Q1508.53 2239.19 1510.34 2235.65 Q1512.16 2232.08 1512.16 2224.98 Q1512.16 2217.85 1510.34 2214.31 Q1508.53 2210.74 1504.9 2210.74 M1504.9 2207.04 Q1510.71 2207.04 1513.76 2211.65 Q1516.84 2216.23 1516.84 2224.98 Q1516.84 2233.71 1513.76 2238.31 Q1510.71 2242.9 1504.9 2242.9 Q1499.09 2242.9 1496.01 2238.31 Q1492.95 2233.71 1492.95 2224.98 Q1492.95 2216.23 1496.01 2211.65 Q1499.09 2207.04 1504.9 2207.04 Z" fill="#000000" fill-rule="evenodd" fill-opacity="1" /><path clip-path="url(#clip860)" d="M1525.06 2236.34 L1529.94 2236.34 L1529.94 2242.22 L1525.06 2242.22 L1525.06 2236.34 Z" fill="#000000" fill-rule="evenodd" fill-opacity="1" /><path clip-path="url(#clip860)" d="M1550.13 2210.74 Q1546.52 2210.74 1544.69 2214.31 Q1542.88 2217.85 1542.88 2224.98 Q1542.88 2232.08 1544.69 2235.65 Q1546.52 2239.19 1550.13 2239.19 Q1553.76 2239.19 1555.57 2235.65 Q1557.4 2232.08 1557.4 2224.98 Q1557.4 2217.85 1555.57 2214.31 Q1553.76 2210.74 1550.13 2210.74 M1550.13 2207.04 Q1555.94 2207.04 1558.99 2211.65 Q1562.07 2216.23 1562.07 2224.98 Q1562.07 2233.71 1558.99 2238.31 Q1555.94 2242.9 1550.13 2242.9 Q1544.32 2242.9 1541.24 2238.31 Q1538.18 2233.71 1538.18 2224.98 Q1538.18 2216.23 1541.24 2211.65 Q1544.32 2207.04 1550.13 2207.04 Z" fill="#000000" fill-rule="evenodd" fill-opacity="1" /><path clip-path="url(#clip860)" d="M2051.81 2238.29 L2068.13 2238.29 L2068.13 2242.22 L2046.19 2242.22 L2046.19 2238.29 Q2048.85 2235.53 2053.43 2230.9 Q2058.04 2226.25 2059.22 2224.91 Q2061.46 2222.39 2062.34 2220.65 Q2063.25 2218.89 2063.25 2217.2 Q2063.25 2214.45 2061.3 2212.71 Q2059.38 2210.97 2056.28 2210.97 Q2054.08 2210.97 2051.63 2211.74 Q2049.2 2212.5 2046.42 2214.05 L2046.42 2209.33 Q2049.24 2208.2 2051.7 2207.62 Q2054.15 2207.04 2056.19 2207.04 Q2061.56 2207.04 2064.75 2209.72 Q2067.95 2212.41 2067.95 2216.9 Q2067.95 2219.03 2067.14 2220.95 Q2066.35 2222.85 2064.24 2225.44 Q2063.66 2226.11 2060.56 2229.33 Q2057.46 2232.52 2051.81 2238.29 Z" fill="#000000" fill-rule="evenodd" fill-opacity="1" /><path clip-path="url(#clip860)" d="M2077.95 2236.34 L2082.83 2236.34 L2082.83 2242.22 L2077.95 2242.22 L2077.95 2236.34 Z" fill="#000000" fill-rule="evenodd" fill-opacity="1" /><path clip-path="url(#clip860)" d="M2093.06 2207.66 L2111.42 2207.66 L2111.42 2211.6 L2097.34 2211.6 L2097.34 2220.07 Q2098.36 2219.72 2099.38 2219.56 Q2100.4 2219.38 2101.42 2219.38 Q2107.21 2219.38 2110.58 2222.55 Q2113.96 2225.72 2113.96 2231.14 Q2113.96 2236.71 2110.49 2239.82 Q2107.02 2242.9 2100.7 2242.9 Q2098.52 2242.9 2096.26 2242.52 Q2094.01 2242.15 2091.6 2241.41 L2091.6 2236.71 Q2093.69 2237.85 2095.91 2238.4 Q2098.13 2238.96 2100.61 2238.96 Q2104.61 2238.96 2106.95 2236.85 Q2109.29 2234.75 2109.29 2231.14 Q2109.29 2227.52 2106.95 2225.42 Q2104.61 2223.31 2100.61 2223.31 Q2098.73 2223.31 2096.86 2223.73 Q2095.01 2224.15 2093.06 2225.02 L2093.06 2207.66 Z" fill="#000000" fill-rule="evenodd" fill-opacity="1" /><path clip-path="url(#clip860)" d="M2599.8 2207.66 L2618.16 2207.66 L2618.16 2211.6 L2604.09 2211.6 L2604.09 2220.07 Q2605.1 2219.72 2606.12 2219.56 Q2607.14 2219.38 2608.16 2219.38 Q2613.95 2219.38 2617.33 2222.55 Q2620.71 2225.72 2620.71 2231.14 Q2620.71 2236.71 2617.23 2239.82 Q2613.76 2242.9 2607.44 2242.9 Q2605.27 2242.9 2603 2242.52 Q2600.75 2242.15 2598.35 2241.41 L2598.35 2236.71 Q2600.43 2237.85 2602.65 2238.4 Q2604.87 2238.96 2607.35 2238.96 Q2611.35 2238.96 2613.69 2236.85 Q2616.03 2234.75 2616.03 2231.14 Q2616.03 2227.52 2613.69 2225.42 Q2611.35 2223.31 2607.35 2223.31 Q2605.47 2223.31 2603.6 2223.73 Q2601.75 2224.15 2599.8 2225.02 L2599.8 2207.66 Z" fill="#000000" fill-rule="evenodd" fill-opacity="1" /><path clip-path="url(#clip860)" d="M2629.92 2236.34 L2634.8 2236.34 L2634.8 2242.22 L2629.92 2242.22 L2629.92 2236.34 Z" fill="#000000" fill-rule="evenodd" fill-opacity="1" /><path clip-path="url(#clip860)" d="M2654.99 2210.74 Q2651.38 2210.74 2649.55 2214.31 Q2647.74 2217.85 2647.74 2224.98 Q2647.74 2232.08 2649.55 2235.65 Q2651.38 2239.19 2654.99 2239.19 Q2658.62 2239.19 2660.43 2235.65 Q2662.26 2232.08 2662.26 2224.98 Q2662.26 2217.85 2660.43 2214.31 Q2658.62 2210.74 2654.99 2210.74 M2654.99 2207.04 Q2660.8 2207.04 2663.85 2211.65 Q2666.93 2216.23 2666.93 2224.98 Q2666.93 2233.71 2663.85 2238.31 Q2660.8 2242.9 2654.99 2242.9 Q2649.18 2242.9 2646.1 2238.31 Q2643.04 2233.71 2643.04 2224.98 Q2643.04 2216.23 2646.1 2211.65 Q2649.18 2207.04 2654.99 2207.04 Z" fill="#000000" fill-rule="evenodd" fill-opacity="1" /><path clip-path="url(#clip860)" d="M1698.5 2326.25 Q1702.7 2326.28 1705.22 2328.66 Q1707.89 2331.18 1707.89 2335 Q1707.89 2338.66 1705.54 2341.2 Q1702.99 2343.97 1697.8 2343.97 Q1697.8 2341.59 1697.8 2339.17 Q1700 2339.33 1701.33 2337.93 Q1702.35 2336.81 1702.35 2335.63 Q1702.35 2333.95 1701.33 2332.55 Q1700.35 2331.21 1698.5 2331.21 Q1678.67 2331.21 1678.67 2317.3 Q1678.67 2307.75 1689.27 2304.95 Q1680.36 2303.81 1680.36 2295.53 Q1680.36 2289.26 1687.36 2286.65 L1680.74 2286.65 L1680.74 2280.76 L1705.85 2280.76 L1705.85 2286.65 Q1685.83 2286.65 1685.83 2295.91 Q1685.83 2301.99 1702.64 2302.28 L1702.64 2307.69 Q1684.5 2306.99 1684.56 2317.3 Q1684.59 2325.93 1698.5 2326.25 Z" fill="#000000" fill-rule="evenodd" fill-opacity="1" /><polyline clip-path="url(#clip862)" style="stroke:#000000; stroke-linecap:butt; stroke-linejoin:round; stroke-width:2; stroke-opacity:0.1; fill:none" points="
  265.302,2116.51 3121.26,2116.51 
  "/>
<polyline clip-path="url(#clip862)" style="stroke:#000000; stroke-linecap:butt; stroke-linejoin:round; stroke-width:2; stroke-opacity:0.1; fill:none" points="
  265.302,1654.1 3121.26,1654.1 
  "/>
<polyline clip-path="url(#clip862)" style="stroke:#000000; stroke-linecap:butt; stroke-linejoin:round; stroke-width:2; stroke-opacity:0.1; fill:none" points="
  265.302,1191.69 3121.26,1191.69 
  "/>
<polyline clip-path="url(#clip862)" style="stroke:#000000; stroke-linecap:butt; stroke-linejoin:round; stroke-width:2; stroke-opacity:0.1; fill:none" points="
  265.302,729.278 3121.26,729.278 
  "/>
<polyline clip-path="url(#clip862)" style="stroke:#000000; stroke-linecap:butt; stroke-linejoin:round; stroke-width:2; stroke-opacity:0.1; fill:none" points="
  265.302,266.867 3121.26,266.867 
  "/>
<polyline clip-path="url(#clip860)" style="stroke:#000000; stroke-linecap:butt; stroke-linejoin:round; stroke-width:4; stroke-opacity:1; fill:none" points="
  265.302,2173.42 265.302,162.528 
  "/>
<polyline clip-path="url(#clip860)" style="stroke:#000000; stroke-linecap:butt; stroke-linejoin:round; stroke-width:4; stroke-opacity:1; fill:none" points="
  265.302,2116.51 284.2,2116.51 
  "/>
<polyline clip-path="url(#clip860)" style="stroke:#000000; stroke-linecap:butt; stroke-linejoin:round; stroke-width:4; stroke-opacity:1; fill:none" points="
  265.302,1654.1 284.2,1654.1 
  "/>
<polyline clip-path="url(#clip860)" style="stroke:#000000; stroke-linecap:butt; stroke-linejoin:round; stroke-width:4; stroke-opacity:1; fill:none" points="
  265.302,1191.69 284.2,1191.69 
  "/>
<polyline clip-path="url(#clip860)" style="stroke:#000000; stroke-linecap:butt; stroke-linejoin:round; stroke-width:4; stroke-opacity:1; fill:none" points="
  265.302,729.278 284.2,729.278 
  "/>
<polyline clip-path="url(#clip860)" style="stroke:#000000; stroke-linecap:butt; stroke-linejoin:round; stroke-width:4; stroke-opacity:1; fill:none" points="
  265.302,266.867 284.2,266.867 
  "/>
<path clip-path="url(#clip860)" d="M160.127 2102.31 Q156.516 2102.31 154.687 2105.88 Q152.881 2109.42 152.881 2116.55 Q152.881 2123.65 154.687 2127.22 Q156.516 2130.76 160.127 2130.76 Q163.761 2130.76 165.566 2127.22 Q167.395 2123.65 167.395 2116.55 Q167.395 2109.42 165.566 2105.88 Q163.761 2102.31 160.127 2102.31 M160.127 2098.61 Q165.937 2098.61 168.992 2103.21 Q172.071 2107.8 172.071 2116.55 Q172.071 2125.27 168.992 2129.88 Q165.937 2134.46 160.127 2134.46 Q154.317 2134.46 151.238 2129.88 Q148.182 2125.27 148.182 2116.55 Q148.182 2107.8 151.238 2103.21 Q154.317 2098.61 160.127 2098.61 Z" fill="#000000" fill-rule="evenodd" fill-opacity="1" /><path clip-path="url(#clip860)" d="M180.289 2127.91 L185.173 2127.91 L185.173 2133.79 L180.289 2133.79 L180.289 2127.91 Z" fill="#000000" fill-rule="evenodd" fill-opacity="1" /><path clip-path="url(#clip860)" d="M205.358 2102.31 Q201.747 2102.31 199.918 2105.88 Q198.113 2109.42 198.113 2116.55 Q198.113 2123.65 199.918 2127.22 Q201.747 2130.76 205.358 2130.76 Q208.992 2130.76 210.798 2127.22 Q212.626 2123.65 212.626 2116.55 Q212.626 2109.42 210.798 2105.88 Q208.992 2102.31 205.358 2102.31 M205.358 2098.61 Q211.168 2098.61 214.224 2103.21 Q217.302 2107.8 217.302 2116.55 Q217.302 2125.27 214.224 2129.88 Q211.168 2134.46 205.358 2134.46 Q199.548 2134.46 196.469 2129.88 Q193.414 2125.27 193.414 2116.55 Q193.414 2107.8 196.469 2103.21 Q199.548 2098.61 205.358 2098.61 Z" fill="#000000" fill-rule="evenodd" fill-opacity="1" /><path clip-path="url(#clip860)" d="M161.354 1639.9 Q157.742 1639.9 155.914 1643.46 Q154.108 1647.01 154.108 1654.14 Q154.108 1661.24 155.914 1664.81 Q157.742 1668.35 161.354 1668.35 Q164.988 1668.35 166.793 1664.81 Q168.622 1661.24 168.622 1654.14 Q168.622 1647.01 166.793 1643.46 Q164.988 1639.9 161.354 1639.9 M161.354 1636.2 Q167.164 1636.2 170.219 1640.8 Q173.298 1645.39 173.298 1654.14 Q173.298 1662.86 170.219 1667.47 Q167.164 1672.05 161.354 1672.05 Q155.543 1672.05 152.465 1667.47 Q149.409 1662.86 149.409 1654.14 Q149.409 1645.39 152.465 1640.8 Q155.543 1636.2 161.354 1636.2 Z" fill="#000000" fill-rule="evenodd" fill-opacity="1" /><path clip-path="url(#clip860)" d="M181.515 1665.5 L186.4 1665.5 L186.4 1671.38 L181.515 1671.38 L181.515 1665.5 Z" fill="#000000" fill-rule="evenodd" fill-opacity="1" /><path clip-path="url(#clip860)" d="M197.395 1667.45 L205.034 1667.45 L205.034 1641.08 L196.724 1642.75 L196.724 1638.49 L204.988 1636.82 L209.663 1636.82 L209.663 1667.45 L217.302 1667.45 L217.302 1671.38 L197.395 1671.38 L197.395 1667.45 Z" fill="#000000" fill-rule="evenodd" fill-opacity="1" /><path clip-path="url(#clip860)" d="M161.724 1177.49 Q158.113 1177.49 156.284 1181.05 Q154.479 1184.59 154.479 1191.72 Q154.479 1198.83 156.284 1202.4 Q158.113 1205.94 161.724 1205.94 Q165.358 1205.94 167.164 1202.4 Q168.992 1198.83 168.992 1191.72 Q168.992 1184.59 167.164 1181.05 Q165.358 1177.49 161.724 1177.49 M161.724 1173.78 Q167.534 1173.78 170.59 1178.39 Q173.668 1182.97 173.668 1191.72 Q173.668 1200.45 170.59 1205.06 Q167.534 1209.64 161.724 1209.64 Q155.914 1209.64 152.835 1205.06 Q149.78 1200.45 149.78 1191.72 Q149.78 1182.97 152.835 1178.39 Q155.914 1173.78 161.724 1173.78 Z" fill="#000000" fill-rule="evenodd" fill-opacity="1" /><path clip-path="url(#clip860)" d="M181.886 1203.09 L186.77 1203.09 L186.77 1208.97 L181.886 1208.97 L181.886 1203.09 Z" fill="#000000" fill-rule="evenodd" fill-opacity="1" /><path clip-path="url(#clip860)" d="M200.983 1205.03 L217.302 1205.03 L217.302 1208.97 L195.358 1208.97 L195.358 1205.03 Q198.02 1202.28 202.603 1197.65 Q207.21 1193 208.39 1191.65 Q210.636 1189.13 211.515 1187.4 Q212.418 1185.64 212.418 1183.95 Q212.418 1181.19 210.474 1179.46 Q208.552 1177.72 205.451 1177.72 Q203.251 1177.72 200.798 1178.48 Q198.367 1179.25 195.589 1180.8 L195.589 1176.08 Q198.414 1174.94 200.867 1174.36 Q203.321 1173.78 205.358 1173.78 Q210.728 1173.78 213.923 1176.47 Q217.117 1179.15 217.117 1183.65 Q217.117 1185.78 216.307 1187.7 Q215.52 1189.59 213.413 1192.19 Q212.835 1192.86 209.733 1196.08 Q206.631 1199.27 200.983 1205.03 Z" fill="#000000" fill-rule="evenodd" fill-opacity="1" /><path clip-path="url(#clip860)" d="M160.775 715.077 Q157.164 715.077 155.335 718.642 Q153.53 722.183 153.53 729.313 Q153.53 736.419 155.335 739.984 Q157.164 743.526 160.775 743.526 Q164.409 743.526 166.215 739.984 Q168.043 736.419 168.043 729.313 Q168.043 722.183 166.215 718.642 Q164.409 715.077 160.775 715.077 M160.775 711.373 Q166.585 711.373 169.641 715.98 Q172.719 720.563 172.719 729.313 Q172.719 738.04 169.641 742.646 Q166.585 747.23 160.775 747.23 Q154.965 747.23 151.886 742.646 Q148.83 738.04 148.83 729.313 Q148.83 720.563 151.886 715.98 Q154.965 711.373 160.775 711.373 Z" fill="#000000" fill-rule="evenodd" fill-opacity="1" /><path clip-path="url(#clip860)" d="M180.937 740.679 L185.821 740.679 L185.821 746.558 L180.937 746.558 L180.937 740.679 Z" fill="#000000" fill-rule="evenodd" fill-opacity="1" /><path clip-path="url(#clip860)" d="M210.173 727.924 Q213.529 728.642 215.404 730.91 Q217.302 733.179 217.302 736.512 Q217.302 741.628 213.784 744.429 Q210.265 747.23 203.784 747.23 Q201.608 747.23 199.293 746.79 Q197.002 746.373 194.548 745.517 L194.548 741.003 Q196.492 742.137 198.807 742.716 Q201.122 743.294 203.645 743.294 Q208.043 743.294 210.335 741.558 Q212.65 739.822 212.65 736.512 Q212.65 733.456 210.497 731.744 Q208.367 730.007 204.548 730.007 L200.52 730.007 L200.52 726.165 L204.733 726.165 Q208.182 726.165 210.011 724.799 Q211.839 723.41 211.839 720.818 Q211.839 718.156 209.941 716.744 Q208.066 715.308 204.548 715.308 Q202.626 715.308 200.427 715.725 Q198.228 716.142 195.589 717.021 L195.589 712.855 Q198.252 712.114 200.566 711.744 Q202.904 711.373 204.964 711.373 Q210.288 711.373 213.39 713.804 Q216.492 716.211 216.492 720.332 Q216.492 723.202 214.849 725.193 Q213.205 727.16 210.173 727.924 Z" fill="#000000" fill-rule="evenodd" fill-opacity="1" /><path clip-path="url(#clip860)" d="M159.641 252.666 Q156.03 252.666 154.201 256.231 Q152.395 259.772 152.395 266.902 Q152.395 274.008 154.201 277.573 Q156.03 281.115 159.641 281.115 Q163.275 281.115 165.08 277.573 Q166.909 274.008 166.909 266.902 Q166.909 259.772 165.08 256.231 Q163.275 252.666 159.641 252.666 M159.641 248.962 Q165.451 248.962 168.506 253.569 Q171.585 258.152 171.585 266.902 Q171.585 275.629 168.506 280.235 Q165.451 284.818 159.641 284.818 Q153.83 284.818 150.752 280.235 Q147.696 275.629 147.696 266.902 Q147.696 258.152 150.752 253.569 Q153.83 248.962 159.641 248.962 Z" fill="#000000" fill-rule="evenodd" fill-opacity="1" /><path clip-path="url(#clip860)" d="M179.803 278.268 L184.687 278.268 L184.687 284.147 L179.803 284.147 L179.803 278.268 Z" fill="#000000" fill-rule="evenodd" fill-opacity="1" /><path clip-path="url(#clip860)" d="M207.719 253.661 L195.914 272.11 L207.719 272.11 L207.719 253.661 M206.492 249.587 L212.372 249.587 L212.372 272.11 L217.302 272.11 L217.302 275.999 L212.372 275.999 L212.372 284.147 L207.719 284.147 L207.719 275.999 L192.117 275.999 L192.117 271.485 L206.492 249.587 Z" fill="#000000" fill-rule="evenodd" fill-opacity="1" /><path clip-path="url(#clip860)" d="M43.2038 1281.29 L80.1567 1281.29 L80.1567 1273.52 Q80.1567 1263.68 75.7007 1259.13 Q71.2447 1254.55 61.6325 1254.55 Q52.0839 1254.55 47.6598 1259.13 Q43.2038 1263.68 43.2038 1273.52 L43.2038 1281.29 M37.9202 1287.71 L37.9202 1274.51 Q37.9202 1260.69 43.6812 1254.23 Q49.4103 1247.77 61.6325 1247.77 Q73.9183 1247.77 79.6793 1254.26 Q85.4402 1260.76 85.4402 1274.51 L85.4402 1287.71 L37.9202 1287.71 Z" fill="#000000" fill-rule="evenodd" fill-opacity="1" /><path clip-path="url(#clip860)" d="M66.1521 1207.28 L69.0167 1207.28 L69.0167 1234.21 Q75.0641 1233.83 78.247 1230.58 Q81.398 1227.3 81.398 1221.48 Q81.398 1218.11 80.5705 1214.95 Q79.7429 1211.77 78.0878 1208.65 L83.626 1208.65 Q84.9628 1211.8 85.663 1215.11 Q86.3632 1218.42 86.3632 1221.83 Q86.3632 1230.36 81.398 1235.36 Q76.4327 1240.32 67.9664 1240.32 Q59.2135 1240.32 54.0891 1235.61 Q48.9329 1230.87 48.9329 1222.85 Q48.9329 1215.66 53.5799 1211.49 Q58.195 1207.28 66.1521 1207.28 M64.4334 1213.14 Q59.6273 1213.2 56.7627 1215.85 Q53.8981 1218.46 53.8981 1222.78 Q53.8981 1227.69 56.6672 1230.65 Q59.4363 1233.57 64.4652 1234.02 L64.4334 1213.14 Z" fill="#000000" fill-rule="evenodd" fill-opacity="1" /><path clip-path="url(#clip860)" d="M63.9241 1168.04 L85.4402 1168.04 L85.4402 1173.9 L64.1151 1173.9 Q59.0544 1173.9 56.5399 1175.87 Q54.0255 1177.84 54.0255 1181.79 Q54.0255 1186.53 57.0492 1189.27 Q60.0729 1192.01 65.2928 1192.01 L85.4402 1192.01 L85.4402 1197.89 L49.7923 1197.89 L49.7923 1192.01 L55.3304 1192.01 Q52.1157 1189.91 50.5243 1187.07 Q48.9329 1184.21 48.9329 1180.48 Q48.9329 1174.34 52.7523 1171.19 Q56.5399 1168.04 63.9241 1168.04 Z" fill="#000000" fill-rule="evenodd" fill-opacity="1" /><path clip-path="url(#clip860)" d="M50.8426 1133.63 L56.3808 1133.63 Q55.1076 1136.12 54.4711 1138.79 Q53.8345 1141.46 53.8345 1144.33 Q53.8345 1148.69 55.1713 1150.88 Q56.5081 1153.05 59.1817 1153.05 Q61.2187 1153.05 62.3964 1151.49 Q63.5422 1149.93 64.5925 1145.22 L65.0381 1143.21 Q66.3749 1136.97 68.8257 1134.37 Q71.2447 1131.72 75.6052 1131.72 Q80.5705 1131.72 83.4669 1135.67 Q86.3632 1139.58 86.3632 1146.46 Q86.3632 1149.32 85.7903 1152.44 Q85.2492 1155.53 84.1353 1158.97 L78.0878 1158.97 Q79.7747 1155.72 80.6341 1152.57 Q81.4617 1149.42 81.4617 1146.33 Q81.4617 1142.19 80.0612 1139.97 Q78.6289 1137.74 76.0508 1137.74 Q73.6637 1137.74 72.3905 1139.36 Q71.1174 1140.95 69.9397 1146.4 L69.4623 1148.43 Q68.3165 1153.88 65.9612 1156.29 Q63.574 1158.71 59.4363 1158.71 Q54.4074 1158.71 51.6701 1155.15 Q48.9329 1151.58 48.9329 1145.03 Q48.9329 1141.78 49.4103 1138.92 Q49.8877 1136.05 50.8426 1133.63 Z" fill="#000000" fill-rule="evenodd" fill-opacity="1" /><path clip-path="url(#clip860)" d="M49.7923 1122.4 L49.7923 1116.54 L85.4402 1116.54 L85.4402 1122.4 L49.7923 1122.4 M35.915 1122.4 L35.915 1116.54 L43.3311 1116.54 L43.3311 1122.4 L35.915 1122.4 Z" fill="#000000" fill-rule="evenodd" fill-opacity="1" /><path clip-path="url(#clip860)" d="M39.6708 1098.49 L49.7923 1098.49 L49.7923 1086.43 L54.3437 1086.43 L54.3437 1098.49 L73.6955 1098.49 Q78.056 1098.49 79.2973 1097.32 Q80.5386 1096.11 80.5386 1092.45 L80.5386 1086.43 L85.4402 1086.43 L85.4402 1092.45 Q85.4402 1099.23 82.9258 1101.8 Q80.3795 1104.38 73.6955 1104.38 L54.3437 1104.38 L54.3437 1108.68 L49.7923 1108.68 L49.7923 1104.38 L39.6708 1104.38 L39.6708 1098.49 Z" fill="#000000" fill-rule="evenodd" fill-opacity="1" /><path clip-path="url(#clip860)" d="M88.7504 1063.9 Q95.1161 1066.38 97.0576 1068.73 Q98.9992 1071.09 98.9992 1075.04 L98.9992 1079.72 L94.0976 1079.72 L94.0976 1076.28 Q94.0976 1073.86 92.9518 1072.52 Q91.8059 1071.19 87.5409 1069.56 L84.8673 1068.51 L49.7923 1082.93 L49.7923 1076.72 L77.6741 1065.58 L49.7923 1054.44 L49.7923 1048.24 L88.7504 1063.9 Z" fill="#000000" fill-rule="evenodd" fill-opacity="1" /><path clip-path="url(#clip860)" d="M642.335 18.8205 L642.335 65.8515 L652.219 65.8515 Q664.736 65.8515 670.529 60.1802 Q676.362 54.509 676.362 42.2752 Q676.362 30.1225 670.529 24.4918 Q664.736 18.8205 652.219 18.8205 L642.335 18.8205 M634.152 12.096 L650.963 12.096 Q668.544 12.096 676.767 19.4281 Q684.991 26.7198 684.991 42.2752 Q684.991 57.9117 676.727 65.2439 Q668.463 72.576 650.963 72.576 L634.152 72.576 L634.152 12.096 Z" fill="#000000" fill-rule="evenodd" fill-opacity="1" /><path clip-path="url(#clip860)" d="M697.711 27.2059 L705.164 27.2059 L705.164 72.576 L697.711 72.576 L697.711 27.2059 M697.711 9.54393 L705.164 9.54393 L705.164 18.9825 L697.711 18.9825 L697.711 9.54393 Z" fill="#000000" fill-rule="evenodd" fill-opacity="1" /><path clip-path="url(#clip860)" d="M749.684 28.5427 L749.684 35.5912 Q746.524 33.9709 743.121 33.1607 Q739.718 32.3505 736.073 32.3505 Q730.523 32.3505 727.728 34.0519 Q724.973 35.7533 724.973 39.156 Q724.973 41.7486 726.958 43.2475 Q728.943 44.7058 734.938 46.0426 L737.49 46.6097 Q745.43 48.3111 748.752 51.4303 Q752.114 54.509 752.114 60.0587 Q752.114 66.3781 747.091 70.0644 Q742.109 73.7508 733.359 73.7508 Q729.713 73.7508 725.743 73.0216 Q721.813 72.3329 717.439 70.9151 L717.439 63.2184 Q721.57 65.3654 725.581 66.4591 Q729.591 67.5124 733.521 67.5124 Q738.787 67.5124 741.622 65.73 Q744.458 63.9071 744.458 60.6258 Q744.458 57.5877 742.392 55.9673 Q740.367 54.3469 733.44 52.8481 L730.847 52.2405 Q723.92 50.7821 720.841 47.7845 Q717.763 44.7463 717.763 39.4801 Q717.763 33.0797 722.3 29.5959 Q726.837 26.1121 735.181 26.1121 Q739.313 26.1121 742.959 26.7198 Q746.605 27.3274 749.684 28.5427 Z" fill="#000000" fill-rule="evenodd" fill-opacity="1" /><path clip-path="url(#clip860)" d="M771.356 14.324 L771.356 27.2059 L786.709 27.2059 L786.709 32.9987 L771.356 32.9987 L771.356 57.6282 Q771.356 63.1779 772.855 64.7578 Q774.394 66.3376 779.053 66.3376 L786.709 66.3376 L786.709 72.576 L779.053 72.576 Q770.424 72.576 767.143 69.3758 Q763.862 66.1351 763.862 57.6282 L763.862 32.9987 L758.393 32.9987 L758.393 27.2059 L763.862 27.2059 L763.862 14.324 L771.356 14.324 Z" fill="#000000" fill-rule="evenodd" fill-opacity="1" /><path clip-path="url(#clip860)" d="M822.803 34.1734 Q821.547 33.4443 820.048 33.1202 Q818.59 32.7556 816.807 32.7556 Q810.488 32.7556 807.085 36.8875 Q803.723 40.9789 803.723 48.6757 L803.723 72.576 L796.229 72.576 L796.229 27.2059 L803.723 27.2059 L803.723 34.2544 Q806.072 30.1225 809.84 28.1376 Q813.607 26.1121 818.995 26.1121 Q819.764 26.1121 820.696 26.2337 Q821.628 26.3147 822.762 26.5172 L822.803 34.1734 Z" fill="#000000" fill-rule="evenodd" fill-opacity="1" /><path clip-path="url(#clip860)" d="M830.621 27.2059 L838.074 27.2059 L838.074 72.576 L830.621 72.576 L830.621 27.2059 M830.621 9.54393 L838.074 9.54393 L838.074 18.9825 L830.621 18.9825 L830.621 9.54393 Z" fill="#000000" fill-rule="evenodd" fill-opacity="1" /><path clip-path="url(#clip860)" d="M886.24 49.9314 Q886.24 41.7081 882.837 37.0496 Q879.475 32.3505 873.56 32.3505 Q867.646 32.3505 864.243 37.0496 Q860.881 41.7081 860.881 49.9314 Q860.881 58.1548 864.243 62.8538 Q867.646 67.5124 873.56 67.5124 Q879.475 67.5124 882.837 62.8538 Q886.24 58.1548 886.24 49.9314 M860.881 34.0924 Q863.231 30.0415 866.795 28.0971 Q870.401 26.1121 875.383 26.1121 Q883.647 26.1121 888.792 32.6746 Q893.977 39.2371 893.977 49.9314 Q893.977 60.6258 888.792 67.1883 Q883.647 73.7508 875.383 73.7508 Q870.401 73.7508 866.795 71.8063 Q863.231 69.8214 860.881 65.7705 L860.881 72.576 L853.387 72.576 L853.387 9.54393 L860.881 9.54393 L860.881 34.0924 Z" fill="#000000" fill-rule="evenodd" fill-opacity="1" /><path clip-path="url(#clip860)" d="M905.563 54.671 L905.563 27.2059 L913.016 27.2059 L913.016 54.3874 Q913.016 60.8284 915.528 64.0691 Q918.039 67.2693 923.062 67.2693 Q929.098 67.2693 932.582 63.421 Q936.106 59.5726 936.106 52.9291 L936.106 27.2059 L943.56 27.2059 L943.56 72.576 L936.106 72.576 L936.106 65.6084 Q933.392 69.7404 929.787 71.7658 Q926.222 73.7508 921.483 73.7508 Q913.664 73.7508 909.613 68.8897 Q905.563 64.0286 905.563 54.671 M924.318 26.1121 L924.318 26.1121 Z" fill="#000000" fill-rule="evenodd" fill-opacity="1" /><path clip-path="url(#clip860)" d="M966.286 14.324 L966.286 27.2059 L981.638 27.2059 L981.638 32.9987 L966.286 32.9987 L966.286 57.6282 Q966.286 63.1779 967.784 64.7578 Q969.324 66.3376 973.982 66.3376 L981.638 66.3376 L981.638 72.576 L973.982 72.576 Q965.354 72.576 962.073 69.3758 Q958.791 66.1351 958.791 57.6282 L958.791 32.9987 L953.323 32.9987 L953.323 27.2059 L958.791 27.2059 L958.791 14.324 L966.286 14.324 Z" fill="#000000" fill-rule="evenodd" fill-opacity="1" /><path clip-path="url(#clip860)" d="M991.442 27.2059 L998.895 27.2059 L998.895 72.576 L991.442 72.576 L991.442 27.2059 M991.442 9.54393 L998.895 9.54393 L998.895 18.9825 L991.442 18.9825 L991.442 9.54393 Z" fill="#000000" fill-rule="evenodd" fill-opacity="1" /><path clip-path="url(#clip860)" d="M1032.07 32.4315 Q1026.08 32.4315 1022.59 37.1306 Q1019.11 41.7891 1019.11 49.9314 Q1019.11 58.0738 1022.55 62.7728 Q1026.04 67.4314 1032.07 67.4314 Q1038.03 67.4314 1041.51 62.7323 Q1044.99 58.0333 1044.99 49.9314 Q1044.99 41.8701 1041.51 37.1711 Q1038.03 32.4315 1032.07 32.4315 M1032.07 26.1121 Q1041.79 26.1121 1047.34 32.4315 Q1052.89 38.7509 1052.89 49.9314 Q1052.89 61.0714 1047.34 67.4314 Q1041.79 73.7508 1032.07 73.7508 Q1022.31 73.7508 1016.76 67.4314 Q1011.25 61.0714 1011.25 49.9314 Q1011.25 38.7509 1016.76 32.4315 Q1022.31 26.1121 1032.07 26.1121 Z" fill="#000000" fill-rule="evenodd" fill-opacity="1" /><path clip-path="url(#clip860)" d="M1102.96 45.1919 L1102.96 72.576 L1095.51 72.576 L1095.51 45.4349 Q1095.51 38.994 1093 35.7938 Q1090.49 32.5936 1085.46 32.5936 Q1079.43 32.5936 1075.94 36.4419 Q1072.46 40.2903 1072.46 46.9338 L1072.46 72.576 L1064.97 72.576 L1064.97 27.2059 L1072.46 27.2059 L1072.46 34.2544 Q1075.13 30.163 1078.74 28.1376 Q1082.38 26.1121 1087.12 26.1121 Q1094.94 26.1121 1098.95 30.9732 Q1102.96 35.7938 1102.96 45.1919 Z" fill="#000000" fill-rule="evenodd" fill-opacity="1" /><path clip-path="url(#clip860)" d="M1161.78 32.4315 Q1155.79 32.4315 1152.3 37.1306 Q1148.82 41.7891 1148.82 49.9314 Q1148.82 58.0738 1152.26 62.7728 Q1155.75 67.4314 1161.78 67.4314 Q1167.74 67.4314 1171.22 62.7323 Q1174.7 58.0333 1174.7 49.9314 Q1174.7 41.8701 1171.22 37.1711 Q1167.74 32.4315 1161.78 32.4315 M1161.78 26.1121 Q1171.5 26.1121 1177.05 32.4315 Q1182.6 38.7509 1182.6 49.9314 Q1182.6 61.0714 1177.05 67.4314 Q1171.5 73.7508 1161.78 73.7508 Q1152.02 73.7508 1146.47 67.4314 Q1140.96 61.0714 1140.96 49.9314 Q1140.96 38.7509 1146.47 32.4315 Q1152.02 26.1121 1161.78 26.1121 Z" fill="#000000" fill-rule="evenodd" fill-opacity="1" /><path clip-path="url(#clip860)" d="M1217.93 9.54393 L1217.93 15.7418 L1210.8 15.7418 Q1206.79 15.7418 1205.21 17.3622 Q1203.67 18.9825 1203.67 23.1955 L1203.67 27.2059 L1215.94 27.2059 L1215.94 32.9987 L1203.67 32.9987 L1203.67 72.576 L1196.17 72.576 L1196.17 32.9987 L1189.04 32.9987 L1189.04 27.2059 L1196.17 27.2059 L1196.17 24.0462 Q1196.17 16.471 1199.7 13.0277 Q1203.22 9.54393 1210.88 9.54393 L1217.93 9.54393 Z" fill="#000000" fill-rule="evenodd" fill-opacity="1" /><path clip-path="url(#clip860)" d="M1249.77 54.671 L1249.77 27.2059 L1257.22 27.2059 L1257.22 54.3874 Q1257.22 60.8284 1259.73 64.0691 Q1262.24 67.2693 1267.27 67.2693 Q1273.3 67.2693 1276.79 63.421 Q1280.31 59.5726 1280.31 52.9291 L1280.31 27.2059 L1287.77 27.2059 L1287.77 72.576 L1280.31 72.576 L1280.31 65.6084 Q1277.6 69.7404 1273.99 71.7658 Q1270.43 73.7508 1265.69 73.7508 Q1257.87 73.7508 1253.82 68.8897 Q1249.77 64.0286 1249.77 54.671 M1268.52 26.1121 L1268.52 26.1121 Z" fill="#000000" fill-rule="evenodd" fill-opacity="1" /><path clip-path="url(#clip860)" d="M1340.83 45.1919 L1340.83 72.576 L1333.38 72.576 L1333.38 45.4349 Q1333.38 38.994 1330.87 35.7938 Q1328.36 32.5936 1323.33 32.5936 Q1317.3 32.5936 1313.81 36.4419 Q1310.33 40.2903 1310.33 46.9338 L1310.33 72.576 L1302.83 72.576 L1302.83 27.2059 L1310.33 27.2059 L1310.33 34.2544 Q1313 30.163 1316.61 28.1376 Q1320.25 26.1121 1324.99 26.1121 Q1332.81 26.1121 1336.82 30.9732 Q1340.83 35.7938 1340.83 45.1919 Z" fill="#000000" fill-rule="evenodd" fill-opacity="1" /><path clip-path="url(#clip860)" d="M1373.28 32.4315 Q1367.28 32.4315 1363.8 37.1306 Q1360.32 41.7891 1360.32 49.9314 Q1360.32 58.0738 1363.76 62.7728 Q1367.24 67.4314 1373.28 67.4314 Q1379.23 67.4314 1382.72 62.7323 Q1386.2 58.0333 1386.2 49.9314 Q1386.2 41.8701 1382.72 37.1711 Q1379.23 32.4315 1373.28 32.4315 M1373.28 26.1121 Q1383 26.1121 1388.55 32.4315 Q1394.1 38.7509 1394.1 49.9314 Q1394.1 61.0714 1388.55 67.4314 Q1383 73.7508 1373.28 73.7508 Q1363.52 73.7508 1357.97 67.4314 Q1352.46 61.0714 1352.46 49.9314 Q1352.46 38.7509 1357.97 32.4315 Q1363.52 26.1121 1373.28 26.1121 Z" fill="#000000" fill-rule="evenodd" fill-opacity="1" /><path clip-path="url(#clip860)" d="M1439.03 49.9314 Q1439.03 41.7081 1435.62 37.0496 Q1432.26 32.3505 1426.35 32.3505 Q1420.43 32.3505 1417.03 37.0496 Q1413.67 41.7081 1413.67 49.9314 Q1413.67 58.1548 1417.03 62.8538 Q1420.43 67.5124 1426.35 67.5124 Q1432.26 67.5124 1435.62 62.8538 Q1439.03 58.1548 1439.03 49.9314 M1413.67 34.0924 Q1416.02 30.0415 1419.58 28.0971 Q1423.19 26.1121 1428.17 26.1121 Q1436.43 26.1121 1441.58 32.6746 Q1446.76 39.2371 1446.76 49.9314 Q1446.76 60.6258 1441.58 67.1883 Q1436.43 73.7508 1428.17 73.7508 Q1423.19 73.7508 1419.58 71.8063 Q1416.02 69.8214 1413.67 65.7705 L1413.67 72.576 L1406.17 72.576 L1406.17 9.54393 L1413.67 9.54393 L1413.67 34.0924 Z" fill="#000000" fill-rule="evenodd" fill-opacity="1" /><path clip-path="url(#clip860)" d="M1488.04 28.5427 L1488.04 35.5912 Q1484.88 33.9709 1481.48 33.1607 Q1478.08 32.3505 1474.43 32.3505 Q1468.88 32.3505 1466.09 34.0519 Q1463.33 35.7533 1463.33 39.156 Q1463.33 41.7486 1465.32 43.2475 Q1467.3 44.7058 1473.3 46.0426 L1475.85 46.6097 Q1483.79 48.3111 1487.11 51.4303 Q1490.47 54.509 1490.47 60.0587 Q1490.47 66.3781 1485.45 70.0644 Q1480.47 73.7508 1471.72 73.7508 Q1468.07 73.7508 1464.1 73.0216 Q1460.17 72.3329 1455.8 70.9151 L1455.8 63.2184 Q1459.93 65.3654 1463.94 66.4591 Q1467.95 67.5124 1471.88 67.5124 Q1477.15 67.5124 1479.98 65.73 Q1482.82 63.9071 1482.82 60.6258 Q1482.82 57.5877 1480.75 55.9673 Q1478.72 54.3469 1471.8 52.8481 L1469.21 52.2405 Q1462.28 50.7821 1459.2 47.7845 Q1456.12 44.7463 1456.12 39.4801 Q1456.12 33.0797 1460.66 29.5959 Q1465.19 26.1121 1473.54 26.1121 Q1477.67 26.1121 1481.32 26.7198 Q1484.96 27.3274 1488.04 28.5427 Z" fill="#000000" fill-rule="evenodd" fill-opacity="1" /><path clip-path="url(#clip860)" d="M1541.15 48.0275 L1541.15 51.6733 L1506.88 51.6733 Q1507.36 59.3701 1511.5 63.421 Q1515.67 67.4314 1523.08 67.4314 Q1527.38 67.4314 1531.39 66.3781 Q1535.44 65.3249 1539.41 63.2184 L1539.41 70.267 Q1535.4 71.9684 1531.18 72.8596 Q1526.97 73.7508 1522.64 73.7508 Q1511.78 73.7508 1505.42 67.4314 Q1499.1 61.1119 1499.1 50.3365 Q1499.1 39.1965 1505.1 32.6746 Q1511.13 26.1121 1521.34 26.1121 Q1530.5 26.1121 1535.8 32.0264 Q1541.15 37.9003 1541.15 48.0275 M1533.7 45.84 Q1533.61 39.7232 1530.25 36.0774 Q1526.93 32.4315 1521.42 32.4315 Q1515.18 32.4315 1511.42 35.9558 Q1507.69 39.4801 1507.12 45.8805 L1533.7 45.84 Z" fill="#000000" fill-rule="evenodd" fill-opacity="1" /><path clip-path="url(#clip860)" d="M1579.67 34.1734 Q1578.42 33.4443 1576.92 33.1202 Q1575.46 32.7556 1573.68 32.7556 Q1567.36 32.7556 1563.96 36.8875 Q1560.59 40.9789 1560.59 48.6757 L1560.59 72.576 L1553.1 72.576 L1553.1 27.2059 L1560.59 27.2059 L1560.59 34.2544 Q1562.94 30.1225 1566.71 28.1376 Q1570.48 26.1121 1575.87 26.1121 Q1576.64 26.1121 1577.57 26.2337 Q1578.5 26.3147 1579.63 26.5172 L1579.67 34.1734 Z" fill="#000000" fill-rule="evenodd" fill-opacity="1" /><path clip-path="url(#clip860)" d="M1582.14 27.2059 L1590.04 27.2059 L1604.22 65.2844 L1618.4 27.2059 L1626.3 27.2059 L1609.29 72.576 L1599.16 72.576 L1582.14 27.2059 Z" fill="#000000" fill-rule="evenodd" fill-opacity="1" /><path clip-path="url(#clip860)" d="M1675.4 48.0275 L1675.4 51.6733 L1641.13 51.6733 Q1641.61 59.3701 1645.74 63.421 Q1649.92 67.4314 1657.33 67.4314 Q1661.62 67.4314 1665.63 66.3781 Q1669.68 65.3249 1673.65 63.2184 L1673.65 70.267 Q1669.64 71.9684 1665.43 72.8596 Q1661.22 73.7508 1656.88 73.7508 Q1646.03 73.7508 1639.67 67.4314 Q1633.35 61.1119 1633.35 50.3365 Q1633.35 39.1965 1639.34 32.6746 Q1645.38 26.1121 1655.59 26.1121 Q1664.74 26.1121 1670.05 32.0264 Q1675.4 37.9003 1675.4 48.0275 M1667.94 45.84 Q1667.86 39.7232 1664.5 36.0774 Q1661.18 32.4315 1655.67 32.4315 Q1649.43 32.4315 1645.66 35.9558 Q1641.94 39.4801 1641.37 45.8805 L1667.94 45.84 Z" fill="#000000" fill-rule="evenodd" fill-opacity="1" /><path clip-path="url(#clip860)" d="M1717.49 34.0924 L1717.49 9.54393 L1724.94 9.54393 L1724.94 72.576 L1717.49 72.576 L1717.49 65.7705 Q1715.14 69.8214 1711.53 71.8063 Q1707.97 73.7508 1702.94 73.7508 Q1694.72 73.7508 1689.53 67.1883 Q1684.39 60.6258 1684.39 49.9314 Q1684.39 39.2371 1689.53 32.6746 Q1694.72 26.1121 1702.94 26.1121 Q1707.97 26.1121 1711.53 28.0971 Q1715.14 30.0415 1717.49 34.0924 M1692.09 49.9314 Q1692.09 58.1548 1695.45 62.8538 Q1698.85 67.5124 1704.77 67.5124 Q1710.68 67.5124 1714.08 62.8538 Q1717.49 58.1548 1717.49 49.9314 Q1717.49 41.7081 1714.08 37.0496 Q1710.68 32.3505 1704.77 32.3505 Q1698.85 32.3505 1695.45 37.0496 Q1692.09 41.7081 1692.09 49.9314 Z" fill="#000000" fill-rule="evenodd" fill-opacity="1" /><path clip-path="url(#clip860)" d="M1796.52 34.0924 L1796.52 9.54393 L1803.97 9.54393 L1803.97 72.576 L1796.52 72.576 L1796.52 65.7705 Q1794.17 69.8214 1790.56 71.8063 Q1787 73.7508 1781.98 73.7508 Q1773.75 73.7508 1768.57 67.1883 Q1763.42 60.6258 1763.42 49.9314 Q1763.42 39.2371 1768.57 32.6746 Q1773.75 26.1121 1781.98 26.1121 Q1787 26.1121 1790.56 28.0971 Q1794.17 30.0415 1796.52 34.0924 M1771.12 49.9314 Q1771.12 58.1548 1774.48 62.8538 Q1777.88 67.5124 1783.8 67.5124 Q1789.71 67.5124 1793.12 62.8538 Q1796.52 58.1548 1796.52 49.9314 Q1796.52 41.7081 1793.12 37.0496 Q1789.71 32.3505 1783.8 32.3505 Q1777.88 32.3505 1774.48 37.0496 Q1771.12 41.7081 1771.12 49.9314 Z" fill="#000000" fill-rule="evenodd" fill-opacity="1" /><path clip-path="url(#clip860)" d="M1858.13 48.0275 L1858.13 51.6733 L1823.86 51.6733 Q1824.35 59.3701 1828.48 63.421 Q1832.65 67.4314 1840.07 67.4314 Q1844.36 67.4314 1848.37 66.3781 Q1852.42 65.3249 1856.39 63.2184 L1856.39 70.267 Q1852.38 71.9684 1848.17 72.8596 Q1843.95 73.7508 1839.62 73.7508 Q1828.76 73.7508 1822.4 67.4314 Q1816.08 61.1119 1816.08 50.3365 Q1816.08 39.1965 1822.08 32.6746 Q1828.12 26.1121 1838.32 26.1121 Q1847.48 26.1121 1852.79 32.0264 Q1858.13 37.9003 1858.13 48.0275 M1850.68 45.84 Q1850.6 39.7232 1847.24 36.0774 Q1843.91 32.4315 1838.4 32.4315 Q1832.17 32.4315 1828.4 35.9558 Q1824.67 39.4801 1824.11 45.8805 L1850.68 45.84 Z" fill="#000000" fill-rule="evenodd" fill-opacity="1" /><path clip-path="url(#clip860)" d="M1865.02 27.2059 L1872.92 27.2059 L1887.1 65.2844 L1901.27 27.2059 L1909.17 27.2059 L1892.16 72.576 L1882.03 72.576 L1865.02 27.2059 Z" fill="#000000" fill-rule="evenodd" fill-opacity="1" /><path clip-path="url(#clip860)" d="M1958.27 48.0275 L1958.27 51.6733 L1924 51.6733 Q1924.49 59.3701 1928.62 63.421 Q1932.79 67.4314 1940.2 67.4314 Q1944.5 67.4314 1948.51 66.3781 Q1952.56 65.3249 1956.53 63.2184 L1956.53 70.267 Q1952.52 71.9684 1948.31 72.8596 Q1944.09 73.7508 1939.76 73.7508 Q1928.9 73.7508 1922.54 67.4314 Q1916.22 61.1119 1916.22 50.3365 Q1916.22 39.1965 1922.22 32.6746 Q1928.25 26.1121 1938.46 26.1121 Q1947.62 26.1121 1952.92 32.0264 Q1958.27 37.9003 1958.27 48.0275 M1950.82 45.84 Q1950.74 39.7232 1947.37 36.0774 Q1944.05 32.4315 1938.54 32.4315 Q1932.3 32.4315 1928.54 35.9558 Q1924.81 39.4801 1924.24 45.8805 L1950.82 45.84 Z" fill="#000000" fill-rule="evenodd" fill-opacity="1" /><path clip-path="url(#clip860)" d="M1970.5 9.54393 L1977.96 9.54393 L1977.96 72.576 L1970.5 72.576 L1970.5 9.54393 Z" fill="#000000" fill-rule="evenodd" fill-opacity="1" /><path clip-path="url(#clip860)" d="M2011.14 32.4315 Q2005.14 32.4315 2001.66 37.1306 Q1998.17 41.7891 1998.17 49.9314 Q1998.17 58.0738 2001.62 62.7728 Q2005.1 67.4314 2011.14 67.4314 Q2017.09 67.4314 2020.57 62.7323 Q2024.06 58.0333 2024.06 49.9314 Q2024.06 41.8701 2020.57 37.1711 Q2017.09 32.4315 2011.14 32.4315 M2011.14 26.1121 Q2020.86 26.1121 2026.41 32.4315 Q2031.96 38.7509 2031.96 49.9314 Q2031.96 61.0714 2026.41 67.4314 Q2020.86 73.7508 2011.14 73.7508 Q2001.37 73.7508 1995.82 67.4314 Q1990.31 61.0714 1990.31 49.9314 Q1990.31 38.7509 1995.82 32.4315 Q2001.37 26.1121 2011.14 26.1121 Z" fill="#000000" fill-rule="evenodd" fill-opacity="1" /><path clip-path="url(#clip860)" d="M2051.52 65.7705 L2051.52 89.8329 L2044.03 89.8329 L2044.03 27.2059 L2051.52 27.2059 L2051.52 34.0924 Q2053.87 30.0415 2057.44 28.0971 Q2061.04 26.1121 2066.03 26.1121 Q2074.29 26.1121 2079.43 32.6746 Q2084.62 39.2371 2084.62 49.9314 Q2084.62 60.6258 2079.43 67.1883 Q2074.29 73.7508 2066.03 73.7508 Q2061.04 73.7508 2057.44 71.8063 Q2053.87 69.8214 2051.52 65.7705 M2076.88 49.9314 Q2076.88 41.7081 2073.48 37.0496 Q2070.12 32.3505 2064.2 32.3505 Q2058.29 32.3505 2054.89 37.0496 Q2051.52 41.7081 2051.52 49.9314 Q2051.52 58.1548 2054.89 62.8538 Q2058.29 67.5124 2064.2 67.5124 Q2070.12 67.5124 2073.48 62.8538 Q2076.88 58.1548 2076.88 49.9314 Z" fill="#000000" fill-rule="evenodd" fill-opacity="1" /><path clip-path="url(#clip860)" d="M2132.3 35.9153 Q2135.09 30.8922 2138.98 28.5022 Q2142.87 26.1121 2148.14 26.1121 Q2155.23 26.1121 2159.07 31.0947 Q2162.92 36.0368 2162.92 45.1919 L2162.92 72.576 L2155.43 72.576 L2155.43 45.4349 Q2155.43 38.913 2153.12 35.7533 Q2150.81 32.5936 2146.07 32.5936 Q2140.28 32.5936 2136.92 36.4419 Q2133.55 40.2903 2133.55 46.9338 L2133.55 72.576 L2126.06 72.576 L2126.06 45.4349 Q2126.06 38.8725 2123.75 35.7533 Q2121.44 32.5936 2116.62 32.5936 Q2110.91 32.5936 2107.55 36.4824 Q2104.18 40.3308 2104.18 46.9338 L2104.18 72.576 L2096.69 72.576 L2096.69 27.2059 L2104.18 27.2059 L2104.18 34.2544 Q2106.74 30.082 2110.3 28.0971 Q2113.87 26.1121 2118.77 26.1121 Q2123.71 26.1121 2127.15 28.6237 Q2130.64 31.1352 2132.3 35.9153 Z" fill="#000000" fill-rule="evenodd" fill-opacity="1" /><path clip-path="url(#clip860)" d="M2216.6 48.0275 L2216.6 51.6733 L2182.33 51.6733 Q2182.81 59.3701 2186.94 63.421 Q2191.12 67.4314 2198.53 67.4314 Q2202.82 67.4314 2206.83 66.3781 Q2210.89 65.3249 2214.86 63.2184 L2214.86 70.267 Q2210.84 71.9684 2206.63 72.8596 Q2202.42 73.7508 2198.08 73.7508 Q2187.23 73.7508 2180.87 67.4314 Q2174.55 61.1119 2174.55 50.3365 Q2174.55 39.1965 2180.54 32.6746 Q2186.58 26.1121 2196.79 26.1121 Q2205.94 26.1121 2211.25 32.0264 Q2216.6 37.9003 2216.6 48.0275 M2209.14 45.84 Q2209.06 39.7232 2205.7 36.0774 Q2202.38 32.4315 2196.87 32.4315 Q2190.63 32.4315 2186.86 35.9558 Q2183.14 39.4801 2182.57 45.8805 L2209.14 45.84 Z" fill="#000000" fill-rule="evenodd" fill-opacity="1" /><path clip-path="url(#clip860)" d="M2266.54 45.1919 L2266.54 72.576 L2259.09 72.576 L2259.09 45.4349 Q2259.09 38.994 2256.58 35.7938 Q2254.07 32.5936 2249.04 32.5936 Q2243.01 32.5936 2239.53 36.4419 Q2236.04 40.2903 2236.04 46.9338 L2236.04 72.576 L2228.55 72.576 L2228.55 27.2059 L2236.04 27.2059 L2236.04 34.2544 Q2238.72 30.163 2242.32 28.1376 Q2245.97 26.1121 2250.71 26.1121 Q2258.52 26.1121 2262.53 30.9732 Q2266.54 35.7938 2266.54 45.1919 Z" fill="#000000" fill-rule="evenodd" fill-opacity="1" /><path clip-path="url(#clip860)" d="M2288.78 14.324 L2288.78 27.2059 L2304.14 27.2059 L2304.14 32.9987 L2288.78 32.9987 L2288.78 57.6282 Q2288.78 63.1779 2290.28 64.7578 Q2291.82 66.3376 2296.48 66.3376 L2304.14 66.3376 L2304.14 72.576 L2296.48 72.576 Q2287.85 72.576 2284.57 69.3758 Q2281.29 66.1351 2281.29 57.6282 L2281.29 32.9987 L2275.82 32.9987 L2275.82 27.2059 L2281.29 27.2059 L2281.29 14.324 L2288.78 14.324 Z" fill="#000000" fill-rule="evenodd" fill-opacity="1" /><path clip-path="url(#clip860)" d="M2344.77 49.9314 Q2344.77 58.1548 2348.13 62.8538 Q2351.53 67.5124 2357.45 67.5124 Q2363.36 67.5124 2366.76 62.8538 Q2370.17 58.1548 2370.17 49.9314 Q2370.17 41.7081 2366.76 37.0496 Q2363.36 32.3505 2357.45 32.3505 Q2351.53 32.3505 2348.13 37.0496 Q2344.77 41.7081 2344.77 49.9314 M2370.17 65.7705 Q2367.82 69.8214 2364.21 71.8063 Q2360.65 73.7508 2355.62 73.7508 Q2347.4 73.7508 2342.22 67.1883 Q2337.07 60.6258 2337.07 49.9314 Q2337.07 39.2371 2342.22 32.6746 Q2347.4 26.1121 2355.62 26.1121 Q2360.65 26.1121 2364.21 28.0971 Q2367.82 30.0415 2370.17 34.0924 L2370.17 27.2059 L2377.62 27.2059 L2377.62 89.8329 L2370.17 89.8329 L2370.17 65.7705 Z" fill="#000000" fill-rule="evenodd" fill-opacity="1" /><path clip-path="url(#clip860)" d="M2392.2 54.671 L2392.2 27.2059 L2399.66 27.2059 L2399.66 54.3874 Q2399.66 60.8284 2402.17 64.0691 Q2404.68 67.2693 2409.7 67.2693 Q2415.74 67.2693 2419.22 63.421 Q2422.75 59.5726 2422.75 52.9291 L2422.75 27.2059 L2430.2 27.2059 L2430.2 72.576 L2422.75 72.576 L2422.75 65.6084 Q2420.03 69.7404 2416.43 71.7658 Q2412.86 73.7508 2408.12 73.7508 Q2400.31 73.7508 2396.25 68.8897 Q2392.2 64.0286 2392.2 54.671 M2410.96 26.1121 L2410.96 26.1121 Z" fill="#000000" fill-rule="evenodd" fill-opacity="1" /><path clip-path="url(#clip860)" d="M2466.17 49.7694 Q2457.14 49.7694 2453.66 51.8354 Q2450.17 53.9013 2450.17 58.8839 Q2450.17 62.8538 2452.76 65.2034 Q2455.4 67.5124 2459.89 67.5124 Q2466.09 67.5124 2469.82 63.1374 Q2473.59 58.7219 2473.59 51.4303 L2473.59 49.7694 L2466.17 49.7694 M2481.04 46.6907 L2481.04 72.576 L2473.59 72.576 L2473.59 65.6895 Q2471.03 69.8214 2467.23 71.8063 Q2463.42 73.7508 2457.91 73.7508 Q2450.94 73.7508 2446.81 69.8619 Q2442.72 65.9325 2442.72 59.3701 Q2442.72 51.7138 2447.82 47.825 Q2452.97 43.9361 2463.14 43.9361 L2473.59 43.9361 L2473.59 43.2069 Q2473.59 38.0623 2470.18 35.2672 Q2466.82 32.4315 2460.7 32.4315 Q2456.82 32.4315 2453.13 33.3632 Q2449.44 34.295 2446.04 36.1584 L2446.04 29.2718 Q2450.13 27.692 2453.98 26.9223 Q2457.83 26.1121 2461.47 26.1121 Q2471.32 26.1121 2476.18 31.2163 Q2481.04 36.3204 2481.04 46.6907 Z" fill="#000000" fill-rule="evenodd" fill-opacity="1" /><path clip-path="url(#clip860)" d="M2496.39 9.54393 L2503.85 9.54393 L2503.85 72.576 L2496.39 72.576 L2496.39 9.54393 Z" fill="#000000" fill-rule="evenodd" fill-opacity="1" /><path clip-path="url(#clip860)" d="M2519.44 27.2059 L2526.9 27.2059 L2526.9 72.576 L2519.44 72.576 L2519.44 27.2059 M2519.44 9.54393 L2526.9 9.54393 L2526.9 18.9825 L2519.44 18.9825 L2519.44 9.54393 Z" fill="#000000" fill-rule="evenodd" fill-opacity="1" /><path clip-path="url(#clip860)" d="M2549.87 14.324 L2549.87 27.2059 L2565.22 27.2059 L2565.22 32.9987 L2549.87 32.9987 L2549.87 57.6282 Q2549.87 63.1779 2551.36 64.7578 Q2552.9 66.3376 2557.56 66.3376 L2565.22 66.3376 L2565.22 72.576 L2557.56 72.576 Q2548.93 72.576 2545.65 69.3758 Q2542.37 66.1351 2542.37 57.6282 L2542.37 32.9987 L2536.9 32.9987 L2536.9 27.2059 L2542.37 27.2059 L2542.37 14.324 L2549.87 14.324 Z" fill="#000000" fill-rule="evenodd" fill-opacity="1" /><path clip-path="url(#clip860)" d="M2575.02 27.2059 L2582.47 27.2059 L2582.47 72.576 L2575.02 72.576 L2575.02 27.2059 M2575.02 9.54393 L2582.47 9.54393 L2582.47 18.9825 L2575.02 18.9825 L2575.02 9.54393 Z" fill="#000000" fill-rule="evenodd" fill-opacity="1" /><path clip-path="url(#clip860)" d="M2636.88 48.0275 L2636.88 51.6733 L2602.61 51.6733 Q2603.09 59.3701 2607.23 63.421 Q2611.4 67.4314 2618.81 67.4314 Q2623.11 67.4314 2627.12 66.3781 Q2631.17 65.3249 2635.14 63.2184 L2635.14 70.267 Q2631.13 71.9684 2626.91 72.8596 Q2622.7 73.7508 2618.37 73.7508 Q2607.51 73.7508 2601.15 67.4314 Q2594.83 61.1119 2594.83 50.3365 Q2594.83 39.1965 2600.83 32.6746 Q2606.86 26.1121 2617.07 26.1121 Q2626.22 26.1121 2631.53 32.0264 Q2636.88 37.9003 2636.88 48.0275 M2629.42 45.84 Q2629.34 39.7232 2625.98 36.0774 Q2622.66 32.4315 2617.15 32.4315 Q2610.91 32.4315 2607.14 35.9558 Q2603.42 39.4801 2602.85 45.8805 L2629.42 45.84 Z" fill="#000000" fill-rule="evenodd" fill-opacity="1" /><path clip-path="url(#clip860)" d="M2678.04 28.5427 L2678.04 35.5912 Q2674.88 33.9709 2671.47 33.1607 Q2668.07 32.3505 2664.42 32.3505 Q2658.87 32.3505 2656.08 34.0519 Q2653.33 35.7533 2653.33 39.156 Q2653.33 41.7486 2655.31 43.2475 Q2657.3 44.7058 2663.29 46.0426 L2665.84 46.6097 Q2673.78 48.3111 2677.1 51.4303 Q2680.47 54.509 2680.47 60.0587 Q2680.47 66.3781 2675.44 70.0644 Q2670.46 73.7508 2661.71 73.7508 Q2658.06 73.7508 2654.09 73.0216 Q2650.17 72.3329 2645.79 70.9151 L2645.79 63.2184 Q2649.92 65.3654 2653.93 66.4591 Q2657.94 67.5124 2661.87 67.5124 Q2667.14 67.5124 2669.97 65.73 Q2672.81 63.9071 2672.81 60.6258 Q2672.81 57.5877 2670.74 55.9673 Q2668.72 54.3469 2661.79 52.8481 L2659.2 52.2405 Q2652.27 50.7821 2649.19 47.7845 Q2646.11 44.7463 2646.11 39.4801 Q2646.11 33.0797 2650.65 29.5959 Q2655.19 26.1121 2663.53 26.1121 Q2667.67 26.1121 2671.31 26.7198 Q2674.96 27.3274 2678.04 28.5427 Z" fill="#000000" fill-rule="evenodd" fill-opacity="1" /><path clip-path="url(#clip860)" d="M2740.46 67.4314 Q2745.81 67.4719 2749.01 70.51 Q2752.41 73.7103 2752.41 78.5713 Q2752.41 83.2299 2749.41 86.4706 Q2746.17 89.9949 2739.57 89.9949 Q2739.57 86.9567 2739.57 83.878 Q2742.36 84.0806 2744.07 82.2982 Q2745.36 80.8804 2745.36 79.3815 Q2745.36 77.2345 2744.07 75.4521 Q2742.81 73.7508 2740.46 73.7508 Q2715.22 73.7508 2715.22 56.0483 Q2715.22 43.8956 2728.71 40.3308 Q2717.37 38.8725 2717.37 28.3401 Q2717.37 20.3598 2726.28 17.0381 L2717.86 17.0381 L2717.86 9.54393 L2749.82 9.54393 L2749.82 17.0381 Q2724.34 17.0381 2724.34 28.8262 Q2724.34 36.5635 2745.73 36.928 L2745.73 43.8146 Q2722.64 42.9234 2722.72 56.0483 Q2722.76 67.0263 2740.46 67.4314 Z" fill="#000000" fill-rule="evenodd" fill-opacity="1" /><path clip-path="url(#clip862)" d="
M422.385 2069.08 L422.385 2116.51 L532.898 2116.51 L532.898 2069.08 L422.385 2069.08 L422.385 2069.08  Z
  " fill="#009af9" fill-rule="evenodd" fill-opacity="1"/>
<polyline clip-path="url(#clip862)" style="stroke:#000000; stroke-linecap:butt; stroke-linejoin:round; stroke-width:4; stroke-opacity:1; fill:none" points="
  422.385,2069.08 422.385,2116.51 532.898,2116.51 532.898,2069.08 422.385,2069.08 
  "/>
<path clip-path="url(#clip862)" d="
M532.898 2069.08 L532.898 2116.51 L643.41 2116.51 L643.41 2069.08 L532.898 2069.08 L532.898 2069.08  Z
  " fill="#009af9" fill-rule="evenodd" fill-opacity="1"/>
<polyline clip-path="url(#clip862)" style="stroke:#000000; stroke-linecap:butt; stroke-linejoin:round; stroke-width:4; stroke-opacity:1; fill:none" points="
  532.898,2069.08 532.898,2116.51 643.41,2116.51 643.41,2069.08 532.898,2069.08 
  "/>
<path clip-path="url(#clip862)" d="
M643.41 2116.51 L643.41 2116.51 L753.923 2116.51 L753.923 2116.51 L643.41 2116.51 L643.41 2116.51  Z
  " fill="#009af9" fill-rule="evenodd" fill-opacity="1"/>
<polyline clip-path="url(#clip862)" style="stroke:#000000; stroke-linecap:butt; stroke-linejoin:round; stroke-width:4; stroke-opacity:1; fill:none" points="
  643.41,2116.51 643.41,2116.51 753.923,2116.51 643.41,2116.51 
  "/>
<path clip-path="url(#clip862)" d="
M753.923 2069.08 L753.923 2116.51 L864.436 2116.51 L864.436 2069.08 L753.923 2069.08 L753.923 2069.08  Z
  " fill="#009af9" fill-rule="evenodd" fill-opacity="1"/>
<polyline clip-path="url(#clip862)" style="stroke:#000000; stroke-linecap:butt; stroke-linejoin:round; stroke-width:4; stroke-opacity:1; fill:none" points="
  753.923,2069.08 753.923,2116.51 864.436,2116.51 864.436,2069.08 753.923,2069.08 
  "/>
<path clip-path="url(#clip862)" d="
M864.436 2021.66 L864.436 2116.51 L974.949 2116.51 L974.949 2021.66 L864.436 2021.66 L864.436 2021.66  Z
  " fill="#009af9" fill-rule="evenodd" fill-opacity="1"/>
<polyline clip-path="url(#clip862)" style="stroke:#000000; stroke-linecap:butt; stroke-linejoin:round; stroke-width:4; stroke-opacity:1; fill:none" points="
  864.436,2021.66 864.436,2116.51 974.949,2116.51 974.949,2021.66 864.436,2021.66 
  "/>
<path clip-path="url(#clip862)" d="
M974.949 1831.95 L974.949 2116.51 L1085.46 2116.51 L1085.46 1831.95 L974.949 1831.95 L974.949 1831.95  Z
  " fill="#009af9" fill-rule="evenodd" fill-opacity="1"/>
<polyline clip-path="url(#clip862)" style="stroke:#000000; stroke-linecap:butt; stroke-linejoin:round; stroke-width:4; stroke-opacity:1; fill:none" points="
  974.949,1831.95 974.949,2116.51 1085.46,2116.51 1085.46,1831.95 974.949,1831.95 
  "/>
<path clip-path="url(#clip862)" d="
M1085.46 1689.67 L1085.46 2116.51 L1195.97 2116.51 L1195.97 1689.67 L1085.46 1689.67 L1085.46 1689.67  Z
  " fill="#009af9" fill-rule="evenodd" fill-opacity="1"/>
<polyline clip-path="url(#clip862)" style="stroke:#000000; stroke-linecap:butt; stroke-linejoin:round; stroke-width:4; stroke-opacity:1; fill:none" points="
  1085.46,1689.67 1085.46,2116.51 1195.97,2116.51 1195.97,1689.67 1085.46,1689.67 
  "/>
<path clip-path="url(#clip862)" d="
M1195.97 1405.11 L1195.97 2116.51 L1306.49 2116.51 L1306.49 1405.11 L1195.97 1405.11 L1195.97 1405.11  Z
  " fill="#009af9" fill-rule="evenodd" fill-opacity="1"/>
<polyline clip-path="url(#clip862)" style="stroke:#000000; stroke-linecap:butt; stroke-linejoin:round; stroke-width:4; stroke-opacity:1; fill:none" points="
  1195.97,1405.11 1195.97,2116.51 1306.49,2116.51 1306.49,1405.11 1195.97,1405.11 
  "/>
<path clip-path="url(#clip862)" d="
M1306.49 1073.12 L1306.49 2116.51 L1417 2116.51 L1417 1073.12 L1306.49 1073.12 L1306.49 1073.12  Z
  " fill="#009af9" fill-rule="evenodd" fill-opacity="1"/>
<polyline clip-path="url(#clip862)" style="stroke:#000000; stroke-linecap:butt; stroke-linejoin:round; stroke-width:4; stroke-opacity:1; fill:none" points="
  1306.49,1073.12 1306.49,2116.51 1417,2116.51 1417,1073.12 1306.49,1073.12 
  "/>
<path clip-path="url(#clip862)" d="
M1417 219.44 L1417 2116.51 L1527.51 2116.51 L1527.51 219.44 L1417 219.44 L1417 219.44  Z
  " fill="#009af9" fill-rule="evenodd" fill-opacity="1"/>
<polyline clip-path="url(#clip862)" style="stroke:#000000; stroke-linecap:butt; stroke-linejoin:round; stroke-width:4; stroke-opacity:1; fill:none" points="
  1417,219.44 1417,2116.51 1527.51,2116.51 1527.51,219.44 1417,219.44 
  "/>
<path clip-path="url(#clip862)" d="
M1527.51 361.721 L1527.51 2116.51 L1638.02 2116.51 L1638.02 361.721 L1527.51 361.721 L1527.51 361.721  Z
  " fill="#009af9" fill-rule="evenodd" fill-opacity="1"/>
<polyline clip-path="url(#clip862)" style="stroke:#000000; stroke-linecap:butt; stroke-linejoin:round; stroke-width:4; stroke-opacity:1; fill:none" points="
  1527.51,361.721 1527.51,2116.51 1638.02,2116.51 1638.02,361.721 1527.51,361.721 
  "/>
<path clip-path="url(#clip862)" d="
M1638.02 930.842 L1638.02 2116.51 L1748.54 2116.51 L1748.54 930.842 L1638.02 930.842 L1638.02 930.842  Z
  " fill="#009af9" fill-rule="evenodd" fill-opacity="1"/>
<polyline clip-path="url(#clip862)" style="stroke:#000000; stroke-linecap:butt; stroke-linejoin:round; stroke-width:4; stroke-opacity:1; fill:none" points="
  1638.02,930.842 1638.02,2116.51 1748.54,2116.51 1748.54,930.842 1638.02,930.842 
  "/>
<path clip-path="url(#clip862)" d="
M1748.54 1310.26 L1748.54 2116.51 L1859.05 2116.51 L1859.05 1310.26 L1748.54 1310.26 L1748.54 1310.26  Z
  " fill="#009af9" fill-rule="evenodd" fill-opacity="1"/>
<polyline clip-path="url(#clip862)" style="stroke:#000000; stroke-linecap:butt; stroke-linejoin:round; stroke-width:4; stroke-opacity:1; fill:none" points="
  1748.54,1310.26 1748.54,2116.51 1859.05,2116.51 1859.05,1310.26 1748.54,1310.26 
  "/>
<path clip-path="url(#clip862)" d="
M1859.05 1784.52 L1859.05 2116.51 L1969.56 2116.51 L1969.56 1784.52 L1859.05 1784.52 L1859.05 1784.52  Z
  " fill="#009af9" fill-rule="evenodd" fill-opacity="1"/>
<polyline clip-path="url(#clip862)" style="stroke:#000000; stroke-linecap:butt; stroke-linejoin:round; stroke-width:4; stroke-opacity:1; fill:none" points="
  1859.05,1784.52 1859.05,2116.51 1969.56,2116.51 1969.56,1784.52 1859.05,1784.52 
  "/>
<path clip-path="url(#clip862)" d="
M1969.56 1831.95 L1969.56 2116.51 L2080.08 2116.51 L2080.08 1831.95 L1969.56 1831.95 L1969.56 1831.95  Z
  " fill="#009af9" fill-rule="evenodd" fill-opacity="1"/>
<polyline clip-path="url(#clip862)" style="stroke:#000000; stroke-linecap:butt; stroke-linejoin:round; stroke-width:4; stroke-opacity:1; fill:none" points="
  1969.56,1831.95 1969.56,2116.51 2080.08,2116.51 2080.08,1831.95 1969.56,1831.95 
  "/>
<path clip-path="url(#clip862)" d="
M2080.08 2021.66 L2080.08 2116.51 L2190.59 2116.51 L2190.59 2021.66 L2080.08 2021.66 L2080.08 2021.66  Z
  " fill="#009af9" fill-rule="evenodd" fill-opacity="1"/>
<polyline clip-path="url(#clip862)" style="stroke:#000000; stroke-linecap:butt; stroke-linejoin:round; stroke-width:4; stroke-opacity:1; fill:none" points="
  2080.08,2021.66 2080.08,2116.51 2190.59,2116.51 2190.59,2021.66 2080.08,2021.66 
  "/>
<path clip-path="url(#clip862)" d="
M2190.59 2069.08 L2190.59 2116.51 L2301.1 2116.51 L2301.1 2069.08 L2190.59 2069.08 L2190.59 2069.08  Z
  " fill="#009af9" fill-rule="evenodd" fill-opacity="1"/>
<polyline clip-path="url(#clip862)" style="stroke:#000000; stroke-linecap:butt; stroke-linejoin:round; stroke-width:4; stroke-opacity:1; fill:none" points="
  2190.59,2069.08 2190.59,2116.51 2301.1,2116.51 2301.1,2069.08 2190.59,2069.08 
  "/>
<path clip-path="url(#clip862)" d="
M2301.1 2116.51 L2301.1 2116.51 L2411.61 2116.51 L2411.61 2116.51 L2301.1 2116.51 L2301.1 2116.51  Z
  " fill="#009af9" fill-rule="evenodd" fill-opacity="1"/>
<polyline clip-path="url(#clip862)" style="stroke:#000000; stroke-linecap:butt; stroke-linejoin:round; stroke-width:4; stroke-opacity:1; fill:none" points="
  2301.1,2116.51 2301.1,2116.51 2411.61,2116.51 2301.1,2116.51 
  "/>
<path clip-path="url(#clip862)" d="
M2411.61 2069.08 L2411.61 2116.51 L2522.13 2116.51 L2522.13 2069.08 L2411.61 2069.08 L2411.61 2069.08  Z
  " fill="#009af9" fill-rule="evenodd" fill-opacity="1"/>
<polyline clip-path="url(#clip862)" style="stroke:#000000; stroke-linecap:butt; stroke-linejoin:round; stroke-width:4; stroke-opacity:1; fill:none" points="
  2411.61,2069.08 2411.61,2116.51 2522.13,2116.51 2522.13,2069.08 2411.61,2069.08 
  "/>
<path clip-path="url(#clip862)" d="
M2522.13 2116.51 L2522.13 2116.51 L2632.64 2116.51 L2632.64 2116.51 L2522.13 2116.51 L2522.13 2116.51  Z
  " fill="#009af9" fill-rule="evenodd" fill-opacity="1"/>
<polyline clip-path="url(#clip862)" style="stroke:#000000; stroke-linecap:butt; stroke-linejoin:round; stroke-width:4; stroke-opacity:1; fill:none" points="
  2522.13,2116.51 2522.13,2116.51 2632.64,2116.51 2522.13,2116.51 
  "/>
<path clip-path="url(#clip862)" d="
M2632.64 2116.51 L2632.64 2116.51 L2743.15 2116.51 L2743.15 2116.51 L2632.64 2116.51 L2632.64 2116.51  Z
  " fill="#009af9" fill-rule="evenodd" fill-opacity="1"/>
<polyline clip-path="url(#clip862)" style="stroke:#000000; stroke-linecap:butt; stroke-linejoin:round; stroke-width:4; stroke-opacity:1; fill:none" points="
  2632.64,2116.51 2632.64,2116.51 2743.15,2116.51 2632.64,2116.51 
  "/>
<path clip-path="url(#clip862)" d="
M2743.15 2069.08 L2743.15 2116.51 L2853.66 2116.51 L2853.66 2069.08 L2743.15 2069.08 L2743.15 2069.08  Z
  " fill="#009af9" fill-rule="evenodd" fill-opacity="1"/>
<polyline clip-path="url(#clip862)" style="stroke:#000000; stroke-linecap:butt; stroke-linejoin:round; stroke-width:4; stroke-opacity:1; fill:none" points="
  2743.15,2069.08 2743.15,2116.51 2853.66,2116.51 2853.66,2069.08 2743.15,2069.08 
  "/>
<path clip-path="url(#clip862)" d="
M2853.66 2069.08 L2853.66 2116.51 L2964.18 2116.51 L2964.18 2069.08 L2853.66 2069.08 L2853.66 2069.08  Z
  " fill="#009af9" fill-rule="evenodd" fill-opacity="1"/>
<polyline clip-path="url(#clip862)" style="stroke:#000000; stroke-linecap:butt; stroke-linejoin:round; stroke-width:4; stroke-opacity:1; fill:none" points="
  2853.66,2069.08 2853.66,2116.51 2964.18,2116.51 2964.18,2069.08 2853.66,2069.08 
  "/>
<circle clip-path="url(#clip862)" style="fill:#009af9; stroke:none; fill-opacity:0" cx="477.641" cy="2069.08" r="2"/>
<circle clip-path="url(#clip862)" style="fill:#009af9; stroke:none; fill-opacity:0" cx="588.154" cy="2069.08" r="2"/>
<circle clip-path="url(#clip862)" style="fill:#009af9; stroke:none; fill-opacity:0" cx="698.667" cy="2116.51" r="2"/>
<circle clip-path="url(#clip862)" style="fill:#009af9; stroke:none; fill-opacity:0" cx="809.18" cy="2069.08" r="2"/>
<circle clip-path="url(#clip862)" style="fill:#009af9; stroke:none; fill-opacity:0" cx="919.692" cy="2021.66" r="2"/>
<circle clip-path="url(#clip862)" style="fill:#009af9; stroke:none; fill-opacity:0" cx="1030.2" cy="1831.95" r="2"/>
<circle clip-path="url(#clip862)" style="fill:#009af9; stroke:none; fill-opacity:0" cx="1140.72" cy="1689.67" r="2"/>
<circle clip-path="url(#clip862)" style="fill:#009af9; stroke:none; fill-opacity:0" cx="1251.23" cy="1405.11" r="2"/>
<circle clip-path="url(#clip862)" style="fill:#009af9; stroke:none; fill-opacity:0" cx="1361.74" cy="1073.12" r="2"/>
<circle clip-path="url(#clip862)" style="fill:#009af9; stroke:none; fill-opacity:0" cx="1472.26" cy="219.44" r="2"/>
<circle clip-path="url(#clip862)" style="fill:#009af9; stroke:none; fill-opacity:0" cx="1582.77" cy="361.721" r="2"/>
<circle clip-path="url(#clip862)" style="fill:#009af9; stroke:none; fill-opacity:0" cx="1693.28" cy="930.842" r="2"/>
<circle clip-path="url(#clip862)" style="fill:#009af9; stroke:none; fill-opacity:0" cx="1803.79" cy="1310.26" r="2"/>
<circle clip-path="url(#clip862)" style="fill:#009af9; stroke:none; fill-opacity:0" cx="1914.31" cy="1784.52" r="2"/>
<circle clip-path="url(#clip862)" style="fill:#009af9; stroke:none; fill-opacity:0" cx="2024.82" cy="1831.95" r="2"/>
<circle clip-path="url(#clip862)" style="fill:#009af9; stroke:none; fill-opacity:0" cx="2135.33" cy="2021.66" r="2"/>
<circle clip-path="url(#clip862)" style="fill:#009af9; stroke:none; fill-opacity:0" cx="2245.84" cy="2069.08" r="2"/>
<circle clip-path="url(#clip862)" style="fill:#009af9; stroke:none; fill-opacity:0" cx="2356.36" cy="2116.51" r="2"/>
<circle clip-path="url(#clip862)" style="fill:#009af9; stroke:none; fill-opacity:0" cx="2466.87" cy="2069.08" r="2"/>
<circle clip-path="url(#clip862)" style="fill:#009af9; stroke:none; fill-opacity:0" cx="2577.38" cy="2116.51" r="2"/>
<circle clip-path="url(#clip862)" style="fill:#009af9; stroke:none; fill-opacity:0" cx="2687.9" cy="2116.51" r="2"/>
<circle clip-path="url(#clip862)" style="fill:#009af9; stroke:none; fill-opacity:0" cx="2798.41" cy="2069.08" r="2"/>
<circle clip-path="url(#clip862)" style="fill:#009af9; stroke:none; fill-opacity:0" cx="2908.92" cy="2069.08" r="2"/>
<polyline clip-path="url(#clip862)" style="stroke:#000000; stroke-linecap:butt; stroke-linejoin:round; stroke-width:12; stroke-opacity:0.7; fill:none" stroke-dasharray="48, 30" points="
  395.674,2115.19 403.096,2115.07 410.519,2114.93 479.153,2113.01 547.787,2109.13 589.033,2105.22 630.28,2099.55 665.153,2092.94 700.026,2084.16 718.967,2078.29 
  737.908,2071.54 756.849,2063.79 775.79,2054.95 793.252,2045.73 810.714,2035.39 828.176,2023.84 845.638,2010.99 864.359,1995.67 883.08,1978.63 901.801,1959.78 
  920.522,1939.01 942.212,1912.44 963.902,1883.06 985.592,1850.79 1007.28,1815.57 1026.56,1781.77 1045.83,1745.65 1065.11,1707.26 1084.39,1666.67 1101.29,1629.37 
  1118.19,1590.57 1135.09,1550.41 1152,1509.03 1188.85,1415.44 1225.71,1319.05 1262.79,1221.84 1299.87,1127.37 1310.11,1102.16 1320.36,1077.47 1330.61,1053.36 
  1340.86,1029.92 1351.11,1007.19 1361.36,985.257 1371.6,964.178 1381.85,944.017 1391.6,925.742 1401.35,908.406 1411.1,892.057 1420.86,876.742 1430.61,862.504 
  1440.36,849.385 1450.11,837.424 1459.86,826.656 1470,816.758 1480.14,808.217 1490.28,801.058 1500.41,795.307 1510.55,790.981 1520.69,788.094 1530.83,786.657 
  1540.97,786.673 1549.5,787.814 1558.04,789.982 1566.57,793.173 1575.11,797.379 1583.64,802.591 1592.18,808.796 1600.71,815.98 1609.25,824.126 1619.67,835.35 
  1630.09,847.942 1640.51,861.861 1650.93,877.061 1661.35,893.489 1671.77,911.094 1682.19,929.816 1692.61,949.597 1711.7,988.373 1730.79,1030.08 1740.33,1051.9 
  1749.88,1074.3 1759.42,1097.21 1768.97,1120.58 1804.23,1210.03 1839.49,1302.3 1875.21,1395.97 1910.93,1487.47 1930.95,1537.01 1950.97,1584.92 1970.98,1630.94 
  1991,1674.87 2009.14,1712.72 2027.28,1748.62 2045.41,1782.5 2063.55,1814.32 2084.32,1848.2 2105.08,1879.37 2125.85,1907.88 2146.62,1933.8 2165.85,1955.58 
  2185.07,1975.33 2204.3,1993.13 2223.53,2009.12 2242.49,2023.21 2261.44,2035.76 2280.4,2046.89 2299.36,2056.71 2317.76,2065.11 2336.17,2072.49 2354.57,2078.94 
  2372.98,2084.57 2410.71,2093.86 2448.45,2100.69 2489.79,2106.02 2531.14,2109.68 2591.2,2112.96 2651.26,2114.74 2663.58,2114.98 2675.9,2115.19 
  "/>
<path clip-path="url(#clip860)" d="
M2069.73 333.238 L3026.06 333.238 L3026.06 229.558 L2069.73 229.558  Z
  " fill="#ffffff" fill-rule="evenodd" fill-opacity="1"/>
<polyline clip-path="url(#clip860)" style="stroke:#000000; stroke-linecap:butt; stroke-linejoin:round; stroke-width:4; stroke-opacity:1; fill:none" points="
  2069.73,333.238 3026.06,333.238 3026.06,229.558 2069.73,229.558 2069.73,333.238 
  "/>
<polyline clip-path="url(#clip860)" style="stroke:#000000; stroke-linecap:butt; stroke-linejoin:round; stroke-width:4; stroke-opacity:0.7; fill:none" stroke-dasharray="16, 10" points="
  2101.46,281.398 2291.86,281.398 
  "/>
<path clip-path="url(#clip860)" d="M2323.59 264.118 L2329.89 264.118 L2345.21 293.03 L2345.21 264.118 L2349.75 264.118 L2349.75 298.678 L2343.46 298.678 L2328.13 269.766 L2328.13 298.678 L2323.59 298.678 L2323.59 264.118 Z" fill="#000000" fill-rule="evenodd" fill-opacity="1" /><path clip-path="url(#clip860)" d="M2368.92 275.738 Q2365.49 275.738 2363.5 278.424 Q2361.51 281.086 2361.51 285.738 Q2361.51 290.391 2363.48 293.076 Q2365.47 295.738 2368.92 295.738 Q2372.32 295.738 2374.31 293.053 Q2376.3 290.368 2376.3 285.738 Q2376.3 281.132 2374.31 278.447 Q2372.32 275.738 2368.92 275.738 M2368.92 272.127 Q2374.47 272.127 2377.64 275.738 Q2380.82 279.349 2380.82 285.738 Q2380.82 292.104 2377.64 295.738 Q2374.47 299.349 2368.92 299.349 Q2363.34 299.349 2360.17 295.738 Q2357.02 292.104 2357.02 285.738 Q2357.02 279.349 2360.17 275.738 Q2363.34 272.127 2368.92 272.127 Z" fill="#000000" fill-rule="evenodd" fill-opacity="1" /><path clip-path="url(#clip860)" d="M2402.9 276.734 Q2402.18 276.317 2401.33 276.132 Q2400.49 275.924 2399.47 275.924 Q2395.86 275.924 2393.92 278.285 Q2392 280.623 2392 285.021 L2392 298.678 L2387.71 298.678 L2387.71 272.752 L2392 272.752 L2392 276.78 Q2393.34 274.419 2395.49 273.285 Q2397.64 272.127 2400.72 272.127 Q2401.16 272.127 2401.7 272.197 Q2402.23 272.243 2402.88 272.359 L2402.9 276.734 Z" fill="#000000" fill-rule="evenodd" fill-opacity="1" /><path clip-path="url(#clip860)" d="M2426.72 277.729 Q2428.32 274.859 2430.54 273.493 Q2432.76 272.127 2435.77 272.127 Q2439.82 272.127 2442.02 274.974 Q2444.22 277.799 2444.22 283.03 L2444.22 298.678 L2439.94 298.678 L2439.94 283.169 Q2439.94 279.442 2438.62 277.636 Q2437.3 275.831 2434.59 275.831 Q2431.28 275.831 2429.36 278.03 Q2427.44 280.229 2427.44 284.025 L2427.44 298.678 L2423.15 298.678 L2423.15 283.169 Q2423.15 279.419 2421.83 277.636 Q2420.52 275.831 2417.76 275.831 Q2414.5 275.831 2412.58 278.053 Q2410.65 280.252 2410.65 284.025 L2410.65 298.678 L2406.37 298.678 L2406.37 272.752 L2410.65 272.752 L2410.65 276.78 Q2412.11 274.396 2414.15 273.262 Q2416.19 272.127 2418.99 272.127 Q2421.81 272.127 2423.78 273.562 Q2425.77 274.998 2426.72 277.729 Z" fill="#000000" fill-rule="evenodd" fill-opacity="1" /><path clip-path="url(#clip860)" d="M2464.5 285.646 Q2459.33 285.646 2457.34 286.826 Q2455.35 288.007 2455.35 290.854 Q2455.35 293.123 2456.83 294.465 Q2458.34 295.785 2460.91 295.785 Q2464.45 295.785 2466.58 293.285 Q2468.73 290.761 2468.73 286.595 L2468.73 285.646 L2464.5 285.646 M2472.99 283.886 L2472.99 298.678 L2468.73 298.678 L2468.73 294.743 Q2467.27 297.104 2465.1 298.238 Q2462.92 299.349 2459.77 299.349 Q2455.79 299.349 2453.43 297.127 Q2451.09 294.882 2451.09 291.132 Q2451.09 286.757 2454.01 284.535 Q2456.95 282.312 2462.76 282.312 L2468.73 282.312 L2468.73 281.896 Q2468.73 278.956 2466.79 277.359 Q2464.87 275.738 2461.37 275.738 Q2459.15 275.738 2457.04 276.271 Q2454.94 276.803 2452.99 277.868 L2452.99 273.933 Q2455.33 273.03 2457.53 272.59 Q2459.73 272.127 2461.81 272.127 Q2467.44 272.127 2470.21 275.044 Q2472.99 277.961 2472.99 283.886 Z" fill="#000000" fill-rule="evenodd" fill-opacity="1" /><path clip-path="url(#clip860)" d="M2481.76 262.66 L2486.02 262.66 L2486.02 298.678 L2481.76 298.678 L2481.76 262.66 Z" fill="#000000" fill-rule="evenodd" fill-opacity="1" /><path clip-path="url(#clip860)" d="M2523.13 262.66 L2523.13 266.201 L2519.06 266.201 Q2516.76 266.201 2515.86 267.127 Q2514.98 268.053 2514.98 270.461 L2514.98 272.752 L2522 272.752 L2522 276.062 L2514.98 276.062 L2514.98 298.678 L2510.7 298.678 L2510.7 276.062 L2506.63 276.062 L2506.63 272.752 L2510.7 272.752 L2510.7 270.947 Q2510.7 266.618 2512.71 264.65 Q2514.73 262.66 2519.1 262.66 L2523.13 262.66 Z" fill="#000000" fill-rule="evenodd" fill-opacity="1" /><path clip-path="url(#clip860)" d="M2526.7 272.752 L2530.95 272.752 L2530.95 298.678 L2526.7 298.678 L2526.7 272.752 M2526.7 262.66 L2530.95 262.66 L2530.95 268.053 L2526.7 268.053 L2526.7 262.66 Z" fill="#000000" fill-rule="evenodd" fill-opacity="1" /><path clip-path="url(#clip860)" d="M2544.08 265.391 L2544.08 272.752 L2552.85 272.752 L2552.85 276.062 L2544.08 276.062 L2544.08 290.136 Q2544.08 293.308 2544.94 294.21 Q2545.82 295.113 2548.48 295.113 L2552.85 295.113 L2552.85 298.678 L2548.48 298.678 Q2543.55 298.678 2541.67 296.849 Q2539.8 294.998 2539.8 290.136 L2539.8 276.062 L2536.67 276.062 L2536.67 272.752 L2539.8 272.752 L2539.8 265.391 L2544.08 265.391 Z" fill="#000000" fill-rule="evenodd" fill-opacity="1" /><path clip-path="url(#clip860)" d="M2559.54 292.798 L2564.43 292.798 L2564.43 298.678 L2559.54 298.678 L2559.54 292.798 M2559.54 274.164 L2564.43 274.164 L2564.43 280.044 L2559.54 280.044 L2559.54 274.164 Z" fill="#000000" fill-rule="evenodd" fill-opacity="1" /><path clip-path="url(#clip860)" d="M2589.06 308.539 L2589.06 272.752 L2593.32 272.752 L2593.32 288.863 Q2593.32 292.22 2594.91 293.933 Q2596.51 295.646 2599.63 295.646 Q2603.06 295.646 2604.77 293.701 Q2606.51 291.757 2606.51 287.868 L2606.51 272.752 L2610.77 272.752 L2610.77 292.706 Q2610.77 294.095 2611.16 294.766 Q2611.58 295.414 2612.44 295.414 Q2612.64 295.414 2613.01 295.298 Q2613.38 295.16 2614.03 294.882 L2614.03 298.308 Q2613.08 298.84 2612.23 299.095 Q2611.39 299.349 2610.58 299.349 Q2608.99 299.349 2608.04 298.447 Q2607.09 297.544 2606.74 295.692 Q2605.58 297.521 2603.89 298.447 Q2602.23 299.349 2599.96 299.349 Q2597.6 299.349 2595.93 298.447 Q2594.29 297.544 2593.32 295.738 L2593.32 308.539 L2589.06 308.539 Z" fill="#000000" fill-rule="evenodd" fill-opacity="1" /><path clip-path="url(#clip860)" d="M2620.21 277.15 L2649.89 277.15 L2649.89 281.039 L2620.21 281.039 L2620.21 277.15 M2620.21 286.595 L2649.89 286.595 L2649.89 290.53 L2620.21 290.53 L2620.21 286.595 Z" fill="#000000" fill-rule="evenodd" fill-opacity="1" /><path clip-path="url(#clip860)" d="M2669.98 267.197 Q2666.37 267.197 2664.54 270.762 Q2662.74 274.303 2662.74 281.433 Q2662.74 288.539 2664.54 292.104 Q2666.37 295.646 2669.98 295.646 Q2673.62 295.646 2675.42 292.104 Q2677.25 288.539 2677.25 281.433 Q2677.25 274.303 2675.42 270.762 Q2673.62 267.197 2669.98 267.197 M2669.98 263.493 Q2675.79 263.493 2678.85 268.1 Q2681.93 272.683 2681.93 281.433 Q2681.93 290.16 2678.85 294.766 Q2675.79 299.349 2669.98 299.349 Q2664.17 299.349 2661.09 294.766 Q2658.04 290.16 2658.04 281.433 Q2658.04 272.683 2661.09 268.1 Q2664.17 263.493 2669.98 263.493 Z" fill="#000000" fill-rule="evenodd" fill-opacity="1" /><path clip-path="url(#clip860)" d="M2690.14 292.798 L2695.03 292.798 L2695.03 298.678 L2690.14 298.678 L2690.14 292.798 Z" fill="#000000" fill-rule="evenodd" fill-opacity="1" /><path clip-path="url(#clip860)" d="M2715.21 267.197 Q2711.6 267.197 2709.77 270.762 Q2707.97 274.303 2707.97 281.433 Q2707.97 288.539 2709.77 292.104 Q2711.6 295.646 2715.21 295.646 Q2718.85 295.646 2720.65 292.104 Q2722.48 288.539 2722.48 281.433 Q2722.48 274.303 2720.65 270.762 Q2718.85 267.197 2715.21 267.197 M2715.21 263.493 Q2721.02 263.493 2724.08 268.1 Q2727.16 272.683 2727.16 281.433 Q2727.16 290.16 2724.08 294.766 Q2721.02 299.349 2715.21 299.349 Q2709.4 299.349 2706.32 294.766 Q2703.27 290.16 2703.27 281.433 Q2703.27 272.683 2706.32 268.1 Q2709.4 263.493 2715.21 263.493 Z" fill="#000000" fill-rule="evenodd" fill-opacity="1" /><path clip-path="url(#clip860)" d="M2748.22 268.192 L2736.42 286.641 L2748.22 286.641 L2748.22 268.192 M2746.99 264.118 L2752.87 264.118 L2752.87 286.641 L2757.8 286.641 L2757.8 290.53 L2752.87 290.53 L2752.87 298.678 L2748.22 298.678 L2748.22 290.53 L2732.62 290.53 L2732.62 286.016 L2746.99 264.118 Z" fill="#000000" fill-rule="evenodd" fill-opacity="1" /><path clip-path="url(#clip860)" d="M2766.02 292.798 L2770.91 292.798 L2770.91 296.78 L2767.11 304.187 L2764.12 304.187 L2766.02 296.78 L2766.02 292.798 Z" fill="#000000" fill-rule="evenodd" fill-opacity="1" /><path clip-path="url(#clip860)" d="M2805.12 276.132 Q2801.6 276.132 2799.7 278.678 Q2797.71 281.34 2797.71 285.738 Q2797.71 290.391 2799.68 293.076 Q2801.67 295.738 2805.12 295.738 Q2808.52 295.738 2810.51 293.053 Q2812.5 290.368 2812.5 285.738 Q2812.5 281.502 2810.51 278.678 Q2808.68 276.132 2805.12 276.132 M2805.12 272.752 L2819.26 272.752 L2819.26 277.011 L2814.49 277.011 Q2817.02 280.623 2817.02 285.738 Q2817.02 292.104 2813.85 295.715 Q2810.68 299.349 2805.12 299.349 Q2799.54 299.349 2796.39 295.715 Q2793.22 292.104 2793.22 285.738 Q2793.22 279.326 2796.39 275.738 Q2799.01 272.752 2805.12 272.752 Z" fill="#000000" fill-rule="evenodd" fill-opacity="1" /><path clip-path="url(#clip860)" d="M2825.67 277.15 L2855.35 277.15 L2855.35 281.039 L2825.67 281.039 L2825.67 277.15 M2825.67 286.595 L2855.35 286.595 L2855.35 290.53 L2825.67 290.53 L2825.67 286.595 Z" fill="#000000" fill-rule="evenodd" fill-opacity="1" /><path clip-path="url(#clip860)" d="M2866.25 294.743 L2873.89 294.743 L2873.89 268.377 L2865.58 270.044 L2865.58 265.785 L2873.85 264.118 L2878.52 264.118 L2878.52 294.743 L2886.16 294.743 L2886.16 298.678 L2866.25 298.678 L2866.25 294.743 Z" fill="#000000" fill-rule="evenodd" fill-opacity="1" /><path clip-path="url(#clip860)" d="M2895.61 292.798 L2900.49 292.798 L2900.49 298.678 L2895.61 298.678 L2895.61 292.798 Z" fill="#000000" fill-rule="evenodd" fill-opacity="1" /><path clip-path="url(#clip860)" d="M2924.84 280.044 Q2928.2 280.761 2930.07 283.03 Q2931.97 285.298 2931.97 288.632 Q2931.97 293.748 2928.45 296.548 Q2924.93 299.349 2918.45 299.349 Q2916.28 299.349 2913.96 298.91 Q2911.67 298.493 2909.22 297.636 L2909.22 293.123 Q2911.16 294.257 2913.48 294.835 Q2915.79 295.414 2918.31 295.414 Q2922.71 295.414 2925 293.678 Q2927.32 291.942 2927.32 288.632 Q2927.32 285.576 2925.17 283.863 Q2923.04 282.127 2919.22 282.127 L2915.19 282.127 L2915.19 278.285 L2919.4 278.285 Q2922.85 278.285 2924.68 276.919 Q2926.51 275.53 2926.51 272.937 Q2926.51 270.275 2924.61 268.863 Q2922.73 267.428 2919.22 267.428 Q2917.29 267.428 2915.1 267.845 Q2912.9 268.262 2910.26 269.141 L2910.26 264.975 Q2912.92 264.234 2915.23 263.863 Q2917.57 263.493 2919.63 263.493 Q2924.96 263.493 2928.06 265.924 Q2931.16 268.331 2931.16 272.451 Q2931.16 275.322 2929.52 277.312 Q2927.87 279.28 2924.84 280.044 Z" fill="#000000" fill-rule="evenodd" fill-opacity="1" /><path clip-path="url(#clip860)" d="M2940.98 297.96 L2940.98 293.701 Q2942.73 294.535 2944.54 294.974 Q2946.35 295.414 2948.08 295.414 Q2952.71 295.414 2955.14 292.312 Q2957.6 289.187 2957.94 282.845 Q2956.6 284.836 2954.54 285.9 Q2952.48 286.965 2949.98 286.965 Q2944.79 286.965 2941.76 283.84 Q2938.75 280.692 2938.75 275.252 Q2938.75 269.928 2941.9 266.711 Q2945.05 263.493 2950.28 263.493 Q2956.28 263.493 2959.42 268.1 Q2962.6 272.683 2962.6 281.433 Q2962.6 289.604 2958.71 294.488 Q2954.84 299.349 2948.29 299.349 Q2946.53 299.349 2944.73 299.002 Q2942.92 298.655 2940.98 297.96 M2950.28 283.308 Q2953.43 283.308 2955.26 281.155 Q2957.11 279.002 2957.11 275.252 Q2957.11 271.525 2955.26 269.373 Q2953.43 267.197 2950.28 267.197 Q2947.13 267.197 2945.28 269.373 Q2943.45 271.525 2943.45 275.252 Q2943.45 279.002 2945.28 281.155 Q2947.13 283.308 2950.28 283.308 Z" fill="#000000" fill-rule="evenodd" fill-opacity="1" /></svg>
